<svg xmlns="http://www.w3.org/2000/svg" xmlns:xlink="http://www.w3.org/1999/xlink" width="156" height="156" viewBox="0 0 156 156">
  <defs>
    <clipPath id="clip-path">
      <rect id="Rect치ngulo_455504" data-name="Rect치ngulo 455504" width="79.824" height="82.338" fill="#12263f"/>
    </clipPath>
  </defs>
  <g id="Grupo_1176598" data-name="Grupo 1176598" transform="translate(-1234.554 -458.054)">
    <g id="Elipse_12108" data-name="Elipse 12108" transform="translate(1241.554 465.054)" fill="#30df8e" stroke="rgba(255,255,255,0.4)" stroke-width="7">
      <circle cx="71" cy="71" r="71" stroke="none"/>
      <circle cx="71" cy="71" r="74.5" fill="none"/>
    </g>
    <g id="Grupo_1183830" data-name="Grupo 1183830" transform="translate(1272.641 494.885)">
      <g id="Grupo_1183829" data-name="Grupo 1183829" clip-path="url(#clip-path)">
        <path id="Trazado_998556" data-name="Trazado 998556" d="M18.061,37.233c-1.354-1.155-3.19-1.843-3.869-3.647l-.138-13.659L.915,15.357C-1.24,13.49.873,12.939,2.51,12.314,14.3,7.809,26.565,4.407,38.4,0c12.051,4.163,24.478,7.736,36.4,12.314,1.222.469,3.046.714,2.256,2.471-.253.564-1.091.566-1.14.749.257,2.65-.311,5.817.03,8.4.4,3.018,3.223,7.286,3.8,10.406.49,2.644-1.278,4.1-3.719,4.331-2.844.27-6.9-.2-6.467-3.993.329-2.881,3.139-7.523,3.9-10.521V16.436l-10.2,3.492-.138,13.659c-.679,1.8-2.515,2.492-3.869,3.647h6.383V36c-.257-.047-1.17.069-1.238,0-.1-.094.072-2.264,0-2.679,1.208.056,3.519-.4,3.869,1.178a17.25,17.25,0,0,1-.111,4.537c-.55,1.287-2.392.745-2.523.875-.179.177.139,4.35,0,5.031,3.125-.1,2.738,1.266,2.68,3.825h3.809a1.762,1.762,0,0,1,1.294,1.177c.178.8.163,4.186-.269,4.79-.7.977-2.241.5-2.364.621-.183.182.14,4.457,0,5.15.986,0,2.352-.248,2.634.97a24.7,24.7,0,0,1,.04,4.276,3.066,3.066,0,0,1-.922,1.137H68.3c.095,2.291.332,4.315-2.678,3.911.139.693-.182,4.968,0,5.15.143.143,1.885-.364,2.451.535a12.82,12.82,0,0,1,.031,5.137,2.476,2.476,0,0,1-.773.668l-54.741.052C1.52,81.567.925,66.15,11.677,64.412,9.25,61.53,8.238,57.953,9.722,54.325l1.955-3.088c-6.9-.751-10.125-8.931-5.85-14.4a9.777,9.777,0,0,1,7.084-3.518V36c-5.956-.012-8.823,7.849-3.979,11.5a11.718,11.718,0,0,0,2.436,1.271H65.627V47.529H13.016a12.348,12.348,0,0,1-1.274-.58,5.155,5.155,0,0,1-.34-8.859,16.843,16.843,0,0,1,2.026-.857ZM71.8,13.967,38.738,2.651,5.5,13.967l.5.419C16.949,18,27.747,22.07,38.749,25.506c9.684-3.285,19.4-6.484,29.045-9.89,1.066-.377,2.544-.79,3.507-1.229.2-.093.482-.137.5-.419m-11.325,7-.673.047c-5.345,1.834-10.648,3.838-16.014,5.608-1.712.565-4.273,1.769-5.974,1.458L17.5,21.013l-.673-.047V33.012a9.915,9.915,0,0,0,1.46,1.217c7.535,5.321,26.131,5.148,34.732,2.647a18.249,18.249,0,0,0,7.462-3.863Zm14.412,7.413c-.527-.082-.32.046-.43.289a44.548,44.548,0,0,0-2.2,6.045c-.071.508-.085,1.066.515,1.243.658.194,4.126.265,4.352-.518.367-1.272-2.172-5.472-2.234-7.059M63.156,39.91c-3.782.219-7.887-.3-11.631,0-5.617.45-10.136,1.5-16.073,1.241-3.373-.147-6.662-1.019-9.868-1.252-3.852-.28-8.048.213-11.938.021a2.576,2.576,0,0,0-.806,4.692,9.5,9.5,0,0,0,1,.443H63.156Zm7.619,11.531H17.134a9.228,9.228,0,0,0-2.991,1.333,6.424,6.424,0,0,0,2.983,11.442l28.837-.009c.936.173.369,1.924.514,2.677H11.986a11.5,11.5,0,0,0-2.643,1.064,6.5,6.5,0,0,0-.411,10.432,11.717,11.717,0,0,0,2.436,1.271H65.627V78.417H13.016a12.347,12.347,0,0,1-1.274-.58,5.155,5.155,0,0,1-.34-8.859,16.844,16.844,0,0,1,2.026-.857h52.2V66.885H61.715c.051-.464-.2-2.677.309-2.677h8.751V62.973h-9.06V60.5H68.3V55.354H18.576a3.643,3.643,0,0,0-1.307.958,2.656,2.656,0,0,0,.721,3.747,9.5,9.5,0,0,0,1,.443H41.329v2.471H18.164a12.346,12.346,0,0,1-1.274-.58,5.155,5.155,0,0,1-.34-8.859,16.844,16.844,0,0,1,2.026-.857h52.2ZM63.156,70.8H13.428a3.643,3.643,0,0,0-1.307.958,2.656,2.656,0,0,0,.721,3.747,9.5,9.5,0,0,0,1,.443H63.156Z" transform="translate(0)" fill="#12263f"/>
        <path id="Trazado_998557" data-name="Trazado 998557" d="M232.079,274.227a74.144,74.144,0,0,1,10.462-.049c.758.087,1.238.329,1.344,1.127a55.533,55.533,0,0,1,0,8.051c-.47,3.5-5.592-2.475-6.459-2.345-1.142.54-4.107,3.534-5.17,3.466a1.221,1.221,0,0,1-1.158-1.121,55.562,55.562,0,0,1,0-8.051,1.14,1.14,0,0,1,.981-1.078m9.325,2.633H233.58v3.706c1.254-.457,2.714-2.541,4.011-2.485,1.2.052,2.625,2.059,3.814,2.485Z" transform="translate(-183.396 -217.593)" fill="#12263f"/>
        <rect id="Rect치ngulo_455503" data-name="Rect치ngulo 455503" width="2.679" height="2.473" transform="translate(43.8 60.501)" fill="#12263f"/>
      </g>
    </g>
  </g>
</svg>
