<svg xmlns="http://www.w3.org/2000/svg" xmlns:xlink="http://www.w3.org/1999/xlink" width="80" height="80" viewBox="0 0 80 80">
  <defs>
    <clipPath id="clip-path">
      <rect id="Rect치ngulo_455099" data-name="Rect치ngulo 455099" width="56.107" height="51.004" fill="#12263f"/>
    </clipPath>
  </defs>
  <g id="Grupo_1183527" data-name="Grupo 1183527" transform="translate(-704.52 -3293.691)">
    <g id="Grupo_1183033" data-name="Grupo 1183033" transform="translate(524.852 -2227.309)">
      <rect id="Rect치ngulo_402006" data-name="Rect치ngulo 402006" width="80" height="80" rx="5" transform="translate(179.668 5521)" fill="#fa9757"/>
    </g>
    <g id="Grupo_1183147" data-name="Grupo 1183147" transform="translate(716.466 3308.189)">
      <g id="Grupo_1183146" data-name="Grupo 1183146" clip-path="url(#clip-path)">
        <path id="Trazado_997245" data-name="Trazado 997245" d="M42.949,33.2c-1.418,6.544-7.493,11.077-13.655,12.857a28.472,28.472,0,0,1-15.035.087L5.616,50.856c-.871.336-1.612.128-1.679-.882l1.977-8.051c-4.463-3.639-6.953-9.047-5.5-14.832,1.121-4.458,4.752-8.177,8.7-10.336.6-.33,3.567-1.5,3.7-1.652.165-.2.658-2.692.906-3.342C17.976.632,33.812-2.222,43.93,1.615,54.366,5.573,60.625,16.89,52.154,26.279c-.629.7-1.457,1.261-1.973,1.972.284,2.466,1.557,5.186,1.852,7.585.122.991-.126,1.554-1.22,1.386-2.2-1.052-4.272-2.378-6.446-3.475-.235-.118-1.249-.695-1.418-.548m6.605,1.1-1.547-6.65c.1-.541,2.332-2.306,2.888-2.946,6.377-7.344,2.54-16.137-5.292-20.2-10.286-5.336-27.356-2.6-30.661,9.971C26.507,11.4,43.122,17.153,43.3,30.965ZM6.447,48.146l7.547-4.028c6.505,1.689,13.644,1.411,19.561-1.981,10.5-6.019,10.182-17.888-.359-23.652-7.758-4.242-18.744-3.722-25.79,1.75-5.8,4.5-7.452,12.025-2.529,17.915.492.589,3.092,2.832,3.144,3.16Z" transform="translate(0 0)" fill="#12263f"/>
        <path id="Trazado_997246" data-name="Trazado 997246" d="M82.1,149.049l15.381-.037c1.519.079,1.865,1.661.323,2.054H82.057c-1.342-.286-1.341-1.768.046-2.016" transform="translate(-68.303 -125.567)" fill="#12263f"/>
        <path id="Trazado_997247" data-name="Trazado 997247" d="M82.1,174.049l15.381-.037c1.519.079,1.865,1.661.323,2.054H82.057c-1.342-.286-1.341-1.768.046-2.016" transform="translate(-68.303 -146.634)" fill="#12263f"/>
        <path id="Trazado_997248" data-name="Trazado 997248" d="M82.1,199.049l15.381-.037c1.519.079,1.865,1.661.323,2.054H82.057c-1.342-.286-1.341-1.768.046-2.016" transform="translate(-68.303 -167.701)" fill="#12263f"/>
        <path id="Trazado_997249" data-name="Trazado 997249" d="M82.1,224.049l15.381-.037c1.519.079,1.865,1.661.323,2.054H82.057c-1.342-.286-1.341-1.768.046-2.016" transform="translate(-68.303 -188.767)" fill="#12263f"/>
        <path id="Trazado_997250" data-name="Trazado 997250" d="M55.647,112.185a.983.983,0,0,1,.122,1.367c-.582.755-2.123.377-2.984.476a19.193,19.193,0,0,0-10,4.008c-.683.568-1.549,2.036-2.52,1.746-1.744-.522.317-2.444.946-3a20.365,20.365,0,0,1,9.563-4.439c.909-.159,4.272-.635,4.868-.152" transform="translate(-33.356 -94.357)" fill="#12263f"/>
        <path id="Trazado_997251" data-name="Trazado 997251" d="M25.651,187.009c1.493-.314,1.2,1.649,1.371,2.5a9.914,9.914,0,0,0,2.128,4.008c.568.649,3.436,2.534,1.731,3.3-.841.376-1.684-.491-2.274-1.023a12.312,12.312,0,0,1-3.075-4.477c-.348-.951-1.3-4,.119-4.3" transform="translate(-20.978 -157.558)" fill="#12263f"/>
        <path id="Trazado_997252" data-name="Trazado 997252" d="M123.706,31.063c-.7.623-1.187,1.9-2.358,1.2-1.242-.745.87-2.536,1.5-3.079a21.46,21.46,0,0,1,11.1-4.48c.6-.054,2.593-.155,2.989.152a.939.939,0,0,1-.118,1.617c-4.841.2-9.438,1.327-13.112,4.588" transform="translate(-101.932 -20.768)" fill="#12263f"/>
      </g>
    </g>
  </g>
</svg>
