<svg xmlns="http://www.w3.org/2000/svg" xmlns:xlink="http://www.w3.org/1999/xlink" width="70" height="70" viewBox="0 0 70 70">
  <defs>
    <clipPath id="clip-path">
      <rect id="Rectángulo_455510" data-name="Rectángulo 455510" width="37.478" height="41.239" fill="#583f00"/>
    </clipPath>
  </defs>
  <g id="Grupo_1183049" data-name="Grupo 1183049" transform="translate(-269 -958.088)">
    <circle id="Elipse_5614" data-name="Elipse 5614" cx="35" cy="35" r="35" transform="translate(269 958.087)" fill="#fff"/>
    <g id="Grupo_1183842" data-name="Grupo 1183842" transform="translate(285.261 972.469)">
      <g id="Grupo_1183841" data-name="Grupo 1183841" clip-path="url(#clip-path)">
        <path id="Trazado_998582" data-name="Trazado 998582" d="M24.829,1.113c.108-.5.983-.985,1.478-1.04a25.059,25.059,0,0,1,3.932.01,1.542,1.542,0,0,1,1.382,1.464c.181,1.925-.158,4.11.014,6.063l5.449,2.707a.959.959,0,0,1-.982,1.638c-1.709-1.058-4.272-1.766-5.876-2.882-.138-.1-.471-.363-.471-.515V2.208a1.1,1.1,0,0,0-.164-.164h-2.9V6.149c0,.324-.968.835-1.318.55L18.58,3.409,1.693,11.7c-1.372.752-2.439-.874-1.026-1.683l17.368-8.47.828-.049c2.088.657,3.943,1.909,5.966,2.737.131-.89-.177-2.3,0-3.12" transform="translate(0 0)" fill="#583f00"/>
        <path id="Trazado_998583" data-name="Trazado 998583" d="M111.41,279.726c3.936-.368,9.068-.472,9.442,4.616a28.6,28.6,0,0,1-.016,4.152,1.734,1.734,0,0,1-1.57,1.605c-3.454.335-7.444-.264-10.956,0a1.779,1.779,0,0,1-1.474-1.7c-.378-3.791-.1-8.234,4.575-8.67m7.576,8.507V283.8c0-.738-1.247-1.893-1.946-2.1a27.775,27.775,0,0,0-5.557-.144c-1.159.1-2.788,1.219-2.788,2.467v4.215h.876v-4c0-.679,1.423-.464,1.423,0v4h6.022v-4a1.337,1.337,0,0,1,.711-.485c.2,0,.712.264.712.485v4Z" transform="translate(-95.033 -248.966)" fill="#583f00"/>
        <path id="Trazado_998584" data-name="Trazado 998584" d="M26.877,188.631c1.135.168,1.327,1.545.213,1.855-2.322-.179-5.058.263-7.329.007a2.006,2.006,0,0,1-1.806-1.7,36.166,36.166,0,0,1,.186-7.368,6.368,6.368,0,0,1,5.667-4.624c1.841-.142,6.852-.2,8.486.28.83.245,2.581,1.05,1.807,2.129-.631.88-2.081-.444-3.064-.544a53.132,53.132,0,0,0-7.338-.005,4.466,4.466,0,0,0-3.607,2.743c-.5,1.311-.562,5.385-.391,6.846.013.11.05.378.17.378h1.7v-5.748c0-.7,1.533-.667,1.533.219v5.529c1.164.123,2.656-.166,3.777,0" transform="translate(-15.897 -157.356)" fill="#583f00"/>
        <path id="Trazado_998585" data-name="Trazado 998585" d="M221.068,235.7v-5.2c0-.623,1.423-.623,1.423,0v5.2h1.095v-5.748a5.774,5.774,0,0,0-.766-1.642c-1.913-2.5-6.682-1.1-9.447-1.5a.926.926,0,0,1-.25-1.627,4.721,4.721,0,0,1,1.207-.216,29.932,29.932,0,0,1,7.065.279,5.648,5.648,0,0,1,3.728,3.5,27.079,27.079,0,0,1,.325,7.121,1.956,1.956,0,0,1-1.808,1.7c-2.119.215-4.6-.135-6.761-.024a.925.925,0,0,1-.026-1.835Z" transform="translate(-189.451 -200.268)" fill="#583f00"/>
        <path id="Trazado_998586" data-name="Trazado 998586" d="M66.507,82.639c5.582-.647,7.362,7.308,2.134,9.141-6.52,2.286-8.921-8.354-2.134-9.141m0,1.857a2.877,2.877,0,1,0,2.964,1.253A2.866,2.866,0,0,0,66.5,84.5" transform="translate(-55.606 -73.559)" fill="#583f00"/>
        <path id="Trazado_998587" data-name="Trazado 998587" d="M216.107,138.754a4.338,4.338,0,1,1-3.238,6.571,4.373,4.373,0,0,1,3.238-6.571m2.285,6.061c2.482-2.523-1.9-6.148-3.884-3.172a2.518,2.518,0,0,0,3.884,3.172" transform="translate(-189.003 -123.542)" fill="#583f00"/>
        <path id="Trazado_998588" data-name="Trazado 998588" d="M140.1,214.1c-3.349-3.352,1.61-8.516,5.1-5.26,3.546,3.312-1.7,8.657-5.1,5.26m2.346-4.424a1.818,1.818,0,1,0,.62,3.58c2.087-.335,1.769-3.838-.62-3.58" transform="translate(-123.768 -185.058)" fill="#583f00"/>
      </g>
    </g>
  </g>
</svg>
