<svg xmlns="http://www.w3.org/2000/svg" xmlns:xlink="http://www.w3.org/1999/xlink" width="191.415" height="271.132" viewBox="0 0 191.415 271.132">
  <defs>
    <clipPath id="clip-path">
      <rect id="Rectángulo_455484" data-name="Rectángulo 455484" width="191.415" height="240.132" fill="none"/>
    </clipPath>
    <clipPath id="clip-path-3">
      <rect id="Rectángulo_455479" data-name="Rectángulo 455479" width="5.845" height="9.358" fill="none"/>
    </clipPath>
    <clipPath id="clip-path-4">
      <rect id="Rectángulo_455480" data-name="Rectángulo 455480" width="3.519" height="8.899" fill="none"/>
    </clipPath>
    <clipPath id="clip-path-5">
      <rect id="Rectángulo_455481" data-name="Rectángulo 455481" width="5.844" height="9.358" fill="none"/>
    </clipPath>
  </defs>
  <g id="Grupo_1183787" data-name="Grupo 1183787" transform="translate(-704.711 -1886)">
    <rect id="Rectángulo_454286" data-name="Rectángulo 454286" width="190" height="271" transform="translate(704.711 1886)" fill="#fdd5ba"/>
    <g id="Grupo_1183786" data-name="Grupo 1183786" transform="translate(704.711 1917)">
      <g id="Grupo_1183785" data-name="Grupo 1183785" clip-path="url(#clip-path)">
        <g id="Grupo_1183784" data-name="Grupo 1183784">
          <g id="Grupo_1183783" data-name="Grupo 1183783" clip-path="url(#clip-path)">
            <path id="Trazado_998038" data-name="Trazado 998038" d="M53.233,167.241a2.071,2.071,0,0,1,3.4-.931c1.4,1.075,2.329,3.3,2.687,6.736s1.791,12.11,1.791,13.328c0,.9,3.035,9.009,4.227,13.347-.531-4.214-1.472-12.058-1.575-13.921a66.5,66.5,0,0,1,0-8.527c.215-4.084,1.648-21.139,1.879-22.135s1.522-1.821,3.139-.868,2.936,3.584,3.393,7.04.475,13.455.658,17.181,3.016,19.018,3.3,20.236,1.29.86,1.433-.143-.189-16.939-.261-19.519.789-6.807,1.291-9.53,3.869-22.5,4.156-23.719,2.654-.8,4.013,0,3.225,3.869,3.439,8.6A140.2,140.2,0,0,1,89.42,172.4c-.5,3.511.645,26.513.717,26.943s.859.358,1-.286,2.221-12.182,2.508-15.12a62.747,62.747,0,0,1,1.29-8.742c.716-3.01,3.655-16.266,3.941-17.565s1-2.5,2.723-2.141,3.941,2.794,4.156,8.336-.932,14.737-1.219,18.177-.859,19.276-.9,20.494,3.628,20.566,3.628,21.139,3.225-1.29,5.088-3.726,1.505-3.726,4.944-7.6a16.324,16.324,0,0,1,11.25-5.3c2.8,0,5.16,1.792,2.652,4.586s-6.879,13.257-8.671,15.048-9.817,12.97-11.68,15.55-4.515,5.947-5.375,10.39.287,35.954.287,35.954H66.92s1.433-24.345,1.433-34.234c-1-6.162-11.465-44.643-11.824-48.44s-2.58-16.553-2.794-18.559-.844-18.714-.5-20.064" transform="translate(-17.732 -48.407)" fill="#c67e5d"/>
            <path id="Trazado_998039" data-name="Trazado 998039" d="M147.951,167.241a2.072,2.072,0,0,1,3.4-.931c1.4,1.075,2.329,3.3,2.687,6.736s1.791,12.11,1.791,13.328c0,.9,3.035,9.009,4.227,13.347-.53-4.214-1.472-12.058-1.575-13.921a66.5,66.5,0,0,1,0-8.527c.215-4.084,1.648-21.139,1.879-22.135s1.522-1.821,3.14-.868,2.936,3.584,3.392,7.04.475,13.455.658,17.181,3.016,19.018,3.3,20.236,1.29.86,1.433-.143-.189-16.939-.261-19.519.788-6.807,1.29-9.53,3.869-22.5,4.156-23.719,2.654-.8,4.013,0,3.225,3.869,3.439,8.6a140.2,140.2,0,0,1-.788,17.986c-.5,3.511.645,26.513.717,26.943s.859.358,1-.286,2.221-12.182,2.508-15.12a62.75,62.75,0,0,1,1.29-8.742c.716-3.01,3.655-16.266,3.941-17.565s1-2.5,2.723-2.141,3.941,2.794,4.156,8.336-.931,14.737-1.219,18.177-.859,19.276-.9,20.494,3.627,20.566,3.627,21.139,3.225-1.29,5.088-3.726,1.505-3.726,4.944-7.6a16.324,16.324,0,0,1,11.25-5.3c2.8,0,5.16,1.792,2.652,4.586s-6.879,13.257-8.671,15.048-9.817,12.97-11.68,15.55-4.515,5.947-5.375,10.39.287,35.954.287,35.954H161.638s1.433-24.345,1.433-34.234c-1-6.162-11.465-44.643-11.824-48.44s-2.579-16.553-2.794-18.559-.843-18.714-.5-20.064" transform="translate(-49.341 -48.407)" fill="#c67e5d"/>
            <path id="Trazado_998040" data-name="Trazado 998040" d="M187.026,109.573a86.982,86.982,0,0,1-82.531,84.51c-51.31,2.565-93.849-39.977-91.281-91.286a86.978,86.978,0,0,1,173.812,6.776" transform="translate(-4.373 -6.755)" fill="#375c63"/>
            <path id="Trazado_998041" data-name="Trazado 998041" d="M148.06,32.9a3.625,3.625,0,0,1-1.417-.131c.663,1.082,2.017,1.085,2.882,1.854l-.051.015a3.168,3.168,0,0,0,.68,1.171l-.326.539c1.544,4,6.133,4.449,8.6,7.38-5.846-.958-8.455-7.148-13.971-8.634.483.83,1.349,1.251,2.022,1.877-.2.06-.474.141-.676.2h-.327c-1.039-.432-2.151-.125-3.214-.318h-.05c-.145.123-.34.285-.488.407.937,1.833,2,3.908,4.516,3.627,4.805-.537,19.964,11.73,23.025,21.451a4.475,4.475,0,0,1-.995,1,11.6,11.6,0,0,1-.156,1.389,12.351,12.351,0,0,0-1.286.5c-.137.438-.137.438-.109,2.131-3.064-.6-3.607-4.741-2.9-5.681a4.785,4.785,0,0,1,1.112-.756c.249-7.015-10.155-14.252-10.261-14.324-.6,2.622,1.851,4,2.5,6.108a3.438,3.438,0,0,1-1.1.647c.29,3.976,4.016,5.669,5.767,8.674-.322.793-.322.793-1.452,1.281-1.963-2.525-6.628-8.15-7.569-5.837-.141-.014-.141-.014-1.9-1.558-.162.094-.382.217-.548.311a3.535,3.535,0,0,0,1.876,2.734,3.427,3.427,0,0,1,2.972.783c-.973,1.226-1.057,1.664.341,3.136,5.33,5.61,5.537,5.831,5.96,10.813.006.1.751,10.229-9,7.932-2.409,2-.889,3.7,1.869,6.795,6,6.716,1.818,11.377-1.227,12.9-1.976-1.864-1.567-5.385-4.553-6.547-1.705-.664-2.167,3.215-2,4l2.652,4.468c3.633,3.217,3.882,8.716,3.132,9.668-3.593-1.706-7.163-10.682-7.172-12.711-.027-6.783-2.075-12.693-4.675-10.143-1.421-.318-1.421-.318-1.747-.82-1.343-2.058-1.657-4.6-3.1-6.612-1.5-2.081-2.409-3.338-5.65-1.574-.087.047-8.019,8.9-7.634,11.042.828,4.583-.3,7.828-3.348,9.643-.782-.2-1.4-.357-3.726-6.27-.861-2.187-1.88-4.3-2.806-6.462-.939-2.194.991-5.753-2.209-6.779-.644-.209-1.238.372-1.885.118-3.246-1.275-2.655-7.172-7.222-6.579-7.259.939-9.56-.859-9.577-.878a3.861,3.861,0,0,1-.536-1.271c-5.734-.761-5.734-.761-6.312-2.4-.624-1.772-1.038-2.942-2.282-1.942-.97.779.239,2.844.444,3.11,2.31,2.989,2.31,2.989,2.274,4.317a2.726,2.726,0,0,0,3.429-.682c2.311-2.2,5.95,3.753,5.942,3.856-.518,6.464-10.424,11.2-10.523,11.245-8.215,3.693-8.215,3.693-8.743,2.881-.969-1.491-8.825-22.879-6.829-26.788,2.926-5.729,2.926-5.729,3.027-6.16-.119-.151-.275-.349-.391-.5-1.82.462-3.882.982-6.3-.665-.241-1.552,1.076-2.83.773-4.393-.694.019-1.29.036-1.715,1.255a8.135,8.135,0,0,1-2.3,3.789c-.21-.077-.49-.179-.7-.253-.2-3.426,1.062-6.766.59-10.209-.819.307-.819.307-1.173.922-.357,1.774,1.387,3.472.193,5.276l-.63-.218a39.824,39.824,0,0,1-3.724,4.162c-.943-.763-.923-.836-.714-1.734,2.816-1.333,2.816-1.333,2.945-1.657.7-1.756-.622-3.424-.231-5.168a8.261,8.261,0,0,0-2.478.949l-.531-.351c-4.413,1.7-6.245,6.461-10.25,8.644a3.424,3.424,0,0,0-.746-1.008c.207-.967,11.052-14.722,26.009-21.694-.641,1.009-1.8,1.57-2.31,2.694l.654-.145c.15.121.346.282.493.4,3.042-.795,5.442-1.421,8.151-4.311-.076-1.594.931-2.12,4.673-4.077-2.429-.021-4.084,1.383-10.241,6.6l-.532.248h0c-1.534.54-1.534.54-1.993.664.445-1.133,1.645-1.61,2.255-2.6a2.725,2.725,0,0,0-1.293.159c.007-.207.016-.483.021-.69C75,32.653,83.858,29.888,84.232,29.772c2.561-.789,4.856,1.242,7.394.7.15.115.349.271.5.386,6.23-1.1,12.112-3.622,18.4-4.5,6.28,1.347,12.787,1.083,19.024,2.719,6.1,1.6,12.825.207,18.513,3.825" transform="translate(-14.727 -8.795)" fill="#608d7c"/>
            <path id="Trazado_998042" data-name="Trazado 998042" d="M75.572,112.465c-.331,3.7-.331,3.7-3.183,10.228-2.674,6.124-9.119,9.818-10.733,16.629-1.394,5.879,4.337,10.5,2.912,16.382-.6,2.457-3.581,3.137-4.166,5.6-.558,2.352,1.373,4.2,1.3,6.457,0,.049-1.7,9.494-2.085,10.615-.758,2.211-5.2,3.874-7.162,1.456-.157-.195-15.761-19.7-14.823-28.017.268-2.365.268-2.365-1.567-8.37-1.018-3.334-3.316-6.123-4.094-9.561-.6-2.654,1.077-5.274.126-7.937-.374-1.045-.374-1.045-2.826-1.49-1.011-2.87-1.011-2.87-1.379-3.131l-.259-.025c-1.568.282-2.253,1.836-3.571,2.476a3.339,3.339,0,0,1-.931-.566c-.746.168-.746.168-1.893,1.277-.155-.133-11.292-17.935,14.155-46.422,3.687,1.012,6.373-2.09,9.745-2.371.1.137.242.318.346.454-.64,1.5-2.247,2.475-2.286,4.289-.033,1.5,2.165,1.271,2.135,2.765a2.154,2.154,0,0,1,1.5,1.143l.6.117c2.646-3.089,2.646-3.089,2.746-3.1,1.9-.281,2.748,1.623,4.3,2.064,1.335.669,3.4-1.215,4.211.62,1.713,3.872-.28,8.175,1.394,12.053,2.481,5.744,2.143,12.586,6.821,17.468,2.782,2.906,5.408-2.019,8.385-1.59a2.043,2.043,0,0,1,.286.49" transform="translate(-6.234 -25.261)" fill="#608d7c"/>
            <path id="Trazado_998043" data-name="Trazado 998043" d="M231.627,206.764c-5.805,9.64-18.643,18.878-18.944,14.873-.015-.191.224-.541.557-1.029a6.675,6.675,0,0,0,.8-1.486c.158-.664-.712-1.1-.406-1.8.917-2.126.917-2.126.9-2.211-.279-1.283-.69-1.165-3.363-.4-1.848.528-3.339,1.877-5.25,2.262a17.7,17.7,0,0,0-3.066.541c-.81.314-1.489.947-2.415.958a1.015,1.015,0,0,1-.911-1.429,2.169,2.169,0,0,1,.714-.83c2.489-2.005,3.312-6.012,3.549-7.641.458-3.136,3.463-7.035,3.493-7.067,2.073-2.363,5.4-2.253,7.8-3.978,2.646-1.9,3.851-5.13,6.48-7.051,1.7-1.237,1.908-1.071,2.095-.922.321.256.476.645.766.925.29-.013.336-.014.819-.751.027-.041,2.89-4.129,3.556-4.18l2.806,1.358c.2.267-.28,1.274-.486,1.7-1.36,2.83-1.869,3.89.014,5.946.268-.1.57-.2,2.914-5.743.784-1.854.986-2.3,1.45-3.244.915.045-.023,5.775-.033,5.837s-.027.137-.039.195c-.067.326-.348,1.439-1.469,4.747-.342,1.007.076,2.055-.179,3.064-1.611,6.446-1.611,6.446-2.156,7.355" transform="translate(-66.566 -61.922)" fill="#608d7c"/>
            <path id="Trazado_998044" data-name="Trazado 998044" d="M103.084,24.489a81,81,0,0,0-13.417,4.725c2.526-1.03,5.889-2.425,8.463-3.32,2.1-.607,4.879-1.488,7-2.007l0,0c-.69.183-1.361.426-2.052.6" transform="translate(-29.924 -7.971)" fill="#608d7c"/>
            <path id="Trazado_998045" data-name="Trazado 998045" d="M255.889,176.309c-.154.412-.31.362-.38.34a.391.391,0,0,1-.079-.056c-.185-.136-.183-.4-.365-.534s-.488.059-.636-.207a6.238,6.238,0,0,1-.235-1.948c.033-1.345-.44-1.608-.493-1.632-.33-.155-.667.594-.869,1.041-.8,1.768-1.523,1.314-1.554,1.293-.5-.327-.334-1.073-.866-1.381-.465-.272-.874.135-1.321.111.21-1.13.63-2.21.816-3.345a4.164,4.164,0,0,0-.052-1.3c-.071-.251-1.628-2.681-2.688-2.077-.284.164-.424.146-.488-.063-.01-.032-.025-.071-.031-.1a19.153,19.153,0,0,1-.269-2.353c.055-.927.08-1.349-.47-1.8a1.025,1.025,0,0,1-.406-1.16c1.522-.927,1.522-.927,1.806-.947.72.118,1.111.834,1.162,2.135.029.823.175,1.246.431,1.256.079,0,.269.013,1.432-1.3.243-.275.454-.512.743-.314.027.019,3.058,2.345,3.541,3.251l1.368,4.276a1.594,1.594,0,0,1,.01.211c-.015,1.043-.427,2.035-.412,3.082.015,1.183.762,2.3.306,3.52" transform="translate(-81.922 -53.459)" fill="#608d7c"/>
            <path id="Trazado_998046" data-name="Trazado 998046" d="M225.514,145.2c-.187.9-.946,1.562-1.056,2.5a7.532,7.532,0,0,0,.424,2.848c.348,1.393.348,1.393.3,1.558l-1.492,2.912c-1.011,1.407-1.011,1.407-1.019,2.071-.015,1.144-.278,2.618-1.435,3.137a1.4,1.4,0,0,1-.776.139c-.58-.136-.955-.638-1.5-.831-.4-.141-.838.007-1.242-.13a7.993,7.993,0,0,1-1.731-.951c-.023-.042-1.791-5.309-.937-7.329.873-2.065,3.245-2.555,4.469-4.253a17.922,17.922,0,0,1,1.548-1.88c.8-.913,1-2.167,1.79-3.087a.314.314,0,0,1,.159-.1,27.658,27.658,0,0,1,2.357,2.6.908.908,0,0,1,.143.8" transform="translate(-71.689 -47.324)" fill="#608d7c"/>
            <path id="Trazado_998047" data-name="Trazado 998047" d="M212.559,168.088c-.026.081-.071.183-.1.263a9.5,9.5,0,0,1-4.462-.087c-.664-.181-1.159-.706-1.814-.9-.638-.191-1.317-.2-1.948-.423-.081-.03-.191-.08-.27-.116l-1.938-1.319-4.2-6.663c-1.184-2.171-1.936-4.524-2.908-6.788-.869-2.029-2.8-3.3-3.78-5.246a1.533,1.533,0,0,1-.018-1.269.494.494,0,0,1,.446-.213,5.489,5.489,0,0,1,2.617.89,56.363,56.363,0,0,1,4.754,5.616c.623.729,1.413,1.283,2.059,1.983a5.368,5.368,0,0,1,.959,1.442c.361.754.4,1.606.707,2.377.2.51.646.879.836,1.4a2.911,2.911,0,0,1-.028,1.484c-.413,2.189.205,3.113.406,3.345a4.773,4.773,0,0,0,2.055,1.039,3.43,3.43,0,0,0,1.919-.029,7.888,7.888,0,0,1,2.373.338c.443.056.69.086.871.309,1.637,2.021,1.637,2.021,1.47,2.573" transform="translate(-63.737 -48.498)" fill="#608d7c"/>
            <path id="Trazado_998048" data-name="Trazado 998048" d="M100.671,192.791c0,.087-2.177,13.292-2.195,13.331a2.184,2.184,0,0,1-3.518,0,11.4,11.4,0,0,1-1.482-3.837c-.15-1.081.569-1.992.578-3.039.013-1.247-.723-2.341-.738-3.583a4.025,4.025,0,0,1,.079-.764c.329-1.573,2.045-1.58,2.894-2.565,1.107-1.289,1.107-3.094,2.091-4.44a3.826,3.826,0,0,1,.484-.45c1.241,2.485,1.846,4.286,1.806,5.351" transform="translate(-31.142 -62.553)" fill="#608d7c"/>
            <path id="Trazado_998049" data-name="Trazado 998049" d="M69.044,48.245a17.188,17.188,0,0,1-1.924,1.4,11.48,11.48,0,0,1-1.506.406c-.36.091-.63.362-.977.474a.337.337,0,0,1-.213,0c-.019-.073-.026-.106.386-.5l.088-.083c2.254-2.078,2.254-2.078,3.458-2.668a3.769,3.769,0,0,0,.979-1.025,3.625,3.625,0,0,1,1.32-1.605,9.385,9.385,0,0,1,2.86-1.9,1.7,1.7,0,0,1,.241.035c.032.151.032.151-1.887,1.9a9.352,9.352,0,0,0-1.477,1.67c-.255.324-.565.609-.8.953-.146.216-.12.5-.3.708a2.5,2.5,0,0,1-.257.241" transform="translate(-21.498 -14.264)" fill="#608d7c"/>
            <path id="Trazado_998050" data-name="Trazado 998050" d="M235.875,155.554c-.009.064-.029.147-.044.209-.049.2-1.625,3.818-1.854,4.059-.967,1.019-.953,1.173-.754,3.758.19,2.443.136,2.544-.011,2.814a.667.667,0,0,1-.386.3c-.213.03-.332-.135-.469-.322a.823.823,0,0,0-1.247-.318c-.271.207-.314.592-.62.772-.109.063-.657.362-.808.063a3.328,3.328,0,0,1-.1-.513c-.047-.581.3-1.083.305-1.649.011-.746-.64-1.321-.55-2.085a1.979,1.979,0,0,1,.049-.231c.179-.724.564-1.376.746-2.1.2-.8.163-1.632.371-2.429a4.725,4.725,0,0,1,.316-.9,6.237,6.237,0,0,1,1.173-1.53.637.637,0,0,1,.109-.045.848.848,0,0,1,.485.072c.017.006,1.772.548,2.05.374.462-.284.229-1.087.9-1.219.432.077.363.726.332.923" transform="translate(-76.534 -51.604)" fill="#608d7c"/>
            <path id="Trazado_998051" data-name="Trazado 998051" d="M81.049,35.257c-.867.465-1.757.889-2.618,1.365.109-.068.217-.134.329-.2q1.55-.885,3.139-1.71l.31-.161c-.063.033-.125.065-.188.1a2.339,2.339,0,0,1,.384-.147c-.052.051-1.343.746-1.357.752" transform="translate(-26.174 -11.515)" fill="#608d7c"/>
            <path id="Trazado_998052" data-name="Trazado 998052" d="M232.6,123.243a1.973,1.973,0,0,1-.06.795,1.271,1.271,0,0,1-1.023-.2c-.448-.3-.774-.746-1.254-1a7.541,7.541,0,0,1-1.283-.552,5.048,5.048,0,0,1-1.124-1.334,9.8,9.8,0,0,1-.9-5.925.381.381,0,0,1,.342-.188c1.351.068,1.4.073,1.874.94a5.061,5.061,0,0,1,.3,3.057,3.214,3.214,0,0,0,.34,2.21c2.394.8,2.7.9,2.792,2.195" transform="translate(-75.698 -38.325)" fill="#608d7c"/>
            <path id="Trazado_998053" data-name="Trazado 998053" d="M68.617,47.85l-2.3,1.778a2.277,2.277,0,0,1-.464.287h0c-.2.027-.318.073-.975.444-.38.216-.48.257-.568.229-.051-.165.568-.744.574-.75l2.265-1.885a2.665,2.665,0,0,1,.292-.193l1.451-.781a.994.994,0,0,1,.4-.118H69.3c.106.041.106.041.137.081-.04.259-.586.72-.819.907" transform="translate(-21.46 -15.639)" fill="#608d7c"/>
            <path id="Trazado_998054" data-name="Trazado 998054" d="M253.741,290.589s-13.9-40.97-14.9-44.553.43-8.456,1.863-11.9,7.309-25.08,8.6-28.52,6.019-19.92,6.306-22.5a43.589,43.589,0,0,0,.43-7.777c-.143-3.187-.358-13.577-.43-14.939s-.645-6.879-.358-8.6-5.375.143-6.378,6.234-1.439,16.253-2.007,19.2-5.613,14.5-6.727,16.414-2.317,3.862-2.317,3.862-.487-4.655-.7-6.017-1.505-3.081-2.078-5.733-.644-7.023-1.612-7.309-5.483.43-7.059,5.374.86,10.247.931,14.4-.215,9.458-1.075,11.465-5.593,8.147-10.874,11.688-8.689,7.373-8.975,13.894,3.082,13.042,4.443,17.2c1.361,9.889,6.378,38.1,6.378,38.1Z" transform="translate(-68.866 -50.458)" fill="#e6b297"/>
            <path id="Trazado_998055" data-name="Trazado 998055" d="M250.929,220.726c.712,13.447-2.286,21.109-5.284,25.107" transform="translate(-81.977 -73.661)" fill="none" stroke="#28130c" stroke-linecap="round" stroke-linejoin="round" stroke-width="0.75"/>
            <g id="Grupo_1183773" data-name="Grupo 1183773" transform="translate(161.17 129.129)" opacity="0.8">
              <g id="Grupo_1183772" data-name="Grupo 1183772">
                <g id="Grupo_1183771" data-name="Grupo 1183771" clip-path="url(#clip-path-3)">
                  <path id="Trazado_998056" data-name="Trazado 998056" d="M245.941,193.832c.4,1.54.555,4.28.962,6.162a14.554,14.554,0,0,0,.838,2.582c-1.213.673-3.271.863-4.2.069a4.954,4.954,0,0,1-1.576-3.631c-.1-1.528-.191-2.914.43-3.917.558-.9,1.7-1.41,3.545-1.265" transform="translate(-241.897 -193.807)" fill="#f3d6c5"/>
                </g>
              </g>
            </g>
            <g id="Grupo_1183776" data-name="Grupo 1183776" transform="translate(183.252 101.799)" opacity="0.8">
              <g id="Grupo_1183775" data-name="Grupo 1183775">
                <g id="Grupo_1183774" data-name="Grupo 1183774" clip-path="url(#clip-path-4)">
                  <path id="Trazado_998057" data-name="Trazado 998057" d="M278.557,161.673a7.535,7.535,0,0,1-2.4-.2c-.931-.215-1.183-1.039-1.111-2.077a41.842,41.842,0,0,1,.5-4.551,2.486,2.486,0,0,1,2.571-2.057c-.154,2.074.34,6.889.407,8.149.008.146.017.4.028.736" transform="translate(-275.039 -152.788)" fill="#f3d6c5"/>
                </g>
              </g>
            </g>
            <path id="Trazado_998058" data-name="Trazado 998058" d="M187.1,167.241a2.071,2.071,0,0,0-3.4-.931c-1.4,1.075-2.329,3.3-2.687,6.736s-1.791,12.11-1.791,13.328c0,.9-3.035,9.009-4.227,13.347.53-4.214,1.472-12.058,1.575-13.921a66.5,66.5,0,0,0,0-8.527c-.215-4.084-1.648-21.139-1.879-22.135s-1.522-1.821-3.139-.868-2.936,3.584-3.393,7.04-.475,13.455-.658,17.181-3.016,19.018-3.3,20.236-1.29.86-1.433-.143.189-16.939.261-19.519-.788-6.807-1.29-9.53-3.869-22.5-4.156-23.719-2.654-.8-4.013,0-3.225,3.869-3.439,8.6a140.2,140.2,0,0,0,.788,17.986c.5,3.511-.645,26.513-.717,26.943s-.86.358-1-.286-2.221-12.182-2.508-15.12a62.747,62.747,0,0,0-1.29-8.742c-.716-3.01-3.655-16.266-3.941-17.565s-1-2.5-2.723-2.141-3.941,2.794-4.156,8.336.931,14.737,1.219,18.177.859,19.276.9,20.494-3.628,20.566-3.628,21.139-3.225-1.29-5.088-3.726-1.505-3.726-4.944-7.6a16.324,16.324,0,0,0-11.25-5.3c-2.8,0-5.16,1.792-2.652,4.586s6.879,13.257,8.671,15.048,9.817,12.97,11.68,15.55,4.515,5.947,5.375,10.39-.287,35.954-.287,35.954h38.839s-1.433-24.345-1.433-34.234c1-6.162,11.465-44.643,11.824-48.44s2.579-16.553,2.794-18.559.843-18.714.5-20.064" transform="translate(-36.066 -48.407)" fill="#db926a"/>
            <path id="Trazado_998059" data-name="Trazado 998059" d="M117.255,214.655a3.055,3.055,0,0,1,.386,2.077c-.186.764-2.5,2.091-3.209,2.221a2.888,2.888,0,0,1-.776.075,41.564,41.564,0,0,0-4.18-7.073c-.143-.16-.266-.315-.378-.468a5.4,5.4,0,0,1,4.936-.7,13.592,13.592,0,0,1,3.22,3.87m23.126-47.292c.83-.112,1.8-.35,2.648-.47a1.262,1.262,0,0,0,.652-.286q-.1-.531-.206-1.051c-.811-3.635-1.546-6.953-1.682-7.569-.026-.116-.056-.23-.089-.342-1.851.161-3.239,2.278-3.467,3.333-.245,1.141.587,4.762.61,5.371a1.262,1.262,0,0,0,1.532,1.014m15.727-11.884c.752-.075,2.269-.506,3.157-.64a1.567,1.567,0,0,0,.187-.039c-.75-4.325-1.4-8.017-1.528-8.6a2.267,2.267,0,0,0-1.756.285,3.925,3.925,0,0,0-2.19,3.1c-.187,1.177.458,3.924.541,4.627a1.534,1.534,0,0,0,1.59,1.267M174.35,164a1.786,1.786,0,0,0,1.493-.123c-.328-3.812-.637-7.125-.774-8.117a3.478,3.478,0,0,0-3.357,2.01,12.76,12.76,0,0,0-.35,4.9c.32.837,2,1.043,2.988,1.331m13.082,3.327c.039,1.189.083,3.934.095,6.791a3.352,3.352,0,0,1-1.054.064c-.732-.075-2.262-.848-2.41-1.815a6.843,6.843,0,0,1,1.061-3.818,3.4,3.4,0,0,1,2.308-1.221" transform="translate(-36.409 -48.765)" fill="#f3d6c5"/>
            <path id="Trazado_998060" data-name="Trazado 998060" d="M101.043,288.9s3.151-49.1,3.534-52.823.86-35.153.669-37.352c.574-5.733,1.624-9.746,1.72-11.083s-.1-5.828,1.146-9.554,2.485-4.795,1.816-5.693-5.785-2.752-8.885,1.261A22.067,22.067,0,0,0,96.054,184.8a40.956,40.956,0,0,1-2.5,8.455S86.3,180.5,84.084,175.194s-6.521-17.771-9.1-21.927-3.22-5.293-5.085-6.337-5.448-1.105-5.663,0,6.306,18.714,7.381,21.913,6.592,18.82,6.592,18.82-9.563-13.186-11.947-16.768S58.143,156.2,56.137,153.84s-3.941-3.8-6.521-3.869-3.655.918-3.439,1.892,8.1,18.387,9.458,21.4a26.474,26.474,0,0,0,4.3,7.023c2.15,2.651,8.6,13.543,8.384,13.687s-12.4-12.683-13.83-14.188-7.668-9.674-10.1-11.9a12.045,12.045,0,0,0-6.521-3.368c-1.648-.143-3.082,1.792-2.8,2.15s7.238,11.9,9.459,14.833,4.729,5.876,6.593,8.1,7.81,10.892,7.452,11.108-8.742-5.589-10.82-7.453-5.733-6.09-8.169-7.667-3.511-2.58-5.589-2.8-3.511.717-3.224,1.219,6.449,8.885,8.885,11.752,2.546,3.655,5.322,6.09,6.5,5.948,7.29,7.166,14.26,21.211,15.98,24.937,2.938,6.951,2.58,11.179S61.44,288.9,61.44,288.9Z" transform="translate(-10.257 -48.765)" fill="#e6b297"/>
            <path id="Trazado_998061" data-name="Trazado 998061" d="M107.48,182.5a1.859,1.859,0,0,1-1.091.2c-.716,0-2.58-.394-2.9-1.111a3.067,3.067,0,0,1,0-2.114,26.93,26.93,0,0,1,1.792-4.515,4.128,4.128,0,0,1,4.825-.58,45.84,45.84,0,0,0-1.8,4.33,20.111,20.111,0,0,0-.82,3.785m-42.946-34.2c.365,1.513,1.538,4.987,2.846,8.722a1.25,1.25,0,0,0,.708-.083c.788-.322,1.75-.609,2.523-.931a1.261,1.261,0,0,0,.809-1.648c-.287-.538-1.4-4.084-2.185-4.944-.732-.8-3.019-1.936-4.7-1.115M49.621,160.091a1.031,1.031,0,0,0,1.27.08c.788-.43,2.257-1,2.9-1.4a1.536,1.536,0,0,0,.5-1.97c-.358-.61-1.505-3.189-2.365-4.013a3.925,3.925,0,0,0-3.619-1.147c-1.077.187-1.6.654-1.793,1.292.423,1.085,1.656,3.9,3.1,7.156m-8.654,13.3c.609-.824,1.827-2.006,1.576-2.866a12.753,12.753,0,0,0-3.239-3.69,3.463,3.463,0,0,0-4,.528c.333.5,2.205,3.573,4.25,6.851a1.742,1.742,0,0,0,1.415-.824M31.3,185.134c.688.972,2.311,3.185,4.028,5.467a3.33,3.33,0,0,0,.878-.586c.537-.5,1.29-2.042.824-2.9a6.843,6.843,0,0,0-3.153-2.4,3.4,3.4,0,0,0-2.577.421" transform="translate(-10.444 -49.398)" fill="#f3d6c5"/>
            <path id="Trazado_998062" data-name="Trazado 998062" d="M8.339,290.589s13.9-40.97,14.9-44.553-.43-8.456-1.863-11.9-7.309-25.08-8.6-28.52-6.019-19.92-6.306-22.5a43.592,43.592,0,0,1-.43-7.777c.143-3.187.358-13.577.43-14.939s.645-6.879.358-8.6,5.374.143,6.377,6.234,1.438,16.253,2.007,19.2,5.613,14.5,6.727,16.414,2.317,3.862,2.317,3.862.487-4.655.7-6.017,1.505-3.081,2.078-5.733.644-7.023,1.612-7.309,5.483.43,7.059,5.374-.86,10.247-.931,14.4S35,207.7,35.856,209.707s5.593,8.147,10.874,11.688,8.689,7.373,8.975,13.894-3.082,13.042-4.443,17.2c-1.361,9.889-6.378,38.1-6.378,38.1Z" transform="translate(-2.005 -50.458)" fill="#db926a"/>
            <path id="Trazado_998063" data-name="Trazado 998063" d="M33.29,220.726c-.585,8.366-.326,16.576,4.291,22.965" transform="translate(-11.034 -73.661)" fill="none" stroke="#28130c" stroke-linecap="round" stroke-linejoin="round" stroke-width="0.75"/>
            <g id="Grupo_1183779" data-name="Grupo 1183779" transform="translate(24.199 129.129)" opacity="0.8">
              <g id="Grupo_1183778" data-name="Grupo 1183778">
                <g id="Grupo_1183777" data-name="Grupo 1183777" clip-path="url(#clip-path-5)">
                  <path id="Trazado_998064" data-name="Trazado 998064" d="M38.119,193.832c-.4,1.54-.556,4.28-.962,6.162a14.553,14.553,0,0,1-.838,2.582c1.213.673,3.271.863,4.2.069a4.954,4.954,0,0,0,1.576-3.631c.1-1.528.191-2.914-.43-3.917-.558-.9-1.7-1.41-3.545-1.265" transform="translate(-36.319 -193.807)" fill="#f3d6c5"/>
                </g>
              </g>
            </g>
            <g id="Grupo_1183782" data-name="Grupo 1183782" transform="translate(4.443 101.799)" opacity="0.8">
              <g id="Grupo_1183781" data-name="Grupo 1183781">
                <g id="Grupo_1183780" data-name="Grupo 1183780" clip-path="url(#clip-path-4)">
                  <path id="Trazado_998065" data-name="Trazado 998065" d="M6.668,161.673a7.535,7.535,0,0,0,2.4-.2c.931-.215,1.183-1.039,1.111-2.077a41.837,41.837,0,0,0-.5-4.551,2.486,2.486,0,0,0-2.57-2.057c.154,2.074-.34,6.889-.407,8.149-.008.146-.017.4-.028.736" transform="translate(-6.668 -152.788)" fill="#f3d6c5"/>
                </g>
              </g>
            </g>
            <path id="Trazado_998066" data-name="Trazado 998066" d="M138.783,36.427,150.2,46.2l6.173-8.187L142.391,25.471l-6.532-1.61V21.91a11.522,11.522,0,1,0-9.979,0v1.952l-6.532,1.61L105.363,38.014l6.173,8.187,11.42-9.774V46.484L110.918,63.773,119.869,73l11-14.607L141.87,73l8.951-9.223L138.783,46.484Z" transform="translate(-35.162)" fill="#fff"/>
            <path id="Trazado_998067" data-name="Trazado 998067" d="M193.411,57.49l-12.178,3.533-1.892-8.44,15.113-4.767,5.579,1.037.68-1.5a9.719,9.719,0,1,1,7.667,3.475l-.679,1.5,4.458,3.512,6.378,14.506-7.594,4.141L205.572,63l-3.5,7.727L205.3,88.2l-10.089,3.97-3.366-15.053-13.537,7.392-3.666-10.2,15.268-9.092Z" transform="translate(-58.282 -10.475)" fill="#fff"/>
            <path id="Trazado_998068" data-name="Trazado 998068" d="M239.732,102.893l-10.382-1.535,1.482-7,13.016,1.617,3.842,2.7,1.027-.894a8.044,8.044,0,1,1,4.573,5.256l-1.027.894,2.145,4.178-.2,13.114-7.141.5-.086-10.494-5.3,4.609L238.1,130.1l-8.96-.487,2.651-12.489-12.735.9.755-8.941,14.623-1.584Z" transform="translate(-73.104 -29.235)" fill="#fff"/>
            <path id="Trazado_998069" data-name="Trazado 998069" d="M71.893,57.49l12.178,3.533,1.892-8.44L70.851,47.816l-5.579,1.037-.68-1.5a9.719,9.719,0,1,0-7.667,3.475l.679,1.5L53.146,55.84,46.768,70.346l7.594,4.141L59.732,63l3.5,7.727L60.006,88.2l10.089,3.97L73.46,77.119,87,84.512l3.666-10.2L75.4,65.216Z" transform="translate(-15.608 -10.475)" fill="#fff"/>
            <path id="Trazado_998070" data-name="Trazado 998070" d="M24.788,102.893l10.382-1.535-1.482-7L20.672,95.972l-3.842,2.7L15.8,97.78a8.044,8.044,0,1,0-4.573,5.256l1.027.894-2.145,4.178.2,13.114,7.141.5.086-10.494,5.3,4.609L26.419,130.1l8.96-.487-2.651-12.489,12.735.9-.755-8.941L30.085,107.5Z" transform="translate(0 -29.235)" fill="#fff"/>
          </g>
        </g>
      </g>
    </g>
  </g>
</svg>
