<svg xmlns="http://www.w3.org/2000/svg" xmlns:xlink="http://www.w3.org/1999/xlink" width="85" height="85" viewBox="0 0 85 85">
  <defs>
    <clipPath id="clip-path">
      <rect id="Rect치ngulo_455507" data-name="Rect치ngulo 455507" width="55.039" height="51.686" fill="#12263f"/>
    </clipPath>
  </defs>
  <g id="Grupo_1176602" data-name="Grupo 1176602" transform="translate(0 0)">
    <rect id="Rect치ngulo_402006" data-name="Rect치ngulo 402006" width="85" height="85" rx="5" transform="translate(0 0)" fill="#30df8e"/>
    <g id="Grupo_1183836" data-name="Grupo 1183836" transform="translate(14.98 16.657)">
      <g id="Grupo_1183835" data-name="Grupo 1183835" clip-path="url(#clip-path)">
        <path id="Trazado_998565" data-name="Trazado 998565" d="M70.8,18.929c.172.839.6,2.2-.634,2.264l-17.832,0c-1.662-.089-.67-2.7-.277-3.679a10.579,10.579,0,0,1,5.725-5.591A5.414,5.414,0,0,1,56.26,5.449,5.809,5.809,0,0,1,59.9,2.44a5.469,5.469,0,0,1,4.82,9.486.863.863,0,0,0,.746.334c.117-.03,1.444-1.311,1.837-1.569.622-.408,1.3-.662,1.939-1.029A5.45,5.45,0,0,1,71.366.182c5.6-1.41,9.185,5.731,4.814,9.48a16.9,16.9,0,0,1,2.59,1.51c.6.452,1.114,1.565,1.79.754a5.5,5.5,0,0,1,1.7-9.334A5.44,5.44,0,0,1,87.5,11.926a10.477,10.477,0,0,1,6.011,6.436c.269.925.863,2.727-.564,2.833l-17.832,0c-1.24-.085-.833-1.413-.634-2.264ZM72.04,1.847A3.677,3.677,0,0,0,69.752,7.6a3.694,3.694,0,0,0,5.14.778A3.664,3.664,0,0,0,72.04,1.847M60.721,4.111c-5.494.721-3.044,9.365,2.111,6.921,3.658-1.734,1.99-7.459-2.111-6.921m22.776,0c-5.218.794-3.126,9.046,1.929,7.021,3.94-1.578,2.334-7.67-1.929-7.021M75.164,17.067A9.956,9.956,0,0,1,78.3,13.2a8.069,8.069,0,0,0-11.313,0,10.327,10.327,0,0,1,3.132,3.868ZM53.4,19.5H68.891c.06,0,.182-.139.156-.293a8.2,8.2,0,0,0-2.565-4.089C61.9,11.2,54.508,13.537,53.4,19.5m38.482,0a7.5,7.5,0,0,0-3.408-5.01,8.084,8.084,0,0,0-12.3,5.01Z" transform="translate(-44.131 0)" fill="#12263f"/>
        <path id="Trazado_998566" data-name="Trazado 998566" d="M33.178,209.911a2.664,2.664,0,0,0,1.138-.346c3.643-1.722,10.656-7.257,14.37-7.277a3.8,3.8,0,0,1,3.66,5.216,3.606,3.606,0,0,1-1.777,2.042c-5.547,3.768-11.756,6.921-17.345,10.668a7.778,7.778,0,0,1-5.45.549c-3.847-.76-7.826-2.31-11.679-3.18-.349-.271-1.962.661-1.98.885,1.317,2.054,1.551,3.349-.648,4.766-1.531.986-3.849,2.479-5.192.475-2.307-4.581-5.621-9.111-7.8-13.7-.513-1.08-.8-2.167.179-3.123a23.324,23.324,0,0,1,3.585-2.073,2.324,2.324,0,0,1,2.4.588c.291.3.775,1.555,1.119,1.525,2.758-1.35,5.426-3.434,8.208-4.677,4.35-1.944,8.014.528,12.263,1.793,1.834.546,3.689.428,4.845,2.229a3.607,3.607,0,0,1,.107,3.641m-1.887-3.063a2.573,2.573,0,0,0-.767-.436c-1.311-.45-2.979-.693-4.386-1.13-1.781-.553-3.687-1.467-5.437-1.92-1.862-.482-3-.007-4.644.818-2.48,1.246-4.858,3-7.356,4.249l-.122.255c.66.876,4.16,7.877,4.6,8.008.5.149,1.985-1.391,2.791-.963,4.172.749,8.838,2.88,12.954,3.459a5.839,5.839,0,0,0,4.153-.954c5.764-3.168,11.283-7.323,17.07-10.518,1.391-1.547.577-3.7-1.625-3.608-3.046.131-10.159,5.476-13.363,7.013-2.3,1.1-4.061.892-6.485.4a41.058,41.058,0,0,1-5.686-1.53c-1.073-.458-.913-1.647.209-1.772,1.918.208,5.52,2.01,7.3,1.638a1.748,1.748,0,0,0,.793-3m-18.1,14.488a.775.775,0,0,0,.164-.459L5.379,206.657c-.183-.224-.4-.143-.641-.077a30.111,30.111,0,0,0-2.784,1.534.729.729,0,0,0-.169.453l7.977,14.221c.183.224.4.143.641.077.216-.06,2.673-1.412,2.789-1.529" transform="translate(0 -173.016)" fill="#12263f"/>
        <path id="Trazado_998567" data-name="Trazado 998567" d="M17.993,122.839a.918.918,0,0,1,1.143,1.145c-.3,1.05-4.97,1.524-1.2,3.523,5.956,3.161,20.5,3.448,27.338,3.236,4.013-.125,17.535-1.206,20.225-3.968,1.527-1.567-3.049-1.907-2.263-3.538.635-1.317,3.676.946,4.112,1.831,1.363,2.769-2.651,4.357-4.64,5-7.565,2.439-17.734,2.67-25.639,2.362-5.738-.224-12.071-.607-17.552-2.4-1.992-.65-6.205-2.36-4.431-5.144a6.831,6.831,0,0,1,2.913-2.048" transform="translate(-12.581 -105.44)" fill="#12263f"/>
        <path id="Trazado_998568" data-name="Trazado 998568" d="M25.139,248.786a1.136,1.136,0,0,1,.5,2.215,1.136,1.136,0,0,1-.5-2.215" transform="translate(-20.861 -213.563)" fill="#12263f"/>
      </g>
    </g>
  </g>
</svg>
