<svg xmlns="http://www.w3.org/2000/svg" xmlns:xlink="http://www.w3.org/1999/xlink" width="80" height="80" viewBox="0 0 80 80">
  <defs>
    <clipPath id="clip-path">
      <rect id="Rect치ngulo_455517" data-name="Rect치ngulo 455517" width="54.371" height="54.302" fill="none"/>
    </clipPath>
  </defs>
  <g id="Grupo_1183683" data-name="Grupo 1183683" transform="translate(-704.52 -3293.691)">
    <g id="Grupo_1183033" data-name="Grupo 1183033" transform="translate(524.852 -2227.309)">
      <rect id="Rect치ngulo_402006" data-name="Rect치ngulo 402006" width="80" height="80" rx="5" transform="translate(179.668 5521)" fill="#fa9757"/>
    </g>
    <g id="Grupo_1183856" data-name="Grupo 1183856" transform="translate(720.334 3306.54)">
      <g id="Grupo_1183855" data-name="Grupo 1183855" clip-path="url(#clip-path)">
        <path id="Trazado_998624" data-name="Trazado 998624" d="M.064,48.07A9.091,9.091,0,0,1,7.317,40.2c2.485-.464,5.2-.352,7.711-.761a9.1,9.1,0,0,0,.308-1.6c0-.562-.811-.7-1.257-.984a12.7,12.7,0,0,1-6.023-8.822,5.307,5.307,0,0,1-5.02-7.1,16.488,16.488,0,0,0,.8-1.571c0-.352-.806-2.35-.93-3.123A12.452,12.452,0,0,1,8.564,3.633C13.088.825,18.045,2.031,23.1,1.782c4.013-3.817,10.634-.928,13.121,3.27.244.412.882,2.057,1.025,2.2s2.83.9,3.431,1.19a14.977,14.977,0,0,1,7.709,18.069c-.145.455-1.152,2.591-1.107,2.767l6.075,6.12a3.973,3.973,0,0,1-5.381,5.8l-6.4-6.338a15.429,15.429,0,0,1-13.4.7,13.631,13.631,0,0,1-1.791,1.3c-.445.283-1.259.422-1.257.984a9.128,9.128,0,0,0,.308,1.6c4.5.7,9.291-.2,12.656,3.519A10.094,10.094,0,0,1,40.4,48.07V54.3H.064c.148-2-.2-4.268,0-6.232m35.151-41.1a8.715,8.715,0,0,0-8.473-5.181,3.531,3.531,0,0,0-2.149,5.791A3.8,3.8,0,0,0,27.266,8.76c.15-.037,2.031-.869,2.245-.985,1.114-.6,1.316-2.329,1.222-3.469.374.063,1.568-.145,1.76.131a6.26,6.26,0,0,1-.359,2.669Zm-13.024-3.5H14.278a13.426,13.426,0,0,0-2.8.7A10.6,10.6,0,0,0,5.323,18.175c.347-.4,2.483-.615,2.577-.712s-.044-1.4.006-1.675c4.471.272,8.894-.752,12.275-3.769.487.117,1.579,1.466,2.012,1.185.154-.1.689-.963.906-1.2a19.24,19.24,0,0,1,2.03-1.889,5.555,5.555,0,0,1-2.938-6.652M32.806,8.829C24.118,9.64,18.793,18.977,22.123,26.99a13.2,13.2,0,0,0,20.44,5.04c10.01-8.365,3.252-24.416-9.757-23.2M20.65,27.973a15.1,15.1,0,0,1-.66-10.393c.171-.589,1.034-2.331,1.059-2.587.022-.226-.663-.753-.864-.722-.146.022-2.078,1.329-2.521,1.543A16.935,16.935,0,0,1,9.727,17.47v9.873a13.186,13.186,0,0,0,.733,2.768A10.489,10.489,0,0,0,26.53,34.625a18.581,18.581,0,0,1-2.748-2.16c-.212-.037-.871.778-1.124.947a4.4,4.4,0,0,1-5.86-.955,5.523,5.523,0,0,1-.909-1.752V27.973ZM7.906,19.29a3.5,3.5,0,0,0,0,7Zm13.654,10.5c-.9-.252-2.956.188-3.991,0a2.668,2.668,0,0,0,3.6,2.414c.449-.145,1.44-.874,1.2-1.391a7.764,7.764,0,0,0-.808-1.023m24.648.984c-.691.757-1.35,1.536-2.1,2.241-.246.232-1.042.608-.852.975l5.967,5.947a2.225,2.225,0,0,0,3.051-3.051ZM23.45,38.057a11.849,11.849,0,0,1-6.441,0c.115.553-.294,1.413-.221,1.9.031.2,2.26,2.812,2.6,3.211.151.175.758.951.905.914l3.352-4.056ZM1.884,47.79c-.173,1.451.128,3.206,0,4.692H7.066V47.3H8.887v5.182H31.574V47.3h1.821v5.182h5.182V47.79c0-2.526-3.561-5.867-6.108-5.936l-7.389-.683c-1.387,1.5-2.689,3.095-4,4.662-.16.19-.658,1.006-.706,1.046-.026.021-.3.055-.289-.089l-4.258-5.233-.529-.385c-4.1.749-9.048-.327-11.925,3.339A8.366,8.366,0,0,0,1.884,47.79" transform="translate(0 0)"/>
        <path id="Trazado_998625" data-name="Trazado 998625" d="M90.361,137.573c4.2-.778,4.409,5.589.247,5.148-2.821-.3-2.886-4.66-.247-5.148m.559,1.67c-1.561.238-.361,2.67.741,1.451a.877.877,0,0,0-.741-1.451" transform="translate(-76.05 -118.25)"/>
        <path id="Trazado_998626" data-name="Trazado 998626" d="M173.677,74.794c9.157-.763,15.326,9.344,10.644,17.226a11.4,11.4,0,1,1-10.644-17.226m9.69,7.8c-2.4-6.651-11.393-8.129-16.035-2.8-.146.168-2.157,3-1.54,2.8,3.156-2.344,6.95-2.788,10.79-2.526a14.729,14.729,0,0,1,6.785,2.527m-9.276-.8c-6.763.833-3.785,11.345,2.51,8.251,4.194-2.061,2.2-8.831-2.51-8.251M169.5,82.6c-1.141.312-4.629,2.361-4.629,3.57,0,1.225,3.446,3.188,4.558,3.572-.226-.721-.652-1.354-.84-2.1A6.372,6.372,0,0,1,169.5,82.6m10.083,7.139c1.141-.312,4.629-2.361,4.629-3.57,0-1.225-3.446-3.188-4.558-3.572.208.69.618,1.283.808,1.993a6.4,6.4,0,0,1-.879,5.149m3.78,0a14.729,14.729,0,0,1-6.785,2.527c-3.84.263-7.634-.182-10.79-2.526-.3-.1.324,1.066.378,1.162a9.618,9.618,0,0,0,16.192.842c.2-.288,1.2-1.754,1-2" transform="translate(-140.311 -64.285)"/>
        <path id="Trazado_998627" data-name="Trazado 998627" d="M227.569,137.718a2.616,2.616,0,0,1,2.759,4.018c-1.952,2.858-6.264-.081-4.323-2.923a2.7,2.7,0,0,1,1.565-1.1m.421,1.668a.916.916,0,0,0,.236,1.8c1.14-.071,1-2.02-.236-1.8" transform="translate(-193.931 -118.393)"/>
      </g>
    </g>
  </g>
</svg>
