<svg xmlns="http://www.w3.org/2000/svg" xmlns:xlink="http://www.w3.org/1999/xlink" width="1030" height="531" viewBox="0 0 1030 531">
  <defs>
    <clipPath id="clip-path">
      <path id="Trazado_611005" data-name="Trazado 611005" d="M0,0H1030V530H0Z" fill="#fff3d3"/>
    </clipPath>
    <clipPath id="clip-path-2">
      <path id="Trazado_997680" data-name="Trazado 997680" d="M117.442,62.75C42.836,69.355,15.965,118.59,5.763,163.154.355,186.777-6.656,252.464,17.437,277.722s42.354,28.756,83.542,29.531,61.783,3.1,92.09,1.163,77.712-3.01,82.765-71.495C284.486,119.631,201.4,62.238,129.166,62.237q-5.921,0-11.724.513" transform="translate(-0.466 -62.237)" fill="none"/>
    </clipPath>
    <clipPath id="clip-path-3">
      <rect id="Rectángulo_455299" data-name="Rectángulo 455299" width="610" height="438.623" fill="none"/>
    </clipPath>
    <clipPath id="clip-path-4">
      <path id="Trazado_997712" data-name="Trazado 997712" d="M386.428,7.642c-37.513,7.907-96.236,24.233-93.533,95.8s30.217,108.452,76.158,122.765,158.672,29.014,182.607-18.568S567.7,92.128,555.352,63.887C545.311,40.933,523.649.5,447.894.5c-17.447,0-37.762,2.144-61.466,7.141" transform="translate(-292.805 -0.501)" fill="none"/>
    </clipPath>
  </defs>
  <g id="Grupo_1184042" data-name="Grupo 1184042" transform="translate(-285 -3209)">
    <path id="Trazado_608309" data-name="Trazado 608309" d="M0,0H1030V530H0Z" transform="translate(285 3209)" fill="#fff3d3"/>
    <path id="Trazado_997646" data-name="Trazado 997646" d="M556.3,303.559a3.872,3.872,0,0,1-.757-.077,3.95,3.95,0,0,1-3.07-2.552,5.678,5.678,0,0,1,.6-5.276,10.844,10.844,0,0,1,5.118-4.324,4.019,4.019,0,0,0-1.667-1.3,8.881,8.881,0,0,0-6.329.247,3.654,3.654,0,0,0-2.089,2.109.538.538,0,0,1-1.02-.339,4.747,4.747,0,0,1,2.658-2.744,10.051,10.051,0,0,1,7.179-.27,5.168,5.168,0,0,1,2.3,1.891,9.42,9.42,0,0,1,1.15-.308,7.023,7.023,0,0,1,5.79.152c1.655.936,2.808,2.83,3.43,5.626a.537.537,0,1,1-1.048.233c-.553-2.487-1.532-4.144-2.91-4.925-1.267-.717-2.944-.732-4.987-.052a8.681,8.681,0,0,0-.864.222,11.284,11.284,0,0,1,.558,7.811c-.737,2.476-2.216,3.872-4.044,3.873m2.474-11.309a10.012,10.012,0,0,0-4.794,3.965,4.681,4.681,0,0,0-.511,4.315,2.9,2.9,0,0,0,2.267,1.9c2.29.45,3.261-1.979,3.579-3.046a10.187,10.187,0,0,0-.541-7.129" transform="translate(535.391 3278.678)"/>
    <path id="Trazado_997757" data-name="Trazado 997757" d="M556.3,303.559a3.872,3.872,0,0,1-.757-.077,3.95,3.95,0,0,1-3.07-2.552,5.678,5.678,0,0,1,.6-5.276,10.844,10.844,0,0,1,5.118-4.324,4.019,4.019,0,0,0-1.667-1.3,8.881,8.881,0,0,0-6.329.247,3.654,3.654,0,0,0-2.089,2.109.538.538,0,0,1-1.02-.339,4.747,4.747,0,0,1,2.658-2.744,10.051,10.051,0,0,1,7.179-.27,5.168,5.168,0,0,1,2.3,1.891,9.42,9.42,0,0,1,1.15-.308,7.023,7.023,0,0,1,5.79.152c1.655.936,2.808,2.83,3.43,5.626a.537.537,0,1,1-1.048.233c-.553-2.487-1.532-4.144-2.91-4.925-1.267-.717-2.944-.732-4.987-.052a8.681,8.681,0,0,0-.864.222,11.284,11.284,0,0,1,.558,7.811c-.737,2.476-2.216,3.872-4.044,3.873m2.474-11.309a10.012,10.012,0,0,0-4.794,3.965,4.681,4.681,0,0,0-.511,4.315,2.9,2.9,0,0,0,2.267,1.9c2.29.45,3.261-1.979,3.579-3.046a10.187,10.187,0,0,0-.541-7.129" transform="translate(-94.609 3108.004)"/>
    <path id="Trazado_997647" data-name="Trazado 997647" d="M141.653,332.958a9.592,9.592,0,0,1-6.958-2.973,9.064,9.064,0,0,1-1.838-3.528,8.047,8.047,0,0,1-3.9-1.414,9.256,9.256,0,0,1-3.8-6.382c-.409-3.264.716-5.274,2.481-7.966a.537.537,0,0,1,.9.588c-1.676,2.558-2.685,4.277-2.313,7.237a8.177,8.177,0,0,0,3.348,5.64,7.023,7.023,0,0,0,3.04,1.189,9.994,9.994,0,0,1,.052-3.859,6.616,6.616,0,0,1,3.939-4.849,3.4,3.4,0,0,1,3.517.377,4.182,4.182,0,0,1,1.241,4.137c-.55,2.249-3.089,4.437-5.914,5.121a8.556,8.556,0,0,1-1.468.2,7.767,7.767,0,0,0,1.51,2.777,8.568,8.568,0,0,0,6.627,2.617,9.175,9.175,0,0,0,6.735-3.475.537.537,0,1,1,.843.665,10.244,10.244,0,0,1-7.523,3.882c-.171.01-.341.014-.51.014M138.1,317.393a2.759,2.759,0,0,0-1.086.235,5.611,5.611,0,0,0-3.313,4.1,9.054,9.054,0,0,0,0,3.688,7.356,7.356,0,0,0,1.495-.183c2.415-.585,4.663-2.476,5.109-4.3a3.123,3.123,0,0,0-.863-3.073,2.109,2.109,0,0,0-1.338-.462" transform="translate(504.234 3280.299)"/>
    <path id="Trazado_997648" data-name="Trazado 997648" d="M144.613,46.257a.536.536,0,0,1-.537-.535,17.067,17.067,0,0,1,4.617-11.974,10.449,10.449,0,0,1,7.325-3.065,11.152,11.152,0,0,1,10.694-4.849,17.85,17.85,0,0,1,6.36,2.9c3.659,2.285,6.818,4.259,10.881-.029a.537.537,0,1,1,.78.739c-4.666,4.926-8.509,2.525-12.23.2a17.082,17.082,0,0,0-5.966-2.752,10.21,10.21,0,0,0-9.249,3.846c4.288.425,6.477,3.133,7.1,5.64.579,2.335-.111,4.654-1.64,5.516-.883.5-2.774.925-5.509-1.821-2.444-2.453-3.094-5.453-1.817-8.294a9.258,9.258,0,0,0-5.98,2.737,15.965,15.965,0,0,0-4.293,11.2.538.538,0,0,1-.536.539Zm12.014-14.489c-.02.037-.04.073-.058.111-1.315,2.55-.805,5.191,1.43,7.437,1.631,1.638,3.171,2.236,4.221,1.644,1.1-.62,1.583-2.477,1.125-4.321-.272-1.093-1.552-4.637-6.719-4.871" transform="translate(374.637 3248.316)"/>
    <path id="Trazado_997759" data-name="Trazado 997759" d="M144.613,46.257a.536.536,0,0,1-.537-.535,17.067,17.067,0,0,1,4.617-11.974,10.449,10.449,0,0,1,7.325-3.065,11.152,11.152,0,0,1,10.694-4.849,17.85,17.85,0,0,1,6.36,2.9c3.659,2.285,6.818,4.259,10.881-.029a.537.537,0,1,1,.78.739c-4.666,4.926-8.509,2.525-12.23.2a17.082,17.082,0,0,0-5.966-2.752,10.21,10.21,0,0,0-9.249,3.846c4.288.425,6.477,3.133,7.1,5.64.579,2.335-.111,4.654-1.64,5.516-.883.5-2.774.925-5.509-1.821-2.444-2.453-3.094-5.453-1.817-8.294a9.258,9.258,0,0,0-5.98,2.737,15.965,15.965,0,0,0-4.293,11.2.538.538,0,0,1-.536.539Zm12.014-14.489c-.02.037-.04.073-.058.111-1.315,2.55-.805,5.191,1.43,7.437,1.631,1.638,3.171,2.236,4.221,1.644,1.1-.62,1.583-2.477,1.125-4.321-.272-1.093-1.552-4.637-6.719-4.871" transform="translate(1011.777 3390.661)"/>
    <path id="Trazado_997649" data-name="Trazado 997649" d="M556.147,186.075a7.326,7.326,0,0,1-7.45-5.911,7.64,7.64,0,0,1,1.38-6.671,8.083,8.083,0,0,1,6.265-2.869,8.258,8.258,0,0,1,7.737,5.282,6.584,6.584,0,0,1-.271,5.163,8.336,8.336,0,0,1-4.482,4.434,9.286,9.286,0,0,1-3.179.572m.194-14.378a7,7,0,0,0-5.43,2.471,6.667,6.667,0,0,0-1.164,5.772,6.285,6.285,0,0,0,6.4,5.061,8.235,8.235,0,0,0,2.812-.507,7.239,7.239,0,0,0,3.866-3.86,5.517,5.517,0,0,0,.261-4.315,7.208,7.208,0,0,0-6.745-4.622" transform="translate(535.495 3269.975)" fill="#f2ac30"/>
    <path id="Trazado_997650" data-name="Trazado 997650" d="M55.647,322.742a7.325,7.325,0,0,1-7.45-5.911,7.632,7.632,0,0,1,1.381-6.671,8.078,8.078,0,0,1,6.264-2.87,8.258,8.258,0,0,1,7.737,5.282,6.584,6.584,0,0,1-.271,5.165,8.339,8.339,0,0,1-4.482,4.432,9.267,9.267,0,0,1-3.179.573m.194-14.379a6.994,6.994,0,0,0-5.429,2.472,6.661,6.661,0,0,0-1.165,5.771,6.286,6.286,0,0,0,6.4,5.062,8.227,8.227,0,0,0,2.812-.508,7.238,7.238,0,0,0,3.866-3.858,5.523,5.523,0,0,0,.261-4.317,7.209,7.209,0,0,0-6.745-4.622" transform="translate(498.542 3280.064)" fill="#70badb"/>
    <path id="Trazado_997651" data-name="Trazado 997651" d="M545.8,255.255a6.031,6.031,0,0,1-5-2.633l-10.764-15.845a6.045,6.045,0,0,1,1.6-8.368l15.848-10.765a6.039,6.039,0,0,1,8.368,1.6l10.764,15.843a6.038,6.038,0,0,1-1.6,8.371l-15.843,10.76a5.98,5.98,0,0,1-3.373,1.036m5.054-37.572a4.9,4.9,0,0,0-2.765.849L532.247,229.3a4.962,4.962,0,0,0-1.313,6.874L541.7,252.019a4.956,4.956,0,0,0,4.107,2.163,4.894,4.894,0,0,0,2.769-.852l15.843-10.759a4.961,4.961,0,0,0,1.314-6.879L554.969,219.85a4.956,4.956,0,0,0-4.11-2.167" transform="translate(534.058 3273.369)" fill="#70badb"/>
    <path id="Trazado_997756" data-name="Trazado 997756" d="M545.8,255.255a6.031,6.031,0,0,1-5-2.633l-10.764-15.845a6.045,6.045,0,0,1,1.6-8.368l15.848-10.765a6.039,6.039,0,0,1,8.368,1.6l10.764,15.843a6.038,6.038,0,0,1-1.6,8.371l-15.843,10.76a5.98,5.98,0,0,1-3.373,1.036m5.054-37.572a4.9,4.9,0,0,0-2.765.849L532.247,229.3a4.962,4.962,0,0,0-1.313,6.874L541.7,252.019a4.956,4.956,0,0,0,4.107,2.163,4.894,4.894,0,0,0,2.769-.852l15.843-10.759a4.961,4.961,0,0,0,1.314-6.879L554.969,219.85a4.956,4.956,0,0,0-4.11-2.167" transform="translate(-105.942 3261.638)" fill="#70badb"/>
    <path id="Trazado_997652" data-name="Trazado 997652" d="M105.43,384.709c-2.2,0-3.815-1.75-4.215-4.566l-3.114-22a5.41,5.41,0,0,1,.99-4.425c1.213-1.4,3.315-1.691,5.63-.759l20.608,8.3c2.032.818,3.275,2.151,3.5,3.751s-.6,3.226-2.321,4.576l-17.494,13.7a5.952,5.952,0,0,1-3.587,1.426m-3.276-31.223a2.873,2.873,0,0,0-2.252.935,4.454,4.454,0,0,0-.738,3.571l3.115,22c.322,2.281,1.5,3.642,3.151,3.642a4.9,4.9,0,0,0,2.924-1.2l17.494-13.7c1.409-1.1,2.091-2.375,1.92-3.579s-1.179-2.237-2.84-2.906l-20.608-8.3a5.826,5.826,0,0,0-2.166-.469" transform="translate(502.237 3283.396)" fill="#f2ac30"/>
    <path id="Trazado_997758" data-name="Trazado 997758" d="M105.43,384.709c-2.2,0-3.815-1.75-4.215-4.566l-3.114-22a5.41,5.41,0,0,1,.99-4.425c1.213-1.4,3.315-1.691,5.63-.759l20.608,8.3c2.032.818,3.275,2.151,3.5,3.751s-.6,3.226-2.321,4.576l-17.494,13.7a5.952,5.952,0,0,1-3.587,1.426m-3.276-31.223a2.873,2.873,0,0,0-2.252.935,4.454,4.454,0,0,0-.738,3.571l3.115,22c.322,2.281,1.5,3.642,3.151,3.642a4.9,4.9,0,0,0,2.924-1.2l17.494-13.7c1.409-1.1,2.091-2.375,1.92-3.579s-1.179-2.237-2.84-2.906l-20.608-8.3a5.826,5.826,0,0,0-2.166-.469" transform="translate(1026.985 2993.033)" fill="#f2ac30"/>
    <path id="Trazado_997653" data-name="Trazado 997653" d="M262.159,42.451a6.41,6.41,0,0,1-3.069-.885L239.62,30.86c-1.919-1.055-2.995-2.526-3.029-4.142s.979-3.131,2.852-4.264l19.008-11.507a6.26,6.26,0,0,1,3.221-1.017c2.455,0,4.083,1.989,4.146,5.067l.464,22.211a5.564,5.564,0,0,1-1.348,4.118,3.787,3.787,0,0,1-2.776,1.124M261.673,11a5.3,5.3,0,0,0-2.666.861L240,23.372c-1.53.927-2.359,2.107-2.335,3.324s.9,2.361,2.472,3.224l19.471,10.706c1.832,1.006,3.543.988,4.56-.049a4.544,4.544,0,0,0,1.042-3.345l-.464-22.212c-.052-2.476-1.228-4.015-3.072-4.015" transform="translate(512.468 3258.11)" fill="#f2c87e"/>
    <path id="Trazado_997654" data-name="Trazado 997654" d="M343.415,426.985H343.4c-44.417,0-82.961-3.339-108.534-9.395-29.1-6.892-48.486-18.841-57.612-35.518-7.713-14.092-8.069-31.4-1.054-51.444.263-.753.534-1.538.817-2.356C182.489,312.4,192.682,282.858,241.179,224c35.26-42.8,80.515-66.367,127.428-66.367a144.184,144.184,0,0,1,51.14,9.475c41.446,15.675,76.1,40.872,100.229,72.869,20.3,26.927,32.958,58.412,35.634,88.653,2.89,32.676-6.4,59.594-24.259,70.25-32.533,19.415-117.833,28.107-187.938,28.107M368.608,158.7c-46.587,0-91.547,23.432-126.6,65.976-48.372,58.712-58.525,88.135-63.979,103.942-.283.82-.554,1.606-.818,2.36-6.909,19.746-6.579,36.763.983,50.575,8.975,16.4,28.125,28.168,56.918,34.989,25.494,6.037,63.949,9.363,108.286,9.365h.018c69.96,0,155.027-8.643,187.388-27.956,17.5-10.441,26.592-36.969,23.737-69.231-4.622-52.259-42.8-125.678-135.173-160.614a143.086,143.086,0,0,0-50.759-9.406" transform="translate(507.639 3269.016)"/>
    <g id="Grupo_1183576" data-name="Grupo 1183576" transform="translate(495.5 3324.209)">
      <g id="Grupo_1183575" data-name="Grupo 1183575" clip-path="url(#clip-path-2)">
        <path id="Trazado_997655" data-name="Trazado 997655" d="M138.674,117.757c2.136,3.5,3.882,9.715,4.857,16.514.681,4.759,1.943,5.247,6.605,7.383s5.733,6.216,3.206,8.548c-3.6,3.321-3.593,1.507-4.079,5.247-.324,2.493.352,4.484-3,3.41-1.318-.421-4.042-2.044-4.43-1.745-1.162.9-.805,4.3,3.624,6.846,1.615.931,2.953.805,1.525,8.2-1.242,6.438-9.034,7.431-16.756,5.974s-6.12,4.372-9.18,12.677-3.5,12.969.728,16.466,7.578,20.255,7.14,24.334-15.008,12.531-27.393-1.165c-6.7-9.326-14.28-27.248-14.28-27.248s7.868-10.928,7.722-21.567-4.663-50.707,10.054-62.073,32.2-4.612,33.66-1.8" transform="translate(5.94 -58.475)" fill="#fff"/>
        <path id="Trazado_997656" data-name="Trazado 997656" d="M116.755,238.521c-3.947,0-9.858-1.334-15.6-7.683-6.7-9.313-14.3-27.218-14.376-27.4a.537.537,0,0,1,.059-.523c.077-.107,7.763-10.912,7.621-21.245-.019-1.468-.127-3.552-.249-5.966-.773-15.12-2.381-46.582,10.513-56.539a30.9,30.9,0,0,1,19.028-6.478c7.887,0,14.411,2.879,15.436,4.86,2.085,3.413,3.883,9.506,4.912,16.685.626,4.375,1.662,4.849,6.024,6.846l.273.125c2.7,1.238,4.448,3.189,4.793,5.354a4.457,4.457,0,0,1-1.445,4.077,18.748,18.748,0,0,1-2.68,2.1c-.927.608-.945.62-1.231,2.82-.059.455-.084.892-.106,1.3-.1,1.695-.256,3.627-3.594,2.557a19.147,19.147,0,0,1-2.064-.9,14.661,14.661,0,0,0-1.966-.844,1.521,1.521,0,0,0-.26,1.079c.087,1.275,1.161,3.2,3.916,4.788.142.082.282.156.419.227,1.748.916,2.674,1.764,1.366,8.537-.871,4.511-4.93,6.995-11.429,6.995a32.4,32.4,0,0,1-5.954-.6,11.088,11.088,0,0,0-2.015-.214c-3.167,0-3.764,1.962-4.811,6.4a50.664,50.664,0,0,1-1.751,6.148c-3.249,8.823-3.107,12.826.567,15.867,4.406,3.646,7.794,20.5,7.331,24.806-.294,2.746-5.768,6.819-12.726,6.819m-28.87-35.227c.983,2.288,7.964,18.325,14.1,26.871,5.439,6.011,11.036,7.283,14.765,7.283,6.482,0,11.438-3.8,11.659-5.86.423-3.942-2.961-20.563-6.949-23.863-4.623-3.827-3.879-8.95-.889-17.066a49.794,49.794,0,0,0,1.714-6.023c.99-4.2,1.705-7.228,5.856-7.228a11.947,11.947,0,0,1,2.214.232,31.26,31.26,0,0,0,5.755.578c4.193,0,9.4-1.062,10.375-6.125,1.219-6.317.412-6.74-.811-7.382-.148-.077-.3-.158-.456-.248-2.651-1.526-4.316-3.636-4.452-5.645a2.364,2.364,0,0,1,.768-2.09c.466-.362,1.276-.01,2.993.813a18.436,18.436,0,0,0,1.929.845,4.757,4.757,0,0,0,1.349.273c.636,0,.754-.263.845-1.868.025-.428.052-.891.115-1.373.322-2.488.45-2.755,1.705-3.579a17.792,17.792,0,0,0,2.542-1.992,3.411,3.411,0,0,0,1.113-3.121c-.282-1.776-1.845-3.476-4.179-4.546l-.273-.125c-4.436-2.031-5.93-2.715-6.641-7.669-1.008-7.041-2.751-12.986-4.783-16.31-.681-1.313-6.408-4.314-14.5-4.314a29.834,29.834,0,0,0-18.372,6.254c-12.449,9.614-10.861,40.7-10.1,55.635.123,2.425.231,4.518.251,6.007.136,9.93-6.448,19.9-7.648,21.637" transform="translate(5.903 -58.512)"/>
        <path id="Trazado_997657" data-name="Trazado 997657" d="M94.068,295.7c2.72,1.167,28.365,2.526,28.365,2.526s11.269-35.94,6.606-77.13c-9.325,8.16-19.818,6.216-30.308-2.331,6.6,20.206,3.5,61.781-4.664,76.936" transform="translate(6.445 -50.68)"/>
        <path id="Trazado_997658" data-name="Trazado 997658" d="M130.83,142.184c.567,1.817,1.867,3.029,2.9,2.708s1.414-2.061.848-3.88-1.868-3.029-2.9-2.7-1.419,2.057-.85,3.875" transform="translate(9.139 -56.624)"/>
        <path id="Trazado_997659" data-name="Trazado 997659" d="M132.474,139.416a.532.532,0,0,1-.151-.021.537.537,0,0,1-.364-.667l.973-3.3a.537.537,0,1,1,1.03.3l-.973,3.3a.535.535,0,0,1-.514.386" transform="translate(9.241 -56.862)"/>
        <path id="Trazado_997660" data-name="Trazado 997660" d="M115.581,244.775c-3-22.12-12.889-36.755-21.638-50.314-1.342-2.081-2.583-1.785-3.154-1.669-4.183.828-8.851,2.791-7.654,5.355a9.291,9.291,0,0,0,1.129,1.719c-1.815.366-3.987.822-6.568,1.391a40.568,40.568,0,0,0-21.75,12c-6.024,6.022-36.822,43.367-45.369,52.886,11.269,21.76,30.6,24.966,30.6,24.966s17.67-17.773,28.742-31.374c-.389,2.72-1.747,27.977-5.633,37.887,6.864,3.981,25.941,3.791,36.549,3.335,1.742,1.6,8.526.161,8.526.161s9.323-33.416,6.216-56.343" transform="translate(0.28 -52.604)" fill="#70badb"/>
        <path id="Trazado_997661" data-name="Trazado 997661" d="M79.132,125.025c-5.1,1.894-10.782,6.556-13.843,26.519-1.48,9.654-5.062,20.018-4.388,29.863.631,9.215,8.612,11.727,16.747,13.354,7.167,1.434,35.022,8.075,36.779-3.918,2.049-13.992-20.005-21.018-16.842-34.005.643-2.639,3.295-5.92,6.024-6.531,3.484-.779,4.519,2.2,7.228,4.025,3.3,2.225,5.276.925,7.258-2.415,1.874-3.157,1.172-8.213.875-11.756-.389-4.643-.94-6.322,3.088-7.65,5.446-1.8,10.111-5.485,4.868-11.711,6.994,8.305,10.49,6.994,16.173,3.351s5.975-6.995,3.79-13.26S138,95.008,126.2,96.465s-10.637,4.663-24.771,7.577-23.168,7.14-22.295,20.983" transform="translate(3.99 -59.721)"/>
        <path id="Trazado_997662" data-name="Trazado 997662" d="M127.032,133.75a.537.537,0,0,1-.506-.717c.381-1.068,2.536-6.451,7.536-7.485a.537.537,0,1,1,.217,1.051c-4.436.917-6.395,5.82-6.742,6.794a.536.536,0,0,1-.506.357" transform="translate(8.839 -57.563)"/>
        <path id="Trazado_997663" data-name="Trazado 997663" d="M95.428,300.074h-.033a.538.538,0,0,1-.5-.569c.029-.467.129-1.739.273-3.59.841-10.8,3.075-39.494,2.256-46.047-.858-6.861,1-8.579,3.815-11.181.352-.325.722-.667,1.106-1.037-1.386-.883-5.023-3.194-7.777-4.876-2.876-1.757-3.509-4.142-5.2-10.519-.506-1.9-1.077-4.059-1.836-6.692a36.856,36.856,0,0,0-7.77-14.647c-.534-.649-.994-1.208-1.379-1.745a.537.537,0,1,1,.873-.625c.363.508.813,1.054,1.335,1.687a37.839,37.839,0,0,1,7.973,15.033c.761,2.644,1.361,4.9,1.842,6.715,1.611,6.074,2.213,8.346,4.722,9.878,3.462,2.115,8.316,5.22,8.364,5.251a.534.534,0,0,1,.245.394.54.54,0,0,1-.155.438c-.568.568-1.108,1.068-1.614,1.535-2.752,2.545-4.268,3.945-3.479,10.258.833,6.661-1.407,35.433-2.251,46.264-.144,1.844-.243,3.11-.271,3.574a.538.538,0,0,1-.536.5" transform="translate(5.279 -52.19)" fill="#fff"/>
        <path id="Trazado_997664" data-name="Trazado 997664" d="M167.718,230.11l-4.081,12.045s-9.714-17.678-15.931-25.45c-5.811-7.263-14.164-11.811-20.782-14.278-4.465-7.39-10.774-8.457-10.774-8.457a6.486,6.486,0,0,0,.423,3.964c.923,2.212,10.926,19.547,8.6,47.137s-10.3,54.982-10.3,54.982H120.9s.046-.152.133-.435c4.53.583,13.757,1.513,14.05-.537.388-2.72,5.635-24.479,8.742-31.28,9.326,17.29,17.978,20.817,30.5,15.56,8.949-3.758,16.327-33.821,17.3-45.673.193-.2-23.9-7.578-23.9-7.578" transform="translate(7.981 -52.511)" fill="#70badb"/>
        <path id="Trazado_997665" data-name="Trazado 997665" d="M120.52,300.016a.57.57,0,0,1-.157-.023.538.538,0,0,1-.357-.671c.12-.394,12.059-39.506,13.784-46.979,1.774-7.688,1.717-8.61.561-10.869-1.454-2.838-2.7-5.331-2.7-5.331a.538.538,0,0,1,.2-.7c1.311-.81,4.591-3.391,4.033-5.582-1.24-4.866-5.965-20.989-9.42-27.116l-.112-.2a.537.537,0,1,1,.932-.533l.115.2c3.507,6.221,8.276,22.476,9.524,27.38.734,2.878-2.846,5.629-4.1,6.489.417.829,1.392,2.765,2.483,4.9,1.351,2.637,1.3,3.938-.469,11.6-1.733,7.51-13.684,46.657-13.8,47.052a.537.537,0,0,1-.513.38" transform="translate(8.358 -51.937)" fill="#fff"/>
        <path id="Trazado_997666" data-name="Trazado 997666" d="M141.868,265.53a.555.555,0,0,1-.223-.048.537.537,0,0,1-.264-.712c8.733-19.117,5.479-26,3.533-30.11a18.027,18.027,0,0,1-.833-1.943.537.537,0,0,1,1.019-.339,17.282,17.282,0,0,0,.785,1.822c2.025,4.281,5.414,11.444-3.528,31.017a.536.536,0,0,1-.489.314" transform="translate(9.934 -49.702)"/>
        <path id="Trazado_997667" data-name="Trazado 997667" d="M163.545,246.828a.536.536,0,0,1-.485-.3c-.021-.045-2.166-4.535-4.091-9.157a.537.537,0,1,1,.991-.412c1.915,4.6,4.048,9.061,4.07,9.105a.538.538,0,0,1-.484.769" transform="translate(11.233 -49.361)"/>
        <path id="Trazado_997668" data-name="Trazado 997668" d="M165.533,228.866c2.184-6.848,5.39-25.353,6.119-32.2S168.3,180.2,173.11,174.079s7.868-9.18,9.178-12.241,4.373-3.5,5.976-.437-.875,8.452-4.518,12.24c8.888-5.683,9.616-3.642,12.384-8.014s8.162-15.591,11.659-15.3c2.913-3.935,6.265-1.749,6.848,3.644,1.748-.146,3.351,3.935,2.187,10.053,4.223,2.478,3.786,11.511-2.187,18.36S197.3,193.312,194.82,198.85s-6.556,38.031-6.556,38.031Z" transform="translate(11.721 -55.881)" fill="#fff"/>
        <path id="Trazado_997669" data-name="Trazado 997669" d="M188.3,237.455a.547.547,0,0,1-.179-.03l-22.731-8.015a.537.537,0,0,1-.333-.67c2.2-6.9,5.4-25.51,6.1-32.1a36.054,36.054,0,0,0-.4-7.717c-.646-5.391-1.313-10.965,1.969-15.143,1.48-1.882,2.788-3.468,3.941-4.867,2.584-3.133,4.29-5.2,5.168-7.253a4.129,4.129,0,0,1,3.612-2.851,3.892,3.892,0,0,1,3.331,2.375c1.434,2.736-.029,6.877-2.531,10.367a48.875,48.875,0,0,1,5.052-2.531c2.126-.936,2.922-1.286,4.418-3.648.59-.931,1.322-2.216,2.1-3.576,3.681-6.455,6.959-11.814,9.749-11.975a4.342,4.342,0,0,1,3.354-2c2.118,0,3.755,2.219,4.239,5.693a2.219,2.219,0,0,1,1.175.8c1.074,1.3,1.993,4.55,1.124,9.491a6.672,6.672,0,0,1,2.592,4.61c.723,4.437-1.227,10.074-4.968,14.361-2.819,3.232-6.711,5.788-10.476,8.26-4.11,2.7-7.99,5.247-9.254,8.072-2.416,5.4-6.474,37.555-6.515,37.879a.535.535,0,0,1-.533.469m-22.065-8.886,21.616,7.622c.609-4.775,4.2-32.35,6.516-37.523,1.393-3.113,5.4-5.745,9.645-8.532,3.7-2.432,7.534-4.947,10.256-8.068,3.539-4.057,5.391-9.349,4.717-13.483a5.474,5.474,0,0,0-2.4-4.061.537.537,0,0,1-.257-.564c.852-4.47.2-7.723-.831-8.963a1.075,1.075,0,0,0-.737-.456.632.632,0,0,1-.625-.476c-.334-3.093-1.63-5.171-3.225-5.171a3.626,3.626,0,0,0-2.658,1.789.525.525,0,0,1-.476.216h0c-2.514,0-6.438,6.88-9.034,11.433-.782,1.371-1.521,2.666-2.124,3.619a8.533,8.533,0,0,1-4.891,4.057,50.045,50.045,0,0,0-7.658,4.122.537.537,0,0,1-.677-.825c3.3-3.432,5.974-8.67,4.428-11.619a2.835,2.835,0,0,0-2.38-1.8,3.112,3.112,0,0,0-2.626,2.2c-.94,2.193-2.685,4.309-5.327,7.514-1.149,1.394-2.453,2.975-3.924,4.847-3.009,3.829-2.368,9.178-1.749,14.352a36.774,36.774,0,0,1,.4,7.958c-.688,6.47-3.776,24.5-5.988,31.811" transform="translate(11.684 -55.918)"/>
        <path id="Trazado_997670" data-name="Trazado 997670" d="M187.777,181.946a.537.537,0,0,1-.522-.412c-.737-3.094-3.506-8.139-5.021-9.149a.537.537,0,0,1,.6-.893c1.886,1.257,4.727,6.672,5.47,9.793a.536.536,0,0,1-.4.646.488.488,0,0,1-.125.015" transform="translate(12.936 -54.177)"/>
        <path id="Trazado_997671" data-name="Trazado 997671" d="M204.642,179.262a.537.537,0,0,1-.481-.3c-.542-1.086-6.994-8.82-9.453-9.64a.537.537,0,0,1,.34-1.019c2.82.941,9.484,9,10.074,10.178a.538.538,0,0,1-.48.777" transform="translate(13.848 -54.408)"/>
        <path id="Trazado_997672" data-name="Trazado 997672" d="M202.75,180.408a.537.537,0,0,1-.226-1.024c1.687-.779,5.4-5.537,6.4-10.976.513-2.788,1.37-4.519,2.62-5.294a4.031,4.031,0,0,1,3.3-.225.537.537,0,0,1-.3,1.033,2.9,2.9,0,0,0-2.439.105c-.965.6-1.682,2.138-2.132,4.577-1.031,5.6-4.9,10.783-7.006,11.755a.54.54,0,0,1-.224.049" transform="translate(14.429 -54.824)"/>
        <path id="Trazado_997673" data-name="Trazado 997673" d="M200.986,176.284a.537.537,0,0,1-.353-.943c3.176-2.761,4.478-6.788,5.654-12.811,1.081-5.542,3.189-8.627,6.263-9.168a.537.537,0,0,1,.186,1.058c-2.591.456-4.406,3.255-5.394,8.317-1.221,6.252-2.594,10.452-6,13.415a.53.53,0,0,1-.351.132" transform="translate(14.299 -55.51)"/>
        <path id="Trazado_997674" data-name="Trazado 997674" d="M197.864,172.8a.527.527,0,0,1-.308-.1.537.537,0,0,1-.13-.748c1.581-2.246,3.565-8.669,5.16-13.83a66.749,66.749,0,0,1,2.967-8.558.537.537,0,0,1,.943.514,68.787,68.787,0,0,0-2.883,8.361c-1.7,5.506-3.63,11.746-5.309,14.132a.536.536,0,0,1-.439.228" transform="translate(14.069 -55.81)"/>
        <path id="Trazado_997675" data-name="Trazado 997675" d="M64.794,257.534a.537.537,0,0,1-.408-.885c3.274-3.851,9.861-10.83,9.928-10.9a.537.537,0,0,1,.78.739c-.065.069-6.633,7.027-9.89,10.858a.534.534,0,0,1-.409.189" transform="translate(4.244 -48.7)"/>
        <path id="Trazado_997676" data-name="Trazado 997676" d="M164.858,221.728c-2.148,4.027-3.39,10.558-2.953,11.141s16.376,1.879,27.248,9.664c2.477,1.165,3.269-10.314,2.882-11.641-1.021-3.5-25.865-10.621-27.178-9.164" transform="translate(11.447 -50.476)"/>
        <path id="Trazado_997677" data-name="Trazado 997677" d="M108.716,241.267a.531.531,0,0,1-.352-.132c-.049-.042-4.945-4.292-7.223-5.809a.537.537,0,0,1,.6-.893c2.333,1.555,7.128,5.716,7.331,5.893a.536.536,0,0,1-.352.942" transform="translate(6.949 -49.53)" fill="#fff"/>
        <path id="Trazado_997678" data-name="Trazado 997678" d="M124.7,239.192a.537.537,0,0,1-.381-.917,33.161,33.161,0,0,1,6.409-4.666c.432-.259.8-.48,1.081-.661a.536.536,0,1,1,.585.9c-.29.189-.67.417-1.114.683a32.219,32.219,0,0,0-6.2,4.5.535.535,0,0,1-.379.158" transform="translate(8.666 -49.639)" fill="#fff"/>
        <path id="Trazado_997679" data-name="Trazado 997679" d="M111.071,168.275c-.567-5.3-4.743-10.727-9.7-7.56-4.311,2.753-5.624,10.166-1.678,13.681a8.2,8.2,0,0,0,6.671,1.749c3.816-.748,5.092-4.278,4.709-7.87" transform="translate(6.686 -55.035)" fill="#f2ac30"/>
      </g>
    </g>
    <g id="Grupo_1183578" data-name="Grupo 1183578" transform="translate(495 3257.377)">
      <g id="Grupo_1183577" data-name="Grupo 1183577" clip-path="url(#clip-path-3)">
        <path id="Trazado_997681" data-name="Trazado 997681" d="M169.162,309.744h0c-10.477,0-20.738-.387-32.618-.835-10.2-.384-21.77-.822-35.54-1.081-40.227-.758-59.081-3.655-83.92-29.7C-6.163,253.76-.911,190.088,5.274,163.07,19.365,101.514,57.1,67.594,117.429,62.252c3.864-.341,7.824-.515,11.771-.515,39.9,0,79.975,17.5,107.2,46.8,20.912,22.512,44.827,63.072,40,128.457-4.951,67.11-50.588,69.954-80.788,71.835l-2.478.156c-8.045.515-15.665.755-23.975.755M129.2,62.811c-3.915,0-7.844.172-11.677.511C57.71,68.618,20.3,102.259,6.321,163.31.178,190.144-5.085,253.334,17.859,277.389,42.417,303.135,61.114,306,101.023,306.753c13.78.261,25.351.7,35.561,1.082,11.868.448,22.119.834,32.576.834h0c8.288,0,15.884-.238,23.907-.753l2.481-.156c29.827-1.858,74.9-4.666,79.784-70.843,3.795-51.448-9.939-95.588-39.72-127.646C208.588,80.179,168.806,62.811,129.2,62.811" transform="translate(0 4.558)"/>
        <path id="Trazado_997682" data-name="Trazado 997682" d="M171.484,87.637c7.276-1.9,30.535-6.329,42.718-8.86s25.475-4.272,27.214-3.48-17.563,25.157-26.582,34.807c-3.006,2.056-7.12-1.74-7.12-1.74-8.543,8.86-18.2,12.182-19.777,12.5s-2.374-9.492-2.532-15.348.881-6.993-3.955-9.334c-15.032-7.278-9.967-8.543-9.967-8.543" transform="translate(12.6 5.545)" fill="#70badb"/>
        <path id="Trazado_997683" data-name="Trazado 997683" d="M186.853,121.281a.537.537,0,0,1-.141-1.056c.792-.288,3.68-4.965,5.789-8.379,2.266-3.67,4.406-7.137,5.681-8.411,2.4-2.4,24.534-17.51,33.929-23.868L186.1,97.827a.537.537,0,0,1-.4-1l50.63-20.092a.537.537,0,0,1,.438.979c-1.564.829-35.32,23.968-37.833,26.48-1.187,1.187-3.392,4.76-5.527,8.216-3.665,5.936-5.38,8.568-6.419,8.852a.537.537,0,0,1-.142.019" transform="translate(13.686 5.663)"/>
        <path id="Trazado_997684" data-name="Trazado 997684" d="M206.709,107.594a.529.529,0,0,1-.316-.1l-.232-.17c-3.244-2.371-7.282-5.332-8.229-4.848a.537.537,0,1,1-.481-.96c1.461-.729,4.357,1.3,9.344,4.942l.23.169a.537.537,0,0,1-.317.971" transform="translate(14.556 7.484)"/>
        <path id="Trazado_997685" data-name="Trazado 997685" d="M245.13,187.852c-6.085.557-9.54,4.337-8.93,15.093s-1.828,21.861,2.435,26.022,15.018,4.168,24.964,4.339,22.826-.119,26.64-.174c8.982-.13,12.177-1.69,13.4-8.718.717-4.136-1.005-27.472-1.065-29.926-.154-6.115-4.111-6.9-12.788-7.287-8.319-.375-38.969.13-44.652.651" transform="translate(17.428 13.812)" fill="#f2ac30"/>
        <path id="Trazado_997686" data-name="Trazado 997686" d="M269.22,216.215h-.12c-4.281-.063-7.762-3.666-10.316-6.8-4.719-5.789-15.339-17.658-17.919-19.864a.537.537,0,0,1,.7-.817c2.615,2.236,13.311,14.184,18.055,20,2.406,2.951,5.661,6.344,9.5,6.4,2.745.018,5.615-1.646,8.536-5.018,8.04-9.276,19.971-20.96,20.09-21.076a.536.536,0,1,1,.751.767c-.119.117-12.018,11.771-20.029,21.013-3.141,3.625-6.167,5.39-9.244,5.39" transform="translate(17.77 13.925)"/>
        <path id="Trazado_997687" data-name="Trazado 997687" d="M238.494,227.972a.536.536,0,0,1-.239-1.017c1.4-.7,8.515-7.416,13.713-12.321,4.306-4.064,6.771-6.382,7.355-6.738a.537.537,0,1,1,.559.916c-.515.316-3.752,3.37-7.177,6.6-7.044,6.648-12.546,11.791-13.972,12.5a.526.526,0,0,1-.238.057" transform="translate(17.569 15.343)"/>
        <path id="Trazado_997688" data-name="Trazado 997688" d="M296.345,229.765a.538.538,0,0,1-.464-.265c-.341-.582-4.342-4.915-8.208-9.106-5.106-5.53-10.385-11.248-11.184-12.518a.536.536,0,0,1,.907-.572c.747,1.186,6.228,7.124,11.065,12.363,4.927,5.336,7.966,8.64,8.348,9.29a.537.537,0,0,1-.464.809" transform="translate(20.408 15.287)"/>
      </g>
    </g>
    <g id="Grupo_1183580" data-name="Grupo 1183580" transform="translate(809.423 3257.915)">
      <g id="Grupo_1183579" data-name="Grupo 1183579" clip-path="url(#clip-path-4)">
        <path id="Trazado_997689" data-name="Trazado 997689" d="M480.343,63.225C477.39,50.7,450.185,34.59,438.553,39.064s3.221,9.664,3.221,9.664c-17.9-3.221-26.487-1.074-28.277,3.4s5.727,6.264,5.727,6.264c-12.17.358-25.771,9.844-23.8,16.465s10.022,4.206,10.022,4.206c-11.455,9.217-9.586,18.589,2.366,17.483-12.567,9.452-14.355,26.813-9.524,33.076s9.522-3.217,9.522-3.217c-5.048,13.956,2.468,23.083,9.627,11.45-1.61,15.928,12.528,18.076,17,10.2,4.3,15.213,14.5,12.885,16.287,5.369,5.549,6.98,16.465,4.653,18.613-2.864,6.085,7.159,11.455.627,10.918-4.921,6.264,7.337,16.107,8.233,18.076-5.1,8.948,6.622,13.423,6.443,11.007-9.4,14.945,5.458,22.819-11.186,5.638-25.5,11.455,3.042,10.2-8.77-6.175-15.839,11.544-.268,12.975-8.143,7.248-13.96s-15.391-17.092-35.7-12.618" transform="translate(-285.243 2.29)"/>
        <path id="Trazado_997690" data-name="Trazado 997690" d="M421.556,91.225c-1.748,10.491,1.361,13.6,4.468,20.984s-1.237,15.163,7.044,24.381c7.722,8.6,19.379,8.063,19.379,8.063l3.3,13.406,28.561-7.384-6.218-26.907s5.829-3.205,4.08-14.669-1.942-39.827-29.725-35.555-28.365,9.325-30.892,17.68" transform="translate(-283.336 4.86)" fill="#fff"/>
        <path id="Trazado_997691" data-name="Trazado 997691" d="M455.785,158.634a.538.538,0,0,1-.521-.408l-3.2-12.991c-2.028,0-12.322-.415-19.359-8.248-5.321-5.923-5.56-11.4-5.771-16.236-.127-2.9-.246-5.631-1.368-8.3-.6-1.43-1.2-2.686-1.775-3.9-2.326-4.9-4.163-8.771-2.729-17.38l.265-.9c2.428-8.133,3.893-13.042,31.075-17.222a36.153,36.153,0,0,1,5.455-.441c20.455,0,22.9,20.324,24.366,32.467.176,1.468.338,2.81.517,3.976,1.555,10.195-2.711,14.074-4,15l6.133,26.541a.537.537,0,0,1-.389.641l-28.561,7.383a.475.475,0,0,1-.134.018m-3.3-14.481a.537.537,0,0,1,.521.409l3.172,12.88,27.529-7.118-6.1-26.4a.535.535,0,0,1,.264-.591c.053-.03,5.471-3.212,3.807-14.118-.178-1.177-.343-2.533-.521-4.01-1.42-11.79-3.8-31.523-23.3-31.523a35.123,35.123,0,0,0-5.292.428c-26.51,4.078-27.9,8.742-30.209,16.468l-.25.837c-1.364,8.209.322,11.761,2.656,16.676.582,1.225,1.182,2.492,1.793,3.944,1.2,2.842,1.321,5.671,1.452,8.665.213,4.881.433,9.929,5.5,15.566,6.747,7.511,16.656,7.892,18.574,7.892.517,0,.39-.008.406-.008" transform="translate(-283.373 4.823)"/>
        <path id="Trazado_997692" data-name="Trazado 997692" d="M489.112,99.586c-.97-5.855-2.16-11.392-5.186-16.609-1.866-3.216-3.551-6.527-6.706-8.671-8.862-6.022-20.8-5.661-30.882-3.569-8.01,1.662-16.926,4.5-23.132,10.022-2.063,1.834-10.416,10.162-5.006,12.567,3.168,1.409,6.659-1.581,9.048-3.6a4.628,4.628,0,0,0,.526,1c1.611,2.416,5.638,2.685,8.322,2.148,6.98-1.074,13.691-5.638,18.792-10.738-1.074,1.611-2.416,3.758-1.879,5.906,1.074,2.416,3.49,2.685,5.638,2.685,4.564-.268,8.859-4.027,12.081-6.98-2.685,5.1-5.638,10.2-5.906,16.107a16.364,16.364,0,0,0,1.074,8.054c1.342,3.221,4.3,3.221,6.98,1.342-1.342,4.3-2.148,8.322-.268,12.616,1.12,2.561,4.653,6.892,9.575,6,3.931-.714,4.659-9.935,6.084-13.154,2.66-6.007,1.929-8.587.846-15.127" transform="translate(-283.679 4.583)"/>
        <path id="Trazado_997693" data-name="Trazado 997693" d="M416.891,94.482c-2.4,0-4.728-.855-5.377-3.291a8.531,8.531,0,0,1,.183-4.268,17.971,17.971,0,0,1,4.476-6.972.536.536,0,1,1,.717.8,17,17,0,0,0-4.163,6.48,7.379,7.379,0,0,0-.174,3.686c.806,3.029,5.085,2.5,5.935,2.363a17.821,17.821,0,0,0,5.942-1.836.537.537,0,0,1,.524.937,18.839,18.839,0,0,1-6.295,1.959,11.14,11.14,0,0,1-1.768.145" transform="translate(-284.055 5.355)" fill="#fff"/>
        <path id="Trazado_997694" data-name="Trazado 997694" d="M444.353,124.581h-.029c-3.533-.2-5.741-1.012-6.751-2.5-1.254-1.845-.452-4.252.323-6.58.151-.454.3-.907.435-1.351,1.191-3.969-1.535-8.759-4.57-11.531a8.162,8.162,0,0,0-7.415-2.037,2.81,2.81,0,0,0-2.1,1.726.537.537,0,0,1-1.034-.292,3.84,3.84,0,0,1,2.839-2.467,9.262,9.262,0,0,1,8.432,2.278c3.387,3.09,6.207,8.194,4.876,12.631-.135.454-.29.917-.446,1.382-.692,2.08-1.408,4.232-.452,5.637.8,1.174,2.789,1.856,5.92,2.03a.537.537,0,0,1-.029,1.073" transform="translate(-283.178 6.793)"/>
        <path id="Trazado_997695" data-name="Trazado 997695" d="M441.4,101.09a.537.537,0,0,1-.421-.871c1.875-2.367,7.305-7.266,17.2-1.634a.537.537,0,0,1-.53.933c-8.839-5.03-13.707-1.3-15.825,1.369a.538.538,0,0,1-.421.2" transform="translate(-281.873 6.548)"/>
        <path id="Trazado_997696" data-name="Trazado 997696" d="M453.4,108.623c.9,1.677.856,3.456-.1,3.968s-2.462-.431-3.363-2.11-.854-3.452.1-3.964,2.462.428,3.364,2.106" transform="translate(-281.252 7.316)"/>
        <path id="Trazado_997697" data-name="Trazado 997697" d="M450.841,107.437a.533.533,0,0,1-.252-.063l-3.04-1.618a.537.537,0,0,1,.5-.948l3.04,1.619a.537.537,0,0,1-.252,1.01" transform="translate(-281.401 7.196)"/>
        <path id="Trazado_997698" data-name="Trazado 997698" d="M434.536,110.252c.9,1.677.855,3.455-.1,3.968s-2.462-.432-3.362-2.111-.854-3.452.1-3.964,2.462.427,3.364,2.107" transform="translate(-282.644 7.436)"/>
        <path id="Trazado_997699" data-name="Trazado 997699" d="M431.98,109.065a.533.533,0,0,1-.252-.063l-3.04-1.618a.537.537,0,1,1,.5-.948l3.04,1.619a.537.537,0,0,1-.252,1.01" transform="translate(-282.794 7.316)"/>
        <path id="Trazado_997700" data-name="Trazado 997700" d="M446.748,132.2c-2.562,0-5.079-2.379-7.086-6.7a.537.537,0,0,1,.54-.761,16.726,16.726,0,0,0,1.675.112c2.072,0,4.528-.815,10.947-4.982a.536.536,0,0,1,.827.5c-.671,7.3-3.316,11.83-6.9,11.83m-5.7-6.306c1.716,3.339,3.766,5.232,5.7,5.232,2.769,0,4.963-3.786,5.713-9.746-6.731,4.284-8.984,4.687-11.411,4.514" transform="translate(-281.966 8.306)"/>
        <path id="Trazado_997701" data-name="Trazado 997701" d="M444.9,131.416a.5.5,0,0,1-.142-.019.536.536,0,0,1-.376-.659c.945-3.47,4.8-6.062,7.336-5.913a.536.536,0,0,1,.5.569.522.522,0,0,1-.569.5c-2.159-.137-5.436,2.206-6.234,5.124a.536.536,0,0,1-.518.4" transform="translate(-281.615 8.678)"/>
        <path id="Trazado_997702" data-name="Trazado 997702" d="M384.748,221.582c5.1-4.953,29.434-37.156,38.9-48.667s20.4-11.8,35.263-11.949c-3.66-14.664-2.688-14.99-1.959-14.844a38.159,38.159,0,0,0,28.457-6.443c3.668-.985,3.519,13.71,7.016,15.6s26.81-2.914,38.323,8.6,19.524,38.758,19.524,38.758c-6.266,10.055-48.814,41.673-102.289,27.1-1.021-4.518-8.307-11.513-10.492-20.4-9.034,11.8-15.446,20.543-15.446,20.543s-28.7-1.893-37.3-8.305" transform="translate(-286.017 9.771)" fill="#f2ac30"/>
        <path id="Trazado_997703" data-name="Trazado 997703" d="M465,164.364c-5.856,0-9.935-2.368-11.539-4.045a.537.537,0,1,1,.775-.742c3.011,3.147,15.363,8.8,32.041-6a.537.537,0,1,1,.713.8c-8.622,7.655-16.182,9.988-21.99,9.988" transform="translate(-280.954 10.791)"/>
        <path id="Trazado_997704" data-name="Trazado 997704" d="M461.724,164.78a.537.537,0,0,1-.515-.38c-.193-.639-4.772-15.683-5.254-17.815a.536.536,0,1,1,1.046-.236c.476,2.093,5.189,17.583,5.236,17.739a.537.537,0,0,1-.358.671.554.554,0,0,1-.155.021" transform="translate(-280.76 10.236)"/>
        <path id="Trazado_997705" data-name="Trazado 997705" d="M467.628,164.7a.537.537,0,0,1-.512-.377l-5.634-17.971a.538.538,0,0,1,1.027-.321l5.633,17.972a.537.537,0,0,1-.353.672.513.513,0,0,1-.16.025" transform="translate(-280.353 10.216)"/>
        <path id="Trazado_997706" data-name="Trazado 997706" d="M473.781,162.84a.54.54,0,0,1-.511-.369l-5.634-17.194a.538.538,0,0,1,1.022-.334l5.633,17.193a.536.536,0,0,1-.344.678.524.524,0,0,1-.166.027" transform="translate(-279.899 10.136)"/>
        <path id="Trazado_997707" data-name="Trazado 997707" d="M479.33,159.873a.537.537,0,0,1-.514-.384l-4.761-16.126a.537.537,0,1,1,1.03-.3l4.76,16.125a.535.535,0,0,1-.514.689" transform="translate(-279.425 9.996)"/>
        <path id="Trazado_997708" data-name="Trazado 997708" d="M450.481,141.19l-.17,0a.538.538,0,0,1-.524-.55.524.524,0,0,1,.551-.524c3.8.133,14.031-3.208,20.553-11.265a.537.537,0,0,1,.834.675c-6.661,8.228-17.152,11.665-21.245,11.665" transform="translate(-281.215 8.961)"/>
        <path id="Trazado_997709" data-name="Trazado 997709" d="M436.066,211.4a.537.537,0,0,1-.492-.321,48.5,48.5,0,0,1-3.832-18.43.537.537,0,1,1,1.074,0,48.221,48.221,0,0,0,3.742,18,.537.537,0,0,1-.276.708.548.548,0,0,1-.216.045" transform="translate(-282.547 13.646)"/>
        <path id="Trazado_997710" data-name="Trazado 997710" d="M509.145,221.207a.536.536,0,0,1-.514-.386c-.048-.165-4.83-16.53-6.845-22.715a.537.537,0,1,1,1.021-.333c2.02,6.2,6.806,22.581,6.853,22.745a.539.539,0,0,1-.516.688" transform="translate(-277.378 14.037)"/>
        <path id="Trazado_997711" data-name="Trazado 997711" d="M476.26,125.79a12.5,12.5,0,0,1-5.647-1.631.537.537,0,1,1,.5-.951c2.45,1.284,4.65,1.764,6.344,1.384,3.995-.907,5.654-7.907,5.654-11.451a.536.536,0,0,1,.962-.328,8.035,8.035,0,0,0,6.763,3.482c2.72-.183,5.349-3.191,5.686-5.561a.537.537,0,1,1,1.063.152c-.4,2.818-3.421,6.263-6.714,6.482h0a8.935,8.935,0,0,1-6.744-2.85c-.369,4.4-2.438,10.214-6.431,11.121a6.561,6.561,0,0,1-1.432.151" transform="translate(-279.698 7.604)" fill="#fff"/>
      </g>
    </g>
    <g id="Grupo_1183582" data-name="Grupo 1183582" transform="translate(495 3257.377)">
      <g id="Grupo_1183581" data-name="Grupo 1183581" clip-path="url(#clip-path-3)">
        <path id="Trazado_997713" data-name="Trazado 997713" d="M465.134,240.731h-.011c-37.9,0-75.5-7.529-96.191-13.974C319.986,211.507,294.951,171.189,292.4,103.5c-1.187-31.46,9.546-55.76,31.9-72.225,18.506-13.63,41.755-19.842,62.053-24.121C408.869,2.406,429.587,0,447.93,0c33.078,0,59.559,7.808,78.709,23.2,15.756,12.668,23.9,28.3,29.242,40.5,6.8,15.542,11.322,40.383,11.808,64.828.423,21.307-1.925,52.374-15.512,79.381-13.641,27.117-54.862,32.813-87.043,32.813M447.93,1.074c-18.269,0-38.911,2.4-61.354,7.129-47.441,10-95.6,29.14-93.107,95.255,2.536,67.18,27.324,107.176,75.781,122.273,22.244,6.93,60.516,13.924,95.873,13.925h.011c31.88,0,72.688-5.59,86.084-32.221,13.487-26.81,15.818-57.693,15.4-78.877-.482-24.315-4.972-49-11.718-64.419C547.352,46.891,527.31,1.074,447.93,1.074" transform="translate(21.582)"/>
        <path id="Trazado_997714" data-name="Trazado 997714" d="M340.864,51.794H298.77c-7.318,0-12.909,6.294-12.462,13.9l1.135,19.34a13.2,13.2,0,0,0,13.164,12.471l30.457-.459c1.589,4.726,2.753,9.324,5.8,9.1,2.181-.215,3.114-4.826,3.735-9.274a12.963,12.963,0,0,0,11.888-12.553l.685-18.931c.27-7.446-5.226-13.6-12.308-13.6" transform="translate(21.137 3.824)" fill="#fff"/>
        <path id="Trazado_997715" data-name="Trazado 997715" d="M336.689,106.732c-2.983,0-4.212-3.741-5.633-8.073q-.168-.512-.339-1.03l-30.264.454A13.665,13.665,0,0,1,286.944,85.1l-1.135-19.34A14.046,14.046,0,0,1,289.5,55.312a12.668,12.668,0,0,1,9.3-4.018H340.9a12.425,12.425,0,0,1,9.006,3.859,14.128,14.128,0,0,1,3.839,10.3l-.685,18.931a13.552,13.552,0,0,1-11.955,13.035c-.682,4.742-1.682,9.063-4.152,9.306-.1.008-.181.011-.264.011M331.1,96.55a.537.537,0,0,1,.509.366c.159.471.314.943.466,1.408,1.326,4.037,2.491,7.506,4.785,7.328,2.041-.2,2.913-6.457,3.243-8.812a.535.535,0,0,1,.5-.462,12.443,12.443,0,0,0,11.385-12.037l.685-18.932a13.044,13.044,0,0,0-3.538-9.511,11.362,11.362,0,0,0-8.233-3.531H298.806a11.607,11.607,0,0,0-8.524,3.681,12.975,12.975,0,0,0-3.4,9.653l1.135,19.34a12.746,12.746,0,0,0,12.437,11.968h.183l30.457-.459Z" transform="translate(21.1 3.787)"/>
        <path id="Trazado_997716" data-name="Trazado 997716" d="M306.028,73.921a4.128,4.128,0,1,1-4.127-4.227,4.177,4.177,0,0,1,4.127,4.227" transform="translate(21.985 5.146)" fill="#70badb"/>
        <path id="Trazado_997717" data-name="Trazado 997717" d="M321.223,73.921a4.128,4.128,0,1,1-4.128-4.227,4.178,4.178,0,0,1,4.128,4.227" transform="translate(23.107 5.146)" fill="#70badb"/>
        <path id="Trazado_997718" data-name="Trazado 997718" d="M336.415,73.921a4.128,4.128,0,1,1-4.127-4.227,4.177,4.177,0,0,1,4.127,4.227" transform="translate(24.229 5.146)" fill="#70badb"/>
        <path id="Trazado_997719" data-name="Trazado 997719" d="M466.1,390.536H424.3a.537.537,0,0,1,0-1.074h41.8a.537.537,0,1,1,0,1.074" transform="translate(31.287 28.755)"/>
        <path id="Trazado_997720" data-name="Trazado 997720" d="M348.828,252.311c-12.387-5.973-14.718-19.379,3.35-24.479-12.678-15.591.145-24.626,8.743-26.374s25.645,2.623,42.11,16.757,23.606,14.863,28.56,25.936,2.623,19.673-2.332,30.892-5.536,14.717,4.081,23.751,17.485,18.068,10.783,35.116-86.845,10.782-90.634-.874,5.246-54.351,5.246-54.351Z" transform="translate(25.035 14.847)"/>
        <path id="Trazado_997721" data-name="Trazado 997721" d="M339.648,316.493c-1.9-8.3.3-27.375,16.9-36.866,12.106-6.922,18.506,2.769,18.506,2.769l1.893,31.911s-33.222,2.331-37.3,2.185" transform="translate(25.035 20.461)"/>
        <path id="Trazado_997722" data-name="Trazado 997722" d="M253.195,269.4c-1.456-2.039-3.639-4.831-5.678-3.374s1.208,13.289,10.342,11.825a78.8,78.8,0,0,1-4.664-8.451" transform="translate(18.231 19.612)" fill="#fff"/>
        <path id="Trazado_997723" data-name="Trazado 997723" d="M256.365,278.553h0c-5.119,0-8.275-4.184-9.423-7.765-.594-1.856-.872-4.321.3-5.159a2.558,2.558,0,0,1,1.507-.5c1.812,0,3.436,1.924,4.921,4a81.448,81.448,0,0,0,4.673,8.466.538.538,0,0,1-.362.829,10.316,10.316,0,0,1-1.615.131M248.747,266.2a1.488,1.488,0,0,0-.883.3c-.4.285-.586,1.818.1,3.958,1.087,3.392,3.864,7.018,8.4,7.018h0c.2,0,.4-.008.608-.022a84.725,84.725,0,0,1-4.228-7.79c-.711-.98-2.489-3.47-4-3.47" transform="translate(18.194 19.575)"/>
        <path id="Trazado_997724" data-name="Trazado 997724" d="M277.261,271.045c-4.954-1.6-8.16-5.537-6.556-8.744s6.847,1.021,10.49,3.935a17.211,17.211,0,0,0,7.14,3.5s-5.392,2.768-11.074,1.312" transform="translate(19.956 19.282)" fill="#fff"/>
        <path id="Trazado_997725" data-name="Trazado 997725" d="M280.765,272.042a14.474,14.474,0,0,1-3.6-.44c-3.321-1.074-5.975-3.191-6.958-5.536a4.633,4.633,0,0,1,.056-3.968,2.456,2.456,0,0,1,2.315-1.444c2.491,0,6.056,2.852,8.921,5.144a17.034,17.034,0,0,0,6.964,3.443.537.537,0,0,1,.156,1.007,18.823,18.823,0,0,1-7.853,1.794m-8.188-10.314a1.392,1.392,0,0,0-1.355.85,3.547,3.547,0,0,0-.026,3.072c.867,2.064,3.268,3.95,6.267,4.92a13.422,13.422,0,0,0,3.3.4,17.98,17.98,0,0,0,5.945-1.087,18.982,18.982,0,0,1-5.813-3.189c-2.659-2.127-6.2-4.964-8.32-4.964" transform="translate(19.919 19.245)"/>
        <path id="Trazado_997726" data-name="Trazado 997726" d="M283.834,316c-.388-8.55-1.359-25.646-2.719-31.085s-9.911-3.888-10.493-4.082-11.219,3.837-16.465-6.8-1.02-14.572,1.894-13.552c1.02-3.5,3.935-2.477,5.537-.729,1.458-3.06,5.683.147,6.7,4.081s2.04,7.432,10.2,6.412S296.7,266.9,300.638,278.7s7.141,30.163,7.141,30.163S306.225,320.52,283.834,316" transform="translate(18.581 19.06)" fill="#fff"/>
        <path id="Trazado_997727" data-name="Trazado 997727" d="M293.21,317.616a48.416,48.416,0,0,1-9.444-1.05.539.539,0,0,1-.431-.5c-.262-5.782-1.233-25.1-2.7-30.98-.621-2.483-3.075-3.74-7.3-3.74-.686,0-1.294.032-1.755.056a5.29,5.29,0,0,1-1.007,0c-.116.009-.32.055-.6.111a21.076,21.076,0,0,1-4.278.486c-5.355,0-9.5-2.66-11.979-7.691-3.652-7.4-2.591-11.091-1.633-12.632a3.619,3.619,0,0,1,3.659-1.8,2.971,2.971,0,0,1,2.813-2.226,4.689,4.689,0,0,1,2.971,1.291,2.282,2.282,0,0,1,1.834-.9c2.137,0,4.7,2.665,5.49,5.7.861,3.321,1.6,6.191,7.051,6.191a20.93,20.93,0,0,0,2.562-.176c.6-.074,1.207-.157,1.822-.238a55.257,55.257,0,0,1,7.307-.657c4.446,0,10.693,1.007,13.6,9.711,3.9,11.7,7.127,30.055,7.159,30.239a.554.554,0,0,1,0,.163c-.011.087-1.313,8.648-15.138,8.648m-8.822-2.022a46.6,46.6,0,0,0,8.822.948c12.218,0,13.909-6.858,14.062-7.642-.251-1.415-3.37-18.789-7.106-30-2.651-7.954-8.114-8.975-12.576-8.975a54.579,54.579,0,0,0-7.165.646c-.619.083-1.231.166-1.832.241a21.814,21.814,0,0,1-2.7.185c-6.277,0-7.24-3.717-8.09-6.994-.715-2.757-2.98-4.9-4.451-4.9a1.348,1.348,0,0,0-1.248.912.536.536,0,0,1-.881.132,3.985,3.985,0,0,0-2.677-1.43c-.917,0-1.571.655-1.948,1.948a.54.54,0,0,1-.694.357,2.5,2.5,0,0,0-2.919,1.218c-.675,1.088-1.865,4.393,1.684,11.59,2.321,4.706,6.027,7.092,11.016,7.092a20.192,20.192,0,0,0,4.069-.466,5.157,5.157,0,0,1,.839-.133,1.033,1.033,0,0,1,.23.034c.2-.01.42-.02.695-.035.475-.025,1.1-.057,1.809-.057,4.777,0,7.585,1.532,8.339,4.553,1.461,5.843,2.427,24.5,2.716,30.771" transform="translate(18.544 19.023)"/>
        <path id="Trazado_997728" data-name="Trazado 997728" d="M258.321,279.083a.537.537,0,0,1-.328-.112c-3.3-2.55-5.488-6.359-6.506-11.324a.537.537,0,1,1,1.051-.217c.965,4.706,3.022,8.3,6.111,10.691a.536.536,0,0,1-.329.961" transform="translate(18.567 19.713)"/>
        <path id="Trazado_997729" data-name="Trazado 997729" d="M271.444,277.705h-.024a9.608,9.608,0,0,1-7.388-3.816c-3.636-4.594-4.048-12-3.608-14.308a.537.537,0,0,1,1.055.2c-.4,2.1.023,9.178,3.4,13.439a8.57,8.57,0,0,0,6.592,3.409.537.537,0,0,1-.023,1.074" transform="translate(19.217 19.133)"/>
        <path id="Trazado_997730" data-name="Trazado 997730" d="M266.144,281.589l-.045,0a9.53,9.53,0,0,1-6.957-3.886c-4.287-5.55-4.262-15.2-3.873-17.432a.537.537,0,1,1,1.058.184c-.37,2.133-.4,11.326,3.666,16.592a8.493,8.493,0,0,0,6.2,3.473.537.537,0,0,1-.044,1.072" transform="translate(18.835 19.183)"/>
        <path id="Trazado_997731" data-name="Trazado 997731" d="M359.42,320.979c4.809,2.185,18.8,7.14,44.151.729-.874,17.485-2.622,54.351-2.622,54.351s-21.129,11.949-35.264,6.995c-3.933-6.7-6.265-62.075-6.265-62.075" transform="translate(26.537 23.699)"/>
        <path id="Trazado_997732" data-name="Trazado 997732" d="M364.943,314.381c4.224-.583,8.785-2.192,8.347-9.187s-1.6-16.174-1.6-16.174c-10.928-.145-21.711-5.829-26.665-17.048s1.6-17.048,5.246-28.706,10.491-21.274,25.79-20.254,23.46,8.305,23.46,8.305c-2.622,13.7-5.246,33.077.437,34.243s7.141-8.888,7.141-8.888c8.6-4.227,17.6.916,14.134,8.45-4.224,9.18-14.28,4.518-14.28,4.518-2.039,5.246-10.636,11.073-10.636,11.073,1.31,10.783,2.616,28.621,10.777,29.64C403.739,327.4,402,333.609,402,333.609s-29.289,7.14-39.926-3.351c.437-3.642,2.872-15.877,2.872-15.877" transform="translate(25.342 16.46)" fill="#fff"/>
        <path id="Trazado_997733" data-name="Trazado 997733" d="M382.021,336.556c-9.508,0-16.333-1.978-20.289-5.878a.54.54,0,0,1-.155-.447c.434-3.622,2.778-15.417,2.877-15.919a.536.536,0,0,1,.453-.426c4.131-.571,8.3-2.039,7.886-8.621-.376-6.013-1.3-13.734-1.542-15.682-11.887-.323-22.082-6.94-26.68-17.357-3.646-8.252-1.256-13.6,1.769-20.366a76.829,76.829,0,0,0,3.455-8.717c4.619-14.777,13.211-21.5,26.339-20.629,15.309,1.022,23.443,8.141,23.782,8.442a.537.537,0,0,1,.17.5c-3.936,20.553-3.929,32.806.018,33.615a3.883,3.883,0,0,0,.788.084c4.425,0,5.7-8.438,5.712-8.522a.535.535,0,0,1,.3-.4,14.917,14.917,0,0,1,6.525-1.579c3.563,0,6.6,1.426,8.135,3.816a7.031,7.031,0,0,1,.2,6.918,9.556,9.556,0,0,1-9.14,6.015,15.448,15.448,0,0,1-5.341-1.022c-2.166,4.721-8.889,9.609-10.351,10.632.1.822.2,1.683.3,2.571,1.233,10.718,2.923,25.4,9.969,26.278a.546.546,0,0,1,.369.218.538.538,0,0,1,.091.419c-3.317,16.876-5.086,23.234-5.1,23.3a.538.538,0,0,1-.39.378,97.555,97.555,0,0,1-20.142,2.388M362.675,330.1c3.778,3.575,10.283,5.387,19.345,5.387A96.264,96.264,0,0,0,401.6,333.2c.378-1.424,2.052-7.957,4.895-22.37-7.4-1.626-9.094-16.322-10.338-27.123-.116-1-.227-1.97-.338-2.886a.538.538,0,0,1,.232-.509c.084-.058,8.482-5.8,10.438-10.824a.533.533,0,0,1,.3-.3.544.544,0,0,1,.426.01,14.483,14.483,0,0,0,5.4,1.135,8.453,8.453,0,0,0,8.164-5.39,5.916,5.916,0,0,0-.128-5.89c-1.332-2.08-4.035-3.321-7.23-3.321a13.782,13.782,0,0,0-5.8,1.348c-.279,1.608-1.849,9.158-6.73,9.158a5.09,5.09,0,0,1-1.005-.1c-4.787-.984-5.1-12.611-.915-34.56-1.42-1.147-9.377-7.079-22.909-7.979-12.712-.847-20.731,5.44-25.243,19.877a79.054,79.054,0,0,1-3.5,8.834c-2.917,6.526-5.219,11.678-1.768,19.493,4.488,10.164,14.519,16.575,26.182,16.729a.535.535,0,0,1,.525.469c.012.091,1.173,9.276,1.605,16.207.46,7.349-4.477,9.093-8.432,9.7-.4,2.024-2.3,11.719-2.758,15.2" transform="translate(25.304 16.423)"/>
        <path id="Trazado_997734" data-name="Trazado 997734" d="M360.859,264.546a.538.538,0,0,1-.265-.07c-3.074-1.751-4.686-3.468-4.928-5.248-.3-2.21,1.493-4.006,3.225-5.743.338-.339.677-.679.994-1.016,2.835-3.021,2.535-8.524,1.056-12.36a4.193,4.193,0,0,0-3.182-2.894,5.924,5.924,0,0,0-5.05,1.7.537.537,0,0,1-.795-.722,6.986,6.986,0,0,1,6.042-2.037,5.227,5.227,0,0,1,3.987,3.564c1.649,4.276,1.894,10.1-1.277,13.48-.323.346-.669.692-1.016,1.039-1.547,1.553-3.148,3.158-2.921,4.841.191,1.406,1.669,2.9,4.394,4.459a.536.536,0,0,1-.265,1" transform="translate(25.972 17.429)"/>
        <path id="Trazado_997735" data-name="Trazado 997735" d="M385.848,246.232a.536.536,0,0,1-.446-.238c-5.664-8.45-11.687-7.286-14.773-5.835a.537.537,0,1,1-.455-.973c2.736-1.281,9.783-3.244,16.119,6.211a.535.535,0,0,1-.147.744.527.527,0,0,1-.3.091" transform="translate(27.308 17.579)"/>
        <path id="Trazado_997736" data-name="Trazado 997736" d="M376.97,253.057c-.568,1.816-1.868,3.029-2.9,2.707s-1.414-2.06-.847-3.879,1.867-3.029,2.9-2.7,1.417,2.056.85,3.875" transform="translate(27.536 18.394)"/>
        <path id="Trazado_997737" data-name="Trazado 997737" d="M376.26,250.586a.536.536,0,0,1-.514-.384l-.973-3.3a.537.537,0,0,1,1.03-.3l.973,3.3a.539.539,0,0,1-.363.668.581.581,0,0,1-.152.021" transform="translate(27.669 18.178)"/>
        <path id="Trazado_997738" data-name="Trazado 997738" d="M357.2,249.348c-.567,1.816-1.867,3.028-2.9,2.707s-1.415-2.061-.848-3.879,1.868-3.029,2.9-2.7,1.417,2.056.849,3.875" transform="translate(26.077 18.12)"/>
        <path id="Trazado_997739" data-name="Trazado 997739" d="M356.494,246.877a.536.536,0,0,1-.514-.384l-.973-3.305a.537.537,0,0,1,1.03-.3l.972,3.305a.537.537,0,0,1-.362.667.581.581,0,0,1-.152.021" transform="translate(26.209 17.904)"/>
        <path id="Trazado_997740" data-name="Trazado 997740" d="M360.349,273.257a3.748,3.748,0,0,1-2.818-1.161c-1.3-1.364-1.887-3.889-1.73-7.506a.537.537,0,0,1,.9-.374c.77.7,3.028,1.525,6.859,1.525a32.613,32.613,0,0,0,7.611-.97.537.537,0,0,1,.532.875c-4.25,4.837-8.388,7.61-11.353,7.61m-3.5-7.652c-.012,2.759.486,4.736,1.455,5.749,2.045,2.132,6.592-.048,11.455-5.174-5.2,1.018-10.429.722-12.91-.576" transform="translate(26.268 19.497)"/>
        <path id="Trazado_997741" data-name="Trazado 997741" d="M357.965,271.978a.533.533,0,0,1-.267-.071.539.539,0,0,1-.2-.733c1.263-2.2,6.393-3.567,9.454-2.529a.537.537,0,1,1-.344,1.017c-2.772-.941-7.242.418-8.178,2.047a.537.537,0,0,1-.466.27" transform="translate(26.39 19.809)"/>
        <path id="Trazado_997742" data-name="Trazado 997742" d="M369.561,285.531a.57.57,0,0,1-.6-.539.537.537,0,0,1,.537-.535.629.629,0,0,1,.064,0c5.44,0,14.209-3.138,20.083-6.25a.537.537,0,0,1,.5.948c-5.992,3.175-14.972,6.375-20.589,6.375" transform="translate(27.241 20.536)"/>
        <path id="Trazado_997743" data-name="Trazado 997743" d="M281.26,310.038c2.477.874,14.571.874,24.334-4.664,1.6,8.889,7.577,35.409,7.577,35.409,8.305-9.034,19.817-19.67,25.063-24.189s13.259-8.888,21.127-8.6a93.093,93.093,0,0,0,11.949-.146s-6.265,11.074-3.058,41.819,4.224,34.825,4.224,34.825l-10.782-1.019s2.185-6.849-4.372-14.717-8.451-12.824-9.326-18.651c-6.993,7.14-25.644,26.956-41.236,27.1s-21.129-13.843-23.314-31.329a333.142,333.142,0,0,1-2.185-35.844" transform="translate(20.766 22.546)" fill="#70badb"/>
        <path id="Trazado_997744" data-name="Trazado 997744" d="M398.194,372.094c-4.373,1.311-23.173,6.894-31.77,6.311s-17.485-4.81-24.48-3.06-18.991,10.564-18.14,14.061c.655,2.7,3.86,1.239,3.86,1.239a2.425,2.425,0,0,0,3.5,1.165c1.166,2.478,6.558,1.021,9.763-1.748s7.139-4.226,12.095-2.476a76.084,76.084,0,0,0,21.71,4.663c9.034.437,30.311-.556,30.311-.556s3.208-12.6-6.846-19.6" transform="translate(23.904 27.473)" fill="#fff"/>
        <path id="Trazado_997745" data-name="Trazado 997745" d="M333.776,393.653a3.256,3.256,0,0,1-2.793-1.13,3.548,3.548,0,0,1-1.159.207,2.688,2.688,0,0,1-2.372-1.383,5.169,5.169,0,0,1-1.539.264,2.487,2.487,0,0,1-2.6-2.042c-1.015-4.177,11.819-13.03,18.533-14.708a15.67,15.67,0,0,1,3.839-.438,49.593,49.593,0,0,1,10.771,1.707,64.911,64.911,0,0,0,10.037,1.776c7.564.522,23.24-3.79,31.578-6.289a.535.535,0,0,1,.461.074c10.241,7.123,7.094,20.041,7.059,20.17a.533.533,0,0,1-.5.4c-.143.008-14.417.668-24.444.668h0c-2.392,0-4.382-.038-5.916-.113a76.1,76.1,0,0,1-21.862-4.692c-4.217-1.487-7.981-.721-11.565,2.377a12.889,12.889,0,0,1-7.537,3.147m-2.577-2.342a.537.537,0,0,1,.485.307,2.177,2.177,0,0,0,2.092.961,11.728,11.728,0,0,0,6.835-2.888c3.88-3.35,8.039-4.194,12.624-2.576a75.123,75.123,0,0,0,21.558,4.633c1.516.074,3.489.111,5.863.111,9.044,0,21.561-.539,23.982-.649.413-2.118,1.917-12.448-6.5-18.489-8.476,2.533-24.047,6.779-31.709,6.257a65.853,65.853,0,0,1-10.206-1.8A48.8,48.8,0,0,0,345.69,375.5a14.617,14.617,0,0,0-3.579.406c-7.035,1.758-18.481,10.408-17.749,13.413a1.427,1.427,0,0,0,1.552,1.222,4.372,4.372,0,0,0,1.567-.346.54.54,0,0,1,.707.261,1.768,1.768,0,0,0,1.638,1.2,2.617,2.617,0,0,0,1.114-.279.53.53,0,0,1,.261-.067" transform="translate(23.867 27.436)"/>
        <path id="Trazado_997746" data-name="Trazado 997746" d="M459.141,366.81c-6.412-17.194-11.949-35.845-17.194-44.3s-11.511-16.32-23.168-17.486c-8.451-.583-16.029-.874-16.029-.874-2.768,7.286-11.658,42.548-6.994,72.128a6.1,6.1,0,0,0-3.5,1.166c4.663,3.789,7.286,10.636,6.121,19.816,20.254,1.6,41.673-1.6,48.667-3.351s18.505-9.908,12.095-27.1M418.049,372.2l1.02-12.238,3.351,11.365Z" transform="translate(28.961 22.456)" fill="#70badb"/>
        <path id="Trazado_997747" data-name="Trazado 997747" d="M274.012,270.134a.537.537,0,0,1-.033-1.073c1-.063,2.206-.176,3.519-.3,4.4-.417,9.884-.931,13.159-.087a.537.537,0,1,1-.268,1.039c-3.1-.8-8.471-.291-12.79.116-1.325.125-2.542.239-3.551.3h-.034" transform="translate(20.191 19.803)"/>
        <path id="Trazado_997748" data-name="Trazado 997748" d="M343.876,350.935a.537.537,0,0,1-.525-.432c-.974-4.875.115-11.126,1.627-15.157a.537.537,0,1,1,1.005.378c-1.088,2.9-2.646,9.235-1.58,14.569a.536.536,0,0,1-.421.631.518.518,0,0,1-.106.011" transform="translate(25.323 24.734)"/>
        <path id="Trazado_997749" data-name="Trazado 997749" d="M392.6,373.162a.537.537,0,0,1-.137-1.056c4.713-1.249,34.237-7.04,44.647-7.932a.537.537,0,0,1,.092,1.07c-10.366.889-39.769,6.658-44.464,7.9a.51.51,0,0,1-.137.018" transform="translate(28.947 26.888)"/>
        <path id="Trazado_997750" data-name="Trazado 997750" d="M418.3,359.844a.54.54,0,0,1-.512-.374c-1.053-3.3-3.646-13.692-4.891-18.689l-.363-1.452a.537.537,0,0,1,1.043-.261l.363,1.453c1.242,4.986,3.829,15.36,4.873,18.622a.539.539,0,0,1-.349.675.567.567,0,0,1-.163.025" transform="translate(30.457 25.004)"/>
        <path id="Trazado_997751" data-name="Trazado 997751" d="M330.691,391.719l-.049,0a.538.538,0,0,1-.486-.583c.177-1.951,8.024-8.5,15.1-10.521a.537.537,0,1,1,.3,1.032c-7.125,2.036-14.216,8.323-14.33,9.586a.537.537,0,0,1-.534.489" transform="translate(24.376 28.1)"/>
        <path id="Trazado_997752" data-name="Trazado 997752" d="M327.433,390.7a.537.537,0,0,1-.537-.537c0-2.8,5.88-8.708,15.094-11.588a.537.537,0,1,1,.321,1.026c-9.462,2.956-14.341,8.744-14.341,10.562a.537.537,0,0,1-.537.537" transform="translate(24.135 27.949)"/>
        <path id="Trazado_997753" data-name="Trazado 997753" d="M373.925,393.287H327.909L309.392,339.2a13.6,13.6,0,0,0-12-8.576H218.811c-4.984,0-7.74,3.859-6.126,8.576l19.074,55.713c2.088,5.409,2.331,9.86,7.754,9.86H373.925a5.745,5.745,0,1,0,0-11.49" transform="translate(15.669 24.411)" fill="#f2ac30"/>
        <path id="Trazado_997754" data-name="Trazado 997754" d="M322.5,390.482H231.106a.537.537,0,1,1,0-1.074H322.5a.537.537,0,1,1,0,1.074" transform="translate(17.023 28.751)"/>
        <path id="Trazado_997755" data-name="Trazado 997755" d="M265.8,373.67c-3.971,0-8.339-3.94-9.738-8.784-.8-2.773-.511-5.359.8-7.1a4.98,4.98,0,0,1,4.091-1.98c3.973,0,8.339,3.941,9.734,8.784.8,2.77.512,5.358-.8,7.1a4.976,4.976,0,0,1-4.087,1.98m-4.85-16.789a3.88,3.88,0,0,0-3.232,1.551c-1.1,1.468-1.331,3.711-.623,6.157,1.275,4.416,5.18,8.008,8.706,8.008a3.875,3.875,0,0,0,3.229-1.552c1.1-1.469,1.332-3.712.623-6.156-1.271-4.416-5.175-8.008-8.7-8.008" transform="translate(18.873 26.27)"/>
      </g>
    </g>
    <rect id="Rectángulo_455301" data-name="Rectángulo 455301" width="159" height="41" rx="20.5" transform="translate(946 3249)" fill="#ffc025"/>
    <rect id="Rectángulo_455304" data-name="Rectángulo 455304" width="159" height="41" rx="20.5" transform="translate(736 3386)" fill="#ffc025"/>
    <rect id="Rectángulo_455302" data-name="Rectángulo 455302" width="159" height="41" rx="20.5" transform="translate(549 3297)" fill="#ffc025"/>
    <rect id="Rectángulo_455303" data-name="Rectángulo 455303" width="159" height="41" rx="20.5" transform="translate(413 3610)" fill="#ffc025"/>
    <path id="Trazado_999040" data-name="Trazado 999040" d="M37.27,12.836H35.4V17H33.059V5.625h4.227a4.778,4.778,0,0,1,3.109.9,3.1,3.1,0,0,1,1.094,2.539,3.5,3.5,0,0,1-.5,1.941,3.437,3.437,0,0,1-1.527,1.238l2.461,4.648V17H39.4Zm-1.867-1.9h1.891a1.936,1.936,0,0,0,1.367-.449,1.606,1.606,0,0,0,.484-1.238,1.719,1.719,0,0,0-.457-1.266,1.9,1.9,0,0,0-1.4-.461H35.4Zm11.609,6.219a4.15,4.15,0,0,1-3.027-1.141,4.054,4.054,0,0,1-1.168-3.039v-.219a5.106,5.106,0,0,1,.492-2.277A3.612,3.612,0,0,1,44.7,8.934a3.914,3.914,0,0,1,2.059-.543,3.508,3.508,0,0,1,2.73,1.094,4.444,4.444,0,0,1,1,3.1v.922H45.105a2.1,2.1,0,0,0,.66,1.328,2,2,0,0,0,1.395.5,2.437,2.437,0,0,0,2.039-.945l1.109,1.242a3.389,3.389,0,0,1-1.375,1.121A4.511,4.511,0,0,1,47.012,17.156Zm-.258-6.945a1.411,1.411,0,0,0-1.09.455,2.357,2.357,0,0,0-.535,1.3H48.27v-.181a1.681,1.681,0,0,0-.406-1.165A1.456,1.456,0,0,0,46.754,10.211Zm8.531,5.125a1.481,1.481,0,0,0,1.016-.344,1.2,1.2,0,0,0,.406-.914h2.117a2.9,2.9,0,0,1-.469,1.574,3.093,3.093,0,0,1-1.262,1.109,3.949,3.949,0,0,1-1.77.395A3.67,3.67,0,0,1,52.465,16a4.56,4.56,0,0,1-1.047-3.184v-.148a4.508,4.508,0,0,1,1.039-3.117,3.627,3.627,0,0,1,2.852-1.164,3.555,3.555,0,0,1,2.543.9,3.2,3.2,0,0,1,.973,2.4H56.707a1.551,1.551,0,0,0-.406-1.072,1.51,1.51,0,0,0-2.223.163,3.333,3.333,0,0,0-.4,1.866v.235a3.375,3.375,0,0,0,.4,1.878A1.377,1.377,0,0,0,55.285,15.336ZM64,17.156a4.15,4.15,0,0,1-3.027-1.141,4.054,4.054,0,0,1-1.168-3.039v-.219A5.106,5.106,0,0,1,60.3,10.48,3.612,3.612,0,0,1,61.7,8.934a3.914,3.914,0,0,1,2.059-.543,3.508,3.508,0,0,1,2.73,1.094,4.444,4.444,0,0,1,1,3.1v.922H62.1a2.1,2.1,0,0,0,.66,1.328,2,2,0,0,0,1.395.5,2.437,2.437,0,0,0,2.039-.945L67.3,15.633a3.389,3.389,0,0,1-1.375,1.121A4.511,4.511,0,0,1,64,17.156Zm-.258-6.945a1.411,1.411,0,0,0-1.09.455,2.357,2.357,0,0,0-.535,1.3h3.141v-.181a1.681,1.681,0,0,0-.406-1.165A1.456,1.456,0,0,0,63.746,10.211Zm12.625,2.641a5.07,5.07,0,0,1-.887,3.129,2.843,2.843,0,0,1-2.395,1.176,2.633,2.633,0,0,1-2.07-.891V20.25H68.762V8.547h2.094l.078.828a2.654,2.654,0,0,1,2.141-.984A2.862,2.862,0,0,1,75.5,9.547a5.207,5.207,0,0,1,.867,3.188Zm-2.258-.164a3.327,3.327,0,0,0-.418-1.82,1.361,1.361,0,0,0-1.215-.641,1.478,1.478,0,0,0-1.461.813V14.5a1.5,1.5,0,0,0,1.477.836Q74.113,15.336,74.113,12.688Zm6.359-6.219V8.547h1.445V10.2H80.473v4.219a1.007,1.007,0,0,0,.18.672.9.9,0,0,0,.688.2A3.6,3.6,0,0,0,82,15.242v1.711a4.648,4.648,0,0,1-1.367.2,2.156,2.156,0,0,1-2.422-2.4V10.2H76.98V8.547h1.234V6.469ZM82.59,12.7a5.013,5.013,0,0,1,.484-2.242A3.546,3.546,0,0,1,84.469,8.93a4.069,4.069,0,0,1,2.113-.539,3.849,3.849,0,0,1,2.793,1.047,4.2,4.2,0,0,1,1.207,2.844l.016.578a4.418,4.418,0,0,1-1.086,3.121,4.209,4.209,0,0,1-5.832,0A4.5,4.5,0,0,1,82.59,12.8Zm2.258.16A3.16,3.16,0,0,0,85.3,14.7a1.628,1.628,0,0,0,2.578.008,3.457,3.457,0,0,0,.461-2.015,3.128,3.128,0,0,0-.461-1.831,1.5,1.5,0,0,0-1.3-.649,1.474,1.474,0,0,0-1.281.646A3.516,3.516,0,0,0,84.848,12.856Zm11.891-2.192a6.134,6.134,0,0,0-.812-.062,1.654,1.654,0,0,0-1.68.867V17H91.988V8.547h2.133l.063,1.008a2.092,2.092,0,0,1,1.883-1.164,2.366,2.366,0,0,1,.7.1Z" transform="translate(965 3259.5)" fill="#12263f"/>
    <path id="Trazado_999041" data-name="Trazado 999041" d="M9.242,12.836H7.375V17H5.031V5.625H9.258a4.778,4.778,0,0,1,3.109.9,3.1,3.1,0,0,1,1.094,2.539,3.5,3.5,0,0,1-.5,1.941,3.437,3.437,0,0,1-1.527,1.238l2.461,4.648V17H11.375Zm-1.867-1.9H9.266a1.936,1.936,0,0,0,1.367-.449,1.606,1.606,0,0,0,.484-1.238,1.719,1.719,0,0,0-.457-1.266,1.9,1.9,0,0,0-1.4-.461H7.375Zm11.609,6.219a4.15,4.15,0,0,1-3.027-1.141,4.054,4.054,0,0,1-1.168-3.039v-.219a5.106,5.106,0,0,1,.492-2.277,3.612,3.612,0,0,1,1.395-1.547,3.914,3.914,0,0,1,2.059-.543,3.508,3.508,0,0,1,2.73,1.094,4.444,4.444,0,0,1,1,3.1v.922H17.078a2.1,2.1,0,0,0,.66,1.328,2,2,0,0,0,1.395.5,2.437,2.437,0,0,0,2.039-.945l1.109,1.242a3.389,3.389,0,0,1-1.375,1.121A4.511,4.511,0,0,1,18.984,17.156Zm-.258-6.945a1.411,1.411,0,0,0-1.09.455,2.357,2.357,0,0,0-.535,1.3h3.141v-.181a1.681,1.681,0,0,0-.406-1.165A1.456,1.456,0,0,0,18.727,10.211Zm7.719-3.742V8.547h1.445V10.2H26.445v4.219a1.007,1.007,0,0,0,.18.672.9.9,0,0,0,.688.2,3.6,3.6,0,0,0,.664-.055v1.711a4.648,4.648,0,0,1-1.367.2,2.156,2.156,0,0,1-2.422-2.4V10.2H22.953V8.547h1.234V6.469Zm7.453,4.2a6.134,6.134,0,0,0-.812-.062,1.654,1.654,0,0,0-1.68.867V17H29.148V8.547h2.133l.063,1.008a2.092,2.092,0,0,1,1.883-1.164,2.366,2.366,0,0,1,.7.1Zm.453,2.031a5.013,5.013,0,0,1,.484-2.242A3.546,3.546,0,0,1,36.23,8.93a4.069,4.069,0,0,1,2.113-.539,3.849,3.849,0,0,1,2.793,1.047,4.2,4.2,0,0,1,1.207,2.844l.016.578a4.418,4.418,0,0,1-1.086,3.121,4.209,4.209,0,0,1-5.832,0,4.5,4.5,0,0,1-1.09-3.187Zm2.258.16a3.16,3.16,0,0,0,.453,1.843,1.628,1.628,0,0,0,2.578.008,3.457,3.457,0,0,0,.461-2.015,3.128,3.128,0,0,0-.461-1.831,1.5,1.5,0,0,0-1.3-.649,1.474,1.474,0,0,0-1.281.646A3.516,3.516,0,0,0,36.609,12.856ZM48.648,17a2.507,2.507,0,0,1-.227-.758,2.732,2.732,0,0,1-2.133.914,3,3,0,0,1-2.059-.719,2.312,2.312,0,0,1-.816-1.812,2.389,2.389,0,0,1,1-2.062,4.915,4.915,0,0,1,2.879-.727h1.039v-.484a1.393,1.393,0,0,0-.3-.937,1.183,1.183,0,0,0-.949-.352,1.345,1.345,0,0,0-.895.273.929.929,0,0,0-.324.75H43.6a2.268,2.268,0,0,1,.453-1.359,3,3,0,0,1,1.281-.98A4.669,4.669,0,0,1,47.2,8.391a3.689,3.689,0,0,1,2.48.785,2.747,2.747,0,0,1,.918,2.207v3.664a4.041,4.041,0,0,0,.336,1.82V17Zm-1.867-1.57a1.945,1.945,0,0,0,.922-.223,1.462,1.462,0,0,0,.625-.6V13.156h-.844q-1.7,0-1.8,1.172l-.008.133a.9.9,0,0,0,.3.7A1.153,1.153,0,0,0,46.781,15.43ZM54.711,17H52.445V5h2.266Zm4.242,0H56.688V8.547h2.266Zm-2.4-10.641a1.112,1.112,0,0,1,.34-.836,1.465,1.465,0,0,1,1.848,0,1.105,1.105,0,0,1,.344.836,1.108,1.108,0,0,1-.348.844,1.448,1.448,0,0,1-1.836,0A1.108,1.108,0,0,1,56.555,6.359ZM62.93,8.547l.07.945a2.971,2.971,0,0,1,2.43-1.1A2.255,2.255,0,0,1,67.672,9.68a2.9,2.9,0,0,1,2.539-1.289,2.521,2.521,0,0,1,2.047.8,3.681,3.681,0,0,1,.672,2.41V17H70.664V11.609a1.61,1.61,0,0,0-.281-1.051,1.246,1.246,0,0,0-.992-.332,1.409,1.409,0,0,0-1.406.969l.008,5.8H65.734V11.617a1.59,1.59,0,0,0-.289-1.062,1.259,1.259,0,0,0-.984-.328,1.463,1.463,0,0,0-1.391.8V17H60.813V8.547Zm15.625,8.609a4.15,4.15,0,0,1-3.027-1.141,4.054,4.054,0,0,1-1.168-3.039v-.219a5.106,5.106,0,0,1,.492-2.277,3.612,3.612,0,0,1,1.395-1.547A3.914,3.914,0,0,1,78.3,8.391a3.508,3.508,0,0,1,2.73,1.094,4.444,4.444,0,0,1,1,3.1v.922H76.648a2.1,2.1,0,0,0,.66,1.328,2,2,0,0,0,1.395.5,2.437,2.437,0,0,0,2.039-.945l1.109,1.242a3.389,3.389,0,0,1-1.375,1.121A4.511,4.511,0,0,1,78.555,17.156ZM78.3,10.211a1.411,1.411,0,0,0-1.09.455,2.357,2.357,0,0,0-.535,1.3h3.141v-.181a1.681,1.681,0,0,0-.406-1.165A1.456,1.456,0,0,0,78.3,10.211Zm7.094-1.664.07.977a2.951,2.951,0,0,1,2.43-1.133,2.453,2.453,0,0,1,2,.789,3.682,3.682,0,0,1,.672,2.359V17H88.3V11.594a1.465,1.465,0,0,0-.312-1.043,1.4,1.4,0,0,0-1.039-.324,1.553,1.553,0,0,0-1.43.813V17H83.266V8.547Zm9.586-2.078V8.547h1.445V10.2H94.977v4.219a1.007,1.007,0,0,0,.18.672.9.9,0,0,0,.688.2,3.6,3.6,0,0,0,.664-.055v1.711a4.648,4.648,0,0,1-1.367.2,2.156,2.156,0,0,1-2.422-2.4V10.2H91.484V8.547h1.234V6.469ZM102.578,17a2.507,2.507,0,0,1-.227-.758,2.732,2.732,0,0,1-2.133.914,3,3,0,0,1-2.059-.719,2.312,2.312,0,0,1-.816-1.812,2.389,2.389,0,0,1,1-2.062,4.915,4.915,0,0,1,2.879-.727h1.039v-.484a1.393,1.393,0,0,0-.3-.937,1.183,1.183,0,0,0-.949-.352,1.345,1.345,0,0,0-.895.273.929.929,0,0,0-.324.75H97.531a2.268,2.268,0,0,1,.453-1.359,3,3,0,0,1,1.281-.98,4.669,4.669,0,0,1,1.859-.355,3.689,3.689,0,0,1,2.48.785,2.747,2.747,0,0,1,.918,2.207v3.664a4.041,4.041,0,0,0,.336,1.82V17Zm-1.867-1.57a1.945,1.945,0,0,0,.922-.223,1.462,1.462,0,0,0,.625-.6V13.156h-.844q-1.7,0-1.8,1.172l-.008.133a.9.9,0,0,0,.3.7A1.153,1.153,0,0,0,100.711,15.43Zm9.063-.094a1.481,1.481,0,0,0,1.016-.344,1.2,1.2,0,0,0,.406-.914h2.117a2.9,2.9,0,0,1-.469,1.574,3.093,3.093,0,0,1-1.262,1.109,3.949,3.949,0,0,1-1.77.395A3.67,3.67,0,0,1,106.953,16a4.56,4.56,0,0,1-1.047-3.184v-.148a4.508,4.508,0,0,1,1.039-3.117A3.627,3.627,0,0,1,109.8,8.391a3.555,3.555,0,0,1,2.543.9,3.2,3.2,0,0,1,.973,2.4H111.2a1.551,1.551,0,0,0-.406-1.072,1.51,1.51,0,0,0-2.223.163,3.333,3.333,0,0,0-.4,1.866v.235a3.375,3.375,0,0,0,.4,1.878A1.377,1.377,0,0,0,109.773,15.336ZM116.984,17h-2.266V8.547h2.266Zm-2.4-10.641a1.112,1.112,0,0,1,.34-.836,1.465,1.465,0,0,1,1.848,0,1.105,1.105,0,0,1,.344.836,1.108,1.108,0,0,1-.348.844,1.448,1.448,0,0,1-1.836,0A1.108,1.108,0,0,1,114.586,6.359Zm3.906,6.336a5.013,5.013,0,0,1,.484-2.242,3.546,3.546,0,0,1,1.395-1.523,4.069,4.069,0,0,1,2.113-.539,3.849,3.849,0,0,1,2.793,1.047,4.2,4.2,0,0,1,1.207,2.844l.016.578a4.418,4.418,0,0,1-1.086,3.121,4.209,4.209,0,0,1-5.832,0,4.5,4.5,0,0,1-1.09-3.187Zm2.258.16A3.16,3.16,0,0,0,121.2,14.7a1.628,1.628,0,0,0,2.578.008,3.457,3.457,0,0,0,.461-2.015,3.128,3.128,0,0,0-.461-1.831,1.5,1.5,0,0,0-1.3-.649,1.474,1.474,0,0,0-1.281.646A3.516,3.516,0,0,0,120.75,12.856ZM122.93,5h2.461l-2.164,2.422h-1.836Zm7.039,3.547.07.977a2.951,2.951,0,0,1,2.43-1.133,2.453,2.453,0,0,1,2,.789,3.682,3.682,0,0,1,.672,2.359V17h-2.258V11.594a1.465,1.465,0,0,0-.312-1.043,1.4,1.4,0,0,0-1.039-.324,1.553,1.553,0,0,0-1.43.813V17h-2.258V8.547Z" transform="translate(745.5 3396.5)" fill="#12263f"/>
    <path id="Trazado_999042" data-name="Trazado 999042" d="M37.961,5.625l2.922,8.25,2.906-8.25h3.078V17H44.516V13.891l.234-5.367L41.68,17H40.07L37.008,8.531l.234,5.359V17H34.9V5.625Zm14.7,11.531a4.15,4.15,0,0,1-3.027-1.141,4.054,4.054,0,0,1-1.168-3.039v-.219a5.106,5.106,0,0,1,.492-2.277,3.612,3.612,0,0,1,1.395-1.547,3.914,3.914,0,0,1,2.059-.543,3.508,3.508,0,0,1,2.73,1.094,4.444,4.444,0,0,1,1,3.1v.922H50.75a2.1,2.1,0,0,0,.66,1.328,2,2,0,0,0,1.395.5,2.437,2.437,0,0,0,2.039-.945l1.109,1.242a3.389,3.389,0,0,1-1.375,1.121A4.511,4.511,0,0,1,52.656,17.156ZM52.4,10.211a1.411,1.411,0,0,0-1.09.455,2.357,2.357,0,0,0-.535,1.3h3.141v-.181a1.681,1.681,0,0,0-.406-1.165A1.456,1.456,0,0,0,52.4,10.211Zm7.094-1.664.07.977a2.951,2.951,0,0,1,2.43-1.133,2.453,2.453,0,0,1,2,.789,3.682,3.682,0,0,1,.672,2.359V17H62.406V11.594a1.465,1.465,0,0,0-.312-1.043,1.4,1.4,0,0,0-1.039-.324,1.553,1.553,0,0,0-1.43.813V17H57.367V8.547Zm11.461,6.117a.727.727,0,0,0-.41-.652,4.659,4.659,0,0,0-1.316-.426q-3.016-.633-3.016-2.562a2.323,2.323,0,0,1,.934-1.879,3.766,3.766,0,0,1,2.441-.754,4.053,4.053,0,0,1,2.574.758,2.388,2.388,0,0,1,.965,1.969H70.867a1.092,1.092,0,0,0-.312-.8A1.322,1.322,0,0,0,69.578,10a1.351,1.351,0,0,0-.883.258.814.814,0,0,0-.312.656.7.7,0,0,0,.355.605,3.657,3.657,0,0,0,1.2.4,9.8,9.8,0,0,1,1.422.379,2.336,2.336,0,0,1,1.789,2.273,2.2,2.2,0,0,1-.992,1.871,4.28,4.28,0,0,1-2.562.715,4.47,4.47,0,0,1-1.887-.379,3.166,3.166,0,0,1-1.293-1.039,2.414,2.414,0,0,1-.469-1.426h2.141a1.179,1.179,0,0,0,.445.922,1.766,1.766,0,0,0,1.109.32,1.635,1.635,0,0,0,.98-.246A.766.766,0,0,0,70.953,14.664ZM79.5,17a2.507,2.507,0,0,1-.227-.758,2.732,2.732,0,0,1-2.133.914,3,3,0,0,1-2.059-.719,2.312,2.312,0,0,1-.816-1.812,2.389,2.389,0,0,1,1-2.062,4.915,4.915,0,0,1,2.879-.727H79.18v-.484a1.393,1.393,0,0,0-.3-.937,1.183,1.183,0,0,0-.949-.352,1.345,1.345,0,0,0-.895.273.929.929,0,0,0-.324.75H74.453a2.268,2.268,0,0,1,.453-1.359,3,3,0,0,1,1.281-.98,4.669,4.669,0,0,1,1.859-.355,3.689,3.689,0,0,1,2.48.785,2.747,2.747,0,0,1,.918,2.207v3.664a4.041,4.041,0,0,0,.336,1.82V17Zm-1.867-1.57a1.945,1.945,0,0,0,.922-.223,1.462,1.462,0,0,0,.625-.6V13.156h-.844q-1.7,0-1.8,1.172l-.008.133a.9.9,0,0,0,.3.7A1.153,1.153,0,0,0,77.633,15.43ZM85.57,8.547v8.914a3.024,3.024,0,0,1-.742,2.176,2.821,2.821,0,0,1-2.141.777,4.591,4.591,0,0,1-1.117-.133V18.492a4.238,4.238,0,0,0,.711.07q1.023,0,1.023-1.086V8.547ZM83.125,6.359a1.112,1.112,0,0,1,.34-.836,1.47,1.47,0,0,1,1.852,0,1.112,1.112,0,0,1,.34.836,1.108,1.108,0,0,1-.348.844,1.448,1.448,0,0,1-1.836,0A1.108,1.108,0,0,1,83.125,6.359Zm8.1,10.8A4.15,4.15,0,0,1,88.2,16.016a4.054,4.054,0,0,1-1.168-3.039v-.219a5.106,5.106,0,0,1,.492-2.277,3.612,3.612,0,0,1,1.395-1.547,3.914,3.914,0,0,1,2.059-.543,3.508,3.508,0,0,1,2.73,1.094,4.444,4.444,0,0,1,1,3.1v.922H89.32a2.1,2.1,0,0,0,.66,1.328,2,2,0,0,0,1.395.5,2.437,2.437,0,0,0,2.039-.945l1.109,1.242a3.389,3.389,0,0,1-1.375,1.121A4.511,4.511,0,0,1,91.227,17.156Zm-.258-6.945a1.411,1.411,0,0,0-1.09.455,2.357,2.357,0,0,0-.535,1.3h3.141v-.181a1.681,1.681,0,0,0-.406-1.165A1.456,1.456,0,0,0,90.969,10.211Z" transform="translate(568 3307.5)" fill="#12263f"/>
    <path id="Trazado_999043" data-name="Trazado 999043" d="M48.992,12.836H47.125V17H44.781V5.625h4.227a4.778,4.778,0,0,1,3.109.9,3.1,3.1,0,0,1,1.094,2.539,3.5,3.5,0,0,1-.5,1.941,3.437,3.437,0,0,1-1.527,1.238l2.461,4.648V17H51.125Zm-1.867-1.9h1.891a1.936,1.936,0,0,0,1.367-.449,1.606,1.606,0,0,0,.484-1.238,1.719,1.719,0,0,0-.457-1.266,1.9,1.9,0,0,0-1.4-.461H47.125Zm12.781,5.2a2.831,2.831,0,0,1-2.312,1.016,2.67,2.67,0,0,1-2.074-.781,3.335,3.335,0,0,1-.73-2.289V8.547h2.258v5.467q0,1.322,1.2,1.322a1.63,1.63,0,0,0,1.578-.8V8.547h2.266V17H59.969ZM66.18,17H63.914V8.547H66.18Zm-2.4-10.641a1.112,1.112,0,0,1,.34-.836,1.465,1.465,0,0,1,1.848,0,1.105,1.105,0,0,1,.344.836,1.108,1.108,0,0,1-.348.844,1.448,1.448,0,0,1-1.836,0A1.108,1.108,0,0,1,63.781,6.359Zm3.906,6.352a5.094,5.094,0,0,1,.887-3.148A2.877,2.877,0,0,1,71,8.391a2.589,2.589,0,0,1,2.039.922V5H75.3V17H73.266l-.109-.9a2.657,2.657,0,0,1-2.172,1.055A2.869,2.869,0,0,1,68.59,15.98,5.258,5.258,0,0,1,67.688,12.711Zm2.258.168a3.337,3.337,0,0,0,.414,1.823,1.349,1.349,0,0,0,1.2.634,1.511,1.511,0,0,0,1.477-.884V11.111a1.489,1.489,0,0,0-1.461-.884Q69.945,10.227,69.945,12.879ZM76.7,12.7a5.013,5.013,0,0,1,.484-2.242A3.546,3.546,0,0,1,78.582,8.93,4.069,4.069,0,0,1,80.7,8.391a3.849,3.849,0,0,1,2.793,1.047A4.2,4.2,0,0,1,84.7,12.281l.016.578a4.418,4.418,0,0,1-1.086,3.121,4.209,4.209,0,0,1-5.832,0A4.5,4.5,0,0,1,76.7,12.8Zm2.258.16a3.16,3.16,0,0,0,.453,1.843,1.628,1.628,0,0,0,2.578.008,3.457,3.457,0,0,0,.461-2.015,3.128,3.128,0,0,0-.461-1.831,1.5,1.5,0,0,0-1.3-.649,1.474,1.474,0,0,0-1.281.646A3.516,3.516,0,0,0,78.961,12.856Z" transform="translate(432 3620.5)" fill="#12263f"/>
    <rect id="Rectángulo_454841" data-name="Rectángulo 454841" width="159" height="41" rx="20.5" transform="translate(936 3659)" fill="#ffc025"/>
    <path id="Trazado_999044" data-name="Trazado 999044" d="M47.258,12.07h-4.5v3.047h5.281V17H40.414V5.625h7.609v1.9H42.758v2.711h4.5Zm4.125-3.523.07.945a2.971,2.971,0,0,1,2.43-1.1A2.255,2.255,0,0,1,56.125,9.68a2.9,2.9,0,0,1,2.539-1.289,2.521,2.521,0,0,1,2.047.8,3.681,3.681,0,0,1,.672,2.41V17H59.117V11.609a1.61,1.61,0,0,0-.281-1.051,1.246,1.246,0,0,0-.992-.332,1.409,1.409,0,0,0-1.406.969l.008,5.8H54.188V11.617a1.59,1.59,0,0,0-.289-1.062,1.259,1.259,0,0,0-.984-.328,1.463,1.463,0,0,0-1.391.8V17H49.266V8.547ZM65.5,17H63.234V8.547H65.5ZM63.1,6.359a1.112,1.112,0,0,1,.34-.836,1.465,1.465,0,0,1,1.848,0,1.105,1.105,0,0,1,.344.836,1.108,1.108,0,0,1-.348.844,1.448,1.448,0,0,1-1.836,0A1.108,1.108,0,0,1,63.1,6.359Zm8.836,8.3a.727.727,0,0,0-.41-.652,4.659,4.659,0,0,0-1.316-.426Q67.2,12.953,67.2,11.023a2.323,2.323,0,0,1,.934-1.879,3.766,3.766,0,0,1,2.441-.754,4.053,4.053,0,0,1,2.574.758,2.388,2.388,0,0,1,.965,1.969H71.852a1.092,1.092,0,0,0-.312-.8A1.322,1.322,0,0,0,70.563,10a1.351,1.351,0,0,0-.883.258.814.814,0,0,0-.312.656.7.7,0,0,0,.355.605,3.657,3.657,0,0,0,1.2.4,9.8,9.8,0,0,1,1.422.379,2.336,2.336,0,0,1,1.789,2.273,2.2,2.2,0,0,1-.992,1.871,4.28,4.28,0,0,1-2.562.715,4.47,4.47,0,0,1-1.887-.379A3.166,3.166,0,0,1,67.4,15.738a2.414,2.414,0,0,1-.469-1.426H69.07a1.179,1.179,0,0,0,.445.922,1.766,1.766,0,0,0,1.109.32,1.635,1.635,0,0,0,.98-.246A.766.766,0,0,0,71.938,14.664Zm3.3-1.969a5.013,5.013,0,0,1,.484-2.242A3.546,3.546,0,0,1,77.113,8.93a4.069,4.069,0,0,1,2.113-.539A3.849,3.849,0,0,1,82.02,9.438a4.2,4.2,0,0,1,1.207,2.844l.016.578a4.418,4.418,0,0,1-1.086,3.121,4.209,4.209,0,0,1-5.832,0,4.5,4.5,0,0,1-1.09-3.187Zm2.258.16a3.16,3.16,0,0,0,.453,1.843,1.628,1.628,0,0,0,2.578.008,3.457,3.457,0,0,0,.461-2.015,3.128,3.128,0,0,0-.461-1.831,1.5,1.5,0,0,0-1.3-.649,1.474,1.474,0,0,0-1.281.646A3.516,3.516,0,0,0,77.492,12.856Zm11.891-2.192a6.134,6.134,0,0,0-.812-.062,1.654,1.654,0,0,0-1.68.867V17H84.633V8.547h2.133l.063,1.008a2.092,2.092,0,0,1,1.883-1.164,2.366,2.366,0,0,1,.7.1Z" transform="translate(955 3669.5)" fill="#12263f"/>
  </g>
</svg>
