<svg xmlns="http://www.w3.org/2000/svg" xmlns:xlink="http://www.w3.org/1999/xlink" width="399.688" height="292.18" viewBox="0 0 399.688 292.18">
  <defs>
    <clipPath id="clip-path">
      <rect id="Rectángulo_455534" data-name="Rectángulo 455534" width="372" height="270.809" fill="none"/>
    </clipPath>
    <clipPath id="clip-path-2">
      <rect id="Rectángulo_455533" data-name="Rectángulo 455533" width="372" height="248" fill="none"/>
    </clipPath>
    <clipPath id="clip-path-3">
      <rect id="Rectángulo_455529" data-name="Rectángulo 455529" width="328.638" height="196.271" fill="#feeadd"/>
    </clipPath>
  </defs>
  <g id="Grupo_1183875" data-name="Grupo 1183875" transform="translate(-179.832 -5741.7)">
    <rect id="Rectángulo_402012" data-name="Rectángulo 402012" width="399.688" height="292.18" transform="translate(179.832 5741.7)" fill="#fdd5ba"/>
    <g id="Grupo_1183874" data-name="Grupo 1183874" transform="translate(193.676 5752.386)">
      <g id="Grupo_1183873" data-name="Grupo 1183873" clip-path="url(#clip-path)">
        <g id="Grupo_1183872" data-name="Grupo 1183872">
          <g id="Grupo_1183871" data-name="Grupo 1183871" clip-path="url(#clip-path-2)">
            <g id="Grupo_1183870" data-name="Grupo 1183870" transform="translate(20.652 35.391)">
              <g id="Grupo_1183869" data-name="Grupo 1183869">
                <g id="Grupo_1183868" data-name="Grupo 1183868" clip-path="url(#clip-path-3)">
                  <path id="Trazado_998773" data-name="Trazado 998773" d="M78.742,249.057c35.586,18.694,77.629,19.451,117.806,18.161,18.326-.588,36.687-1.519,54.783-4.474,23.594-3.853,46.482-11.1,69.257-18.373,11.667-3.724,23.576-7.584,33.36-14.951s17.217-19.024,16.242-31.232c-1.1-13.7-12.307-24.641-24.573-30.842s-25.977-8.967-38.605-14.394-24.869-14.586-28.485-27.847c-3.608-13.23,1.9-28.531-4.924-40.428-6.75-11.773-22.668-14.663-36.111-12.808a80.59,80.59,0,0,0-46.048,23.123c-12.384,12.591-21.236,29.756-37.419,36.827-20.95,9.155-45.511-2.291-67.916,2.262-15.092,3.067-28.22,13.579-35.67,27.058-19.3,34.928-5.511,70.154,28.305,87.917" transform="translate(-41.636 -71.352)" fill="#feeadd"/>
                </g>
              </g>
            </g>
            <path id="Trazado_998774" data-name="Trazado 998774" d="M492.468,282.529,480.46,293.736s-1.222-5.746-8.545-15.093a45.13,45.13,0,0,1-8.781-19.007l-8.5,3.134s5.05,20.363,9,33.225,8.807,17.945,14.578,17.6,27.031-18.182,27.031-18.182Z" transform="translate(-229.137 -130.857)" fill="#f9b58e"/>
            <path id="Trazado_998775" data-name="Trazado 998775" d="M563.691,273.654s-6.42-1.853-10.373-1.794-13.054,2.406-21.707,9.532-11.8,10.091-11.8,10.091,7.616,12.889,17.284,19.606c18.987-14.681,26.6-37.434,26.6-37.434" transform="translate(-261.984 -137.017)" fill="#f37500"/>
            <path id="Trazado_998776" data-name="Trazado 998776" d="M591.267,452.212s7.28,28.7,7.28,41.122-67.235-4.477-67.235-4.477l7.893-38.289Z" transform="translate(-267.781 -227.086)" fill="#4839ae"/>
            <path id="Trazado_998777" data-name="Trazado 998777" d="M561.719,262.244s-8.593,1.823-14.062,8.333-6.51,17.968-6.51,24.738-.26,50.519-.26,54.946a14.96,14.96,0,0,0,1.3,6.77s40.884,7.552,53.9-.26c-1.562-41.925,1.562-75-.521-80.986s-7.552-10.417-24.218-14.583A70.615,70.615,0,0,0,561.719,262.244Z" transform="translate(-272.607 -131.646)" fill="#ff9d3d"/>
            <path id="Trazado_998778" data-name="Trazado 998778" d="M577.113,243.57s1.3,6.25.26,10.156c9.9-.521,14.583-3.646,14.583-3.646a19.829,19.829,0,0,1-1.3-11.978c-4.948,2.864-13.541,5.468-13.541,5.468" transform="translate(-290.865 -120.003)" fill="#f9b58e"/>
            <path id="Trazado_998779" data-name="Trazado 998779" d="M590.654,238.1c-4.948,2.864-13.542,5.469-13.542,5.469a37.166,37.166,0,0,1,.537,3.789c2.935.607,8.134.471,12.65-5.891a21.7,21.7,0,0,1,.355-3.366" transform="translate(-290.864 -120.003)" fill="#f6955d"/>
            <path id="Trazado_998780" data-name="Trazado 998780" d="M564.459,189.61s-6.427,16.075-2.033,23.232,15.774,5.135,19.482-.554,7.763-14.394,6.041-21.334S568.73,175.086,564.459,189.61Z" transform="translate(-282.688 -91.631)" fill="#f9b58e"/>
            <path id="Trazado_998781" data-name="Trazado 998781" d="M586.468,178.887c-3.565-8.388-12.429-6.775-19.139-6.072-3.516.369-7.334-3.938-9.966-.125-3.395,4.919,4.327,12.09,9.078,12.865,2.172.355,4.207.164,6.248.4.875.1,4.8-.811,6.8,3.385-1.243.6-2,3.2-2.274,4.6a8.05,8.05,0,0,0,.746,5.393c.956-2.618,4.5-5.891,5.043-.731.411,3.92-3.582,6.772-4.478,8.037,5.331-1.285,22.25-22.385,7.945-27.754" transform="translate(-280.489 -86.236)" fill="#4a3cac"/>
            <path id="Trazado_998782" data-name="Trazado 998782" d="M543.009,316.824c6.573-26.487-15.059-20.447-19.055-37.8-4.04-17.551,12.221-25.343,27.476-23.611,11.728,1.331,30.938,14.235,21.2,28.031-4.219,5.977-10.746,9.229-13.633,15.444-2.809,6.05,2.206,16.16-2.308,20.943-2.916,3.09-12.675.575-13.681-3" transform="translate(-263.757 -128.607)" fill="#f6d32d"/>
            <path id="Trazado_998783" data-name="Trazado 998783" d="M557.119,286.933c-.84,0-1.681.049-2.519.136a21.239,21.239,0,0,0-4.88,1.08c-.1.028-.185.086-.284.121a4.181,4.181,0,0,0-1.52-.823,4.285,4.285,0,0,0-4.276,1.113,10.448,10.448,0,0,0-2.835,5.209,7.549,7.549,0,0,0,1.006,5.864c1.442,2.237,3.644,3.451,5.791,4.561s4.225,2.126,5.668,3.842c1.366,2.265,1.427,5.211,2.581,7.961,1.729,6.49.237,13.184-.662,19.933q.542.244,1.126.447c.9-6.781,2.519-13.748.662-20.7a.639.639,0,0,0-.027-.08c-1.062-2.493-1.082-5.573-2.7-8.22a.561.561,0,0,0-.048-.069c-1.652-1.984-3.929-3.056-6.058-4.157s-4.1-2.217-5.352-4.163l-.01-.012a6.367,6.367,0,0,1-.829-4.973,9.361,9.361,0,0,1,2.518-4.629l.02-.019a3.144,3.144,0,0,1,3.119-.785,3.085,3.085,0,0,1,.61.35,4.457,4.457,0,0,0-1.572,2.246,5.132,5.132,0,0,0,.621,4.252.6.6,0,0,0,.054.073,2.361,2.361,0,0,0,.959.693,1.418,1.418,0,0,0,1.055-.046,2.51,2.51,0,0,0,1.178-1.546,7.731,7.731,0,0,0,.426-2.1,4.732,4.732,0,0,0-.168-1.842,3.467,3.467,0,0,0-.507-1.434,22.89,22.89,0,0,1,9.23-1.024,4.658,4.658,0,0,1,2.836,1.983,14.063,14.063,0,0,0-3.4,3.405,2.574,2.574,0,0,0-.762,2.275,1.915,1.915,0,0,0,1.475,1.264,3.734,3.734,0,0,0,3.88-1.329,4.87,4.87,0,0,0,.5-5.263,6.782,6.782,0,0,1,4-.91,4.976,4.976,0,0,1,3.224,2.521,12.21,12.21,0,0,1,1.427,4.294v.008a3.851,3.851,0,0,1-.862,3.064,7.285,7.285,0,0,1-2.762,2.085l-.038.018c-1.429.755-3.174,1.409-4.744,2.346a7.6,7.6,0,0,0-3.615,4.145c0,.016-.009.034-.013.051-1.233,5.41-.676,10.948-.456,16.293v.009c.244,4.274.64,8.526.984,12.772a9.966,9.966,0,0,0,1.168-.081c-.345-4.258-.742-8.5-.984-12.748v-.008c-.221-5.375-.744-10.789.422-15.941a6.38,6.38,0,0,1,3.095-3.485c1.436-.858,3.145-1.505,4.665-2.305a8.346,8.346,0,0,0,3.2-2.432,5.1,5.1,0,0,0,1.093-3.966,13.228,13.228,0,0,0-1.578-4.716,6.2,6.2,0,0,0-4.007-3.078l-.05-.008a7.894,7.894,0,0,0-4.781,1.06,5.8,5.8,0,0,0-3.747-2.482l-.044,0c-.827-.068-1.663-.1-2.5-.1Zm-7.957,2.84a2.272,2.272,0,0,1,.47,1.091.584.584,0,0,0,.033.154,4.14,4.14,0,0,1,.105,1.4,6.734,6.734,0,0,1-.356,1.775,1.854,1.854,0,0,1-.58.893c-.059.028-.076.035-.169,0a1.423,1.423,0,0,1-.438-.343,4,4,0,0,1-.464-3.24A3.165,3.165,0,0,1,549.162,289.772Zm13.816,1.385a3.6,3.6,0,0,1-.366,3.91c-.013.015-.025.032-.037.048a2.847,2.847,0,0,1-2.654.874c-.4-.1-.58-.264-.628-.439s-.006-.572.542-1.23c.012-.013.023-.028.034-.042A12.792,12.792,0,0,1,562.978,291.157Z" transform="translate(-272.469 -144.614)" fill="#fff"/>
            <path id="Trazado_998784" data-name="Trazado 998784" d="M562.377,374.111l11.659-.337c2.641-.076,4.83,1.518,4.889,3.561s-2.034,3.761-4.675,3.837l-11.659.336c-2.641.076-4.83-1.518-4.889-3.56s2.034-3.761,4.675-3.837" transform="translate(-281.081 -188.381)" fill="#4032a4"/>
            <path id="Trazado_998785" data-name="Trazado 998785" d="M562.716,385.847l11.659-.337c2.641-.076,4.83,1.518,4.889,3.561s-2.034,3.761-4.675,3.837l-11.659.336c-2.641.076-4.83-1.518-4.889-3.56s2.034-3.761,4.675-3.837" transform="translate(-281.252 -194.296)" fill="#4032a4"/>
            <path id="Trazado_998786" data-name="Trazado 998786" d="M572.234,378.018a7.1,7.1,0,1,1-6.889,7.3,7.1,7.1,0,0,1,6.889-7.3" transform="translate(-284.932 -190.52)" fill="#4032a4"/>
            <path id="Trazado_998787" data-name="Trazado 998787" d="M609.925,360.355l2.478,11.012s-17.343-7.433-20.371-8.809c-4.129,4.68-5.506,5.506-5.506,5.506s13.214,14.04,23.124,19.821,16.793,7.983,19.27-.551-.826-30.832-.826-30.832Z" transform="translate(-295.609 -179.677)" fill="#f9b58e"/>
            <path id="Trazado_998788" data-name="Trazado 998788" d="M632.1,276.023c7.708,5.23,9.36,7.983,11.838,16.242s5.23,25.877,5.23,25.877-9.911,7.433-22.023,3.579C622.192,292.816,622.468,277.124,632.1,276.023Z" transform="translate(-314.483 -139.116)" fill="#f37500"/>
            <path id="Trazado_998789" data-name="Trazado 998789" d="M456.387,239.535s4.781-1.413,5.347-4.442-.819-4.256.56-6.212,3.658-4.527,2.109-5.369-2.131-1.181-3.335.576-3.129,5.524-3.129,5.524-4.675-13.851-6.128-16.2-3.086-1.5-3.391-.357c-1.639-2.334-3.207-1.959-3.14-.84a9.018,9.018,0,0,0,.915,2.753s-1.668.288-1.786,1.419,1.817,3.728,1.746,7.2a35.629,35.629,0,0,0,2.214,11.847c1.2,2.829,1.186,7.23,8.018,4.1" transform="translate(-223.979 -106.514)" fill="#f9b58e"/>
            <path id="Trazado_998790" data-name="Trazado 998790" d="M453.356,216.875a71.825,71.825,0,0,1,3.894,8.521c-.16-3.783-3.894-8.521-3.894-8.521" transform="translate(-228.491 -109.305)" fill="#f68d50"/>
            <path id="Trazado_998791" data-name="Trazado 998791" d="M449.352,219.619s2.943,5.338,3.221,7.665a14.5,14.5,0,0,0-3.221-7.665" transform="translate(-226.473 -110.688)" fill="#f68d50"/>
            <path id="Trazado_998792" data-name="Trazado 998792" d="M458.718,236.706a32.229,32.229,0,0,1-4.522,2.756c2.627.116,4.522-2.756,4.522-2.756" transform="translate(-228.915 -119.3)" fill="#f68d50"/>
            <path id="Trazado_998793" data-name="Trazado 998793" d="M466.834,248.781s-1.786.108-2.046,3.778c-.458-3.006.227-4.219,2.046-3.778" transform="translate(-234.183 -125.341)" fill="#f68d50"/>
            <path id="Trazado_998794" data-name="Trazado 998794" d="M454.884,244.445a5.442,5.442,0,0,0,2.034,2.842c1.5.943,1.982.846,2.325,3.1.5-3.064-.87-2.981-1.808-3.683s-2.55-2.259-2.55-2.259" transform="translate(-229.262 -123.2)" fill="#f68d50"/>
            <path id="Trazado_998795" data-name="Trazado 998795" d="M574.354,353.9c-1.558-1.134-1.988-1.852-2.059-4.233A7.665,7.665,0,0,0,569.376,344c-1.653-1.411-5.059-5.432-6.482-5.626s-1.358,1.265-.611,2.552,3,4.1,2.077,4.1-3.57-2.518-4.546-3.386c-3.2-2.844-5.166-5.308-6.34-3.761-.706.93,1.347,2.687,2.5,3.9s2.788,2.751,1.735,2.74-6.147-5.185-8.017-5.966-2.734-.241-1.858,1.065,6.723,5.79,6.377,6.4-2-.8-3.3-1.9-2.953-2.3-3.464-1.451-.12,1.336.977,2.3c4.234,3.713,5.667,4.233,5.709,4.9s-.521.552-1.338-.218-3.858-2.633-4.629-1.816,1.289,2.152,2.7,3.4a62.838,62.838,0,0,0,9.122,5.589c2.352,1.111,3.646,1.286,5.646,2.085s4.393,2.574,6.3,3.1,4.568-4.518,4.568-4.518S579.006,356.511,574.354,353.9Z" transform="translate(-275.802 -170.053)" fill="#f9b58e"/>
            <path id="Trazado_998796" data-name="Trazado 998796" d="M131.549,450.091c3.979,11.463,2.95,35.584,2.95,35.584H72.816s.915-23.146,4.829-35.844,53.9.26,53.9.26" transform="translate(-36.699 -223.904)" fill="#c39eec"/>
            <path id="Trazado_998797" data-name="Trazado 998797" d="M226.963,232.254l4.077,10.192,7.28-2.621-.874-6.406Z" transform="translate(-114.39 -117.056)" fill="#f9b58e"/>
            <path id="Trazado_998798" data-name="Trazado 998798" d="M163.557,254.752,198.5,270.185s-1.479-10.892-4-25.935c6.7.812,13.244-4.913,13.244-4.913s12.889,33.178,12.015,38.129-.291,9.9-4.368,12.522-22.131,2.912-25.334,2.621-16.89-.582-16.89-1.747S163.557,254.752,163.557,254.752Z" transform="translate(-82.433 -120.626)" fill="#4433a6"/>
            <path id="Trazado_998799" data-name="Trazado 998799" d="M116.7,263.859s8.593,1.823,14.062,8.333,6.51,17.968,6.51,24.738.26,50.519.26,54.946a14.96,14.96,0,0,1-1.3,6.77s-40.884,7.552-53.9-.26c1.562-41.925-1.562-75,.521-80.986s7.552-10.417,24.218-14.583A70.629,70.629,0,0,1,116.7,263.859Z" transform="translate(-41.38 -132.46)" fill="#4433a6"/>
            <path id="Trazado_998800" data-name="Trazado 998800" d="M124.422,255.763s-2.883,4.736-3.707,5.354a63.456,63.456,0,0,1,8.031,11.943l1.974-1.1s4,30.55,4.616,44.963-.206,40.976-.206,40.976l9.472-.823s3.5-70.195.618-86.462a7.548,7.548,0,0,1,2.265.8s-6.589-11.325-8.442-12.561-14.619-3.089-14.619-3.089" transform="translate(-60.84 -128.905)" fill="#e9c8fc"/>
            <path id="Trazado_998801" data-name="Trazado 998801" d="M162.23,328.828l.618,25.945s1.441-19.768-.618-25.945" transform="translate(-81.764 -165.729)" fill="#caa3e5"/>
            <path id="Trazado_998802" data-name="Trazado 998802" d="M143.8,245.184s-.17,12.53-.364,17.26c-4.645-4.845-13.244-12.6-13.244-12.6s1.368-3.095.066-10.125c4.948,2.864,13.541,5.468,13.541,5.468" transform="translate(-65.618 -120.817)" fill="#f9b58e"/>
            <path id="Trazado_998803" data-name="Trazado 998803" d="M130.327,239.716c4.948,2.864,13.542,5.469,13.542,5.469a37.147,37.147,0,0,0-.537,3.789c-2.935.607-8.134.471-12.65-5.891a21.707,21.707,0,0,0-.355-3.366" transform="translate(-65.685 -120.817)" fill="#f6955d"/>
            <path id="Trazado_998804" data-name="Trazado 998804" d="M150.028,194.87s2.107,17.184-3.969,22.98-16.562.934-18.694-5.513-3.829-15.9-.391-22.17,22.635-10.432,23.055,4.7" transform="translate(-63.005 -92.983)" fill="#f9b58e"/>
            <path id="Trazado_998805" data-name="Trazado 998805" d="M123.116,178.24c5.59-7.2,13.861-3.655,20.054-.981,7.964,3.439,5.453,12.572-1.377,11.962-2.192-.2-5.128-.333-7.162-.629-.871-.126-4.434-2.01-7.435,1.537,1.048.9,1.115,3.6,1.022,5.031a8.054,8.054,0,0,1-2.1,5.024c-.255-2.776-2.847-6.846-4.689-1.995-1.4,3.685,1.733,7.462,2.277,8.914C118.882,204.5,107.914,179.777,123.116,178.24Z" transform="translate(-58.136 -87.69)" fill="#4a3cac"/>
            <path id="Trazado_998806" data-name="Trazado 998806" d="M170.118,277.142s5.869,9.369,8.339,18.944c1.132,3.809-.1,5.766-1.338,6.177s-3.4,1.236-3.4,1.236,4.015,2.368,4.324,4.942-5.766,19.047-6.28,22.033c2.883-7.31,5.971-16.473,6.589-18.532s1.236-3.4.309-5.045a12.01,12.01,0,0,0-2.883-3.089s3.59-.686,3.707-2.677.626-5.631-3.451-13.711-5.918-10.277-5.918-10.277" transform="translate(-85.739 -139.68)" fill="#2f2875"/>
            <path id="Trazado_998807" data-name="Trazado 998807" d="M138.167,215.09s1.6,7.134,1.456,9.9,1.019,5.824,5.387,7.426,7.717-.291,9.027-2.766c-.291,6.406-1.019,7.571-3.931,8.008s-9.027.437-11.939-1.747-2.476-8.154-2.184-11.5.292-6.843.292-6.843Z" transform="translate(-68.429 -108.405)" fill="#4a3cac"/>
            <path id="Trazado_998808" data-name="Trazado 998808" d="M137.529,283.634l5.766-5.148,4.427,4.633,3.089-5.354,4.839,4.839-4.53-3.191-2.78,5.147s1.544,11.119.927,17.194c-1.132-9.987-1.338-15.443-2.574-17.605-2.78-3.707-3.809-4.427-3.809-4.427s-3.295,3.5-5.354,3.912" transform="translate(-69.315 -139.994)" fill="#caa3e5"/>
            <path id="Trazado_998809" data-name="Trazado 998809" d="M117.763,270.709c.146.582,3.2,12.667,2.766,20.238s-.728,8.154.292,8.591a67.406,67.406,0,0,0,6.843,1.31s-3.786,4.95-3.2,7.28,8.008,21.4,8.008,21.4-8.3-17.326-9.027-19.947a8,8,0,0,1,2.184-7.426c-4.222-.437-7.134-1.6-6.989-3.494S120.239,282.794,117.763,270.709Z" transform="translate(-59.353 -136.437)" fill="#2f2875"/>
            <path id="Trazado_998810" data-name="Trazado 998810" d="M183.518,282.744c2.912,6.115,4.951,10.775,4.951,27.956,3.494-11.648,2.038-22.132-4.951-27.956" transform="translate(-92.493 -142.503)" fill="#2f2875"/>
            <path id="Trazado_998811" data-name="Trazado 998811" d="M237,308.577s-1.165,7.863,4.659,13.4c-7.571-4.659-7.28-10.192-4.659-13.4" transform="translate(-118.605 -155.523)" fill="#2f2875"/>
            <path id="Trazado_998812" data-name="Trazado 998812" d="M228.945,211.761s-4.737-1.557-5.21-4.6.882-5.113-.437-7.109-3.22-3.4-1.879-4.548c.993-.848,2.649.2,3.54,1.428a33.973,33.973,0,0,1,2.736,4.866s5.094-12.365,6.617-14.665,3.13-2.742,3.4-1.592c1.709-2.284,3.266-1.861,3.164-.744a9.011,9.011,0,0,1-1,2.724s1.658-.691,1.742,1.472c.044,1.136-1.929,3.671-1.964,7.139a35.632,35.632,0,0,1-2.573,11.775C235.8,210.7,235.678,215.095,228.945,211.761Z" transform="translate(-111.364 -92.68)" fill="#f9b58e"/>
            <path id="Trazado_998813" data-name="Trazado 998813" d="M249.6,189.255a71.825,71.825,0,0,0-4.151,8.4c.274-3.776,4.151-8.4,4.151-8.4" transform="translate(-123.706 -95.385)" fill="#f68d50"/>
            <path id="Trazado_998814" data-name="Trazado 998814" d="M254.227,192.12s-3.1,5.246-3.453,7.564a14.5,14.5,0,0,1,3.453-7.564" transform="translate(-126.39 -96.828)" fill="#f68d50"/>
            <path id="Trazado_998815" data-name="Trazado 998815" d="M243.261,208.776a32.2,32.2,0,0,0,4.436,2.892c-2.63.037-4.436-2.892-4.436-2.892" transform="translate(-122.604 -105.223)" fill="#f68d50"/>
            <path id="Trazado_998816" data-name="Trazado 998816" d="M237.155,220.689s1.782.162,1.931,3.839c.549-2.991-.1-4.224-1.931-3.839" transform="translate(-119.526 -111.193)" fill="#f68d50"/>
            <path id="Trazado_998817" data-name="Trazado 998817" d="M246.765,216.766a5.439,5.439,0,0,1-2.119,2.779c-1.533.9-2.006.785-2.418,3.028-.411-3.078.96-2.953,1.92-3.626S246.765,216.766,246.765,216.766Z" transform="translate(-122.046 -109.25)" fill="#f68d50"/>
            <path id="Trazado_998818" data-name="Trazado 998818" d="M254.945,208.2s4.324-3.912,6.486-2.78-.309,1.853-1.853,2.78-3.809,4.942-3.809,4.942Z" transform="translate(-128.492 -103.429)" fill="#f9b58e"/>
            <path id="Trazado_998819" data-name="Trazado 998819" d="M184.291,106.859l-6.638,13.466,16.3-10.705s24.159,8.283,36.584-2.761,10.354-35.894-17.947-43.486-49.008-.69-52.459,17.256S176.008,104.1,184.291,106.859Z" transform="translate(-80.501 -30.404)" fill="#ff6ea9"/>
            <path id="Trazado_998820" data-name="Trazado 998820" d="M194.537,95.5c-1.906-.715-3.867.9-4.487,2.761-.561,1.683-.66,4.172.69,5.522C196.449,109.489,205.2,95.5,194.537,95.5Z" transform="translate(-95.589 -48.044)" fill="#ffedf6"/>
            <path id="Trazado_998821" data-name="Trazado 998821" d="M234.133,102.791c-1.858-1.27-4.322-.075-5.522,1.726-2.363,3.545.939,9.343,5.177,8.283C239.36,111.407,239.964,102.791,234.133,102.791Z" transform="translate(-114.822 -51.54)" fill="#ffedf6"/>
            <path id="Trazado_998822" data-name="Trazado 998822" d="M271.087,113.025a4.154,4.154,0,0,0-4.832,2.761c-.942,2.12-1.191,4.017.69,5.522C275.115,127.844,279.054,113.025,271.087,113.025Z" transform="translate(-133.83 -56.942)" fill="#ffedf6"/>
            <path id="Trazado_998823" data-name="Trazado 998823" d="M157.891,369.262s6.075,22.987,8.881,25.734,7.777.1,9.79-2.14.963-5.287-1.834-7.109-5.661-10.123-5.5-12.347,1.582-7.978-.078-7.405S157.891,369.262,157.891,369.262Z" transform="translate(-79.577 -184.442)" fill="#ff6ea9"/>
            <path id="Trazado_998824" data-name="Trazado 998824" d="M125.825,325.551c4.764,13.8,21.867,5.036,30.824,3.173s23.337,3.914,23.337,3.914L172.036,309.6l-7.949-23.035s-7.756,13.417-15.956,17.475-27.07,7.7-22.306,21.508" transform="translate(-63.033 -144.43)" fill="#f6d32d"/>
            <path id="Trazado_998825" data-name="Trazado 998825" d="M204.726,311.115c-4.391-12.722-5.1-24.018-1.585-25.232s9.924,8.117,14.314,20.839,5.1,24.018,1.585,25.231-9.923-8.117-14.314-20.838" transform="translate(-101.257 -144.032)" fill="#ff6ea9"/>
            <path id="Trazado_998826" data-name="Trazado 998826" d="M206.727,329.982c.7,2.029,1.477,4.021,2.3,5.926l2.929-1.538c1.723-.9,2.809-2.627,2.174-4.467l-1.528-4.427c-.635-1.84-2.552-2.526-4.466-2.175l-3.262.6c.529,2.008,1.152,4.054,1.852,6.082" transform="translate(-103.257 -162.899)" fill="#4a3cac"/>
            <path id="Trazado_998827" data-name="Trazado 998827" d="M133.453,348.2a32.988,32.988,0,0,0,4.89,9.134,25,25,0,0,0,7.214-.529,35.679,35.679,0,0,1-8.992-22.15,22.168,22.168,0,0,0-5.225,3.785,41.208,41.208,0,0,0,2.112,9.76" transform="translate(-66.196 -168.664)" fill="#ff6ea9"/>
            <path id="Trazado_998828" data-name="Trazado 998828" d="M147.075,385.968c3.821.268,5.355-1.8,7.62-3.533,2.02-1.549,5.318-1.552,7.32-2.532s3.538-2.59,3.524-.929a3.412,3.412,0,0,1-2.254,3.458c-1.616.728-3.16,1.736-1.921,1.862s7.911-1.437,8.564-.1.134,1.5-1.876,1.876-1.4.915-.264,1.131c.906.481,1.041,1.263.878,2.36s-2.093,1.35-2.093,1.35a2.231,2.231,0,0,1,.952,1.854c-.064,1-1.367,1.486-2.05,1.483,1.044,1.187-.379,2.763-3.566,2.414-1.512-.166-11.417-1.61-13.716-1.993a15.162,15.162,0,0,1-4.214-1.421S142.239,386.489,147.075,385.968Z" transform="translate(-72.412 -190.642)" fill="#f9b58e"/>
            <path id="Trazado_998829" data-name="Trazado 998829" d="M72.464,275.689c-6.177.412-12.767,8.442-16.061,15.855S43.637,332.108,45.7,336.638s50.242,9.884,50.242,9.884a18.417,18.417,0,0,1,2.471-13.178c-16.061-4.53-30.063-9.06-31.71-10.708s6.178-11.531,9.472-23.474S80.289,277.748,72.464,275.689Z" transform="translate(-22.885 -138.947)" fill="#4433a6"/>
            <path id="Trazado_998830" data-name="Trazado 998830" d="M84.227,276.935s2.883,4.324,3.089,8.648-5.148,21.826-6.177,24.5-5.971,12.56-5.971,12.56-7.413.412-11.325,5.972c4.324-3.707,11.943-4.324,11.943-4.324s16.885,6.795,23.68,7.824c-13.8-5.56-22.856-8.854-22.032-9.472s7.413-16.678,9.472-25.327S89.54,280.861,84.227,276.935Z" transform="translate(-32.176 -139.575)" fill="#2f2875"/>
            <path id="Trazado_998831" data-name="Trazado 998831" d="M88.064,409.923c.582,0,19.656,2.33,27.664,2.184-4.95,1.6-21.986.874-27.664-2.184" transform="translate(-44.384 -206.601)" fill="#2f2875"/>
            <rect id="Rectángulo_455530" data-name="Rectángulo 455530" width="13.616" height="8.442" transform="translate(300.85 54.461) rotate(-64.576)" fill="#ffc025"/>
            <rect id="Rectángulo_455531" data-name="Rectángulo 455531" width="23.42" height="8.442" transform="translate(310.678 59.133) rotate(-64.576)" fill="#ffc025"/>
            <rect id="Rectángulo_455532" data-name="Rectángulo 455532" width="35.403" height="8.442" transform="translate(320.506 63.804) rotate(-64.576)" fill="#ffc025"/>
            <path id="Trazado_998834" data-name="Trazado 998834" d="M457.32,112.208,478.9,126.187l-7.843-15.92s23.721-.476,31.571-16.158-3.9-39.216-34.6-35.58-48.283,18.5-44.641,37.436S448.125,112.744,457.32,112.208Z" transform="translate(-213.148 -29.309)" fill="#ff6ea9"/>
            <path id="Trazado_998835" data-name="Trazado 998835" d="M464.855,88.921l1.4,3.484a10.135,10.135,0,0,0-2.463,2.409l-3.452-1.475-1.746,4.085,3.453,1.475a10.141,10.141,0,0,0-.039,3.444l-3.484,1.4,1.654,4.123,3.484-1.4a10.131,10.131,0,0,0,2.409,2.462l-1.475,3.453,4.085,1.745,1.475-3.452a10.141,10.141,0,0,0,3.444.039L475,114.2l4.123-1.654-1.4-3.484a10.151,10.151,0,0,0,2.463-2.409l3.452,1.475,1.746-4.085-3.452-1.475a10.151,10.151,0,0,0,.039-3.444l3.483-1.4L483.8,93.6l-3.456,1.387a10.144,10.144,0,0,0-2.425-2.479l1.464-3.425L475.3,87.337l-1.463,3.424a10.153,10.153,0,0,0-3.468-.038l-1.387-3.457Zm4.723,5.806a6.47,6.47,0,1,1-3.6,8.415h0a6.47,6.47,0,0,1,3.6-8.415h0" transform="translate(-231.096 -43.983)" fill="#ffedf6"/>
            <path id="Trazado_998836" data-name="Trazado 998836" d="M516.922,84.578l.551,1.37a4,4,0,0,0-.969.947l-1.358-.58-.687,1.607,1.358.58a4,4,0,0,0-.015,1.355l-1.37.55.65,1.622,1.37-.55a3.992,3.992,0,0,0,.948.968l-.58,1.359,1.607.686.58-1.358a3.984,3.984,0,0,0,1.355.015l.55,1.37,1.621-.651-.55-1.37a3.96,3.96,0,0,0,.969-.947l1.359.58L525,90.525l-1.359-.58a3.984,3.984,0,0,0,.015-1.355l1.37-.55-.651-1.622-1.36.546a3.974,3.974,0,0,0-.953-.975l.576-1.347-1.607-.686-.576,1.347a3.987,3.987,0,0,0-1.364-.015l-.545-1.36Zm1.859,2.283a2.545,2.545,0,1,1-1.415,3.311,2.545,2.545,0,0,1,1.415-3.311" transform="translate(-259.274 -42.299)" fill="#ffedf6"/>
            <path id="Trazado_998837" data-name="Trazado 998837" d="M518.148,121.081l.777,1.936a5.612,5.612,0,0,0-1.368,1.338l-1.917-.82-.97,2.27,1.918.819a5.648,5.648,0,0,0-.021,1.914l-1.935.777.919,2.291,1.935-.777a5.642,5.642,0,0,0,1.338,1.367l-.82,1.919,2.27.969.82-1.918a5.622,5.622,0,0,0,1.914.021l.777,1.936,2.29-.919-.776-1.936a5.619,5.619,0,0,0,1.368-1.338l1.918.82.97-2.27-1.919-.819a5.632,5.632,0,0,0,.022-1.913l1.935-.777-.919-2.291-1.92.771a5.633,5.633,0,0,0-1.347-1.378l.813-1.9-2.269-.969-.813,1.9a5.609,5.609,0,0,0-1.926-.021l-.77-1.92Zm2.624,3.225a3.595,3.595,0,1,1-2,4.676h0a3.6,3.6,0,0,1,2-4.675" transform="translate(-259.374 -60.562)" fill="#ffedf6"/>
            <path id="Trazado_998838" data-name="Trazado 998838" d="M321.19,39.892c-5.132-1.488-6.79-2.518-10.535,1.44s-4.882,8.091-4.515,10.307,17.813,12.468,21.107,11.65,7.05-9.664,7.825-12.129S330.907,43.594,321.19,39.892Z" transform="translate(-154.262 -19.438)" fill="#ffc025"/>
            <path id="Trazado_998839" data-name="Trazado 998839" d="M314.183,39a5.2,5.2,0,0,0-1.1.5c.531,1.4,1.5,3.881,3.111,7.63a56.939,56.939,0,0,0-10.116,3.83,5.32,5.32,0,0,0,.064.9,2.561,2.561,0,0,0,.792,1.085,17.377,17.377,0,0,1,10.322-5.261c1.626,3.038,4.224,3.883,8.628,4.824a18.112,18.112,0,0,1,.721,11.036,2.222,2.222,0,0,0,.644-.034,3.008,3.008,0,0,0,.854-.38c-.264-4.245-1.79-10.543-.141-10.723,1.359-.148,4.773-.959,7.19-1.554a2.517,2.517,0,0,0-.081-.622c-4.02,1.06-10.891,2.313-14.234-.347-3.519-2.8-5.7-8.1-6.652-10.882" transform="translate(-154.262 -19.654)" fill="#ffedf6"/>
            <path id="Trazado_998844" data-name="Trazado 998844" d="M335.5,176.74s-3.871-.43-5.376,2.151.61,3.164-.645,5.806c-1.514,3.189-3.5.6-5.564,2.4-1.853,1.617-1.1,3.189-.673,5.985s-3.225,4.3-3.225,4.3,2.8,1.935,4.946,3.226a21.892,21.892,0,0,0,3.871-3.656s-1.72,1.935-1.075,3.871a13.506,13.506,0,0,0,6.667,2.366l1.721-2.366a8.516,8.516,0,0,0-.038,3.233c3.644,2.081,10.982,1.167,14.581,2.614l9.973-.685S374,202.547,377.009,194.8c-2.4-.933-5.109-.6-4.282-4.356.485-2.205,1.664-4.853-1.309-6.4-2.142-1.112-4.946-.645-4.946-4.3s-1.895-8.573-5.981-8.573-4.836-2.478-8.725-5.69C344.937,159.849,334,165.342,335.5,176.74Z" transform="translate(-161.29 -82.279)" fill="#4a3cac"/>
            <path id="Trazado_998845" data-name="Trazado 998845" d="M370.57,445.179c3.959,12.026,2.624,37.847,2.624,37.847h-63.83s3.961-33.922,9.1-41.421,52.1,3.574,52.1,3.574" transform="translate(-155.92 -221.256)" fill="#4839ae"/>
            <path id="Trazado_998846" data-name="Trazado 998846" d="M328.393,271.957c-7.944,8.986-6.51,17.968-6.51,24.738,0,3.307,5.205,16.632,5.163,28.693-.045,12.311-3.57,18.312-4.122,33.024,0,0,40.884,7.552,53.9-.26-.439-11.794-3.788-22.634-3.123-31.9,1.7-23.681,8.847-39,4.2-47.772-3.127-5.9-5.2-7.373-14.73-10.619s-30.221-1.063-34.786,4.1" transform="translate(-162.178 -134.229)" fill="#ff6ea9"/>
            <path id="Trazado_998847" data-name="Trazado 998847" d="M351.856,266.328c-9.516-.064-20.273,2.079-23.412,5.63a25.568,25.568,0,0,0-6.563,17.13c1.933-3.506,9.91-15.7,18.843-19.1,4.826,2.9,11.34,5.549,18.095-.241,9.168,4.584,12.3,25.574,12.545,24.367.142-.713,3.813-8.744,6.652-15.508-.022-.043-.034-.09-.057-.132-3.126-5.9-5.2-7.372-14.729-10.619a37.936,37.936,0,0,0-11.375-1.529Z" transform="translate(-162.228 -134.228)" fill="#ea4d91"/>
            <path id="Trazado_998848" data-name="Trazado 998848" d="M364.113,248.484a13.863,13.863,0,0,1-.031,7.1c6.765,6.541,14.874-.588,14.874-.588a19.829,19.829,0,0,1-1.3-11.978C372.706,245.88,364.113,248.484,364.113,248.484Z" transform="translate(-183.497 -122.48)" fill="#f9b58e"/>
            <path id="Trazado_998849" data-name="Trazado 998849" d="M377.686,243.016c-4.948,2.865-13.542,5.469-13.542,5.469a37.178,37.178,0,0,1,.537,3.789c2.935.607,8.135.472,12.651-5.891A21.64,21.64,0,0,1,377.686,243.016Z" transform="translate(-183.529 -122.48)" fill="#f6955d"/>
            <path id="Trazado_998850" data-name="Trazado 998850" d="M350.994,196.245s-1.174,17.273,5.208,22.732,16.589.036,18.369-6.517,2.961-16.083-.811-22.158-23.167-9.19-22.766,5.944" transform="translate(-176.858 -93.383)" fill="#f9b58e"/>
            <path id="Trazado_998851" data-name="Trazado 998851" d="M353.791,185.957a8.459,8.459,0,0,0,4.736,9.06c3.768,1.945,8.031-1.029,10.5,1.854s.544,4.209,3.089,5.971c2.677,1.853,6.795,4.942,6.795,4.942s4.736-3.5,4.736-5.148-2.677-11.943-7-15.237-9.678-5.354-12.355-5.56-10.5,4.118-10.5,4.118" transform="translate(-178.268 -91.643)" fill="#4a3cac"/>
            <path id="Trazado_998852" data-name="Trazado 998852" d="M396.326,353.745s4.692-1.109,6.483-.512.171,10.918.171,10.918-6.483-1.28-6.4-1.877-.256-8.53-.256-8.53" transform="translate(-199.748 -177.941)" fill="#f9b58e"/>
            <path id="Trazado_998853" data-name="Trazado 998853" d="M382.209,278.333s4.282,1.93,7.9,8.323c3,5.3.724,21.955.483,25.333s-4.1,22.2-6.032,24.609-11.1,2.654-15.2,1.93-29.434-15.682-29.434-15.682,1.206-4.584,3.377-6.514c13.993,3.136,24.367,7.961,28.71,8.2,3.619-17.13,10.917-40.171,10.193-46.2" transform="translate(-171.324 -140.28)" fill="#ea4d91"/>
            <path id="Trazado_998854" data-name="Trazado 998854" d="M347.327,356.931l-5.452.825a20.946,20.946,0,0,0-1.948,4.7s9.536,5.626,17.855,10.146c1.67-1.874,4.585-4.919,6.621-5.734,2.407-.962,5.3-2.281,6.554-2.854-4.314-.727-12.66-4.264-23.63-7.086" transform="translate(-171.323 -179.893)" fill="#d34689"/>
            <path id="Trazado_998855" data-name="Trazado 998855" d="M320.534,272.739s-4.584.483-9.651,7.238-12.063,39.085-11.822,44.151,3.619,8.685,10.615,9.65,41.015-12.545,41.015-12.545-.242-6.755-2.9-8.444c-14.958,2.654-30.055,3.7-33.433,3.946,1.206-6.514-8.306-34.1,6.17-44" transform="translate(-150.724 -137.46)" fill="#ea4d91"/>
            <path id="Trazado_998856" data-name="Trazado 998856" d="M327.571,344.478s-4.245-4.7-4.927-5.81-4.776-5.118-7.165-5.033-4.436.427-4.948,1.706,1.536.768,2.815.6,1.877,0,2.389.511,1.109,1.621-.085,1.194-4.692-.085-5.63.853-.853,2.047.171,1.791a16.134,16.134,0,0,1,4.862-.341c.768.255,2.218,1.194.6,1.023a14.482,14.482,0,0,0-5.2.682c-.682.341-.682.938.256,1.28a5.248,5.248,0,0,0,1.621.341s-1.194.256-1.024,1.024.512.938,1.706,1.024a54.994,54.994,0,0,1,6.578,2.122l6.447-.5A18.449,18.449,0,0,1,327.571,344.478Z" transform="translate(-155.92 -168.151)" fill="#f9b58e"/>
          </g>
        </g>
      </g>
    </g>
  </g>
</svg>
