<svg xmlns="http://www.w3.org/2000/svg" xmlns:xlink="http://www.w3.org/1999/xlink" width="295" height="284" viewBox="0 0 295 284">
  <defs>
    <clipPath id="clip-path">
      <rect id="Rectángulo_455528" data-name="Rectángulo 455528" width="295" height="274.39" fill="none"/>
    </clipPath>
    <clipPath id="clip-path-3">
      <rect id="Rectángulo_455520" data-name="Rectángulo 455520" width="4.081" height="3.143" fill="none"/>
    </clipPath>
    <clipPath id="clip-path-4">
      <rect id="Rectángulo_455521" data-name="Rectángulo 455521" width="30.252" height="30.409" fill="none"/>
    </clipPath>
  </defs>
  <g id="Grupo_1183867" data-name="Grupo 1183867" transform="translate(-1125 -1129)">
    <rect id="Rectángulo_455272" data-name="Rectángulo 455272" width="295" height="284" transform="translate(1125 1129)" fill="none"/>
    <g id="Grupo_1183866" data-name="Grupo 1183866" transform="translate(1125 1138.609)">
      <g id="Grupo_1183865" data-name="Grupo 1183865" clip-path="url(#clip-path)">
        <g id="Grupo_1183864" data-name="Grupo 1183864">
          <g id="Grupo_1183863" data-name="Grupo 1183863" clip-path="url(#clip-path)">
            <path id="Trazado_998628" data-name="Trazado 998628" d="M498.556,464.418c-6.149,5-14.885,10.545-22.079,12.933l10.689,2.013L443.012,531.43l-88,25.328L250.861,667.823l82.038-.028,41.8-67.113,83.749-49.757,32.526-69.314L497.9,490c-1.386-7.453-.75-17.782.652-25.581" transform="translate(-212.831 -394.014)" fill="#f7cc7f"/>
            <path id="Trazado_998629" data-name="Trazado 998629" d="M69.077,1091.347s-4.77-8.55-5.93-10.367-4.183-9.039-4.292-9.324,2.082-3.7,1.593-3.819-1.03,1.8-1.551,1.573-2.045-4.849-2.342-4.62c-.556.429.821,2.866.525,3.019s-1.194-2.681-1.777-2.6,1.107,2.6.944,2.82-1.917-2.147-2.234-1.642c-.172.274,1.612,2.068,1.27,2.236s-1.93-.99-2.1-.656,1.468.791,1.958,1.691,1.323,1.289,1.669,2.957.863,7.7,2.636,10.71S65.118,1093,65.118,1093Z" transform="translate(-45.112 -903.364)" fill="#f79c8d"/>
            <path id="Trazado_998630" data-name="Trazado 998630" d="M128.426,1221.744s5.276,5.686,6.061,7.978-.765,5.57-2.9,5.714-6.9-10.093-6.9-10.093Z" transform="translate(-105.781 -1036.531)" fill="#355389"/>
            <path id="Trazado_998631" data-name="Trazado 998631" d="M247.012,1356.937c-.384-.321-.848-.176-2.181-.792a8.123,8.123,0,0,0-1.241-.371.152.152,0,0,1-.117-.111c-.405-1.533-2.18-8.621-2.375-10.664-.2-2.09-1.547-10.951-1.753-12.3a.154.154,0,0,0-.194-.125l-3.873,1.08a.154.154,0,0,0-.109.183c.239,1.056,1.728,7.688,2.165,11.044.349,2.676,4.335,11.26,4.415,11.808l0,.016a.336.336,0,0,0,.332.287H246.4c.164,0,.734.044.614-.057" transform="translate(-199.514 -1130.557)" fill="#f48c7f"/>
            <path id="Trazado_998632" data-name="Trazado 998632" d="M232,1274.7c-2.061-6.251-4.365-5.985-4.365-5.985l1.782,13.143c1.272-.348,2.93-1.122,4.2-1.481A57.218,57.218,0,0,0,232,1274.7" transform="translate(-193.126 -1076.382)" fill="#13375b"/>
            <path id="Trazado_998633" data-name="Trazado 998633" d="M170.26,1169.017c-.631-4.111-4.35-7.068-8.24-5.073a9.232,9.232,0,0,0-2.664,2.135c-1.634,2.1-2.052,4.687-3.739,6.722a16.687,16.687,0,0,0,2.262,1.437l1.051-1.4-.362,1.748a25.641,25.641,0,0,0,11.344,2.252,21.809,21.809,0,0,0,.347-7.82" transform="translate(-132.026 -986.953)" fill="#f7cc7f"/>
            <path id="Trazado_998634" data-name="Trazado 998634" d="M205.873,1482.918a16.644,16.644,0,0,0-2.969-1.646c-.124-.06-.574-.347-.736-.446a5.724,5.724,0,0,1-1.181-1.046,5.9,5.9,0,0,1-.578-2.564c.2-2.164,3.331-36.874,3.993-40.632.683-3.879-.357-9.795-.357-9.795l-2.421-.913-4.6,15.929.362,12.125a32.436,32.436,0,0,0-1.217,5.583c-.137,2.089,1.562,19.042,1.562,19.042h0a8.86,8.86,0,0,1-.091,1.5c-.125.634-.819,1.939-.5,2.536a1.6,1.6,0,0,0,.683.746l8.258.134c.45.007.152-.283-.21-.55" transform="translate(-166.426 -1209.718)" fill="#f48c7f"/>
            <path id="Trazado_998635" data-name="Trazado 998635" d="M108.373,1416.177s-2.868,4.326-3.55,7.906.5,14.583-.812,19.275c-.711,2.54-3.406,6.462-3.816,9.744s-1.835,12.755-1.835,12.755h0a8.362,8.362,0,0,1-.992,2.8,8.25,8.25,0,0,0-1.081,1.425,4.2,4.2,0,0,0,.146,3.258c.19.414-.013.413.419.547a2.651,2.651,0,0,0,3.184-1.5,7.62,7.62,0,0,0,.625-2.754,12.857,12.857,0,0,1,.452-2.911l9.166-22.486,6.636-19.406,1.7-9.994Z" transform="translate(-81.46 -1200.35)" fill="#f79c8d"/>
            <path id="Trazado_998636" data-name="Trazado 998636" d="M98.714,1780.849a4.065,4.065,0,0,1-3.991-1.672,4.4,4.4,0,0,0-.379,3.269c.327.714,1.281.693,2.033.721a1.963,1.963,0,0,0,1.8-1.107,6.635,6.635,0,0,0,.533-1.212" transform="translate(-79.89 -1509.46)" fill="#86b1f2"/>
            <path id="Trazado_998637" data-name="Trazado 998637" d="M207.074,1787.308a7.459,7.459,0,0,1-4.7-.185,3.81,3.81,0,0,0-.378,1.97c.2.586.486.719.738.725,1.995.052,7.307.124,8.829.144a.249.249,0,0,0,.193-.409c-.377-.452-4.517-2.145-4.68-2.245" transform="translate(-171.334 -1516.201)" fill="#86b1f2"/>
            <path id="Trazado_998638" data-name="Trazado 998638" d="M153,1445.432l.517.033h.027l.513.029.031,0,.516.024h.026l.527.02a34.153,34.153,0,0,0,5.927-.224c.791-7.918,1.086-15.144,1.378-16.743.71-3.879-.619-10-.619-10l-.634-.114.4-2.267-10.65,1.342s-2.982,4.326-3.692,7.907.521,14.583-.845,19.275c0,0,3.041.474,6.576.714" transform="translate(-124.222 -1201.503)" fill="#f7cc7f"/>
            <path id="Trazado_998639" data-name="Trazado 998639" d="M161.574,1261.251s-3.8-.242-5.3,1.4,3.332,14.622,3.605,16.71-1.392,7.642-1.392,7.642,8.919,1.8,11.468.108c0,0,.273-15.018,0-16.51a44.191,44.191,0,0,0-3.1-8.156c-.546-.6-5.287-1.193-5.287-1.193" transform="translate(-132.339 -1070.039)" fill="#355389"/>
            <path id="Trazado_998640" data-name="Trazado 998640" d="M193.39,1227.3s-.02.112-.055.3a28.913,28.913,0,0,1-1.262,4.785c-.532,1.008,1.822,4.224,4.088,3.832.674-.117-.57-2.955-.51-3.255.115-.576.27-1.361.429-2.166l.266-1.347c.242-1.23.44-2.236.44-2.236Z" transform="translate(-162.891 -1041.176)" fill="#f7a491"/>
            <path id="Trazado_998641" data-name="Trazado 998641" d="M200.244,1227.607c.035-.191.055-.3.055-.3l3.4-.085-.44,2.236c-.085.43-.175.888-.264,1.34a3.177,3.177,0,0,1-1.621-.815,4.3,4.3,0,0,1-1.228-1.83c.042-.215.077-.4.1-.542" transform="translate(-169.8 -1041.176)" fill="#f47458"/>
            <path id="Trazado_998642" data-name="Trazado 998642" d="M195.427,1176.7a3.057,3.057,0,0,0-2.6,1.115c-1,1.3-2.084,5.322.408,7.509s4.954-.288,5.32-2.913.507-5.806-3.124-5.711" transform="translate(-162.643 -998.309)" fill="#f7a491"/>
            <path id="Trazado_998643" data-name="Trazado 998643" d="M234.083,1206.144c-.3.58-.8.9-1.115.717s-.335-.8-.038-1.382.8-.9,1.115-.717.335.8.038,1.382" transform="translate(-197.438 -1022.08)" fill="#f7a491"/>
            <path id="Trazado_998644" data-name="Trazado 998644" d="M187.229,1173.688s-2.138,3.824-3.668,4-1.73,2.209-1.73,2.209.547-4.683,2.061-5.586a5.613,5.613,0,0,1,3.337-.624" transform="translate(-154.266 -995.726)" fill="#f7cc7f"/>
            <path id="Trazado_998645" data-name="Trazado 998645" d="M186.938,1200.609c.124.679-.126,1.3-.559,1.391s-.885-.389-1.009-1.068.126-1.3.559-1.391.885.389,1.009,1.068" transform="translate(-157.241 -1017.685)" fill="#f7a491"/>
            <path id="Trazado_998646" data-name="Trazado 998646" d="M208.266,1222.92l2.314.455a1.031,1.031,0,0,1-1.249.7c-1.248-.208-1.064-1.153-1.064-1.153" transform="translate(-176.685 -1037.529)" fill="#fff"/>
            <rect id="Rectángulo_455519" data-name="Rectángulo 455519" width="0.966" height="22.126" transform="matrix(0.983, -0.186, 0.186, 0.983, 218.077, 252.303)" fill="#3c8f7c"/>
            <path id="Trazado_998647" data-name="Trazado 998647" d="M1169.766,1685.122h-1.141l4.252-22.021.949.18Z" transform="translate(-991.465 -1410.979)" fill="#3c8f7c"/>
            <path id="Trazado_998648" data-name="Trazado 998648" d="M1389.516,1685.122h-1.141l4.252-22.021.949.18Z" transform="translate(-1177.902 -1410.979)" fill="#3c8f7c"/>
            <path id="Trazado_998649" data-name="Trazado 998649" d="M1221.8,1685.675l.927.011-4.077-21.934-.948.18Z" transform="translate(-1033.097 -1411.533)" fill="#184655"/>
            <path id="Trazado_998650" data-name="Trazado 998650" d="M1186.1,1347.582c5.065.542,11.62,1.115,18.2,12.282,7.192,12.2,3.406,30.436-2.271,35.5s-24.216,11.322-39.8,1.957c0,0-9.41-5.675-4.581-15.094,7.432-14.494,6.382-17.517,9.7-23.2s8-12.6,18.747-11.45" transform="translate(-980.986 -1143.185)" fill="#f47458"/>
            <path id="Trazado_998651" data-name="Trazado 998651" d="M1221.417,1365.411c-4.491-7.622-8.971-10.308-12.973-11.417a33.5,33.5,0,0,1,4.688,6.328c7.192,12.2,3.406,30.436-2.271,35.5-5.034,4.493-20.184,9.919-34.419,4.559a14.458,14.458,0,0,0,2.9,2.487c15.585,9.365,34.125,3.109,39.8-1.957s9.462-23.3,2.271-35.5" transform="translate(-998.098 -1148.732)" fill="#b75742"/>
            <path id="Trazado_998652" data-name="Trazado 998652" d="M1238.495,1470.662l-1.3,3.906,3.968-1.561Z" transform="translate(-1049.639 -1247.714)" fill="#f79c8d"/>
            <path id="Trazado_998653" data-name="Trazado 998653" d="M1242.647,1393.994c-.264.011-.989.253-2.049,2.249-1.353,2.549-3.332,10.25-3.332,10.25l5.9,2.192.759-1.607,1.249-12.375s-2.459-.712-2.532-.709" transform="translate(-1049.7 -1182.669)" fill="#6394db"/>
            <path id="Trazado_998654" data-name="Trazado 998654" d="M1278.471,1386.672a36.207,36.207,0,0,0-7.806,1.111s-1.424,12.2,1.283,21.474c.606,2.076-.5,8.6-.5,8.6l17.5-.23s-2.073-15.783-1.292-18.332.8-11.434.8-11.434-.12-.019-3.931-.675a39.71,39.71,0,0,0-6.049-.518" transform="translate(-1077.719 -1176.457)" fill="#86b1f2"/>
            <path id="Trazado_998655" data-name="Trazado 998655" d="M1329.84,1741.8s-.387,4.452-1.1,5.686.037,3.329.075,3.617,1.5.7,3.821.452,2.285-.781,2.1-1.644-1.423-1.973-1.5-2.795a21.383,21.383,0,0,1,.712-3.781Z" transform="translate(-1127.049 -1477.753)" fill="#f7a491"/>
            <path id="Trazado_998656" data-name="Trazado 998656" d="M1202.181,1566.637s-12.078-.668-14.775.96.488,4.971.488,4.971,9.833,4.261,26.295,5.208c3.9.224,4.234-10.13,3.505-10.987s-15.512-.151-15.512-.151" transform="translate(-1006.479 -1328.908)" fill="#e5b05c"/>
            <path id="Trazado_998657" data-name="Trazado 998657" d="M1331.519,1785.222c2.391-.254,2.1-1.425,1.9-2.313a7.872,7.872,0,0,0-1.216-1.833,3.986,3.986,0,0,1-1.6.775c-1.079.318-2.557-.311-3.5-.7a11.476,11.476,0,0,0-.32,3.075c.039.3,2.34,1.255,4.732,1" transform="translate(-1125.641 -1511.069)" fill="#f47458"/>
            <path id="Trazado_998658" data-name="Trazado 998658" d="M1333.281,1575.918c-.483,3.639-2.872,21.756-2.872,21.756l5.544.685s6.817-23.646,6.468-27.263-2.9-3.921-2.9-3.921-4.961-.89-6.238,8.743" transform="translate(-1128.723 -1329.578)" fill="#f7cc7f"/>
            <path id="Trazado_998659" data-name="Trazado 998659" d="M1277.588,1403.382c-1.636-.612-2.436,14.079-2.657,20.125a71.505,71.505,0,0,1-9.2-.092c-.592-.044-1.955-.542-2.543-.619a5.919,5.919,0,0,0-1.445-.068,27.307,27.307,0,0,0-3.387,1.519c-.32.335-1.186,1.179-1.04,1.544s1.666-1.017,1.666-1.017l.743-.415c-.925.9-2.688,2.086-2.434,2.517s1.838-.782,2.972-1.6c-.972.875-2.18,2.442-1.9,2.686.25.219,1.624-1.594,3.093-2.116.544-.193,1.087.342,1.515.407a3.1,3.1,0,0,0,1.109.062l1.59-.45c.542.049.555.368,1.1.484.635.135,1.677.276,2.485.473,4.656,1.134,6.209,1.66,7.635,1.66,4.318,0,4.569-23.653.7-25.1" transform="translate(-1066.665 -1190.618)" fill="#f7a491"/>
            <path id="Trazado_998660" data-name="Trazado 998660" d="M1374.684,1409.492c.306-6.194.261-13.827-3.222-15.13-1.375-.514-3.8,2.576-3.362,15.256a26.267,26.267,0,0,0,6.584-.126" transform="translate(-1160.656 -1182.936)" fill="#86b1f2"/>
            <path id="Trazado_998661" data-name="Trazado 998661" d="M1198.542,1766.928a3,3,0,0,1-.382,2.568c-.866,1.022-4.466,2.025-4.938,2.579a1.55,1.55,0,0,0-.437,1.025l10.1-.277-.11-3.041-.465-2.185Z" transform="translate(-1011.961 -1499.067)" fill="#f7a491"/>
            <path id="Trazado_998662" data-name="Trazado 998662" d="M1188.808,1785.932s2.6,1.047,3.85.427,1.216-.791,1.579-.56.493,3.338.493,3.338l-11.359.077c-.79-.018-1.19-.6-.548-1.1a9.268,9.268,0,0,1,1.239-.734,35.637,35.637,0,0,1,4.748-1.452" transform="translate(-1003.238 -1514.994)" fill="#f47458"/>
            <path id="Trazado_998663" data-name="Trazado 998663" d="M1183.519,1570.876c-.781-1.637-2.556-3.769-5.681-2.485-2.98,1.225-3.78,4.234-2.84,7.317s7.13,21.2,7.346,23.692l4.942.033s-.9-14.347-1.118-17.814a33.49,33.49,0,0,0-2.649-10.741" transform="translate(-996.556 -1330.294)" fill="#f7cc7f"/>
            <path id="Trazado_998664" data-name="Trazado 998664" d="M1174.332,1476.907h16.52a1.077,1.077,0,0,1,1,.669l5.087,12.406h9.108a.461.461,0,1,1,0,.922h-25.921a1.809,1.809,0,0,1-1.651-1.068l-5.122-11.409a1.077,1.077,0,0,1,.983-1.518" transform="translate(-995.392 -1253.012)" fill="#355389"/>
            <path id="Trazado_998665" data-name="Trazado 998665" d="M1238.909,1517.839a.909.909,0,1,0,.682-1.186.972.972,0,0,0-.682,1.186" transform="translate(-1051.075 -1286.721)" fill="#fff"/>
            <path id="Trazado_998666" data-name="Trazado 998666" d="M1310.9,1350.4l.808,5.327s-2.952,6.343-4.714,5.793c-1.479-.462-.569-6.074-.569-6.074a15.376,15.376,0,0,0,.564-4.522c-.242-1.508,3.91-.524,3.91-.524" transform="translate(-1108.143 -1145.417)" fill="#f7a491"/>
            <g id="Grupo_1183859" data-name="Grupo 1183859" transform="translate(198.747 204.669)" opacity="0.2">
              <g id="Grupo_1183858" data-name="Grupo 1183858">
                <g id="Grupo_1183857" data-name="Grupo 1183857" clip-path="url(#clip-path-3)">
                  <path id="Trazado_998667" data-name="Trazado 998667" d="M1311.12,1350.926c-.242-1.508,3.91-.524,3.91-.524l.067.442a2.457,2.457,0,0,1-.45.743,5.466,5.466,0,0,1-3.631,1.643,8.216,8.216,0,0,0,.1-2.3" transform="translate(-1311.017 -1350.086)" fill="#f47458"/>
                </g>
              </g>
            </g>
            <path id="Trazado_998668" data-name="Trazado 998668" d="M1302.309,1293.138c.117-.043.94,6.068-.622,7.749s-4.606,2.232-5.7.907c-1.208-1.464-1.147-8.032,1.282-9.761s5.038,1.1,5.038,1.1" transform="translate(-1098.867 -1095.69)" fill="#f7a491"/>
            <path id="Trazado_998669" data-name="Trazado 998669" d="M1303.049,1273.391a6.746,6.746,0,0,1,3.54,2.019c.853.1,2.011.572,3.208,2.553a4.954,4.954,0,0,1-1.328,6.459,3.86,3.86,0,0,0-1.689,2.854l-.271-.791a4.42,4.42,0,0,1-.215-1.864,3.639,3.639,0,0,1,.277-1.12c.412-.884-.885-1.472-1.248-2.208-.28-.567-.294-1.863-.735-2.8l-.527-.715a3.35,3.35,0,0,0-2.4-.679c-1.189.267-1.018-4.2,1.391-3.71" transform="translate(-1103.721 -1080.317)" fill="#f7cc7f"/>
            <path id="Trazado_998670" data-name="Trazado 998670" d="M1330.387,1325.421c-.012.745.326,1.356.757,1.363s.789-.591.8-1.336-.326-1.356-.757-1.363-.79.591-.8,1.337" transform="translate(-1128.704 -1123.357)" fill="#f7a491"/>
            <path id="Trazado_998671" data-name="Trazado 998671" d="M1303.3,1345.85l-2.355-.122a1.031,1.031,0,0,0,1.042.981c1.26.1,1.313-.859,1.313-.859" transform="translate(-1103.722 -1141.72)" fill="#fff"/>
            <path id="Trazado_998672" data-name="Trazado 998672" d="M1625.245,1113.042c.257,1.056.72,2.724.72,2.724-.037.458-.172,2.367-.333,4.707l3.439-1.376a37.145,37.145,0,0,1,.112-4.045c.13-.2.348.049,1.4-1.46a2.943,2.943,0,0,0,.361-1.213s.063-.958-.152-1.047a.447.447,0,0,0-.54.219c-.078.166-.058.551-.136.717a1.19,1.19,0,0,1-.785.354c-.209-.01.026-2.832.026-2.832s.117-.8.176-1.062c.051-.223.254-.878.254-.878s.239-.95-.056-1.022c-.174-.043-.617.729-.921,1.548a16.487,16.487,0,0,1-.606,1.8c-.219-.029-.1-1.577-.1-1.577a4.966,4.966,0,0,0,.214-1.043c.207-.41.344-1.17-.02-1.233a6.3,6.3,0,0,0-.547.954s-.188.68-.3,1c-.194.56-.223,1.446-.324,1.836-.084.325-.16.191-.195.2a8.157,8.157,0,0,1,.074-1.053,6.2,6.2,0,0,1,.078-1.021,7.437,7.437,0,0,0,.147-1.078c.059-.8-.445-.719-.619.013-.066.279-.136.583-.206.891-.271,1.2-.263,2.355-.392,2.365a8.709,8.709,0,0,1-.057-2.092s-.258-1.165-.514-.084a9.412,9.412,0,0,0-.262,2.323,9.089,9.089,0,0,0,.063,2.457" transform="translate(-1378.756 -938.611)" fill="#f8a492"/>
            <path id="Trazado_998673" data-name="Trazado 998673" d="M1834.764,1094.7c-.257,1.056-.72,2.724-.72,2.724.037.459.172,2.368.333,4.707l-3.439-1.376a37.15,37.15,0,0,0-.112-4.046c-.13-.2-.348.049-1.4-1.46a2.946,2.946,0,0,1-.361-1.213s-.063-.958.152-1.047a.446.446,0,0,1,.54.219c.078.166.058.551.136.716a1.191,1.191,0,0,0,.785.355c.209-.01-.026-2.832-.026-2.832s-.117-.8-.176-1.062c-.051-.223-.254-.878-.254-.878s-.239-.95.056-1.022c.174-.043.617.729.92,1.548a16.517,16.517,0,0,0,.606,1.8c.219-.029.1-1.577.1-1.577a4.952,4.952,0,0,1-.213-1.043c-.207-.41-.344-1.17.02-1.233a6.279,6.279,0,0,1,.547.954s.188.68.3,1c.194.561.223,1.446.324,1.836.084.325.16.191.195.2a8.2,8.2,0,0,0-.074-1.053,6.192,6.192,0,0,0-.078-1.021,7.4,7.4,0,0,1-.147-1.078c-.059-.8.445-.718.619.013.066.279.136.583.206.891.271,1.2.263,2.355.393,2.365a8.722,8.722,0,0,0,.057-2.092s.258-1.165.514-.083a9.428,9.428,0,0,1,.262,2.322,9.1,9.1,0,0,1-.062,2.457" transform="translate(-1551.776 -923.047)" fill="#f8a492"/>
            <path id="Trazado_998674" data-name="Trazado 998674" d="M1789.147,1723.965a26.277,26.277,0,0,0,2.382,2.655c.475.291-.212,3.725-1.506,3.951-.729.127-1.135-.676-1.135-.676l.209-.989-2.724-2.807Z" transform="translate(-1515.565 -1462.617)" fill="#f7a491"/>
            <path id="Trazado_998675" data-name="Trazado 998675" d="M1722.954,1727.817a26.273,26.273,0,0,0,2.023,2.937c.434.349-.686,3.668-2,3.726-.739.033-1.039-.815-1.039-.815l.334-.954-2.343-3.132Z" transform="translate(-1459.195 -1465.885)" fill="#f7a491"/>
            <path id="Trazado_998676" data-name="Trazado 998676" d="M1723.564,1746.523a20.067,20.067,0,0,1-1.411,1.627,16.76,16.76,0,0,1-1.466,1.183s-.932,1.693-1.187,2.283a9.847,9.847,0,0,0-1.113,3.516c.03.236.56.486,1,.351,1.842-.566,6.551-4.874,7.146-6.031.686-1.334-2.971-2.929-2.971-2.929" transform="translate(-1457.877 -1481.755)" fill="#13375b"/>
            <path id="Trazado_998677" data-name="Trazado 998677" d="M1653.64,1478.99c.171-.479.335-.922.494-1.338,1.959.427,4.172.9,6.448,1.383l.277,8.343c0-.644-1.711,13.307-1.711,13.307s4.423,9.792,7.448,15.5a10.44,10.44,0,0,1-3.622,3.1c-4.7-5.629-10.841-15.93-11.1-17.643-.147-.985-.279-16.911,1.763-22.655" transform="translate(-1401.395 -1253.645)" fill="#3c8f7c"/>
            <path id="Trazado_998678" data-name="Trazado 998678" d="M1720.249,1489.142c-.6,6.5-1.929,18.929-1.818,19.928.334,1.246,6.254,12.746,7.319,14.421a7.178,7.178,0,0,1-3.564,3.032c-.278.075-10.047-13.827-10.58-14.93-.6-1.247-1.6-8.052-1.623-16.476l-.277-8.343c3.792.808,7.279,1.6,10.543,2.368" transform="translate(-1450.52 -1261.384)" fill="#50bfa5"/>
            <path id="Trazado_998679" data-name="Trazado 998679" d="M1661.432,1306.921l4.464.613s3.571.065,4.014.065,3.254,16.307,4.066,22.435.183,7.213.183,7.213a39.276,39.276,0,0,1-9.847.9,32.114,32.114,0,0,1-9.253-2.737s3.722-11.777,4.46-15.454,1.914-13.037,1.914-13.037" transform="translate(-1404.156 -1108.796)" fill="#355389"/>
            <path id="Trazado_998680" data-name="Trazado 998680" d="M1625.208,1173.2s-.287,12.141.171,13.07c.666,1.351,8.161,10.93,8.161,10.93s-3.581,14.985-5.086,20.159c-.151.521-.823,3.887-.823,4.216,0,.727,3.168,1.651,3.544,1.6.337-.049,3.1-14.3,4.865-21.278a19.949,19.949,0,0,1,3.027-6.591l1.227-1.743-9.417-9.439s-1.161-10.506-1.161-11.377c0-.228-4.052-.4-4.509.457" transform="translate(-1378.756 -994.805)" fill="#86b1f2"/>
            <path id="Trazado_998681" data-name="Trazado 998681" d="M1732.933,1174.477l11.743-11.965s1.636-11.315,1.752-11.741,3.031-.645,4.206-.76c.377-.037-.2,12.051-.759,14.077-.664,2.394-9.54,13.3-9.54,13.3s-1.591,5.907-1.208,10.24c.637,7.2,2.352,17.1,2.045,17.407-1.908,1.2-9.233,1.331-9.7.584-5.12-8.245,1.458-31.143,1.458-31.143" transform="translate(-1467.334 -975.673)" fill="#86b1f2"/>
            <path id="Trazado_998682" data-name="Trazado 998682" d="M1796.84,1740.894a20.074,20.074,0,0,1-1.191,1.794,16.825,16.825,0,0,1-1.3,1.36s-.709,1.8-.886,2.416a10.435,10.435,0,0,0-.656,3.756c.059.231.567.671.985.4,1.615-1.051,5.93-5.977,6.372-7.2.51-1.41-3.321-2.525-3.321-2.525" transform="translate(-1520.984 -1476.98)" fill="#13375b"/>
            <path id="Trazado_998683" data-name="Trazado 998683" d="M1706.677,1208.1a12.037,12.037,0,0,0,1.5-.03,6.987,6.987,0,0,1,1.694,0,3.821,3.821,0,0,1,2.706,1.938c.573,1.418,2.621,1.207.195,6.585-2.747,6.088-5.956,4.095-6,3.958s-1.587-5.157-1.587-5.157-1.92,1.9-1.888,1.82-2.615-9.331,3.385-9.114" transform="translate(-1444.607 -1024.891)" fill="#0e2e35"/>
            <path id="Trazado_998684" data-name="Trazado 998684" d="M1723.671,1275.386l-.32,2.382s-.717,3.432.205,4.093,3.922-4.191,3.922-4.191l-.317-6.036Z" transform="translate(-1461.871 -1078.859)" fill="#f7a491"/>
            <path id="Trazado_998685" data-name="Trazado 998685" d="M1729.022,1273.591a6.834,6.834,0,0,1-3.864,3.815l.271-2.019,3.49-3.751Z" transform="translate(-1463.629 -1078.859)" fill="#f47458"/>
            <path id="Trazado_998686" data-name="Trazado 998686" d="M1711.961,1224.288A3.176,3.176,0,0,0,1707.4,1226a24.158,24.158,0,0,0-.828,2.953c-.573,2.723.327,5.65,1.563,5.886A5.961,5.961,0,0,0,1714,1230.1c.535-2.38-.239-4.782-2.041-5.816" transform="translate(-1447.714 -1038.338)" fill="#f7a491"/>
            <path id="Trazado_998687" data-name="Trazado 998687" d="M1750.011,1260.617a.925.925,0,1,0,1.1-.922,1.023,1.023,0,0,0-1.1.922" transform="translate(-1484.694 -1068.718)" fill="#f7a491"/>
            <path id="Trazado_998688" data-name="Trazado 998688" d="M1721.441,1224.937s-1.535-.181-1.715-1.28-1.307-3.749-3.979-3.835,2.824-1.177,3.013-1.106,2.468.913,2.468.913,1.208,2.1,1.211,2.284-.143,2.1-.143,2.1Z" transform="translate(-1455.025 -1033.96)" fill="#0e2e35"/>
            <path id="Trazado_998689" data-name="Trazado 998689" d="M1715.751,1275.554l-2.738-.475a1.215,1.215,0,0,0,1.078,1.3c1.46.3,1.659-.822,1.659-.822" transform="translate(-1453.323 -1081.781)" fill="#fff"/>
            <path id="Trazado_998690" data-name="Trazado 998690" d="M818.352,1342.868a2.8,2.8,0,0,0,.294.712,27.048,27.048,0,0,0,2.811,3.74l1.519-3.423s-.248-1.075-.677-2.611c-1.467.383-2.865.6-3.947,1.582" transform="translate(-694.292 -1137.951)" fill="#f8a492"/>
            <path id="Trazado_998691" data-name="Trazado 998691" d="M807.2,1265.156s-8.474,3.649-8.748,3.58a22.519,22.519,0,0,1-3.511-10.761c-.016-2.4,2.475-5.284,5.255-4.714,1.4.287,1.378.677,3.448,3.685a34.663,34.663,0,0,1,3.557,8.211" transform="translate(-674.432 -1063.208)" fill="#13375b"/>
            <path id="Trazado_998692" data-name="Trazado 998692" d="M920.358,1763.729s-.2,3.328-.2,3.335a18.211,18.211,0,0,0-.365,1.851c0,1.443,6.852-1.225,5.317-1.865-.139-.058-.867-.5-.913-.987-.07-.757-.249-2.288-.249-2.288Z" transform="translate(-780.354 -1496.353)" fill="#f7a491"/>
            <path id="Trazado_998693" data-name="Trazado 998693" d="M923.732,1785.216s-1.609.441-2.433.552-1.91-.819-2.493-.568c-.642.276-.616,2.763-.616,2.763s8.628.708,11.054-.024c.961-.29-2.222-1.694-5.511-2.723" transform="translate(-778.995 -1514.532)" fill="#dd513a"/>
            <path id="Trazado_998694" data-name="Trazado 998694" d="M827.889,1763.729s-.2,3.328-.2,3.335a18.212,18.212,0,0,0-.365,1.851c0,1.443,6.853-1.225,5.317-1.865-.139-.058-1.083-.823-1.129-1.314-.07-.757-.033-1.961-.033-1.961Z" transform="translate(-701.903 -1496.353)" fill="#f7a491"/>
            <path id="Trazado_998695" data-name="Trazado 998695" d="M830.98,1785.216s-1.609.441-2.433.552-1.91-.819-2.493-.568c-.642.276-.667,2.763-.667,2.763s8.667.825,11.1-.024c.946-.33-2.222-1.694-5.511-2.723" transform="translate(-700.261 -1514.532)" fill="#dd513a"/>
            <path id="Trazado_998696" data-name="Trazado 998696" d="M844.879,1217.648l6.035-8.455c.025-.074.08-.225.164-.457.3-.839.936-2.584,1.487-4.321l.006-.018c.173-.607.54-1.666.9-2.69.395-1.139.884-2.552.9-2.793-.015-.041-.044-.115-.081-.213a19.484,19.484,0,0,1-.626-2.537c-.067-.379-.135-1.3.316-1.3.708,0,.37.919.7,1.494a14.523,14.523,0,0,0,.491-1.916l.118-1.8c.023-.135-.121-1.127.375-1.127h.024c.446.033.436,1.087.621,2.87.059-.205.117-.453.161-.68a6.541,6.541,0,0,1,.151-.941c-.09-.5-.038-1.28.492-1.207.265.037.243,1.131.243,1.131,0,.15-.018,1.307-.01,1.535.055-.388.267-2.043.682-2.043.344,0,.372.446.365.8,0,.208-.221,2-.233,2.21.162-.272.354-1.852.515-1.852.671,0,.429,2.246.182,2.831a2.624,2.624,0,0,0-.076.314,5.517,5.517,0,0,1-.575,1.671c-.422.721-1,1.867-1.092,2.043-.065.358-.267,1.646-.521,3.266-.109.693-.228,1.453-.352,2.24h-.006c-.023.17-.149.712-.626,2.744a24.259,24.259,0,0,1-.75,2.953c-.284.5-6.791,9.339-7.068,9.715l-.163.222Z" transform="translate(-716.798 -1010.887)" fill="#f7a491"/>
            <path id="Trazado_998697" data-name="Trazado 998697" d="M911.3,1226.53s-.49-1.253-1.362-1.255a1,1,0,0,1,.905.155,1.726,1.726,0,0,1,.457,1.1" transform="translate(-771.998 -1039.487)" fill="#f47458"/>
            <path id="Trazado_998698" data-name="Trazado 998698" d="M830.912,1216.24l-.777,4.913s2.96,2.377,4.686,1.876c1.448-.421.455-2.314.455-2.314a12.3,12.3,0,0,1-.535-4c.237-1.375-3.829-.477-3.829-.477" transform="translate(-704.289 -1031.617)" fill="#f7a491"/>
            <path id="Trazado_998699" data-name="Trazado 998699" d="M834.981,1217.727a12.093,12.093,0,0,0,3.351.944,6.518,6.518,0,0,1-.079-1.952c.109-.635-.7-.785-1.6-.763-1.179.1-2.23.285-2.23.285l-.149.944a2.443,2.443,0,0,0,.707.541" transform="translate(-707.801 -1031.619)" fill="#fe875e"/>
            <path id="Trazado_998700" data-name="Trazado 998700" d="M810.571,1165.684c-.122,0,1.17,5.489,3.17,6.433s4.983.452,5.543-1.026c.619-1.635-1.639-7.235-4.452-7.946s-4.261,2.539-4.261,2.539" transform="translate(-687.685 -986.73)" fill="#f7a491"/>
            <path id="Trazado_998701" data-name="Trazado 998701" d="M799.235,1145.743a6.3,6.3,0,0,0-2.577,2.848c-.75.356-1.657,1.125-2.093,3.2a4.5,4.5,0,0,0,3.387,5.106,3.069,3.069,0,0,1,2.33,1.927l.229-1.437a5.687,5.687,0,0,0-1.124-1.878c-.675-.626.32-1.539.407-2.284.067-.573-.355-1.687-.263-2.627a6.493,6.493,0,0,1,2.227-2.12c1.885-.716-.473-3.916-2.523-2.734" transform="translate(-674.034 -971.832)" fill="#13375b"/>
            <path id="Trazado_998702" data-name="Trazado 998702" d="M822.721,1197.706c.261.634.155,1.263-.239,1.406s-.924-.256-1.185-.89-.155-1.263.239-1.406.924.256,1.185.89" transform="translate(-696.669 -1015.358)" fill="#f7a491"/>
            <path id="Trazado_998703" data-name="Trazado 998703" d="M880.634,1335.5l11.642-1.9s-1.324-3.335-1.8-3.335-8.8,3.636-8.8,3.636l-.662,1.33Z" transform="translate(-747.133 -1128.604)" fill="#f8a492"/>
            <path id="Trazado_998704" data-name="Trazado 998704" d="M830.2,1414.459a38.332,38.332,0,0,0-.688,9.871c.473,4.257.511,19.379.511,19.379l-1.806,24.2,4.285.094s5.081-24.184,4.987-23.563,1.7-17.028,1.7-17.028l-6.058-13.481Z" transform="translate(-702.66 -1199.58)" fill="#184655"/>
            <path id="Trazado_998705" data-name="Trazado 998705" d="M847.187,1405.259s-.757,5.055.189,7.273,8.118,23.972,8.213,25.745,2.48,21.379,2.48,21.379l4.983-.14,1.078-21.8-2.257-27.4-2.191-6.927Z" transform="translate(-718.513 -1190.646)" fill="#13375b"/>
            <path id="Trazado_998706" data-name="Trazado 998706" d="M830.135,1241.362a4.476,4.476,0,0,0,2.375.713,7.9,7.9,0,0,0,2.766-1.151l-.225-.763s-2.965-.432-3.039-.385-1.876,1.587-1.876,1.587" transform="translate(-704.289 -1051.826)" fill="#f7a491"/>
            <path id="Trazado_998707" data-name="Trazado 998707" d="M916.52,1306.127s4.4,4.155,6.391,3.446,2.81-3.135-2.04-6.683c-4.34-3.176-4.352,3.237-4.352,3.237" transform="translate(-777.578 -1104.627)" fill="#f8a492"/>
            <path id="Trazado_998708" data-name="Trazado 998708" d="M823.213,1264.456c-.654-3.559-5.4-14.634-5.774-16.673-.184-.992-2.741-1.014-5.177-.884-2.573.137-5.129.462-5.129.462a7.828,7.828,0,0,0-3.28,1.313c-1,.939-1.268,3.536.172,8.465,1.137,3.891,2.547,6.028,3.245,8.862.141.951.262,1.889.423,2.985.257,4.238,0,9.837,0,9.837s12.4,2.572,17.037-1.33c0,0-.844-9.391-1.514-13.037" transform="translate(-681.288 -1057.825)" fill="#355389"/>
            <path id="Trazado_998709" data-name="Trazado 998709" d="M879.418,1257.6s-4.865,4.016-5.149,4.016c-.183,0-6.943-4.973-8.5-9.058a3.571,3.571,0,0,1,3.014-4.777c1.432.006,2.069.375,4.909,2.77a36.234,36.234,0,0,1,5.73,7.05" transform="translate(-734.331 -1058.621)" fill="#466eb6"/>
            <path id="Trazado_998710" data-name="Trazado 998710" d="M816.469,540.489c-1.19-.8-2.409-1.564-3.582-2.391a1.04,1.04,0,0,1-.379-.794c.154-1.656.4-3.3.547-4.959a.879.879,0,0,1,.613-.916c1.629-.637,3.241-1.318,4.859-1.984.262-.108.521-.225.973-.422l-2.319-7.454c-2.082.413-3.981.758-5.863,1.181a1.153,1.153,0,0,1-1.452-.543c-.873-1.257-1.92-2.392-2.86-3.6a.942.942,0,0,1-.122-.778c.639-1.655,1.277-3.315,2.016-4.927a1,1,0,0,0-.516-1.55,4.823,4.823,0,0,1-.722-.564l-3.59-1.93a2.444,2.444,0,0,1-.45-.093c-1.46-.6-1.179-.585-2.008.633-1.01,1.485-2,2.986-2.86,4.284l-6.485-.606-2.53-6.143a24.932,24.932,0,0,0-7.431,2.31c.411,2.048.806,4.045,1.216,6.039a.69.69,0,0,1-.3.837c-1.373,1.027-2.723,2.091-4.022,3.21a.812.812,0,0,1-1.018.155c-1.661-.7-3.338-1.358-5-2.05a.7.7,0,0,0-.987.245,22.237,22.237,0,0,0-3.077,5.964c-.152.42.05.6.367.808,1.467.954,2.912,1.943,4.385,2.887a.877.877,0,0,1,.47,1.055c-.293,1.9-.476,3.809-.719,5.869l-5.894,2.428a23.247,23.247,0,0,0,2.259,7.538l6.37-1.309c1.227,1.414,2.333,2.758,3.521,4.024a1.115,1.115,0,0,1,.266,1.431c-.7,1.575-1.338,3.177-1.985,4.775-.128.316-.38.683.113.944q3.008,1.588,6.015,3.177c.426.225.7.082.953-.32.96-1.494,1.986-2.946,2.92-4.456.36-.582.748-.6,1.353-.523a40.853,40.853,0,0,0,4.5.407.98.98,0,0,1,1.1.76c.7,1.851,1.478,3.675,2.21,5.471a22.281,22.281,0,0,0,7.556-2.35c-.413-1.97-.81-3.968-1.262-5.952a.845.845,0,0,1,.414-1.008c1.225-.964,2.382-2.014,3.6-2.991a1.028,1.028,0,0,1,.853-.163c1.483.58,2.946,1.213,4.408,1.845.818.354,1.146.5,1.46.289l3.425-6.37c.008-.519-.347-.763-1.31-1.413m-12.728-2.234a11.7,11.7,0,0,1-15.852,4.766h0A11.7,11.7,0,0,1,798.975,522.4h0a11.7,11.7,0,0,1,4.766,15.852Z" transform="translate(-651.341 -430.079)" fill="#cae1f9"/>
            <path id="Trazado_998711" data-name="Trazado 998711" d="M329.422,777.311c-1.925.187-3.843.443-5.771.592a1.4,1.4,0,0,1-1.076-.5c-1.261-1.852-2.415-3.776-3.688-5.618a1.185,1.185,0,0,1-.149-1.477c1.145-2.059,2.234-4.15,3.342-6.23.18-.337.347-.681.648-1.273l-8.806-5.749c-1.807,2.216-3.483,4.2-5.074,6.258a1.553,1.553,0,0,1-1.974.682c-1.985-.556-4.047-.835-6.064-1.288a1.269,1.269,0,0,1-.795-.7c-.757-2.268-1.519-4.538-2.136-6.846-.3-1.108-.837-1.388-1.866-1.167a6.5,6.5,0,0,1-1.234.035l-5.384,1.077a3.285,3.285,0,0,1-.547.289c-2.028.633-1.726.4-1.541,2.381.226,2.409.491,4.813.707,6.9l-7.254,4.937-7.9-4.206a33.589,33.589,0,0,0-5.732,8.776c2.184,1.774,4.308,3.508,6.446,5.227a.929.929,0,0,1,.408,1.126c-.544,2.245-1.032,4.508-1.421,6.784a1.094,1.094,0,0,1-.924,1.034c-2.324.7-4.631,1.454-6.952,2.164a.941.941,0,0,0-.815,1.1,29.947,29.947,0,0,0,1.923,8.833c.2.566.568.582,1.075.524,2.342-.269,4.691-.481,7.031-.767a1.18,1.18,0,0,1,1.393.692c1.323,2.22,2.775,4.363,4.291,6.711l-4.036,7.579a31.311,31.311,0,0,0,8.815,5.887l5.49-6.827c2.487.416,4.789.861,7.11,1.156a1.5,1.5,0,0,1,1.5,1.257c.625,2.236,1.337,4.447,2.037,6.661.138.438.193,1.035.928.882q4.486-.933,8.972-1.863c.636-.132.792-.512.715-1.15-.286-2.375-.467-4.763-.793-7.132-.126-.914.258-1.27.955-1.7a55.035,55.035,0,0,0,5.021-3.44,1.321,1.321,0,0,1,1.8-.159c2.318,1.319,4.688,2.547,6.99,3.784,1.667-1.378,5.032-6.555,5.828-8.925-2.12-1.692-4.246-3.424-6.418-5.1a1.139,1.139,0,0,1-.436-1.4c.445-2.052.745-4.136,1.169-6.193a1.386,1.386,0,0,1,.746-.9c2.038-.67,4.1-1.269,6.161-1.868,1.152-.335,1.618-.466,1.764-.953l-1.911-9.553c-.437-.545-1.016-.495-2.573-.343m-15.132,8.6a15.767,15.767,0,1,1-18.553-12.368,15.767,15.767,0,0,1,18.553,12.368" transform="translate(-223.87 -639.632)" fill="#9bc1f9"/>
            <g id="Grupo_1183862" data-name="Grupo 1183862" transform="translate(72.194 70.388)" opacity="0.2">
              <g id="Grupo_1183861" data-name="Grupo 1183861">
                <g id="Grupo_1183860" data-name="Grupo 1183860" clip-path="url(#clip-path-4)">
                  <path id="Trazado_998712" data-name="Trazado 998712" d="M505.58,481.951c-.771-.366-1.556-.7-2.319-1.086a.618.618,0,0,1-.294-.433c-.057-.987-.057-1.978-.121-2.964a.523.523,0,0,1,.279-.593c.9-.52,1.788-1.064,2.68-1.6.145-.087.286-.179.535-.335l-2.029-4.176c-1.188.429-2.273.8-3.342,1.217a.686.686,0,0,1-.9-.19c-.625-.661-1.343-1.235-2-1.865a.56.56,0,0,1-.141-.446c.228-1.03.455-2.063.746-3.077.139-.487,0-.716-.442-.865a2.878,2.878,0,0,1-.475-.267l-2.283-.815a1.449,1.449,0,0,1-.273-.015c-.912-.221-.745-.239-1.124.552-.461.963-.907,1.934-1.3,2.774l-3.867.222-2.036-3.386a14.825,14.825,0,0,0-4.163,2.021c.424,1.167.835,2.307,1.254,3.443a.41.41,0,0,1-.1.519c-.716.726-1.414,1.472-2.078,2.246a.483.483,0,0,1-.585.182c-1.039-.263-2.084-.5-3.124-.759a.416.416,0,0,0-.558.232,13.227,13.227,0,0,0-1.277,3.781c-.052.26.083.349.288.442.948.43,1.885.883,2.836,1.306a.521.521,0,0,1,.37.578c0,1.141.06,2.282.1,3.515l-3.249,1.953a13.82,13.82,0,0,0,2,4.23l3.629-1.338c.847.722,1.618,1.413,2.43,2.052a.663.663,0,0,1,.284.818c-.271.988-.5,1.987-.741,2.985-.047.2-.162.436.151.545l3.82,1.332c.271.094.416-.014.532-.273.431-.964.9-1.91,1.319-2.88.16-.375.386-.422.749-.428a24.292,24.292,0,0,0,2.682-.162.583.583,0,0,1,.717.348c.578,1.026,1.2,2.029,1.787,3.02a13.251,13.251,0,0,0,4.233-2.056c-.419-1.122-.83-2.261-1.273-3.387a.5.5,0,0,1,.153-.63c.635-.676,1.221-1.4,1.849-2.079a.611.611,0,0,1,.487-.172c.924.209,1.84.45,2.757.692.512.135.718.191.884.04l1.446-4.051c-.042-.306-.272-.418-.9-.714m-7.683-.178a6.961,6.961,0,1,1-13.111-4.679h0a6.961,6.961,0,1,1,13.111,4.679" transform="translate(-476.225 -464.31)" fill="#9bc1f9"/>
                </g>
              </g>
            </g>
            <path id="Trazado_998713" data-name="Trazado 998713" d="M576.213,1648.692l-2.291-.009c.3-10,.569-25.178.064-26.029a.371.371,0,0,0,.152.115l1.859-.485c.3.151.482.242.544,4.494.032,2.188.02,5.209-.037,8.979-.1,6.418-.29,12.872-.292,12.936" transform="translate(-486.917 -1376.35)" fill="#355389"/>
            <path id="Trazado_998714" data-name="Trazado 998714" d="M539.6,1795.685H524.143a1.289,1.289,0,0,0-1.289,1.289.225.225,0,0,0,.225.225h17.583a.225.225,0,0,0,.225-.225,1.289,1.289,0,0,0-1.289-1.289" transform="translate(-443.591 -1523.465)" fill="#355389"/>
            <path id="Trazado_998715" data-name="Trazado 998715" d="M571.112,1787.3h-1.893a1.014,1.014,0,0,0,0,2.029h1.893a1.014,1.014,0,0,0,0-2.029" transform="translate(-482.067 -1516.35)" fill="#355389"/>
            <rect id="Rectángulo_455522" data-name="Rectángulo 455522" width="0.915" height="45.568" transform="translate(33.334 228.137)" fill="#13375b"/>
            <path id="Trazado_998716" data-name="Trazado 998716" d="M529.882,1291.259a12.266,12.266,0,0,1,1.12-5.911,5.012,5.012,0,0,1,4.468-2.545c5.586-.007,6.3,7.373,9.852,10.22,1.086.87,2.3,1.578,3.329,2.516,3.8,3.464,2.086,9.876-1.4,12.912-2.419,2.107-6.22,3.3-9.2,1.657a9.375,9.375,0,0,1-3.579-3.855,52.725,52.725,0,0,1-2.814-7.156,26.709,26.709,0,0,1-1.774-7.838" transform="translate(-449.542 -1088.334)" fill="#13375b"/>
            <path id="Trazado_998717" data-name="Trazado 998717" d="M409.274,1414.514l12.155-3.389s2.561-3.44,5.855-8.054c1.077,1.066,1.676,2.7,2.761,3.76l-8.046,8.9a1.535,1.535,0,0,1-1.135.506l-11.17.037-3.822.3v-2.446Z" transform="translate(-344.343 -1190.37)" fill="#f48c7f"/>
            <path id="Trazado_998718" data-name="Trazado 998718" d="M521.037,1402.861s4.172-4.277,5.245-6.136-.731-.648-2.574-1.137c-.7-.185-.521-4.275-1.841-2.946a60.681,60.681,0,0,0-4.886,6Z" transform="translate(-438.608 -1181.297)" fill="#96d9c9"/>
            <path id="Trazado_998719" data-name="Trazado 998719" d="M541.826,1380.679s3.744-.739,5.452.688-.366,14.117-.364,16.221a70.4,70.4,0,0,0,1.173,8.047s-11.347,1.986-13.149-1.172c0,0-.513-12.032-.436-13.545a41.956,41.956,0,0,1,2.224-8.363c.465-.662,5.1-1.876,5.1-1.876" transform="translate(-453.466 -1171.21)" fill="#50bfa5"/>
            <path id="Trazado_998720" data-name="Trazado 998720" d="M563.957,1343.076s.02.112.055.3a28.8,28.8,0,0,0,1.265,4.778c.534,1.007-1.828,4.219-4.1,3.827-.677-.117.572-2.951.512-3.251-.115-.575-.271-1.359-.43-2.163-.09-.453-.181-.913-.266-1.346-.243-1.228-.441-2.233-.441-2.233Z" transform="translate(-475.573 -1139.398)" fill="#f7a491"/>
            <path id="Trazado_998721" data-name="Trazado 998721" d="M564.012,1343.378c-.035-.191-.055-.3-.055-.3l-3.406-.085s.2,1,.441,2.233c.085.43.176.887.265,1.338a3.193,3.193,0,0,0,1.626-.814,4.287,4.287,0,0,0,1.232-1.828c-.042-.215-.077-.4-.1-.542" transform="translate(-475.573 -1139.398)" fill="#f47458"/>
            <path id="Trazado_998722" data-name="Trazado 998722" d="M549.369,1292.537a3.073,3.073,0,0,1,2.611,1.114c1.006,1.3,2.091,5.315-.409,7.5s-4.969-.288-5.335-2.909-.508-5.8,3.133-5.7" transform="translate(-463.277 -1096.585)" fill="#f7a491"/>
            <path id="Trazado_998723" data-name="Trazado 998723" d="M541.16,1321.944c.3.579.8.9,1.119.716s.336-.8.038-1.38-.8-.9-1.119-.716-.337.8-.038,1.38" transform="translate(-458.941 -1120.326)" fill="#f7a491"/>
            <path id="Trazado_998724" data-name="Trazado 998724" d="M566.711,1289.529s2.145,3.819,3.679,4,1.736,2.206,1.736,2.206-.548-4.677-2.067-5.578a5.652,5.652,0,0,0-3.347-.624" transform="translate(-480.799 -1094.006)" fill="#13375b"/>
            <path id="Trazado_998725" data-name="Trazado 998725" d="M588.145,1316.414c-.125.678.126,1.3.56,1.389s.888-.388,1.012-1.067-.126-1.3-.56-1.389-.888.389-1.012,1.067" transform="translate(-498.957 -1115.936)" fill="#f7a491"/>
            <path id="Trazado_998726" data-name="Trazado 998726" d="M493.116,1723a53.149,53.149,0,0,1,3.467,4.489c.023.359-.137,4.281-.546,4.641s-1.613.614-1.226,1.018c.292.306,2.542.24,4.032.158.435-.024.981-3.5,1.153-4.006.25-.741.859-2.411.632-2.927a4.341,4.341,0,0,0-1.389-1.252c-.786-.508-3.794-4.692-3.794-4.692Z" transform="translate(-418.361 -1459.62)" fill="#f48c7f"/>
            <path id="Trazado_998727" data-name="Trazado 998727" d="M505.993,1751.225s-2.313,6.512-3.218,6.826c-.24.084-1.394.3-1.611.805a2.2,2.2,0,0,0,0,.667h4.82s.61-2.869.851-4.13a18.728,18.728,0,0,0,1.134-3.36c-.142-.28-1.976-.809-1.976-.809" transform="translate(-425.164 -1485.745)" fill="#b75742"/>
            <path id="Trazado_998728" data-name="Trazado 998728" d="M290.312,1739.379s-2.813,3.96-2.565,5.212c.132.671.723,1.549.384,2.18a1.7,1.7,0,0,1-.725.789l-8.774.141c-.478.008-.162-.3.223-.582a17.672,17.672,0,0,1,3.155-1.742c.131-.063.61-.367.782-.472a6.069,6.069,0,0,0,1.255-1.106c.63-.7,3.4-6.4,3.4-6.4Z" transform="translate(-236.187 -1474.012)" fill="#f7a491"/>
            <path id="Trazado_998729" data-name="Trazado 998729" d="M279.257,1785.836a7.957,7.957,0,0,0,4.995-.2,4.016,4.016,0,0,1,.4,2.084c-.213.62-.516.76-.784.767-2.119.056-7.763.131-9.379.152a.264.264,0,0,1-.205-.433c.4-.478,4.8-2.269,4.972-2.374" transform="translate(-232.651 -1514.943)" fill="#b75742"/>
            <path id="Trazado_998730" data-name="Trazado 998730" d="M397.569,1545.992a62.77,62.77,0,0,0,4.371,4.6c.888.63,9.413,16.327,9.413,16.327l-3.037,2.217s-7.619-9.5-11.2-14.581c-3.025-4.3-1.911-4.024-3.69-6.639a3.493,3.493,0,0,1,.534-4.554q.241-.218.525-.455c2.633-2.195,20.685-4.665,20.685-4.665l11.546,1.131s-9.433,6.615-9.785,6.791-13.027,2.025-13.291,2.025-6.073-2.2-6.073-2.2" transform="translate(-333.27 -1305.053)" fill="#b75742"/>
            <path id="Trazado_998731" data-name="Trazado 998731" d="M372.2,1543.966s1.98,5.941-.99,8.714-20.619,2.464-26.428,2.464c0,0-2.377,6.514-2.641,7.57s-11.795,14.7-11.795,14.7l-3.169-2.025s12.411-24.117,13.379-25.173,14.787-5.281,18.22-6.249,13.423,0,13.423,0" transform="translate(-277.578 -1309.54)" fill="#f47458"/>
            <path id="Trazado_998732" data-name="Trazado 998732" d="M453.649,1411.825l10.539-2.332s3.811-4.9,7.472-9.112c1.077,1.066,1.676,2.7,2.761,3.76l-8.046,8.9a1.536,1.536,0,0,1-1.135.506l-11.17.037-3.822.3v-2.446Z" transform="translate(-381.991 -1188.088)" fill="#f7a491"/>
            <path id="Trazado_998733" data-name="Trazado 998733" d="M565.412,1393.828s4.172-4.277,5.245-6.136.277-4.972-1.566-5.461-7.735,7.373-7.735,7.373Z" transform="translate(-476.256 -1172.671)" fill="#96d9c9"/>
            <path id="Trazado_998734" data-name="Trazado 998734" d="M323.521,1396.733H340.9a1.133,1.133,0,0,1,1.048.7l5.352,13.052h9.582a.485.485,0,1,1,0,.969H329.612a1.9,1.9,0,0,1-1.737-1.124l-5.389-12a1.133,1.133,0,0,1,1.034-1.6" transform="translate(-273.513 -1184.993)" fill="#b75742"/>
            <path id="Trazado_998735" data-name="Trazado 998735" d="M391.463,1439.8a.956.956,0,1,0,.717-1.247,1.022,1.022,0,0,0-.717,1.247" transform="translate(-332.098 -1220.457)" fill="#fff"/>
            <path id="Trazado_998736" data-name="Trazado 998736" d="M265.263,1496.072H213.336a1.1,1.1,0,1,1,0-2.2h51.927a1.1,1.1,0,1,1,0,2.2" transform="translate(-180.061 -1267.404)" fill="#184655"/>
            <path id="Trazado_998737" data-name="Trazado 998737" d="M561.524,1339.2l2.355-.122a1.031,1.031,0,0,1-1.042.981c-1.261.1-1.313-.859-1.313-.859" transform="translate(-476.399 -1136.077)" fill="#fff"/>
            <path id="Trazado_998738" data-name="Trazado 998738" d="M505.19,1557.982l1.063-4.427a7.182,7.182,0,0,1,6.667-5.477l13.469-.545.416-1.371-13.94.563a8.541,8.541,0,0,0-7.928,6.513l-1.13,4.7c.383.016.849.029,1.383.039" transform="translate(-427.431 -1311.769)" fill="#355389"/>
            <path id="Trazado_998739" data-name="Trazado 998739" d="M504.492,1462.737s-18.505.317-20.434,0-2.764,2.1-2.188,3.369,2.16,1.756,4.492,1.872,21.74.662,22.287.144c.447-.423,6.33-20.538,8.471-27.893a2.777,2.777,0,0,0-5.325-1.579Z" transform="translate(-408.667 -1218.882)" fill="#184655"/>
            <rect id="Rectángulo_455523" data-name="Rectángulo 455523" width="0.915" height="45.568" transform="translate(84.292 228.137)" fill="#13375b"/>
            <rect id="Rectángulo_455524" data-name="Rectángulo 455524" width="51.644" height="0.49" transform="translate(33.334 231.086)" fill="#13375b"/>
            <path id="Trazado_998740" data-name="Trazado 998740" d="M1445.241,58.525s6.709,4.343,23.246,3.752c0,0-17.724,6.693-24.654,7.728l-2.852-11.265Z" transform="translate(-1222.532 -49.653)" fill="#e25a44"/>
            <path id="Trazado_998741" data-name="Trazado 998741" d="M1456.046,79.7a17.088,17.088,0,0,1-4.571,5.808l-1.486-5.87.1-2.84Z" transform="translate(-1230.175 -65.157)" fill="#b75742"/>
            <path id="Trazado_998742" data-name="Trazado 998742" d="M1321.717,12.512s19.375-1.309,22.388-.2l3.115,12.3a61.124,61.124,0,0,0-21.772,2.636Z" transform="translate(-1121.349 -10.067)" fill="#f47458"/>
            <path id="Trazado_998743" data-name="Trazado 998743" d="M1208.329,905.79s-.933,1.524-.849,1.975,1.207,5.228,1.825,5.543,2.185.254,1.833.875c-.266.469-3.065,1.092-4.932,1.457-.545.107-2.305-4.012-2.678-4.589-.541-.837-1.815-2.709-1.7-3.419a5.531,5.531,0,0,1,1.324-1.981,8.7,8.7,0,0,0,1.388-2.506Z" transform="translate(-1019.632 -766.231)" fill="#f48c7f"/>
            <path id="Trazado_998744" data-name="Trazado 998744" d="M1332.384,911.161s-.316,3.415-.315,3.423c.043.517.029,1.826.143,2.278.429,1.7,7.283-3.376,5.379-3.693a1.867,1.867,0,0,1-.994-1.013,4.094,4.094,0,0,1,.136-2.167Z" transform="translate(-1130.132 -772.037)" fill="#f7a491"/>
            <path id="Trazado_998745" data-name="Trazado 998745" d="M1253.271,512.723s1.98,5.477,2,5.561c2.3,9.089,8.6,26.385,8.688,28.181.219,4.379-3.394,27.917-3.394,27.917l-5.009.65-.109-27.059-4.926-9.655-8.427-19.417Z" transform="translate(-1053.797 -434.996)" fill="#3c8f7c"/>
            <path id="Trazado_998746" data-name="Trazado 998746" d="M1213.094,528.769l.426,5.559,3.053,22.547L1212.49,580.7s2.126,2.778,4.21,2.716l9.561-25.821,2.274-30.519-1.913-6.168Z" transform="translate(-1028.68 -441.941)" fill="#50bfa5"/>
            <path id="Trazado_998747" data-name="Trazado 998747" d="M1198.7,919.373s4.894,7.321,6.111,7.427c.323.028,1.814-.071,2.243.491a6.8,6.8,0,0,1,.4,1.017l-6.14,1.767s-1.659-3.806-2.352-5.288c0,0-2.54-3.406-2.452-3.8s2.188-1.617,2.188-1.617" transform="translate(-1015.121 -779.999)" fill="#13375b"/>
            <path id="Trazado_998748" data-name="Trazado 998748" d="M1331,935.468l.187-3.187a7.844,7.844,0,0,0,2.923-.05,28.757,28.757,0,0,0,2.551-1.336c3.976.279,7.132.1,6.831,1.214Z" transform="translate(-1129.227 -789.774)" fill="#13375b"/>
            <path id="Trazado_998749" data-name="Trazado 998749" d="M1393.681,359.537l2.648,2.031c.51-.393,1.626-2.049,2.349-2.565l-2.419-2.639a.7.7,0,0,1-.283-.632,2.2,2.2,0,0,1,.067-.407c.075-.209.143-.457.219-.666s-.424-.628-.687-.7-.349.931-.463,1.23a32.576,32.576,0,0,0-.835,3.78Z" transform="translate(-1182.403 -300.295)" fill="#f48c7f"/>
            <path id="Trazado_998750" data-name="Trazado 998750" d="M1254.433,390.943c-.744-.793-1.793-1.239-2.572-2.063l-11.751,8.091s-9.084-10.743-14.017-6.936a81.928,81.928,0,0,0,6.1,8.779c3.017,3.736,7.623,5.518,8.523,5.105,1.013-.464,13.452-12.656,13.716-12.976" transform="translate(-1040.221 -329.927)" fill="#13375b"/>
            <path id="Trazado_998751" data-name="Trazado 998751" d="M1071.519,185.042c.389,1.035,1.061,2.664,1.061,2.664.019.468.115,2.413.239,4.8l3.307-1.811a37.758,37.758,0,0,1-.381-4.1c.107-.215.357.007,1.238-1.646a3,3,0,0,0,.217-1.27s-.054-.975-.282-1.039a.454.454,0,0,0-.518.287c-.058.177.009.564-.05.74a1.212,1.212,0,0,1-.749.454c-.213.015-.32-2.865-.32-2.865s.02-.823.048-1.095c.024-.232.149-.918.149-.918s.125-.989-.182-1.026c-.181-.022-.534.812-.741,1.677a16.864,16.864,0,0,1-.391,1.9c-.226,0-.3-1.581-.3-1.581a5.059,5.059,0,0,0,.088-1.08c.159-.439.2-1.224-.171-1.243a6.411,6.411,0,0,0-.436,1.031s-.107.71-.18,1.045c-.127.59-.048,1.488-.1,1.895-.045.338-.138.213-.172.231a8.243,8.243,0,0,1-.054-1.073,6.338,6.338,0,0,1-.046-1.041,7.582,7.582,0,0,0,.017-1.107c-.038-.816-.537-.671-.624.089-.033.29-.066.606-.1.926-.127,1.245.022,2.412-.107,2.438a8.867,8.867,0,0,1-.314-2.107s-.4-1.145-.529-.022a9.579,9.579,0,0,0,.019,2.379,9.251,9.251,0,0,0,.364,2.475" transform="translate(-908.702 -150.917)" fill="#f8a492"/>
            <path id="Trazado_998752" data-name="Trazado 998752" d="M1181.4,287.319a1.916,1.916,0,0,0-3.142.79,1.424,1.424,0,0,0-1.806.706s-2.052-.356-2.174,2.662c0,0-1.042-.069-1.03,1.158a3.018,3.018,0,0,0,.725,1.96,1.462,1.462,0,0,0-.126,1.58,1.388,1.388,0,0,0,1.136.969s.4,1.57,1.155,1.967a2.272,2.272,0,0,0,1.664.052,1.075,1.075,0,0,0,1.153.66c.8-.175,1.7-1.064,2.65-.828a9.722,9.722,0,0,0,3.246-.412,3.3,3.3,0,0,0,1.378-4.087,1.982,1.982,0,0,0-.16-2.77s.6-2.452-1.316-3.625a4.6,4.6,0,0,0-3.352-.784" transform="translate(-995.386 -243.299)" fill="#f47458"/>
            <path id="Trazado_998753" data-name="Trazado 998753" d="M1211.224,390.592l-4.058-2.087s-3.6.526-4.052.58-1.289,16.85-1.36,23.141.7,7.311.7,7.311a39.977,39.977,0,0,0,10.06-.293,32.677,32.677,0,0,0,9.015-3.9s-5.2-11.444-6.4-15.069-3.906-9.686-3.906-9.686" transform="translate(-1019.568 -329.609)" fill="#f7cc7f"/>
            <path id="Trazado_998754" data-name="Trazado 998754" d="M1094.713,265.6l-13.328-10.654s-3.036-11.232-3.206-11.649-3.141-.281-4.342-.253c-.385.009,1.673,12.152,2.489,14.131.964,2.337,11.265,12.272,11.265,12.272s2.33,5.774,2.472,10.2c.237,7.349-.286,17.562.063,17.838,2.075.981,9.491.216,9.869-.6,4.165-8.956-5.281-31.289-5.281-31.289" transform="translate(-911.006 -206.162)" fill="#13375b"/>
            <path id="Trazado_998755" data-name="Trazado 998755" d="M1213.085,355.544l.608,2.336s1.131,3.335.288,4.106-4.429-3.7-4.429-3.7l-.411-6.056Z" transform="translate(-1025.839 -298.83)" fill="#f7a491"/>
            <path id="Trazado_998756" data-name="Trazado 998756" d="M1209.275,354.189a6.877,6.877,0,0,0,4.326,3.336l-.515-1.981-3.944-3.318Z" transform="translate(-1025.839 -298.83)" fill="#f47458"/>
            <path id="Trazado_998757" data-name="Trazado 998757" d="M1173.391,319.055c.111.917.722,1.6,1.365,1.519s1.074-.884.963-1.8-.722-1.6-1.365-1.519-1.074.884-.963,1.8" transform="translate(-995.494 -269.155)" fill="#f47458"/>
            <path id="Trazado_998758" data-name="Trazado 998758" d="M1193.653,296.464c.064.527.75.877,1.532.782s1.365-.6,1.3-1.125-.75-.877-1.532-.782-1.365.6-1.3,1.125" transform="translate(-1012.695 -250.553)" fill="#f47458"/>
            <path id="Trazado_998759" data-name="Trazado 998759" d="M1203.958,307.042a3.2,3.2,0,0,1,4.46,2.027,24.183,24.183,0,0,1,.626,3.016c.386,2.768-.723,5.641-1.983,5.794a5.986,5.986,0,0,1-5.561-5.145c-.372-2.422.575-4.777,2.458-5.691" transform="translate(-1019.289 -260.226)" fill="#f7a491"/>
            <path id="Trazado_998760" data-name="Trazado 998760" d="M1198.121,342.056a.931.931,0,1,1-1.04-1,1.03,1.03,0,0,1,1.04,1" transform="translate(-1014.944 -289.35)" fill="#f7a491"/>
            <path id="Trazado_998761" data-name="Trazado 998761" d="M1230.876,292.014c1.426.873,2.071,2.384,1.442,3.375s-2.3,1.086-3.722.212-2.071-2.384-1.442-3.375,2.3-1.086,3.722-.212" transform="translate(-1040.917 -247.239)" fill="#f47458"/>
            <path id="Trazado_998762" data-name="Trazado 998762" d="M1217.745,299.853c.054.448-.443.877-1.11.957s-1.252-.217-1.306-.665.443-.877,1.11-.957,1.252.217,1.306.665" transform="translate(-1031.085 -253.821)" fill="#f47458"/>
            <path id="Trazado_998763" data-name="Trazado 998763" d="M1246.167,318.338a1.039,1.039,0,1,1-1.157-.918,1.044,1.044,0,0,1,1.157.918" transform="translate(-1055.495 -269.293)" fill="#f47458"/>
            <path id="Trazado_998764" data-name="Trazado 998764" d="M1246.353,393.954s5.634,13.317,7.638,18.011c.217.508,1.307,3.827,1.347,4.159.089.735-3,2.056-3.385,2.047-.346-.008-4.881-14.073-7.517-20.9a20.315,20.315,0,0,0-3.864-6.289l-1.28-1.057-.124-.4s5.721.509,7.185,4.43" transform="translate(-1051.314 -330.473)" fill="#13375b"/>
            <rect id="Rectángulo_455525" data-name="Rectángulo 455525" width="1.042" height="93.557" transform="translate(199.276 0.256) rotate(-14.208)" fill="#13375b"/>
            <path id="Trazado_998765" data-name="Trazado 998765" d="M1410.191,363.457a3.168,3.168,0,0,0-.184-.61,1.735,1.735,0,0,0-.35-.559,1.062,1.062,0,0,1-.178-.37.659.659,0,0,0-.079-.147l0,0a1.482,1.482,0,0,0-.347-.334,1.562,1.562,0,0,1-.373-.405,1.119,1.119,0,0,0-.419-.369c-.167-.082-.3-.084-.355.019-.277.476-1.663,1.995-1.1,2.729a17.534,17.534,0,0,1,1.208,1.545c.173.4.782.371,1.147.232a1.387,1.387,0,0,0,1.034-1.727" transform="translate(-1193.423 -305.933)" fill="#f7a491"/>
            <rect id="Rectángulo_455526" data-name="Rectángulo 455526" width="295" height="1.046" transform="translate(0 273.344)" fill="#184655"/>
            <path id="Trazado_998766" data-name="Trazado 998766" d="M1288.8,253.6a.214.214,0,0,1,.335-.052c.146.151.295.3.442.451.326.331.329.354.377.347.117-.018.12-.229.115-.307a2.522,2.522,0,0,1-.048-.516.379.379,0,0,1,.636-.286c.256.208.5.433.745.659.019-.371.028-.742.053-1.113a.147.147,0,0,1,.245-.109l1.126.88c.058.045.3.287.371.243s.058-.3.065-.356c.035-.318.052-.43.189-1.461a.172.172,0,0,1,.285-.084c.792.949.913.85.984,1.134a.081.081,0,0,1-.095.1c-.152-.015-.188-.03-.583-.412q-.154-.148-.3-.3c-.143,1.255-.149,1.575-.463,1.669-.218.065-.255,0-1.53-1.005,0,.39-.024.777-.041,1.168a.167.167,0,0,1-.279.124c-.913-.752-.906-.808-1-.853,0,0,0-.068-.017.029-.027.165.13.521.014.82a.5.5,0,0,1-.668.327c-.162-.08-.206-.159-.695-.629a4.343,4.343,0,0,1-.553.865.675.675,0,0,1-.326.242.179.179,0,0,1-.224-.211c.113-.354.431-.438.843-1.361" transform="translate(-1092.7 -213.673)" fill="#f47458"/>
            <path id="Trazado_998767" data-name="Trazado 998767" d="M1259.367,214.6a5.863,5.863,0,0,0,1.038.089c.068,0,.2.014.24-.054.107-.165-.173-.421-.3-1.065-.054-.28-.191-.853.185-.967a2.1,2.1,0,0,1,.632-.008c.151,0,.3,0,.452,0-.269-1.048-.331-.99-.223-1.224a.132.132,0,0,1,.179-.053c.21.14.15.111.5,1.429a.206.206,0,0,1-.189.262c-.2-.005-1.125-.079-1.24-.07.007.011,0,.06,0,.071a3.386,3.386,0,0,0,.306,1.2c.125.326.118.766-.3.858a4.088,4.088,0,0,1-1.042-.024c.187.639.38,1.276.563,1.916a.227.227,0,0,1-.208.288c-.412-.037-.824-.06-1.237-.08a3.825,3.825,0,0,0,.508,1.056c.164.239-.172.532-.545-.1a3.706,3.706,0,0,1-.474-1.131.228.228,0,0,1,.209-.289c.409.008.819.034,1.227.068-.179-.638-.351-1.279-.53-1.918a.21.21,0,0,1,.246-.261" transform="translate(-1067.469 -179.268)" fill="#66ccb2"/>
            <path id="Trazado_998768" data-name="Trazado 998768" d="M1201.064,198.125a.21.21,0,0,1-.209-.2,4.877,4.877,0,0,1,0-1.677c.059-.292.484-.182.444.1a5.926,5.926,0,0,0-.061,1.363,4.554,4.554,0,0,0,.983-.125.216.216,0,0,1,.275.2c-.022.361-.145,1.727-.16,1.739a.068.068,0,0,1,.036,0c.142.028.632-.073.854-.059.249.016.328.353.341.558.026.414-.283.87-.138,1.275.139.39.752-.039,1.21.279.352.245.231.658.085,1.311a.5.5,0,0,1-.231.4.108.108,0,0,1-.128-.014c-.173-.2-.084-.434.032-1.031.015-.076.064-.2.01-.272-.177-.228-.694.1-1.113-.176a.955.955,0,0,1-.32-.982c.042-.277.212-.617.123-.9-.237.013-.477.032-.713.026a.408.408,0,0,1-.446-.407,7.179,7.179,0,0,1,.058-.887c.016-.2.03-.392.047-.588a5.126,5.126,0,0,1-.979.065" transform="translate(-1018.747 -166.355)" fill="#07345a"/>
            <path id="Trazado_998769" data-name="Trazado 998769" d="M1304.163,299.645c.987,1.265.058,1.879-.356,1.512a.346.346,0,0,1,.022-.563c.1-.061.248.035.209.151-.033.1.077.122.121.02.06-.137-.037-.308-.1-.429-.141-.282-.319-.649-.666-.7-.518-.082-1.08.436-.8,1.228a1.4,1.4,0,0,0,2.594-.066,1.7,1.7,0,0,0-.6-1.771c-.1-.081.023-.218.127-.173a1.7,1.7,0,0,1,.78,2.129,1.723,1.723,0,0,1-1.94,1.027,1.64,1.64,0,0,1-1.416-1.763,1.128,1.128,0,0,1,2.021-.6" transform="translate(-1104.731 -253.538)" fill="#3c8f7c"/>
            <path id="Trazado_998770" data-name="Trazado 998770" d="M1172.25,232.5c.137.206.214.626-.065.756a.228.228,0,0,1-.332-.129c-.044-.147.037-.281-.095-.4a.306.306,0,0,0-.386.041c-.322.262-.239.837-.071,1.163a.776.776,0,0,0,1.354.078,1.762,1.762,0,0,0,.191-.563c.027-.107.2-.155.253-.04a1.044,1.044,0,0,1-.462,1.226,1.241,1.241,0,0,1-1.34-.02,1.6,1.6,0,0,1-.626-1.374c.036-1.061,1.135-1.408,1.578-.741" transform="translate(-993.201 -196.966)" fill="#f7cc7f"/>
            <path id="Trazado_998771" data-name="Trazado 998771" d="M850.649,1205.134a1.031,1.031,0,0,0,1.4.3c1.132-.564.681-1.413.681-1.413Z" transform="translate(-721.693 -1021.497)" fill="#fff"/>
            <path id="Trazado_998772" data-name="Trazado 998772" d="M1228.967,359.221a1.031,1.031,0,0,0,1.13.878c1.265-.018,1.226-.979,1.226-.979Z" transform="translate(-1042.659 -304.678)" fill="#fff"/>
          </g>
        </g>
      </g>
    </g>
  </g>
</svg>
