<svg xmlns="http://www.w3.org/2000/svg" xmlns:xlink="http://www.w3.org/1999/xlink" width="80" height="80" viewBox="0 0 80 80">
  <defs>
    <clipPath id="clip-path">
      <rect id="Rect치ngulo_455516" data-name="Rect치ngulo 455516" width="63.169" height="63.257" fill="#12263f"/>
    </clipPath>
  </defs>
  <g id="Grupo_1183604" data-name="Grupo 1183604" transform="translate(-704.52 -3293.691)">
    <g id="Grupo_1183033" data-name="Grupo 1183033" transform="translate(524.852 -2227.309)">
      <rect id="Rect치ngulo_402006" data-name="Rect치ngulo 402006" width="80" height="80" rx="5" transform="translate(179.668 5521)" fill="#fa9757"/>
    </g>
    <g id="Grupo_1183854" data-name="Grupo 1183854" transform="translate(712.935 3302.063)">
      <g id="Grupo_1183853" data-name="Grupo 1183853" clip-path="url(#clip-path)">
        <path id="Trazado_998615" data-name="Trazado 998615" d="M20.758,112.113a5.767,5.767,0,0,1-.794.471c-1.444.565-7.826.557-9.563.354a4.821,4.821,0,0,1-4.327-4.277c-.365-3.994.989-7.155,4.39-9.286a5.249,5.249,0,1,1,9.028-1.771c-.232.792-.7,1.272-.928,2.022a6.244,6.244,0,0,1,2.783,2.361l1.7-3.531c-.261-.7-.858-1.352-.88-2.144-.043-1.524,1.044-1.638.242-3.815-.862-2.339-2.573-1.921-3.315-3.433-.6-1.22-.608-4.454.314-5.548,1-1.185,2.168-.644,3-2.9.786-2.135-.2-2.136-.242-3.7-.041-1.367,2.46-4.112,3.7-4.481,1.536-.457,1.959.347,3.079.383a5.745,5.745,0,0,0,2.867-1.185c.864-.767.8-1.887,1.876-2.51,1.265-.731,4.734-.722,5.955.067,1.39.9.777,2.335,3.17,3.241,2.131.807,2.338-.308,4.011-.134,1.484.155,4.286,3.106,4.241,4.619-.046,1.564-1.028,1.564-.242,3.7.843,2.289,2.176,1.792,3.073,3,.828,1.117.844,4.373.187,5.565-.783,1.423-2.4.995-3.26,3.319-.777,2.107.327,2.451.134,4.183-.079.713-.783,1.383-.787,1.681-.006.412,1.574,2.81,1.627,3.547l1.44-1.431c.479-.282.839-.8,1.429-.851-.227-.749-.7-1.229-.928-2.022a5.249,5.249,0,1,1,9.028,1.771c3.4,2.13,4.755,5.292,4.39,9.286a4.629,4.629,0,0,1-3,3.919c-1.536.581-7.576.555-9.407.374a11.988,11.988,0,0,1-2.279-.673v4.471a4.438,4.438,0,0,1-2.694,3.379c-3.23.821-9.665-2.292-13.093-2.78-3.689.475-9.39,3.408-12.965,2.849a4.2,4.2,0,0,1-2.118-1.424,7.073,7.073,0,0,1-.844-2.024ZM38.6,70.991a9.061,9.061,0,0,0-3.89-.045c-.086.053-.634,1.372-.966,1.772a6.872,6.872,0,0,1-5.633,2.1c-.429-.057-1.15-.485-1.467-.411a6.745,6.745,0,0,0-2.219,2.161c-.245.575.324,1.281.388,2.053a7.022,7.022,0,0,1-2.378,5.564c-.363.257-1.1.45-1.334.69a4.2,4.2,0,0,0-.08,3.276c.289.379,1.573.769,2.264,1.616A6.534,6.534,0,0,1,24.3,96.424c1.756-1.667,3.545-3.415,5.9-4.22.117-.167-.581-.915-.745-1.192a8.436,8.436,0,1,1,14.312,0c-.164.278-.861,1.025-.745,1.192,2.357.8,4.146,2.553,5.9,4.22-.039-.65-.43-1.1-.5-1.771A6.982,6.982,0,0,1,50.8,88.928c1.4-.988,1.813-.392,1.683-2.718-.1-1.87-.808-1.305-1.95-2.266a7.038,7.038,0,0,1-2.09-5.641c.072-.5.525-1.112.466-1.5a6.217,6.217,0,0,0-2.318-2.4c-.317-.073-1.039.354-1.467.411a6.446,6.446,0,0,1-6.173-2.907c-.155-.251-.2-.786-.348-.919m-2.7,9.287c-8.022.875-7.006,13.11,1.131,12.6,8.367-.523,7.412-13.534-1.131-12.6M13.966,92.923a3.207,3.207,0,0,0-2.054,5.009,3.253,3.253,0,0,0,4.374.685,3.159,3.159,0,0,0-2.32-5.694m44.2,0c-3.452.559-3.207,5.819-.044,6.2,5.284.644,4.7-6.958.044-6.2m-28.972,13.2c.255.889-.189,2.933,0,3.964,4.959-.89,9.77-2.566,14.726-3.54.19-.081.239-1.185,1.344-.989s.61,1.2.884,1.661c.073.124.823.6,1.092.932a4.319,4.319,0,0,1-1.338,6.581l-5.067,1.594c2.128.191,6.184,2.218,8.143,1.818a1.69,1.69,0,0,0,1.312-1.723c.335-3.482.292-11.674-.892-14.815-1.147-3.043-4.43-6.771-7.6-7.752-.971-.3-1.763.522-2.823.794a8.957,8.957,0,0,1-5.609-.292c-.408-.137-.927-.55-1.264-.607-.846-.142-3.691,1.784-4.43,2.416-6.432,5.51-4.435,13.039-4.711,20.572.235,1.277,1.386,1.634,2.561,1.4,5.958-2.038,13.063-2.9,18.89-5.063a2.209,2.209,0,0,0-.628-4.352l-16.41,4.2a1.09,1.09,0,0,1-1.058-1.747c.24-.284.816-.357.857-.528.267-1.106-.884-6.01,1.466-4.991a1.815,1.815,0,0,1,.551.464m-17.08-5.115a6.337,6.337,0,0,0-2.965,2.446c-1.2,2-2.015,6.922,1.231,7.312a54.82,54.82,0,0,0,8.1,0c2.41-.276,2.469-2.7,2.276-4.638a6.775,6.775,0,0,0-2.54-4.376c-1.814-1.315-2.047-.4-3.787-.421a15.771,15.771,0,0,0-2.316-.32m44.369,0c-1.944.288-3.824,3.281-4.007,5.115-.209,2.1-.124,4.4,2.438,4.644a54.983,54.983,0,0,0,7.939,0c3.545-.427,2.351-6.252.582-8.181a7.419,7.419,0,0,0-2.316-1.577,15.83,15.83,0,0,0-2.316.319c-.831.011-1.616-.422-2.32-.318" transform="translate(-5.001 -57.013)" fill="#12263f"/>
        <path id="Trazado_998616" data-name="Trazado 998616" d="M166.868,0c5.543-.08,5.637,8.394.113,8.473S161.319.081,166.868,0m1.516,2.693c-2.587-2.324-5.208,2.438-2.227,3.49a2.117,2.117,0,0,0,2.227-3.49" transform="translate(-135.311 -0.001)" fill="#12263f"/>
        <path id="Trazado_998617" data-name="Trazado 998617" d="M4.2,75.191a4.207,4.207,0,1,1-2.159,7.8,4.187,4.187,0,0,1,2.159-7.8m-.467,2.135c-3.107.639-1.252,5.664,1.619,3.813a2.109,2.109,0,0,0-1.619-3.813" transform="translate(0 -62.506)" fill="#12263f"/>
        <path id="Trazado_998618" data-name="Trazado 998618" d="M329.352,75.191c5.366,0,5.321,7.655,1,8.328-6.5,1.014-6.913-8.329-1-8.328m-.467,2.135c-3.107.639-1.252,5.664,1.619,3.813a2.109,2.109,0,0,0-1.619-3.813" transform="translate(-270.324 -62.506)" fill="#12263f"/>
        <path id="Trazado_998619" data-name="Trazado 998619" d="M73.259,36.734c.951-.148,1.726,1.387.781,1.973l-14.573,6.7c-1.185.277-1.654-1.474-.656-2.02Z" transform="translate(-48.438 -30.529)" fill="#12263f"/>
        <path id="Trazado_998620" data-name="Trazado 998620" d="M221.459,36.762a6.723,6.723,0,0,1,1.678.618c4.382,1.907,8.627,4.163,13.029,6.034,1,.546.529,2.3-.656,2.02L221.044,38.8c-.964-.465-.494-1.9.415-2.037" transform="translate(-183.311 -30.558)" fill="#12263f"/>
        <path id="Trazado_998621" data-name="Trazado 998621" d="M30.06,135.367a1.075,1.075,0,0,1,1.526.77c.83,2.122,1.048,5.035,1.889,7.23a1.085,1.085,0,0,1-2.139.274c-.831-2.152-1.107-5-1.89-7.23a1.141,1.141,0,0,1,.613-1.044" transform="translate(-24.478 -112.456)" fill="#12263f"/>
        <path id="Trazado_998622" data-name="Trazado 998622" d="M323.945,135.439a1.1,1.1,0,0,1,1.561,1.043l-1.976,7.482a1.086,1.086,0,0,1-2.03-.665c.853-2.147,1.048-5.008,1.866-7.09.116-.3.237-.665.579-.77" transform="translate(-267.247 -112.527)" fill="#12263f"/>
        <path id="Trazado_998623" data-name="Trazado 998623" d="M206.96,256.446a26.022,26.022,0,0,1,3.981,0,1.079,1.079,0,0,1-.14,1.988,25.563,25.563,0,0,1-3.841-.032,1.065,1.065,0,0,1,0-1.953" transform="translate(-171.514 -213.119)" fill="#12263f"/>
      </g>
    </g>
  </g>
</svg>
