<svg xmlns="http://www.w3.org/2000/svg" xmlns:xlink="http://www.w3.org/1999/xlink" width="156" height="156" viewBox="0 0 156 156">
  <defs>
    <clipPath id="clip-path">
      <rect id="Rectángulo_455515" data-name="Rectángulo 455515" width="71.754" height="79.503" fill="#12263f"/>
    </clipPath>
  </defs>
  <g id="Grupo_1183542" data-name="Grupo 1183542" transform="translate(-1234.554 -458.054)">
    <g id="Elipse_12108" data-name="Elipse 12108" transform="translate(1241.554 465.054)" fill="#30df8e" stroke="rgba(255,255,255,0.4)" stroke-width="7">
      <circle cx="71" cy="71" r="71" stroke="none"/>
      <circle cx="71" cy="71" r="74.5" fill="none"/>
    </g>
    <g id="Grupo_1183852" data-name="Grupo 1183852" transform="translate(1276.677 496.302)">
      <g id="Grupo_1183851" data-name="Grupo 1183851" clip-path="url(#clip-path)">
        <path id="Trazado_998610" data-name="Trazado 998610" d="M39.386.044C55.371-.77,70.593,9.889,71.647,26.54c.658,10.4-1.724,12.264-6.922,20.125C59.6,54.418,59.54,64.093,63.26,72.519c.631,1.43,2.763,4.11,2.977,5.185a1.406,1.406,0,0,1-.743,1.754l-34.28.045c-1.259-.281-1.357-2.32-1.784-3.387-.561-1.4-3.034-6.492-4.623-6.634-.417-.037-4.582,1.552-5.47,1.809-2.492.723-6.462,2.219-8.885,1.129-1.876-.844-2.928-3.352-3.055-5.3-.084-1.286.641-3.208.362-4.144S4.886,61.7,4.853,59.959c-.01-.5.435-1.351.334-1.759-.11-.445-1.514-.912-1.723-1.871-.383-1.755,2.533-4.006.95-5.318-1.71-1.418-5-1.895-4.323-5.134C.385,44.466,3.7,40.55,4.7,38.953,5.818,37.166,6.765,35.28,7.718,33.4c.186-.873-1.6-2-2.1-2.687-1.924-2.63-.06-4.682.8-7.155,2.272-6.532,2.77-11.512,8.443-16.42C20.494,2.264,32.068.416,39.386.044M62.5,76.96c-.695-1.523-1.544-2.948-2.138-4.526-2.288-6.08-3.237-13.868-1.342-20.137,3.048-10.086,10.612-11.659,10.052-24.375C68.612,17.5,64.5,11.434,55.542,6.446,47.9,2.191,41.677,2.165,33.195,3.4,23.68,4.785,15.81,6.7,11.546,16.16c-1.185,2.632-1.527,5.238-2.455,7.888-.38,1.085-1.606,3.1-1.682,4.107-.084,1.112,1.881,2.126,2.423,3.116,1.255,2.293-.059,4.076-1.131,6.112a81.494,81.494,0,0,1-6.044,9.083c1.17,1.89,3.914,1.822,4.7,4.185.854,2.566-1.149,4.2-.961,5.089.07.329,2.161.92,2,2.406-.057.533-.71.961-.587,1.383.058.2,1.052.677,1.39,1.013,2.682,2.664-.261,5.68,1.5,8.644,1.152,1.938,4.89.4,6.647-.084a131.142,131.142,0,0,0,14.716-4.975c1.483-.627,3.8-1.763,4.423-3.334.437-1.106,0-2.386,1.642-2.34,1.585.044,1.295,1.86.962,2.955-1.3,4.283-7.626,5.547-11.2,7.1a20.823,20.823,0,0,1,4.571,8.453Z" transform="translate(0 0)" fill="#12263f"/>
        <path id="Trazado_998611" data-name="Trazado 998611" d="M152.347,33.184c.857-.017,3.756.113,4.323.534,1,.747.124,3.116.578,3.8a23.8,23.8,0,0,0,2.643,1.158c1.039.146,1.907-2.758,3.821-2.052.952.351,4.825,4.223,4.979,5.178.264,1.644-1.938,2.351-2.159,3.209a22.511,22.511,0,0,0,1,2.711c.51.85,3.213-.241,3.96.814.631.891.554,5.158.36,6.354-.577,3.545-2.783,1.087-4.161,2.005a23.74,23.74,0,0,0-1.1,2.494c-.312,1.269,2.729,1.987,2,3.97-.356.965-4.195,4.821-5.178,4.979-1.644.264-2.35-1.938-3.209-2.159a22.532,22.532,0,0,0-2.711,1c-.818.491.133,2.855-.634,3.742a2.71,2.71,0,0,1-1.235.555c-1.265.231-5.784.359-6.726-.341-1-.747-.124-3.116-.578-3.8a23.738,23.738,0,0,0-2.494-1.1c-1.269-.312-1.987,2.729-3.97,2-.978-.361-4.793-4.171-4.974-5.174-.308-1.71,1.913-2.276,2.154-3.212a22.529,22.529,0,0,0-1-2.711c-.52-.867-3.075.23-3.865-.71s-.8-6.892-.095-7.888,3.131-.128,3.8-.575a23.737,23.737,0,0,0,1.1-2.494c.312-1.269-2.729-1.987-2-3.97.356-.965,4.195-4.821,5.178-4.979,1.644-.264,2.35,1.938,3.209,2.159a12.982,12.982,0,0,0,3.014-1.294c.305-.907-.4-2.778.414-3.564.5-.484,2.789-.617,3.555-.632m2.224,2.732h-3.58V39c0,.8-2.134,1.115-2.781,1.4-1.048.455-2.662,1.7-3.78,1.185-.6-.275-1.332-1.706-2.091-1.892-.471,0-1.974,1.925-2.483,2.294.738.976,2.286,1.647,2.2,2.981A19.216,19.216,0,0,1,140.7,48c-.244.591-.5,2.637-1.341,2.637h-3.083v3.58h3.083c.841,0,1.1,2.046,1.341,2.637a19.689,19.689,0,0,1,1.358,3.035c.057,1.276-1.493,2.081-2.2,2.98.509.369,2.012,2.3,2.483,2.294,1.176-.5,1.526-2.106,2.981-2.008a17.208,17.208,0,0,1,3.03,1.36c.589.245,2.641.488,2.641,1.337v3.083h3.58V65.85c0-.849,2.052-1.092,2.641-1.337a17.207,17.207,0,0,1,3.03-1.36c1.455-.1,1.8,1.5,2.981,2.008.471,0,1.973-1.925,2.483-2.294-.738-.976-2.286-1.647-2.2-2.981a19.215,19.215,0,0,1,1.356-3.034c.244-.591.5-2.637,1.341-2.637h3.083v-3.58h-3.083c-.849,0-1.092-2.052-1.337-2.641-.448-1.076-1.742-2.833-1.244-3.92.184-.4,2.08-1.9,2.08-2.091-.509-.369-2.012-2.3-2.483-2.294-.76.186-1.492,1.617-2.091,1.892-1.124.515-2.843-.79-3.92-1.244-.588-.248-2.64-.488-2.64-1.338Z" transform="translate(-106.989 -26.582)" fill="#12263f"/>
        <path id="Trazado_998612" data-name="Trazado 998612" d="M80.661,162.181a2.241,2.241,0,0,1,.415,1.193c-.17,1.225-2.02,1.524-.983,3.013.237.341,3.049-.388,2.946,1.579-.1,1.845-2.7,1.083-2.946,1.441-1.038,1.488.813,1.789.983,3.013a1.349,1.349,0,0,1-1.814,1.407c-.6-.179-1.02-1.433-1.729-1.273-2.117.477-.683,1.831-1.381,2.817a1.392,1.392,0,0,1-2.3-.317c-.348-.841.317-1.688-.556-2.228-1.179-.728-1.168.243-1.944.731-1.488.937-2.877-.442-1.982-1.782.584-.874,1.622-.8.76-2.151-.495-.774-2.909.206-2.955-1.631-.054-2.129,2.432-1,2.955-1.821.861-1.347-.176-1.277-.76-2.151-.9-1.34.494-2.72,1.982-1.782.775.488.765,1.459,1.944.731.873-.539.208-1.386.556-2.228a1.318,1.318,0,0,1,2.335-.156c.549,1.2-.626,2.211,1.344,2.655.737.166,1.816-2.3,3.128-1.059m-6.373,3.173c-2.9.663-2.324,5.878,1.505,5.082,3.064-.637,2.322-5.956-1.505-5.082" transform="translate(-53.815 -128.132)" fill="#12263f"/>
        <path id="Trazado_998613" data-name="Trazado 998613" d="M68.157,89.224c.685.746,1.867-1.592,3.278-.591,1.476,1.047-.757,2.3-.5,3.075.2.587,2.607-.041,2.513,1.781-.089,1.713-2.31,1.036-2.513,1.644-.248.745,1.905,2,.5,3.079-1.329,1.02-2.609-1.33-3.282-.6-.215.235.508,2.745-1.7,2.369-1.5-.255-.358-2.213-1.5-2.511-.729-.19-.9,1.335-2.448.875-1.951-.579.169-2.618.217-2.871.231-1.206-1.964-.092-2.459-1.652-.646-2.036,2.121-1.662,2.316-1.918.5-.655-.5-1.128-.7-1.681-.458-1.247.492-2.118,1.74-1.74.521.158.7,1.044,1.337.877,1.168-.3-.134-2.786,2.067-2.5,1.629.209.9,2.114,1.131,2.362m-1.865,2.448a1.819,1.819,0,0,0-.153,3.449c3.2,1,3.411-4.182.153-3.449" transform="translate(-48.204 -69.567)" fill="#12263f"/>
        <path id="Trazado_998614" data-name="Trazado 998614" d="M193.937,86.729c10.141-1.461,14.06,11.638,5.753,16.1a8.648,8.648,0,0,1-12.257-10.467,8.86,8.86,0,0,1,6.5-5.629m1,2.59c-7.5.72-6.752,12.215.93,11.881,7.908-.344,7.259-12.667-.93-11.881" transform="translate(-149.784 -69.388)" fill="#12263f"/>
      </g>
    </g>
  </g>
</svg>
