<svg xmlns="http://www.w3.org/2000/svg" xmlns:xlink="http://www.w3.org/1999/xlink" width="1030" height="500" viewBox="0 0 1030 500">
  <defs>
    <clipPath id="clip-path">
      <path id="Trazado_997680" data-name="Trazado 997680" d="M181.421,62.821c84.9,7.516,115.479,63.544,127.087,114.257,6.154,26.883,14.132,101.633-13.284,130.376s-48.2,32.724-95.069,33.606-70.307,3.533-104.8,1.323S6.925,338.958,1.175,261.024C-8.671,127.55,85.88,62.238,168.079,62.237q6.738,0,13.342.584" transform="translate(-0.466 -62.237)" fill="none"/>
    </clipPath>
  </defs>
  <g id="Grupo_1184083" data-name="Grupo 1184083" transform="translate(-285 -3193.808)">
    <path id="Trazado_608309" data-name="Trazado 608309" d="M0,0H1030V500H0Z" transform="translate(285 3193.808)" fill="#fff3d3"/>
    <path id="Trazado_997757" data-name="Trazado 997757" d="M556.3,303.559a3.872,3.872,0,0,1-.757-.077,3.95,3.95,0,0,1-3.07-2.552,5.678,5.678,0,0,1,.6-5.276,10.844,10.844,0,0,1,5.118-4.324,4.019,4.019,0,0,0-1.667-1.3,8.881,8.881,0,0,0-6.329.247,3.654,3.654,0,0,0-2.089,2.109.538.538,0,0,1-1.02-.339,4.747,4.747,0,0,1,2.658-2.744,10.051,10.051,0,0,1,7.179-.27,5.168,5.168,0,0,1,2.3,1.891,9.42,9.42,0,0,1,1.15-.308,7.023,7.023,0,0,1,5.79.152c1.655.936,2.808,2.83,3.43,5.626a.537.537,0,1,1-1.048.233c-.553-2.487-1.532-4.144-2.91-4.925-1.267-.717-2.944-.732-4.987-.052a8.681,8.681,0,0,0-.864.222,11.284,11.284,0,0,1,.558,7.811c-.737,2.476-2.216,3.872-4.044,3.873m2.474-11.309a10.012,10.012,0,0,0-4.794,3.965,4.681,4.681,0,0,0-.511,4.315,2.9,2.9,0,0,0,2.267,1.9c2.29.45,3.261-1.979,3.579-3.046a10.187,10.187,0,0,0-.541-7.129" transform="translate(79.391 2938.457)"/>
    <path id="Trazado_997648" data-name="Trazado 997648" d="M144.613,46.257a.536.536,0,0,1-.537-.535,17.067,17.067,0,0,1,4.617-11.974,10.449,10.449,0,0,1,7.325-3.065,11.152,11.152,0,0,1,10.694-4.849,17.85,17.85,0,0,1,6.36,2.9c3.659,2.285,6.818,4.259,10.881-.029a.537.537,0,1,1,.78.739c-4.666,4.926-8.509,2.525-12.23.2a17.082,17.082,0,0,0-5.966-2.752,10.21,10.21,0,0,0-9.249,3.846c4.288.425,6.477,3.133,7.1,5.64.579,2.335-.111,4.654-1.64,5.516-.883.5-2.774.925-5.509-1.821-2.444-2.453-3.094-5.453-1.817-8.294a9.258,9.258,0,0,0-5.98,2.737,15.965,15.965,0,0,0-4.293,11.2.538.538,0,0,1-.536.539Zm12.014-14.489c-.02.037-.04.073-.058.111-1.315,2.55-.805,5.191,1.43,7.437,1.631,1.638,3.171,2.236,4.221,1.644,1.1-.62,1.583-2.477,1.125-4.321-.272-1.093-1.552-4.637-6.719-4.871" transform="translate(261.924 3262.851)"/>
    <path id="Trazado_997650" data-name="Trazado 997650" d="M55.647,322.742a7.325,7.325,0,0,1-7.45-5.911,7.632,7.632,0,0,1,1.381-6.671,8.078,8.078,0,0,1,6.264-2.87,8.258,8.258,0,0,1,7.737,5.282,6.584,6.584,0,0,1-.271,5.165,8.339,8.339,0,0,1-4.482,4.432,9.267,9.267,0,0,1-3.179.573m.194-14.379a6.994,6.994,0,0,0-5.429,2.472,6.661,6.661,0,0,0-1.165,5.771,6.286,6.286,0,0,0,6.4,5.062,8.227,8.227,0,0,0,2.812-.508,7.238,7.238,0,0,0,3.866-3.858,5.523,5.523,0,0,0,.261-4.317,7.209,7.209,0,0,0-6.745-4.622" transform="translate(905.811 2930.71)" fill="#70badb"/>
    <path id="Trazado_997756" data-name="Trazado 997756" d="M545.8,255.255a6.031,6.031,0,0,1-5-2.633l-10.764-15.845a6.045,6.045,0,0,1,1.6-8.368l15.848-10.765a6.039,6.039,0,0,1,8.368,1.6l10.764,15.843a6.038,6.038,0,0,1-1.6,8.371l-15.843,10.76a5.98,5.98,0,0,1-3.373,1.036m5.054-37.572a4.9,4.9,0,0,0-2.765.849L532.247,229.3a4.962,4.962,0,0,0-1.313,6.874L541.7,252.019a4.956,4.956,0,0,0,4.107,2.163,4.894,4.894,0,0,0,2.769-.852l15.843-10.759a4.961,4.961,0,0,0,1.314-6.879L554.969,219.85a4.956,4.956,0,0,0-4.11-2.167" transform="translate(-22.009 3031.021)" fill="#70badb"/>
    <path id="Trazado_997646" data-name="Trazado 997646" d="M556.3,303.559a3.872,3.872,0,0,1-.757-.077,3.95,3.95,0,0,1-3.07-2.552,5.678,5.678,0,0,1,.6-5.276,10.844,10.844,0,0,1,5.118-4.324,4.019,4.019,0,0,0-1.667-1.3,8.881,8.881,0,0,0-6.329.247,3.654,3.654,0,0,0-2.089,2.109.538.538,0,0,1-1.02-.339,4.747,4.747,0,0,1,2.658-2.744,10.051,10.051,0,0,1,7.179-.27,5.168,5.168,0,0,1,2.3,1.891,9.42,9.42,0,0,1,1.15-.308,7.023,7.023,0,0,1,5.79.152c1.655.936,2.808,2.83,3.43,5.626a.537.537,0,1,1-1.048.233c-.553-2.487-1.532-4.144-2.91-4.925-1.267-.717-2.944-.732-4.987-.052a8.681,8.681,0,0,0-.864.222,11.284,11.284,0,0,1,.558,7.811c-.737,2.476-2.216,3.872-4.044,3.873m2.474-11.309a10.012,10.012,0,0,0-4.794,3.965,4.681,4.681,0,0,0-.511,4.315,2.9,2.9,0,0,0,2.267,1.9c2.29.45,3.261-1.979,3.579-3.046a10.187,10.187,0,0,0-.541-7.129" transform="translate(560.391 2953.52)"/>
    <path id="Trazado_997759" data-name="Trazado 997759" d="M144.613,46.257a.536.536,0,0,1-.537-.535,17.067,17.067,0,0,1,4.617-11.974,10.449,10.449,0,0,1,7.325-3.065,11.152,11.152,0,0,1,10.694-4.849,17.85,17.85,0,0,1,6.36,2.9c3.659,2.285,6.818,4.259,10.881-.029a.537.537,0,1,1,.78.739c-4.666,4.926-8.509,2.525-12.23.2a17.082,17.082,0,0,0-5.966-2.752,10.21,10.21,0,0,0-9.249,3.846c4.288.425,6.477,3.133,7.1,5.64.579,2.335-.111,4.654-1.64,5.516-.883.5-2.774.925-5.509-1.821-2.444-2.453-3.094-5.453-1.817-8.294a9.258,9.258,0,0,0-5.98,2.737,15.965,15.965,0,0,0-4.293,11.2.538.538,0,0,1-.536.539Zm12.014-14.489c-.02.037-.04.073-.058.111-1.315,2.55-.805,5.191,1.43,7.437,1.631,1.638,3.171,2.236,4.221,1.644,1.1-.62,1.583-2.477,1.125-4.321-.272-1.093-1.552-4.637-6.719-4.871" transform="translate(615.12 3220.696)"/>
    <path id="Trazado_997649" data-name="Trazado 997649" d="M556.147,186.075a7.326,7.326,0,0,1-7.45-5.911,7.64,7.64,0,0,1,1.38-6.671,8.083,8.083,0,0,1,6.265-2.869,8.258,8.258,0,0,1,7.737,5.282,6.584,6.584,0,0,1-.271,5.163,8.336,8.336,0,0,1-4.482,4.434,9.286,9.286,0,0,1-3.179.572m.194-14.378a7,7,0,0,0-5.43,2.471,6.667,6.667,0,0,0-1.164,5.772,6.285,6.285,0,0,0,6.4,5.061,8.235,8.235,0,0,0,2.812-.507,7.239,7.239,0,0,0,3.866-3.86,5.517,5.517,0,0,0,.261-4.315,7.208,7.208,0,0,0-6.745-4.622" transform="translate(625.514 3109.15)" fill="#f2ac30"/>
    <path id="Trazado_997758" data-name="Trazado 997758" d="M105.43,384.709c-2.2,0-3.815-1.75-4.215-4.566l-3.114-22a5.41,5.41,0,0,1,.99-4.425c1.213-1.4,3.315-1.691,5.63-.759l20.608,8.3c2.032.818,3.275,2.151,3.5,3.751s-.6,3.226-2.321,4.576l-17.494,13.7a5.952,5.952,0,0,1-3.587,1.426m-3.276-31.223a2.873,2.873,0,0,0-2.252.935,4.454,4.454,0,0,0-.738,3.571l3.115,22c.322,2.281,1.5,3.642,3.151,3.642a4.9,4.9,0,0,0,2.924-1.2l17.494-13.7c1.409-1.1,2.091-2.375,1.92-3.579s-1.179-2.237-2.84-2.906l-20.608-8.3a5.826,5.826,0,0,0-2.166-.469" transform="translate(729.254 2919.998)" fill="#f2ac30"/>
    <g id="Grupo_1184058" data-name="Grupo 1184058" transform="translate(900 3312.855)">
      <g id="Grupo_1183576" data-name="Grupo 1183576" transform="translate(0.614 0.611)">
        <g id="Grupo_1183575" data-name="Grupo 1183575" clip-path="url(#clip-path)">
          <path id="Trazado_997655" data-name="Trazado 997655" d="M105.445,118.388c-2.431,3.98-4.418,11.055-5.527,18.793-.775,5.416-2.211,5.971-7.516,8.4s-6.524,7.074-3.649,9.727c4.094,3.78,4.089,1.714,4.642,5.971.369,2.837-.4,5.1,3.418,3.881,1.5-.479,4.6-2.325,5.041-1.986,1.322,1.022.916,4.888-4.124,7.79-1.838,1.059-3.36.917-1.735,9.328,1.414,7.326,10.281,8.456,19.068,6.8s6.964,4.975,10.447,14.426,3.98,14.758-.829,18.738-8.624,23.049-8.125,27.692,17.079,14.259,31.173-1.326c7.628-10.613,16.25-31.008,16.25-31.008s-8.954-12.436-8.787-24.543,5.306-57.7-11.442-70.637-36.646-5.248-38.3-2.044" transform="translate(44.058 -50.926)" fill="#fff"/>
          <path id="Trazado_997656" data-name="Trazado 997656" d="M130.541,255.883c4.492,0,11.218-1.518,17.752-8.743,7.623-10.6,16.273-30.974,16.36-31.179a.611.611,0,0,0-.067-.6c-.088-.122-8.834-12.418-8.673-24.176.022-1.67.144-4.042.284-6.789.88-17.206,2.709-53.009-11.963-64.34a35.158,35.158,0,0,0-21.654-7.372c-8.976,0-16.4,3.276-17.566,5.531-2.373,3.883-4.419,10.817-5.589,18.987-.712,4.978-1.892,5.519-6.855,7.79l-.31.142c-3.075,1.409-5.061,3.629-5.454,6.093a5.072,5.072,0,0,0,1.645,4.64,21.336,21.336,0,0,0,3.05,2.39c1.055.692,1.075.705,1.4,3.209.067.518.1,1.015.121,1.475.111,1.928.291,4.128,4.09,2.91a21.787,21.787,0,0,0,2.349-1.023,16.687,16.687,0,0,1,2.237-.96,1.731,1.731,0,0,1,.3,1.228c-.1,1.451-1.321,3.644-4.457,5.449-.161.093-.321.177-.477.258-1.989,1.042-3.043,2.008-1.554,9.715.991,5.134,5.61,7.96,13.006,7.96a36.873,36.873,0,0,0,6.776-.678,12.618,12.618,0,0,1,2.292-.243c3.6,0,4.283,2.233,5.475,7.284a57.655,57.655,0,0,0,1.993,7c3.7,10.04,3.535,14.6-.645,18.056-5.014,4.149-8.869,23.324-8.343,28.228.335,3.125,6.563,7.76,14.482,7.76M163.394,215.8c-1.118,2.6-9.062,20.853-16.051,30.578-6.189,6.841-12.558,8.288-16.8,8.288-7.376,0-13.017-4.326-13.267-6.668-.481-4.486,3.369-23.4,7.908-27.155,5.261-4.355,4.414-10.185,1.012-19.421a56.662,56.662,0,0,1-1.95-6.854c-1.127-4.776-1.941-8.225-6.664-8.225a13.6,13.6,0,0,0-2.52.264,35.574,35.574,0,0,1-6.549.657c-4.772,0-10.694-1.209-11.807-6.97-1.387-7.189-.469-7.67.923-8.4.169-.088.342-.18.519-.282,3.017-1.736,4.911-4.138,5.066-6.424a2.69,2.69,0,0,0-.874-2.378c-.53-.412-1.452-.011-3.406.925a20.981,20.981,0,0,1-2.195.962A5.413,5.413,0,0,1,95.2,165c-.723,0-.858-.3-.962-2.126-.028-.488-.059-1.014-.131-1.563-.367-2.831-.512-3.136-1.941-4.073a20.247,20.247,0,0,1-2.892-2.267,3.882,3.882,0,0,1-1.266-3.551c.321-2.021,2.1-3.956,4.756-5.173l.31-.142c5.048-2.311,6.748-3.089,7.557-8.727,1.147-8.013,3.131-14.778,5.443-18.561.775-1.494,7.292-4.909,16.5-4.909a33.951,33.951,0,0,1,20.907,7.117c14.167,10.941,12.359,46.312,11.49,63.312-.141,2.759-.263,5.141-.286,6.836-.155,11.3,7.338,22.651,8.7,24.622" transform="translate(43.947 -51.037)"/>
          <path id="Trazado_997657" data-name="Trazado 997657" d="M135.151,306.312c-3.1,1.328-32.279,2.874-32.279,2.874s-12.824-40.9-7.518-87.772c10.612,9.286,22.552,7.074,34.49-2.653-7.515,22.994-3.98,70.305,5.307,87.551" transform="translate(64.538 -27.489)"/>
          <path id="Trazado_997658" data-name="Trazado 997658" d="M135.136,142.726c-.645,2.068-2.125,3.447-3.3,3.082s-1.609-2.345-.965-4.415,2.126-3.447,3.3-3.077,1.614,2.341.968,4.41" transform="translate(19.653 -45.361)"/>
          <path id="Trazado_997659" data-name="Trazado 997659" d="M133.654,140.02a.61.61,0,0,0,.587-.783l-1.107-3.759a.611.611,0,1,0-1.172.345l1.107,3.759a.609.609,0,0,0,.585.439" transform="translate(19.148 -46.075)"/>
          <path id="Trazado_997660" data-name="Trazado 997660" d="M11.3,251.959C14.71,226.787,25.965,210.132,35.92,194.7c1.527-2.368,2.939-2.031,3.589-1.9,4.76.942,10.072,3.176,8.71,6.094a10.572,10.572,0,0,1-1.284,1.956c2.065.417,4.537.935,7.474,1.582,11.057,2.431,17.9,6.8,24.752,13.656s41.9,49.35,51.629,60.183c-12.824,24.763-34.827,28.41-34.827,28.41s-20.108-20.225-32.708-35.7c.442,3.1,1.988,31.837,6.411,43.114-7.811,4.53-29.52,4.314-41.592,3.8-1.982,1.82-9.7.183-9.7.183S7.762,278.05,11.3,251.959" transform="translate(170.926 -33.273)" fill="#70badb"/>
          <path id="Trazado_997661" data-name="Trazado 997661" d="M139.36,128.986c5.8,2.156,12.27,7.46,15.753,30.178,1.684,10.986,5.76,22.78,4.993,33.984-.719,10.486-9.8,13.345-19.058,15.2-8.156,1.631-39.854,9.189-41.853-4.459-2.332-15.923,22.766-23.918,19.166-38.7-.732-3-3.749-6.737-6.855-7.432-3.964-.886-5.142,2.5-8.225,4.58-3.755,2.532-6,1.052-8.259-2.748-2.132-3.593-1.333-9.346-1-13.378.442-5.284,1.069-7.194-3.514-8.705-6.2-2.043-11.506-6.242-5.539-13.327-7.959,9.451-11.938,7.959-18.4,3.814s-6.8-7.96-4.312-15.089S72.369,94.827,85.8,96.486s12.105,5.306,28.189,8.622,26.365,8.125,25.371,23.878" transform="translate(80.119 -54.671)"/>
          <path id="Trazado_997662" data-name="Trazado 997662" d="M135.23,134.883a.611.611,0,0,0,.576-.816c-.434-1.216-2.886-7.341-8.576-8.517a.611.611,0,1,0-.247,1.2c5.048,1.044,7.277,6.623,7.672,7.732a.61.61,0,0,0,.576.406" transform="translate(24.222 -48.185)"/>
          <path id="Trazado_997663" data-name="Trazado 997663" d="M87.734,314.114h.038a.613.613,0,0,0,.573-.648c-.033-.532-.147-1.978-.31-4.085-.957-12.292-3.5-44.944-2.567-52.4.976-7.807-1.139-9.763-4.342-12.723-.4-.37-.821-.759-1.259-1.18,1.578-1,5.716-3.634,8.85-5.549,3.272-2,3.993-4.713,5.917-11.971.576-2.164,1.226-4.619,2.09-7.615a41.941,41.941,0,0,1,8.842-16.668c.607-.738,1.132-1.375,1.569-1.986a.611.611,0,1,0-.993-.711c-.413.578-.925,1.2-1.519,1.92A43.059,43.059,0,0,0,95.548,217.6c-.866,3.009-1.548,5.577-2.1,7.641-1.833,6.912-2.519,9.5-5.373,11.241-3.94,2.407-9.463,5.94-9.518,5.976a.608.608,0,0,0-.279.448.615.615,0,0,0,.176.5c.646.646,1.261,1.216,1.837,1.746,3.132,2.9,4.857,4.49,3.959,11.674-.948,7.58,1.6,40.322,2.561,52.647.164,2.1.276,3.539.308,4.067a.612.612,0,0,0,.61.573" transform="translate(111.734 -32.027)" fill="#fff"/>
          <path id="Trazado_997664" data-name="Trazado 997664" d="M142.069,235.1l4.644,13.707s11.054-20.118,18.129-28.961c6.612-8.266,16.118-13.441,23.649-16.248,5.081-8.41,12.26-9.624,12.26-9.624a7.381,7.381,0,0,1-.481,4.51c-1.051,2.517-12.434,22.244-9.782,53.641s11.718,62.569,11.718,62.569h-6.854s-.053-.174-.152-.495c-5.156.664-15.655,1.722-15.989-.611-.441-3.1-6.413-27.857-9.948-35.6-10.613,19.675-20.459,23.69-34.7,17.707-10.184-4.277-18.579-38.488-19.684-51.975-.22-.222,27.194-8.624,27.194-8.624" transform="translate(-27.94 -32.993)" fill="#70badb"/>
          <path id="Trazado_997665" data-name="Trazado 997665" d="M138.76,313.575a.649.649,0,0,0,.178-.026.612.612,0,0,0,.406-.764c-.137-.448-13.723-44.957-15.686-53.461-2.019-8.748-1.954-9.8-.638-12.369,1.655-3.23,3.073-6.066,3.073-6.066a.613.613,0,0,0-.226-.794c-1.492-.921-5.224-3.859-4.59-6.352,1.411-5.537,6.788-23.885,10.719-30.858l.127-.225a.611.611,0,1,0-1.061-.606l-.131.231c-3.991,7.079-9.418,25.578-10.838,31.157-.836,3.275,3.238,6.406,4.663,7.385-.474.943-1.584,3.147-2.825,5.572-1.537,3-1.477,4.481.534,13.2,1.972,8.547,15.572,53.094,15.709,53.544a.611.611,0,0,0,.584.433" transform="translate(28.651 -31.267)" fill="#fff"/>
          <path id="Trazado_997666" data-name="Trazado 997666" d="M148.575,270.155a.631.631,0,0,0,.254-.055.611.611,0,0,0,.3-.81c-9.938-21.755-6.235-29.586-4.02-34.265a20.52,20.52,0,0,0,.948-2.211.611.611,0,0,0-1.16-.386A19.667,19.667,0,0,1,144,234.5c-2.3,4.872-6.161,13.023,4.014,35.3a.61.61,0,0,0,.556.357" transform="translate(-7.252 -24.548)"/>
          <path id="Trazado_997667" data-name="Trazado 997667" d="M159.537,248.236a.61.61,0,0,0,.552-.347c.024-.051,2.465-5.16,4.656-10.42a.611.611,0,1,0-1.128-.469c-2.179,5.23-4.607,10.311-4.631,10.361a.612.612,0,0,0,.551.875" transform="translate(-44.36 -23.523)"/>
          <path id="Trazado_997668" data-name="Trazado 997668" d="M227.081,239.979c-2.486-7.793-6.133-28.851-6.963-36.645s3.814-18.737-1.659-25.7-8.954-10.447-10.444-13.93-4.976-3.98-6.8-.5,1,9.618,5.141,13.928c-10.114-6.467-10.943-4.145-14.093-9.12s-9.288-17.742-13.267-17.411c-3.315-4.477-7.129-1.991-7.793,4.146-1.989-.166-3.814,4.477-2.489,11.44-4.806,2.82-4.309,13.1,2.489,20.894s19.733,12.436,22.552,18.738,7.46,43.278,7.46,43.278Z" transform="translate(-114.722 -43.127)" fill="#fff"/>
          <path id="Trazado_997669" data-name="Trazado 997669" d="M201.327,249.822a.623.623,0,0,0,.2-.034l25.867-9.121a.611.611,0,0,0,.379-.763c-2.506-7.851-6.142-29.03-6.94-36.524a41.029,41.029,0,0,1,.457-8.781c.736-6.134,1.494-12.478-2.241-17.233-1.684-2.142-3.172-3.947-4.485-5.538-2.94-3.566-4.882-5.921-5.881-8.253-.87-2.032-2.407-3.244-4.111-3.244a4.429,4.429,0,0,0-3.791,2.7c-1.631,3.114.033,7.826,2.88,11.8a55.619,55.619,0,0,0-5.749-2.88c-2.42-1.066-3.325-1.464-5.027-4.151-.671-1.059-1.5-2.522-2.387-4.069-4.189-7.345-7.92-13.444-11.094-13.628-1.481-1.878-2.884-2.281-3.816-2.281-2.41,0-4.273,2.525-4.824,6.479a2.525,2.525,0,0,0-1.337.908c-1.222,1.477-2.268,5.178-1.279,10.8a7.593,7.593,0,0,0-2.95,5.246c-.822,5.049,1.4,11.464,5.653,16.343,3.208,3.678,7.637,6.587,11.922,9.4,4.677,3.071,9.093,5.971,10.531,9.186,2.749,6.147,7.367,42.737,7.414,43.106a.609.609,0,0,0,.606.534m25.11-10.112-24.6,8.674c-.693-5.434-4.782-36.814-7.415-42.7-1.585-3.543-6.147-6.538-10.976-9.709-4.215-2.768-8.574-5.63-11.671-9.181-4.028-4.617-6.134-10.639-5.368-15.343a6.229,6.229,0,0,1,2.727-4.622.612.612,0,0,0,.292-.642c-.969-5.087-.224-8.789.946-10.2a1.223,1.223,0,0,1,.838-.519.719.719,0,0,0,.711-.541c.38-3.519,1.855-5.884,3.67-5.884.991,0,2.037.7,3.024,2.036a.6.6,0,0,0,.541.246h0c2.861,0,7.326,7.829,10.281,13.011.89,1.56,1.73,3.034,2.417,4.118,1.9,3,3.049,3.508,5.566,4.617a56.95,56.95,0,0,1,8.714,4.691.611.611,0,0,0,.77-.938c-3.755-3.906-6.8-9.866-5.039-13.222a3.226,3.226,0,0,1,2.708-2.048c1.2,0,2.316.936,2.988,2.5,1.069,2.5,3.055,4.9,6.062,8.55,1.308,1.586,2.791,3.385,4.465,5.516,3.424,4.358,2.695,10.444,1.991,16.332a41.847,41.847,0,0,0-.46,9.056c.783,7.363,4.3,27.879,6.814,36.2" transform="translate(-114.835 -43.238)"/>
          <path id="Trazado_997670" data-name="Trazado 997670" d="M182.606,183.4a.611.611,0,0,0,.594-.469c.838-3.521,3.99-9.262,5.714-10.411a.611.611,0,0,0-.678-1.017c-2.146,1.431-5.379,7.592-6.225,11.145a.61.61,0,0,0,.453.736.556.556,0,0,0,.142.017" transform="translate(-96.943 -38.003)"/>
          <path id="Trazado_997671" data-name="Trazado 997671" d="M194.952,180.778a.611.611,0,0,0,.547-.337c.617-1.235,7.959-10.037,10.757-10.97a.611.611,0,0,0-.387-1.16c-3.209,1.07-10.793,10.243-11.464,11.582a.612.612,0,0,0,.546.885" transform="translate(-129.519 -38.696)"/>
          <path id="Trazado_997672" data-name="Trazado 997672" d="M216.42,182.859a.611.611,0,0,0,.257-1.166c-1.92-.886-6.143-6.3-7.283-12.49-.584-3.172-1.559-5.142-2.982-6.024a4.587,4.587,0,0,0-3.756-.257.611.611,0,0,0,.336,1.176,3.3,3.3,0,0,1,2.775.12c1.1.681,1.914,2.433,2.426,5.208,1.173,6.371,5.576,12.271,7.972,13.377a.614.614,0,0,0,.255.056" transform="translate(-149.494 -39.948)"/>
          <path id="Trazado_997673" data-name="Trazado 997673" d="M214.323,179.448a.612.612,0,0,0,.4-1.073c-3.615-3.142-5.1-7.724-6.434-14.578-1.231-6.307-3.629-9.818-7.127-10.433a.611.611,0,1,0-.211,1.2c2.949.519,5.014,3.7,6.138,9.464,1.389,7.114,2.952,11.894,6.832,15.266a.6.6,0,0,0,.4.15" transform="translate(-145.242 -42.01)"/>
          <path id="Trazado_997674" data-name="Trazado 997674" d="M207.225,176.041a.6.6,0,0,0,.351-.111.611.611,0,0,0,.148-.852c-1.8-2.556-4.057-9.865-5.872-15.738a75.959,75.959,0,0,0-3.376-9.739.611.611,0,0,0-1.073.585,78.277,78.277,0,0,1,3.281,9.514c1.937,6.265,4.13,13.366,6.042,16.081a.61.61,0,0,0,.5.259" transform="translate(-134.329 -42.913)"/>
          <path id="Trazado_997675" data-name="Trazado 997675" d="M76.145,259.183a.611.611,0,0,0,.464-1.007c-3.726-4.382-11.222-12.324-11.3-12.4a.611.611,0,0,0-.887.841c.075.078,7.548,8,11.255,12.356a.608.608,0,0,0,.466.215" transform="translate(159.362 -21.535)"/>
          <path id="Trazado_997676" data-name="Trazado 997676" d="M192.851,221.755c2.444,4.582,3.858,12.015,3.36,12.678s-18.635,2.138-31.008,11c-2.819,1.326-3.72-11.737-3.28-13.248,1.162-3.98,29.434-12.087,30.927-10.428" transform="translate(-79.412 -26.874)"/>
          <path id="Trazado_997677" data-name="Trazado 997677" d="M101.514,242.223a.6.6,0,0,0,.4-.15c.056-.048,5.627-4.884,8.219-6.611a.611.611,0,0,0-.678-1.017c-2.655,1.769-8.112,6.5-8.343,6.706a.61.61,0,0,0,.4,1.072" transform="translate(80.931 -24.031)" fill="#fff"/>
          <path id="Trazado_997678" data-name="Trazado 997678" d="M133.192,240.066a.612.612,0,0,0,.434-1.044,37.737,37.737,0,0,0-7.293-5.31c-.491-.294-.91-.546-1.231-.753a.61.61,0,1,0-.666,1.023c.33.215.763.474,1.267.777a36.666,36.666,0,0,1,7.057,5.126.609.609,0,0,0,.431.18" transform="translate(29.114 -24.359)" fill="#fff"/>
          <path id="Trazado_997679" data-name="Trazado 997679" d="M97.409,169.448c.645-6.028,5.4-12.206,11.039-8.6,4.906,3.133,6.4,11.569,1.91,15.568a9.326,9.326,0,0,1-7.591,1.991c-4.343-.852-5.795-4.868-5.358-8.956" transform="translate(82.656 -40.584)" fill="#f2ac30"/>
        </g>
      </g>
      <path id="Trazado_997681" data-name="Trazado 997681" d="M122.752,360.884h0c11.923,0,23.6-.466,37.118-1.008,11.611-.464,24.774-.991,40.443-1.3,45.777-.915,67.233-4.409,95.5-35.822,26.453-29.395,20.476-106.2,13.438-138.784C293.217,109.716,250.277,68.8,181.623,62.359c-4.4-.412-8.9-.622-13.4-.622-45.406,0-91.009,21.1-121.991,56.455C22.44,145.346-4.775,194.269.714,273.138c5.635,80.948,57.568,84.378,91.934,86.648l2.82.188c9.155.622,17.826.911,27.283.911M168.227,63.032c4.455,0,8.927.207,13.288.617,68.066,6.388,110.643,46.966,126.546,120.605,6.99,32.367,12.979,108.588-13.13,137.6-27.947,31.055-49.223,34.512-94.639,35.419-15.682.315-28.849.841-40.468,1.306-13.505.54-25.171,1.006-37.07,1.006h0c-9.431,0-18.076-.288-27.205-.908l-2.823-.188c-33.942-2.241-85.235-5.628-90.792-85.451-4.318-62.057,11.311-115.3,45.2-153.967,30.754-35.092,76.024-56.042,121.095-56.042" transform="translate(0 -78.657)"/>
    </g>
    <g id="Grupo_1184064" data-name="Grupo 1184064" transform="translate(910.846 3332.535)">
      <path id="Trazado_997685" data-name="Trazado 997685" d="M308.969,188.041c7.562.693,11.855,5.39,11.1,18.756s2.271,27.167-3.027,32.338-18.663,5.179-31.024,5.393-28.367-.148-33.105-.216c-11.161-.161-15.133-2.1-16.647-10.835-.891-5.14,1.249-34.14,1.324-37.189.191-7.6,5.108-8.571,15.892-9.056,10.338-.466,48.428.161,55.49.809" transform="translate(-236.047 -187.071)" fill="#f27230"/>
      <path id="Trazado_997686" data-name="Trazado 997686" d="M277.254,222.916h.149c5.32-.079,9.646-4.556,12.82-8.447,5.865-7.194,19.062-21.944,22.268-24.685a.667.667,0,0,0-.866-1.016c-3.249,2.778-16.542,17.627-22.438,24.857-2.991,3.667-7.035,7.884-11.8,7.956-3.411.023-6.978-2.046-10.608-6.236-9.991-11.527-24.818-26.047-24.966-26.192a.667.667,0,1,0-.933.953c.148.145,14.935,14.628,24.89,26.113,3.9,4.505,7.664,6.7,11.487,6.7" transform="translate(-234.694 -186.556)"/>
      <path id="Trazado_997687" data-name="Trazado 997687" d="M264.855,232.864a.667.667,0,0,0,.3-1.264c-1.735-.865-10.582-9.216-17.041-15.312-5.351-5.051-8.414-7.931-9.14-8.374a.667.667,0,1,0-.7,1.138c.641.392,4.663,4.188,8.92,8.207,8.754,8.262,15.591,14.652,17.363,15.533a.653.653,0,0,0,.3.071" transform="translate(-183.861 -180.132)"/>
      <path id="Trazado_997688" data-name="Trazado 997688" d="M277.073,235.277a.669.669,0,0,0,.577-.33c.424-.723,5.4-6.108,10.2-11.316,6.345-6.873,12.906-13.979,13.9-15.556a.667.667,0,0,0-1.128-.711c-.929,1.473-7.74,8.853-13.75,15.364-6.122,6.631-9.9,10.737-10.374,11.544a.667.667,0,0,0,.576,1" transform="translate(-271.5 -180.388)"/>
    </g>
    <g id="Grupo_1184065" data-name="Grupo 1184065" transform="translate(385 3288.563)">
      <path id="Trazado_997654" data-name="Trazado 997654" d="M413.254,464.149h.021c50.545,0,94.408-3.8,123.509-10.691,33.116-7.843,55.176-21.441,65.561-40.419,8.778-16.036,9.182-35.732,1.2-58.542-.3-.857-.607-1.75-.93-2.681-6.232-18.062-17.831-51.679-73.02-118.662-40.125-48.7-91.624-75.524-145.01-75.524a164.078,164.078,0,0,0-58.2,10.783c-47.164,17.837-86.605,46.512-114.059,82.923-23.1,30.643-37.505,66.472-40.551,100.885-3.288,37.184,7.288,67.817,27.606,79.943,37.022,22.094,134.091,31.984,213.869,31.984m-28.669-305.3c53.015,0,104.179,26.665,144.07,75.079,55.046,66.813,66.6,100.3,72.806,118.283.323.934.631,1.828.931,2.686,7.862,22.47,7.487,41.835-1.118,57.554-10.213,18.659-32.005,32.054-64.772,39.816-29.011,6.87-72.772,10.655-123.227,10.657h-.021c-79.613,0-176.417-9.836-213.243-31.813C180.1,419.232,169.749,389.044,173,352.33c5.26-59.47,48.7-143.019,153.823-182.775a162.828,162.828,0,0,1,57.762-10.7" transform="translate(-171.187 -157.63)"/>
      <path id="Trazado_997719" data-name="Trazado 997719" d="M424.376,390.684h47.563a.611.611,0,0,0,0-1.222H424.376a.611.611,0,0,0,0,1.222" transform="translate(-343.141 -106.165)"/>
      <path id="Trazado_997720" data-name="Trazado 997720" d="M450.366,259.377c14.1-6.8,16.749-22.053-3.813-27.857,14.427-17.742-.165-28.024-9.949-30.013s-29.184,2.985-47.921,19.069-26.863,16.914-32.5,29.515-2.985,22.387,2.654,35.154,6.3,16.747-4.644,27.028-19.9,20.561-12.271,39.962,98.828,12.27,103.139-.995-5.969-61.85-5.969-61.85Z" transform="translate(-228.566 -147.981)"/>
      <path id="Trazado_997721" data-name="Trazado 997721" d="M381.53,321.924c2.157-9.451-.347-31.152-19.234-41.952-13.777-7.877-21.06,3.152-21.06,3.152l-2.154,36.314s37.806,2.653,42.448,2.487" transform="translate(-149.284 -131.103)"/>
      <path id="Trazado_997722" data-name="Trazado 997722" d="M252.238,269.925c1.657-2.321,4.141-5.5,6.462-3.84s-1.375,15.122-11.769,13.457a89.67,89.67,0,0,0,5.307-9.617" transform="translate(86.133 -133.656)" fill="#fff"/>
      <path id="Trazado_997723" data-name="Trazado 997723" d="M248.78,280.406h0c5.825,0,9.417-4.761,10.723-8.836.676-2.112.992-4.917-.342-5.87a2.911,2.911,0,0,0-1.714-.574c-2.061,0-3.91,2.19-5.6,4.554a92.7,92.7,0,0,1-5.318,9.634.612.612,0,0,0,.412.943,11.74,11.74,0,0,0,1.838.149m8.669-14.059a1.693,1.693,0,0,1,1,.347c.453.324.667,2.069-.112,4.5-1.237,3.86-4.4,7.986-9.56,7.986h0c-.227,0-.458-.009-.692-.024A96.419,96.419,0,0,0,252.9,270.3c.809-1.116,2.833-3.948,4.549-3.948" transform="translate(86.025 -133.768)"/>
      <path id="Trazado_997724" data-name="Trazado 997724" d="M282.891,272.41c5.637-1.824,9.286-6.3,7.46-9.951s-7.791,1.162-11.938,4.477a19.586,19.586,0,0,1-8.125,3.98s6.136,3.15,12.6,1.493" transform="translate(26.13 -134.649)" fill="#fff"/>
      <path id="Trazado_997725" data-name="Trazado 997725" d="M279.056,273.613a16.472,16.472,0,0,0,4.1-.5c3.78-1.222,6.8-3.632,7.919-6.3a5.272,5.272,0,0,0-.064-4.515,2.8,2.8,0,0,0-2.635-1.644c-2.835,0-6.892,3.246-10.152,5.853a19.384,19.384,0,0,1-7.925,3.918.611.611,0,0,0-.177,1.146,21.42,21.42,0,0,0,8.936,2.042m9.318-11.737a1.584,1.584,0,0,1,1.542.968,4.037,4.037,0,0,1,.029,3.5c-.986,2.349-3.719,4.494-7.132,5.6a15.275,15.275,0,0,1-3.758.452,20.46,20.46,0,0,1-6.765-1.237,21.6,21.6,0,0,0,6.615-3.629c3.026-2.421,7.061-5.649,9.468-5.649" transform="translate(26.021 -134.76)"/>
      <path id="Trazado_997726" data-name="Trazado 997726" d="M278.915,323.985c.441-9.73,1.547-29.185,3.094-35.374s11.279-4.425,11.941-4.645,12.767,4.366,18.737-7.738,1.161-16.582-2.156-15.422c-1.161-3.98-4.477-2.819-6.3-.83-1.659-3.483-6.467.167-7.628,4.644s-2.322,8.457-11.607,7.3-20.727-3.814-25.2,9.617-8.126,34.325-8.126,34.325,1.768,13.267,27.249,8.126" transform="translate(24.191 -135.316)" fill="#fff"/>
      <path id="Trazado_997727" data-name="Trazado 997727" d="M268.393,325.89a55.094,55.094,0,0,0,10.747-1.2.614.614,0,0,0,.49-.571c.3-6.579,1.4-28.56,3.077-35.255.706-2.825,3.5-4.256,8.3-4.256.781,0,1.472.037,2,.064a6.024,6.024,0,0,0,1.146,0c.132.01.364.062.684.126a23.987,23.987,0,0,0,4.868.554c6.094,0,10.809-3.027,13.631-8.752,4.156-8.424,2.949-12.621,1.859-14.374a4.118,4.118,0,0,0-4.163-2.052c-.841-2.189-2.341-2.533-3.2-2.533a5.336,5.336,0,0,0-3.381,1.469,2.6,2.6,0,0,0-2.087-1.029c-2.432,0-5.351,3.033-6.248,6.486-.98,3.78-1.826,7.045-8.024,7.045a23.814,23.814,0,0,1-2.916-.2c-.681-.084-1.374-.178-2.074-.271a62.882,62.882,0,0,0-8.316-.748c-5.059,0-12.169,1.146-15.472,11.051-4.439,13.318-8.11,34.2-8.147,34.411a.63.63,0,0,0,0,.186c.012.1,1.495,9.841,17.226,9.841m10.039-2.3a53.033,53.033,0,0,1-10.039,1.079c-13.9,0-15.828-7.8-16-8.7.286-1.611,3.835-21.381,8.086-34.134,3.017-9.051,9.233-10.213,14.311-10.213a62.116,62.116,0,0,1,8.153.736c.7.094,1.4.189,2.085.274a24.826,24.826,0,0,0,3.067.21c7.143,0,8.239-4.229,9.207-7.959.814-3.137,3.391-5.572,5.065-5.572a1.534,1.534,0,0,1,1.42,1.037.61.61,0,0,0,1,.15,4.535,4.535,0,0,1,3.046-1.628c1.044,0,1.788.745,2.217,2.217a.614.614,0,0,0,.789.406,2.845,2.845,0,0,1,3.321,1.386c.769,1.238,2.123,5-1.916,13.189-2.641,5.355-6.859,8.07-12.536,8.07a22.975,22.975,0,0,1-4.63-.53,5.867,5.867,0,0,0-.954-.151,1.177,1.177,0,0,0-.261.039c-.227-.011-.478-.023-.791-.04-.54-.028-1.253-.065-2.059-.065-5.437,0-8.631,1.744-9.49,5.181-1.663,6.649-2.762,27.883-3.09,35.016" transform="translate(24.085 -135.426)"/>
      <path id="Trazado_997728" data-name="Trazado 997728" d="M252.087,280.749a.611.611,0,0,0,.373-.127c3.754-2.9,6.246-7.237,7.4-12.886a.611.611,0,1,0-1.2-.247c-1.1,5.355-3.439,9.448-6.954,12.166a.61.61,0,0,0,.374,1.094" transform="translate(80.069 -133.351)"/>
      <path id="Trazado_997729" data-name="Trazado 997729" d="M260.892,280.266h.027a10.934,10.934,0,0,0,8.407-4.343c4.138-5.228,4.607-13.651,4.106-16.282a.611.611,0,0,0-1.2.23c.455,2.388-.026,10.444-3.864,15.293a9.752,9.752,0,0,1-7.5,3.88.611.611,0,0,0,.026,1.222" transform="translate(55.589 -135.095)"/>
      <path id="Trazado_997730" data-name="Trazado 997730" d="M255.715,284.592l.051,0a10.844,10.844,0,0,0,7.917-4.422c4.878-6.315,4.85-17.294,4.408-19.837a.611.611,0,1,0-1.2.209c.422,2.427.457,12.888-4.172,18.881a9.665,9.665,0,0,1-7.051,3.952.611.611,0,0,0,.05,1.22" transform="translate(67.233 -134.944)"/>
      <path id="Trazado_997731" data-name="Trazado 997731" d="M409.662,320.979c-5.472,2.487-21.39,8.125-50.242.83.995,19.9,2.984,61.85,2.984,61.85s24.044,13.6,40.129,7.96c4.476-7.629,7.129-70.64,7.129-70.64" transform="translate(-201.624 -121.368)"/>
      <path id="Trazado_997732" data-name="Trazado 997732" d="M408.159,327c-4.807-.664-10-2.494-9.5-10.454s1.823-18.406,1.823-18.406c12.436-.165,24.706-6.633,30.345-19.4s-1.823-19.4-5.969-32.666-11.939-24.209-29.349-23.048-26.7,9.451-26.7,9.451c2.984,15.587,5.969,37.641-.5,38.968s-8.126-10.114-8.126-10.114c-9.783-4.81-20.031,1.042-16.084,9.616,4.807,10.447,16.25,5.141,16.25,5.141,2.321,5.969,12.1,12.6,12.1,12.6-1.491,12.271-2.977,32.57-12.264,33.729,3.815,19.4,5.8,26.464,5.8,26.464s33.33,8.125,45.435-3.814c-.5-4.145-3.269-18.067-3.269-18.067" transform="translate(-205.047 -143.132)" fill="#fff"/>
      <path id="Trazado_997733" data-name="Trazado 997733" d="M388.865,352.3c10.82,0,18.587-2.251,23.088-6.689a.614.614,0,0,0,.176-.508c-.494-4.122-3.161-17.544-3.274-18.115a.611.611,0,0,0-.516-.485c-4.7-.65-9.442-2.321-8.974-9.81.428-6.843,1.482-15.629,1.755-17.846,13.527-.368,25.129-7.9,30.362-19.752,4.149-9.391,1.43-15.475-2.013-23.176a87.427,87.427,0,0,1-3.931-9.92c-5.256-16.816-15.034-24.472-29.973-23.476-17.421,1.163-26.677,9.264-27.064,9.607a.611.611,0,0,0-.193.571c4.479,23.389,4.471,37.332-.021,38.253a4.42,4.42,0,0,1-.9.1c-5.036,0-6.488-9.6-6.5-9.7a.609.609,0,0,0-.336-.461,16.975,16.975,0,0,0-7.425-1.8c-4.055,0-7.515,1.623-9.258,4.343a8,8,0,0,0-.226,7.872c2.6,5.657,7.094,6.844,10.4,6.844a17.579,17.579,0,0,0,6.078-1.163c2.465,5.372,10.116,10.934,11.779,12.1-.111.935-.225,1.915-.342,2.925-1.4,12.2-3.326,28.9-11.345,29.9a.621.621,0,0,0-.42.248.612.612,0,0,0-.1.477c3.775,19.2,5.787,26.44,5.807,26.51a.613.613,0,0,0,.444.43,111.015,111.015,0,0,0,22.921,2.718m22.014-7.353c-4.3,4.068-11.7,6.131-22.014,6.131a109.549,109.549,0,0,1-22.282-2.6c-.43-1.62-2.335-9.055-5.57-25.457,8.424-1.85,10.349-18.574,11.764-30.865.132-1.141.258-2.242.385-3.285a.612.612,0,0,0-.264-.579c-.1-.066-9.653-6.6-11.878-12.318a.606.606,0,0,0-.341-.345.619.619,0,0,0-.485.011,16.481,16.481,0,0,1-6.147,1.292c-4.293,0-7.419-2.064-9.291-6.133a6.732,6.732,0,0,1,.145-6.7c1.515-2.367,4.592-3.78,8.228-3.78a15.684,15.684,0,0,1,6.6,1.534c.318,1.829,2.1,10.421,7.658,10.421a5.794,5.794,0,0,0,1.144-.119c5.448-1.119,5.8-14.351,1.041-39.329,1.615-1.305,10.67-8.055,26.07-9.079,14.466-.964,23.592,6.191,28.725,22.619a89.956,89.956,0,0,0,3.982,10.053c3.319,7.426,5.939,13.289,2.011,22.183-5.107,11.566-16.523,18.861-29.795,19.037a.608.608,0,0,0-.6.534c-.013.1-1.334,10.556-1.827,18.444-.523,8.363,5.095,10.348,9.6,11.036.455,2.3,2.619,13.336,3.138,17.3" transform="translate(-205.144 -143.244)"/>
      <path id="Trazado_997734" data-name="Trazado 997734" d="M354.363,268.476a.613.613,0,0,0,.3-.079c3.5-1.993,5.333-3.947,5.608-5.972.34-2.515-1.7-4.559-3.67-6.535-.385-.386-.77-.772-1.132-1.156-3.226-3.437-2.885-9.7-1.2-14.065a4.772,4.772,0,0,1,3.621-3.293,6.741,6.741,0,0,1,5.747,1.938.611.611,0,0,0,.9-.821,7.95,7.95,0,0,0-6.876-2.318,5.948,5.948,0,0,0-4.537,4.056c-1.877,4.866-2.156,11.5,1.453,15.34.368.393.761.787,1.156,1.183,1.761,1.767,3.583,3.594,3.324,5.509-.217,1.6-1.9,3.305-5,5.074a.61.61,0,0,0,.3,1.141" transform="translate(-147.32 -140.217)"/>
      <path id="Trazado_997735" data-name="Trazado 997735" d="M370.476,247.355a.61.61,0,0,0,.507-.271c6.446-9.616,13.3-8.291,16.811-6.64a.611.611,0,1,0,.518-1.107c-3.114-1.458-11.132-3.692-18.343,7.068a.609.609,0,0,0,.167.847.6.6,0,0,0,.34.1" transform="translate(-193.39 -139.768)"/>
      <path id="Trazado_997736" data-name="Trazado 997736" d="M373.254,253.6c.646,2.066,2.126,3.447,3.305,3.081s1.609-2.344.964-4.414-2.125-3.447-3.3-3.077-1.613,2.34-.968,4.41" transform="translate(-186.325 -137.318)"/>
      <path id="Trazado_997737" data-name="Trazado 997737" d="M375.362,251.19a.61.61,0,0,0,.585-.437l1.107-3.76a.611.611,0,0,0-1.172-.346l-1.107,3.759a.613.613,0,0,0,.413.76.661.661,0,0,0,.173.024" transform="translate(-187.775 -137.967)"/>
      <path id="Trazado_997738" data-name="Trazado 997738" d="M353.487,249.89c.645,2.066,2.125,3.446,3.3,3.081s1.611-2.345.965-4.414-2.126-3.447-3.3-3.077-1.613,2.34-.967,4.41" transform="translate(-142.403 -138.141)"/>
      <path id="Trazado_997739" data-name="Trazado 997739" d="M355.6,247.481a.61.61,0,0,0,.585-.437l1.107-3.761a.611.611,0,0,0-1.172-.346L355.01,246.7a.611.611,0,0,0,.412.759.661.661,0,0,0,.174.024" transform="translate(-143.854 -138.79)"/>
      <path id="Trazado_997740" data-name="Trazado 997740" d="M368.848,274.524a4.265,4.265,0,0,0,3.207-1.321c1.485-1.552,2.147-4.426,1.969-8.542a.611.611,0,0,0-1.023-.425c-.876.8-3.446,1.735-7.8,1.735a37.112,37.112,0,0,1-8.662-1.1.611.611,0,0,0-.6,1c4.837,5.5,9.545,8.66,12.919,8.66m3.98-8.708c.013,3.139-.554,5.389-1.656,6.543-2.327,2.426-7.5-.055-13.035-5.888,5.918,1.158,11.868.821,14.691-.655" transform="translate(-161.561 -134)"/>
      <path id="Trazado_997741" data-name="Trazado 997741" d="M368.072,272.487a.611.611,0,0,0,.53-.915c-1.437-2.5-7.275-4.06-10.758-2.878a.611.611,0,1,0,.391,1.157c3.154-1.07,8.241.475,9.307,2.329a.612.612,0,0,0,.53.307" transform="translate(-158.211 -133.064)"/>
      <path id="Trazado_997742" data-name="Trazado 997742" d="M392.716,286.55a.648.648,0,0,0,.682-.613.612.612,0,0,0-.611-.609.715.715,0,0,0-.073,0c-6.191,0-16.169-3.571-22.854-7.112a.611.611,0,0,0-.573,1.079c6.819,3.613,17.038,7.255,23.429,7.255" transform="translate(-197.02 -130.877)"/>
      <path id="Trazado_997743" data-name="Trazado 997743" d="M385.061,310.681c-2.819.995-16.581.995-27.692-5.307-1.823,10.116-8.622,40.294-8.622,40.294-9.451-10.281-22.551-22.384-28.521-27.527s-15.088-10.114-24.042-9.782a105.938,105.938,0,0,1-13.6-.166s7.129,12.6,3.48,47.589-4.807,39.63-4.807,39.63l12.27-1.16s-2.487-7.794,4.975-16.747,9.617-14.593,10.613-21.225c7.958,8.125,29.182,30.676,46.926,30.842s24.044-15.753,26.531-35.652a379.108,379.108,0,0,0,2.487-40.79" transform="translate(-81.512 -124.832)" fill="#70badb"/>
      <path id="Trazado_997744" data-name="Trazado 997744" d="M332.1,372.094c4.976,1.492,26.371,7.845,36.154,7.182s19.9-5.473,27.858-3.483,21.611,12.022,20.643,16c-.745,3.068-4.393,1.41-4.393,1.41a2.76,2.76,0,0,1-3.98,1.326c-1.327,2.82-7.463,1.162-11.11-1.989s-8.124-4.809-13.763-2.818a86.584,86.584,0,0,1-24.705,5.306c-10.281.5-34.493-.633-34.493-.633s-3.65-14.343,7.79-22.3" transform="translate(-165.193 -110.021)" fill="#fff"/>
      <path id="Trazado_997745" data-name="Trazado 997745" d="M405.539,396.7a3.7,3.7,0,0,0,3.178-1.285,4.039,4.039,0,0,0,1.319.236,3.059,3.059,0,0,0,2.7-1.574,5.882,5.882,0,0,0,1.751.3,2.83,2.83,0,0,0,2.954-2.324c1.155-4.754-13.449-14.828-21.09-16.738a17.832,17.832,0,0,0-4.369-.5c-3.847,0-7.931.945-12.257,1.943a73.866,73.866,0,0,1-11.422,2.021c-8.608.594-26.446-4.312-35.935-7.157a.609.609,0,0,0-.524.084c-11.654,8.105-8.073,22.806-8.033,22.953a.607.607,0,0,0,.563.459c.163.009,16.406.76,27.816.76h0c2.723,0,4.987-.043,6.732-.128a86.6,86.6,0,0,0,24.879-5.339c4.8-1.692,9.082-.82,13.161,2.706a14.667,14.667,0,0,0,8.577,3.582m2.933-2.665a.612.612,0,0,0-.552.35,2.478,2.478,0,0,1-2.38,1.094,13.347,13.347,0,0,1-7.778-3.286c-4.415-3.813-9.148-4.773-14.366-2.932a85.488,85.488,0,0,1-24.533,5.272c-1.725.084-3.97.126-6.672.126-10.292,0-24.536-.613-27.291-.738-.47-2.41-2.181-14.165,7.4-21.04,9.645,2.883,27.365,7.714,36.084,7.121A74.94,74.94,0,0,0,380,377.947c4.256-.984,8.275-1.912,11.982-1.912a16.634,16.634,0,0,1,4.073.462c8.005,2,21.03,11.844,20.2,15.264a1.624,1.624,0,0,1-1.766,1.391,4.975,4.975,0,0,1-1.783-.393.615.615,0,0,0-.8.3,2.012,2.012,0,0,1-1.863,1.37,2.978,2.978,0,0,1-1.267-.318.6.6,0,0,0-.3-.076" transform="translate(-165.282 -110.133)"/>
      <path id="Trazado_997746" data-name="Trazado 997746" d="M394.393,375.455c7.3-19.567,13.6-40.79,19.567-50.408s13.1-18.572,26.365-19.9c9.617-.664,18.241-.995,18.241-.995,3.15,8.291,13.266,48.419,7.959,82.08a6.938,6.938,0,0,1,3.98,1.327c-5.306,4.311-8.291,12.1-6.965,22.551-23.048,1.823-47.423-1.823-55.382-3.814s-21.059-11.275-13.763-30.842m46.761,6.134-1.161-13.927L436.18,380.6Z" transform="translate(-302.594 -125.103)" fill="#70badb"/>
      <path id="Trazado_997747" data-name="Trazado 997747" d="M292.875,270.4a.611.611,0,0,0,.038-1.221c-1.139-.072-2.51-.2-4-.341-5.01-.474-11.247-1.059-14.974-.1a.611.611,0,1,0,.306,1.183c3.525-.91,9.64-.331,14.555.132,1.508.142,2.893.272,4.041.345h.039" transform="translate(19.576 -133.081)"/>
      <path id="Trazado_997748" data-name="Trazado 997748" d="M345.417,353.134a.611.611,0,0,0,.6-.491c1.108-5.548-.131-12.661-1.851-17.248a.611.611,0,1,0-1.144.43c1.238,3.3,3.011,10.509,1.8,16.579a.61.61,0,0,0,.479.719.591.591,0,0,0,.121.012" transform="translate(-118.309 -118.256)"/>
      <path id="Trazado_997749" data-name="Trazado 997749" d="M443.374,374.4a.611.611,0,0,0,.156-1.2c-5.363-1.421-38.961-8.011-50.807-9.027a.611.611,0,0,0-.105,1.217c11.8,1.012,45.257,7.576,50.6,8.99a.581.581,0,0,0,.156.021" transform="translate(-275.833 -111.779)"/>
      <path id="Trazado_997750" data-name="Trazado 997750" d="M413.131,362.767a.614.614,0,0,0,.583-.425c1.2-3.75,4.149-15.582,5.566-21.268l.413-1.652a.612.612,0,0,0-1.187-.3l-.413,1.653c-1.414,5.674-4.358,17.479-5.545,21.192a.613.613,0,0,0,.4.769.645.645,0,0,0,.186.028" transform="translate(-276.56 -117.444)"/>
      <path id="Trazado_997751" data-name="Trazado 997751" d="M347.511,393.255l.056,0a.612.612,0,0,0,.554-.664c-.2-2.22-9.131-9.671-17.187-11.973a.611.611,0,1,0-.337,1.174c8.108,2.317,16.178,9.472,16.308,10.909a.611.611,0,0,0,.607.556" transform="translate(-104.321 -108.136)"/>
      <path id="Trazado_997752" data-name="Trazado 997752" d="M344.255,392.381a.611.611,0,0,0,.611-.611c0-3.187-6.692-9.909-17.176-13.187a.611.611,0,1,0-.365,1.167c10.767,3.364,16.32,9.951,16.32,12.02a.611.611,0,0,0,.611.611" transform="translate(-97.084 -108.588)"/>
      <path id="Trazado_997753" data-name="Trazado 997753" d="M218.761,401.932h52.365L292.2,340.388a15.475,15.475,0,0,1,13.656-9.759h89.423c5.671,0,8.808,4.392,6.971,9.759l-21.706,63.4c-2.376,6.155-2.653,11.22-8.824,11.22H218.761a6.538,6.538,0,1,1,0-13.075" transform="translate(-14.862 -119.225)" fill="#f27230"/>
      <path id="Trazado_997754" data-name="Trazado 997754" d="M231.18,390.63h104a.611.611,0,0,0,0-1.222h-104a.611.611,0,1,0,0,1.222" transform="translate(29.7 -106.177)"/>
      <path id="Trazado_997755" data-name="Trazado 997755" d="M261.684,376.135c4.519,0,9.49-4.483,11.081-10,.912-3.155.582-6.1-.906-8.079a5.667,5.667,0,0,0-4.656-2.253c-4.521,0-9.49,4.485-11.077,10-.914,3.153-.583,6.1.907,8.079a5.663,5.663,0,0,0,4.651,2.253m5.52-19.106a4.415,4.415,0,0,1,3.678,1.765c1.256,1.67,1.514,4.223.709,7.007-1.451,5.025-5.895,9.112-9.907,9.112a4.409,4.409,0,0,1-3.675-1.766c-1.256-1.672-1.515-4.224-.709-7.006,1.447-5.025,5.889-9.112,9.9-9.112" transform="translate(61.611 -113.638)"/>
    </g>
    <g id="Grupo_1184063" data-name="Grupo 1184063" transform="translate(685.127 3332.281)">
      <path id="Trazado_997715" data-name="Trazado 997715" d="M307.275,121.1c3.757,0,5.3-4.711,7.094-10.166q.211-.645.427-1.3l38.111.572a17.208,17.208,0,0,0,17.011-16.343l1.429-24.354a17.688,17.688,0,0,0-4.65-13.163,15.953,15.953,0,0,0-11.717-5.06H301.971a15.647,15.647,0,0,0-11.341,4.86A17.79,17.79,0,0,0,285.8,69.119l.863,23.839a17.065,17.065,0,0,0,15.055,16.415c.859,5.971,2.118,11.413,5.229,11.719.123.009.229.014.333.014m7.037-12.822a.676.676,0,0,0-.641.461c-.2.594-.395,1.187-.587,1.773-1.67,5.083-3.137,9.452-6.026,9.228-2.571-.253-3.669-8.131-4.084-11.1a.674.674,0,0,0-.628-.581A15.669,15.669,0,0,1,288.01,92.909l-.863-23.84A16.426,16.426,0,0,1,291.6,57.092a14.308,14.308,0,0,1,10.368-4.446h53.008a14.616,14.616,0,0,1,10.734,4.635A16.339,16.339,0,0,1,370,69.437l-1.429,24.354a16.05,16.05,0,0,1-15.662,15.071h-.23l-38.354-.577Z" transform="translate(-285.783 -51.294)"/>
      <g id="Grupo_1184062" data-name="Grupo 1184062" transform="translate(0.676 0.676)">
        <path id="Trazado_997714" data-name="Trazado 997714" d="M301.794,51.794H354.8c9.216,0,16.255,7.925,15.693,17.507l-1.429,24.354a16.622,16.622,0,0,1-16.577,15.7l-38.354-.577c-2,5.951-3.467,11.742-7.3,11.46-2.746-.27-3.922-6.077-4.7-11.678a16.324,16.324,0,0,1-14.971-15.808l-.863-23.839c-.339-9.376,6.581-17.125,15.5-17.125" transform="translate(-286.283 -51.794)" fill="#fff"/>
        <path id="Trazado_997716" data-name="Trazado 997716" d="M297.775,75.016a5.2,5.2,0,1,0,5.2-5.322,5.261,5.261,0,0,0-5.2,5.322" transform="translate(-239.465 -45.489)" fill="#70badb"/>
        <path id="Trazado_997717" data-name="Trazado 997717" d="M312.968,75.016a5.2,5.2,0,1,0,5.2-5.322,5.261,5.261,0,0,0-5.2,5.322" transform="translate(-275.204 -45.489)" fill="#70badb"/>
        <path id="Trazado_997718" data-name="Trazado 997718" d="M328.16,75.016a5.2,5.2,0,1,0,5.2-5.322,5.261,5.261,0,0,0-5.2,5.322" transform="translate(-310.939 -45.489)" fill="#70badb"/>
      </g>
    </g>
    <rect id="Rectángulo_454841" data-name="Rectángulo 454841" width="159" height="41" rx="20.5" transform="translate(516.127 3608.953)" fill="#ffc025"/>
    <path id="Trazado_999046" data-name="Trazado 999046" d="M47.258,12.07h-4.5v3.047h5.281V17H40.414V5.625h7.609v1.9H42.758v2.711h4.5Zm4.125-3.523.07.945a2.971,2.971,0,0,1,2.43-1.1A2.255,2.255,0,0,1,56.125,9.68a2.9,2.9,0,0,1,2.539-1.289,2.521,2.521,0,0,1,2.047.8,3.681,3.681,0,0,1,.672,2.41V17H59.117V11.609a1.61,1.61,0,0,0-.281-1.051,1.246,1.246,0,0,0-.992-.332,1.409,1.409,0,0,0-1.406.969l.008,5.8H54.188V11.617a1.59,1.59,0,0,0-.289-1.062,1.259,1.259,0,0,0-.984-.328,1.463,1.463,0,0,0-1.391.8V17H49.266V8.547ZM65.5,17H63.234V8.547H65.5ZM63.1,6.359a1.112,1.112,0,0,1,.34-.836,1.465,1.465,0,0,1,1.848,0,1.105,1.105,0,0,1,.344.836,1.108,1.108,0,0,1-.348.844,1.448,1.448,0,0,1-1.836,0A1.108,1.108,0,0,1,63.1,6.359Zm8.836,8.3a.727.727,0,0,0-.41-.652,4.659,4.659,0,0,0-1.316-.426Q67.2,12.953,67.2,11.023a2.323,2.323,0,0,1,.934-1.879,3.766,3.766,0,0,1,2.441-.754,4.053,4.053,0,0,1,2.574.758,2.388,2.388,0,0,1,.965,1.969H71.852a1.092,1.092,0,0,0-.312-.8A1.322,1.322,0,0,0,70.563,10a1.351,1.351,0,0,0-.883.258.814.814,0,0,0-.312.656.7.7,0,0,0,.355.605,3.657,3.657,0,0,0,1.2.4,9.8,9.8,0,0,1,1.422.379,2.336,2.336,0,0,1,1.789,2.273,2.2,2.2,0,0,1-.992,1.871,4.28,4.28,0,0,1-2.562.715,4.47,4.47,0,0,1-1.887-.379A3.166,3.166,0,0,1,67.4,15.738a2.414,2.414,0,0,1-.469-1.426H69.07a1.179,1.179,0,0,0,.445.922,1.766,1.766,0,0,0,1.109.32,1.635,1.635,0,0,0,.98-.246A.766.766,0,0,0,71.938,14.664Zm3.3-1.969a5.013,5.013,0,0,1,.484-2.242A3.546,3.546,0,0,1,77.113,8.93a4.069,4.069,0,0,1,2.113-.539A3.849,3.849,0,0,1,82.02,9.438a4.2,4.2,0,0,1,1.207,2.844l.016.578a4.418,4.418,0,0,1-1.086,3.121,4.209,4.209,0,0,1-5.832,0,4.5,4.5,0,0,1-1.09-3.187Zm2.258.16a3.16,3.16,0,0,0,.453,1.843,1.628,1.628,0,0,0,2.578.008,3.457,3.457,0,0,0,.461-2.015,3.128,3.128,0,0,0-.461-1.831,1.5,1.5,0,0,0-1.3-.649,1.474,1.474,0,0,0-1.281.646A3.516,3.516,0,0,0,77.492,12.856Zm11.891-2.192a6.134,6.134,0,0,0-.812-.062,1.654,1.654,0,0,0-1.68.867V17H84.633V8.547h2.133l.063,1.008a2.092,2.092,0,0,1,1.883-1.164,2.366,2.366,0,0,1,.7.1Z" transform="translate(535.127 3619.453)" fill="#12263f"/>
    <rect id="Rectángulo_455301" data-name="Rectángulo 455301" width="159" height="41" rx="20.5" transform="translate(993.127 3608.953)" fill="#ffc025"/>
    <path id="Trazado_999045" data-name="Trazado 999045" d="M37.27,12.836H35.4V17H33.059V5.625h4.227a4.778,4.778,0,0,1,3.109.9,3.1,3.1,0,0,1,1.094,2.539,3.5,3.5,0,0,1-.5,1.941,3.437,3.437,0,0,1-1.527,1.238l2.461,4.648V17H39.4Zm-1.867-1.9h1.891a1.936,1.936,0,0,0,1.367-.449,1.606,1.606,0,0,0,.484-1.238,1.719,1.719,0,0,0-.457-1.266,1.9,1.9,0,0,0-1.4-.461H35.4Zm11.609,6.219a4.15,4.15,0,0,1-3.027-1.141,4.054,4.054,0,0,1-1.168-3.039v-.219a5.106,5.106,0,0,1,.492-2.277A3.612,3.612,0,0,1,44.7,8.934a3.914,3.914,0,0,1,2.059-.543,3.508,3.508,0,0,1,2.73,1.094,4.444,4.444,0,0,1,1,3.1v.922H45.105a2.1,2.1,0,0,0,.66,1.328,2,2,0,0,0,1.395.5,2.437,2.437,0,0,0,2.039-.945l1.109,1.242a3.389,3.389,0,0,1-1.375,1.121A4.511,4.511,0,0,1,47.012,17.156Zm-.258-6.945a1.411,1.411,0,0,0-1.09.455,2.357,2.357,0,0,0-.535,1.3H48.27v-.181a1.681,1.681,0,0,0-.406-1.165A1.456,1.456,0,0,0,46.754,10.211Zm8.531,5.125a1.481,1.481,0,0,0,1.016-.344,1.2,1.2,0,0,0,.406-.914h2.117a2.9,2.9,0,0,1-.469,1.574,3.093,3.093,0,0,1-1.262,1.109,3.949,3.949,0,0,1-1.77.395A3.67,3.67,0,0,1,52.465,16a4.56,4.56,0,0,1-1.047-3.184v-.148a4.508,4.508,0,0,1,1.039-3.117,3.627,3.627,0,0,1,2.852-1.164,3.555,3.555,0,0,1,2.543.9,3.2,3.2,0,0,1,.973,2.4H56.707a1.551,1.551,0,0,0-.406-1.072,1.51,1.51,0,0,0-2.223.163,3.333,3.333,0,0,0-.4,1.866v.235a3.375,3.375,0,0,0,.4,1.878A1.377,1.377,0,0,0,55.285,15.336ZM64,17.156a4.15,4.15,0,0,1-3.027-1.141,4.054,4.054,0,0,1-1.168-3.039v-.219A5.106,5.106,0,0,1,60.3,10.48,3.612,3.612,0,0,1,61.7,8.934a3.914,3.914,0,0,1,2.059-.543,3.508,3.508,0,0,1,2.73,1.094,4.444,4.444,0,0,1,1,3.1v.922H62.1a2.1,2.1,0,0,0,.66,1.328,2,2,0,0,0,1.395.5,2.437,2.437,0,0,0,2.039-.945L67.3,15.633a3.389,3.389,0,0,1-1.375,1.121A4.511,4.511,0,0,1,64,17.156Zm-.258-6.945a1.411,1.411,0,0,0-1.09.455,2.357,2.357,0,0,0-.535,1.3h3.141v-.181a1.681,1.681,0,0,0-.406-1.165A1.456,1.456,0,0,0,63.746,10.211Zm12.625,2.641a5.07,5.07,0,0,1-.887,3.129,2.843,2.843,0,0,1-2.395,1.176,2.633,2.633,0,0,1-2.07-.891V20.25H68.762V8.547h2.094l.078.828a2.654,2.654,0,0,1,2.141-.984A2.862,2.862,0,0,1,75.5,9.547a5.207,5.207,0,0,1,.867,3.188Zm-2.258-.164a3.327,3.327,0,0,0-.418-1.82,1.361,1.361,0,0,0-1.215-.641,1.478,1.478,0,0,0-1.461.813V14.5a1.5,1.5,0,0,0,1.477.836Q74.113,15.336,74.113,12.688Zm6.359-6.219V8.547h1.445V10.2H80.473v4.219a1.007,1.007,0,0,0,.18.672.9.9,0,0,0,.688.2A3.6,3.6,0,0,0,82,15.242v1.711a4.648,4.648,0,0,1-1.367.2,2.156,2.156,0,0,1-2.422-2.4V10.2H76.98V8.547h1.234V6.469ZM82.59,12.7a5.013,5.013,0,0,1,.484-2.242A3.546,3.546,0,0,1,84.469,8.93a4.069,4.069,0,0,1,2.113-.539,3.849,3.849,0,0,1,2.793,1.047,4.2,4.2,0,0,1,1.207,2.844l.016.578a4.418,4.418,0,0,1-1.086,3.121,4.209,4.209,0,0,1-5.832,0A4.5,4.5,0,0,1,82.59,12.8Zm2.258.16A3.16,3.16,0,0,0,85.3,14.7a1.628,1.628,0,0,0,2.578.008,3.457,3.457,0,0,0,.461-2.015,3.128,3.128,0,0,0-.461-1.831,1.5,1.5,0,0,0-1.3-.649,1.474,1.474,0,0,0-1.281.646A3.516,3.516,0,0,0,84.848,12.856Zm11.891-2.192a6.134,6.134,0,0,0-.812-.062,1.654,1.654,0,0,0-1.68.867V17H91.988V8.547h2.133l.063,1.008a2.092,2.092,0,0,1,1.883-1.164,2.366,2.366,0,0,1,.7.1Z" transform="translate(1012.127 3619.453)" fill="#12263f"/>
    <rect id="Rectángulo_455302" data-name="Rectángulo 455302" width="159" height="41" rx="20.5" transform="translate(759.195 3429)" fill="#ffc025"/>
    <path id="Trazado_999044" data-name="Trazado 999044" d="M37.961,5.625l2.922,8.25,2.906-8.25h3.078V17H44.516V13.891l.234-5.367L41.68,17H40.07L37.008,8.531l.234,5.359V17H34.9V5.625Zm14.7,11.531a4.15,4.15,0,0,1-3.027-1.141,4.054,4.054,0,0,1-1.168-3.039v-.219a5.106,5.106,0,0,1,.492-2.277,3.612,3.612,0,0,1,1.395-1.547,3.914,3.914,0,0,1,2.059-.543,3.508,3.508,0,0,1,2.73,1.094,4.444,4.444,0,0,1,1,3.1v.922H50.75a2.1,2.1,0,0,0,.66,1.328,2,2,0,0,0,1.395.5,2.437,2.437,0,0,0,2.039-.945l1.109,1.242a3.389,3.389,0,0,1-1.375,1.121A4.511,4.511,0,0,1,52.656,17.156ZM52.4,10.211a1.411,1.411,0,0,0-1.09.455,2.357,2.357,0,0,0-.535,1.3h3.141v-.181a1.681,1.681,0,0,0-.406-1.165A1.456,1.456,0,0,0,52.4,10.211Zm7.094-1.664.07.977a2.951,2.951,0,0,1,2.43-1.133,2.453,2.453,0,0,1,2,.789,3.682,3.682,0,0,1,.672,2.359V17H62.406V11.594a1.465,1.465,0,0,0-.312-1.043,1.4,1.4,0,0,0-1.039-.324,1.553,1.553,0,0,0-1.43.813V17H57.367V8.547Zm11.461,6.117a.727.727,0,0,0-.41-.652,4.659,4.659,0,0,0-1.316-.426q-3.016-.633-3.016-2.562a2.323,2.323,0,0,1,.934-1.879,3.766,3.766,0,0,1,2.441-.754,4.053,4.053,0,0,1,2.574.758,2.388,2.388,0,0,1,.965,1.969H70.867a1.092,1.092,0,0,0-.312-.8A1.322,1.322,0,0,0,69.578,10a1.351,1.351,0,0,0-.883.258.814.814,0,0,0-.312.656.7.7,0,0,0,.355.605,3.657,3.657,0,0,0,1.2.4,9.8,9.8,0,0,1,1.422.379,2.336,2.336,0,0,1,1.789,2.273,2.2,2.2,0,0,1-.992,1.871,4.28,4.28,0,0,1-2.562.715,4.47,4.47,0,0,1-1.887-.379,3.166,3.166,0,0,1-1.293-1.039,2.414,2.414,0,0,1-.469-1.426h2.141a1.179,1.179,0,0,0,.445.922,1.766,1.766,0,0,0,1.109.32,1.635,1.635,0,0,0,.98-.246A.766.766,0,0,0,70.953,14.664ZM79.5,17a2.507,2.507,0,0,1-.227-.758,2.732,2.732,0,0,1-2.133.914,3,3,0,0,1-2.059-.719,2.312,2.312,0,0,1-.816-1.812,2.389,2.389,0,0,1,1-2.062,4.915,4.915,0,0,1,2.879-.727H79.18v-.484a1.393,1.393,0,0,0-.3-.937,1.183,1.183,0,0,0-.949-.352,1.345,1.345,0,0,0-.895.273.929.929,0,0,0-.324.75H74.453a2.268,2.268,0,0,1,.453-1.359,3,3,0,0,1,1.281-.98,4.669,4.669,0,0,1,1.859-.355,3.689,3.689,0,0,1,2.48.785,2.747,2.747,0,0,1,.918,2.207v3.664a4.041,4.041,0,0,0,.336,1.82V17Zm-1.867-1.57a1.945,1.945,0,0,0,.922-.223,1.462,1.462,0,0,0,.625-.6V13.156h-.844q-1.7,0-1.8,1.172l-.008.133a.9.9,0,0,0,.3.7A1.153,1.153,0,0,0,77.633,15.43ZM85.57,8.547v8.914a3.024,3.024,0,0,1-.742,2.176,2.821,2.821,0,0,1-2.141.777,4.591,4.591,0,0,1-1.117-.133V18.492a4.238,4.238,0,0,0,.711.07q1.023,0,1.023-1.086V8.547ZM83.125,6.359a1.112,1.112,0,0,1,.34-.836,1.47,1.47,0,0,1,1.852,0,1.112,1.112,0,0,1,.34.836,1.108,1.108,0,0,1-.348.844,1.448,1.448,0,0,1-1.836,0A1.108,1.108,0,0,1,83.125,6.359Zm8.1,10.8A4.15,4.15,0,0,1,88.2,16.016a4.054,4.054,0,0,1-1.168-3.039v-.219a5.106,5.106,0,0,1,.492-2.277,3.612,3.612,0,0,1,1.395-1.547,3.914,3.914,0,0,1,2.059-.543,3.508,3.508,0,0,1,2.73,1.094,4.444,4.444,0,0,1,1,3.1v.922H89.32a2.1,2.1,0,0,0,.66,1.328,2,2,0,0,0,1.395.5,2.437,2.437,0,0,0,2.039-.945l1.109,1.242a3.389,3.389,0,0,1-1.375,1.121A4.511,4.511,0,0,1,91.227,17.156Zm-.258-6.945a1.411,1.411,0,0,0-1.09.455,2.357,2.357,0,0,0-.535,1.3h3.141v-.181a1.681,1.681,0,0,0-.406-1.165A1.456,1.456,0,0,0,90.969,10.211Z" transform="translate(778.195 3439.5)" fill="#12263f"/>
    <rect id="Rectángulo_455304" data-name="Rectángulo 455304" width="179" height="41" rx="20.5" transform="translate(917.995 3268.063)" fill="#ffc025"/>
    <path id="Trazado_999043" data-name="Trazado 999043" d="M16.01,12.836H14.143V17H11.8V5.625h4.227a4.778,4.778,0,0,1,3.109.9,3.1,3.1,0,0,1,1.094,2.539,3.5,3.5,0,0,1-.5,1.941A3.437,3.437,0,0,1,18.2,12.242l2.461,4.648V17H18.143Zm-1.867-1.9h1.891a1.936,1.936,0,0,0,1.367-.449,1.606,1.606,0,0,0,.484-1.238,1.719,1.719,0,0,0-.457-1.266,1.9,1.9,0,0,0-1.4-.461H14.143Zm11.609,6.219a4.15,4.15,0,0,1-3.027-1.141,4.054,4.054,0,0,1-1.168-3.039v-.219a5.106,5.106,0,0,1,.492-2.277,3.612,3.612,0,0,1,1.395-1.547A3.914,3.914,0,0,1,25.5,8.391a3.508,3.508,0,0,1,2.73,1.094,4.444,4.444,0,0,1,1,3.1v.922H23.846a2.1,2.1,0,0,0,.66,1.328,2,2,0,0,0,1.395.5,2.437,2.437,0,0,0,2.039-.945l1.109,1.242a3.389,3.389,0,0,1-1.375,1.121A4.511,4.511,0,0,1,25.753,17.156Zm-.258-6.945a1.411,1.411,0,0,0-1.09.455,2.357,2.357,0,0,0-.535,1.3H27.01v-.181a1.681,1.681,0,0,0-.406-1.165A1.456,1.456,0,0,0,25.495,10.211Zm7.719-3.742V8.547h1.445V10.2H33.214v4.219a1.007,1.007,0,0,0,.18.672.9.9,0,0,0,.688.2,3.6,3.6,0,0,0,.664-.055v1.711a4.648,4.648,0,0,1-1.367.2,2.156,2.156,0,0,1-2.422-2.4V10.2H29.721V8.547h1.234V6.469Zm7.453,4.2a6.134,6.134,0,0,0-.812-.062,1.654,1.654,0,0,0-1.68.867V17H35.917V8.547h2.133l.063,1.008a2.092,2.092,0,0,1,1.883-1.164,2.366,2.366,0,0,1,.7.1ZM41.12,12.7a5.013,5.013,0,0,1,.484-2.242A3.546,3.546,0,0,1,43,8.93a4.069,4.069,0,0,1,2.113-.539A3.849,3.849,0,0,1,47.9,9.438a4.2,4.2,0,0,1,1.207,2.844l.016.578a4.418,4.418,0,0,1-1.086,3.121,4.209,4.209,0,0,1-5.832,0A4.5,4.5,0,0,1,41.12,12.8Zm2.258.16a3.16,3.16,0,0,0,.453,1.843,1.628,1.628,0,0,0,2.578.008,3.457,3.457,0,0,0,.461-2.015,3.128,3.128,0,0,0-.461-1.831,1.5,1.5,0,0,0-1.3-.649,1.474,1.474,0,0,0-1.281.646A3.516,3.516,0,0,0,43.378,12.856ZM55.417,17a2.507,2.507,0,0,1-.227-.758,2.732,2.732,0,0,1-2.133.914A3,3,0,0,1,51,16.438a2.312,2.312,0,0,1-.816-1.812,2.389,2.389,0,0,1,1-2.062,4.915,4.915,0,0,1,2.879-.727H55.1v-.484a1.393,1.393,0,0,0-.3-.937,1.183,1.183,0,0,0-.949-.352,1.345,1.345,0,0,0-.895.273.929.929,0,0,0-.324.75H50.37a2.268,2.268,0,0,1,.453-1.359,3,3,0,0,1,1.281-.98,4.669,4.669,0,0,1,1.859-.355,3.689,3.689,0,0,1,2.48.785,2.747,2.747,0,0,1,.918,2.207v3.664a4.041,4.041,0,0,0,.336,1.82V17Zm-1.867-1.57a1.945,1.945,0,0,0,.922-.223,1.462,1.462,0,0,0,.625-.6V13.156h-.844q-1.7,0-1.8,1.172l-.008.133a.9.9,0,0,0,.3.7A1.153,1.153,0,0,0,53.549,15.43ZM61.479,17H59.214V5h2.266Zm4.242,0H63.456V8.547h2.266Zm-2.4-10.641a1.112,1.112,0,0,1,.34-.836,1.465,1.465,0,0,1,1.848,0,1.105,1.105,0,0,1,.344.836,1.108,1.108,0,0,1-.348.844,1.448,1.448,0,0,1-1.836,0A1.108,1.108,0,0,1,63.323,6.359ZM69.7,8.547l.07.945a2.971,2.971,0,0,1,2.43-1.1A2.255,2.255,0,0,1,74.44,9.68a2.9,2.9,0,0,1,2.539-1.289,2.521,2.521,0,0,1,2.047.8A3.681,3.681,0,0,1,79.7,11.6V17H77.432V11.609a1.61,1.61,0,0,0-.281-1.051,1.246,1.246,0,0,0-.992-.332,1.409,1.409,0,0,0-1.406.969L74.76,17H72.5V11.617a1.59,1.59,0,0,0-.289-1.062,1.259,1.259,0,0,0-.984-.328,1.463,1.463,0,0,0-1.391.8V17H67.581V8.547Zm15.625,8.609A4.15,4.15,0,0,1,82.3,16.016a4.054,4.054,0,0,1-1.168-3.039v-.219a5.106,5.106,0,0,1,.492-2.277,3.612,3.612,0,0,1,1.395-1.547,3.914,3.914,0,0,1,2.059-.543A3.508,3.508,0,0,1,87.8,9.484a4.444,4.444,0,0,1,1,3.1v.922H83.417a2.1,2.1,0,0,0,.66,1.328,2,2,0,0,0,1.395.5,2.437,2.437,0,0,0,2.039-.945l1.109,1.242a3.389,3.389,0,0,1-1.375,1.121A4.511,4.511,0,0,1,85.323,17.156Zm-.258-6.945a1.411,1.411,0,0,0-1.09.455,2.357,2.357,0,0,0-.535,1.3h3.141v-.181a1.681,1.681,0,0,0-.406-1.165A1.456,1.456,0,0,0,85.065,10.211Zm7.094-1.664.07.977a2.951,2.951,0,0,1,2.43-1.133,2.453,2.453,0,0,1,2,.789,3.682,3.682,0,0,1,.672,2.359V17H95.073V11.594a1.465,1.465,0,0,0-.312-1.043,1.4,1.4,0,0,0-1.039-.324,1.553,1.553,0,0,0-1.43.813V17H90.034V8.547Zm9.586-2.078V8.547h1.445V10.2h-1.445v4.219a1.007,1.007,0,0,0,.18.672.9.9,0,0,0,.688.2,3.6,3.6,0,0,0,.664-.055v1.711a4.648,4.648,0,0,1-1.367.2,2.156,2.156,0,0,1-2.422-2.4V10.2H98.253V8.547h1.234V6.469ZM109.346,17a2.507,2.507,0,0,1-.227-.758,2.732,2.732,0,0,1-2.133.914,3,3,0,0,1-2.059-.719,2.312,2.312,0,0,1-.816-1.812,2.389,2.389,0,0,1,1-2.062,4.915,4.915,0,0,1,2.879-.727h1.039v-.484a1.393,1.393,0,0,0-.3-.937,1.183,1.183,0,0,0-.949-.352,1.345,1.345,0,0,0-.895.273.929.929,0,0,0-.324.75H104.3a2.268,2.268,0,0,1,.453-1.359,3,3,0,0,1,1.281-.98,4.669,4.669,0,0,1,1.859-.355,3.689,3.689,0,0,1,2.48.785,2.747,2.747,0,0,1,.918,2.207v3.664a4.041,4.041,0,0,0,.336,1.82V17Zm-1.867-1.57a1.945,1.945,0,0,0,.922-.223,1.462,1.462,0,0,0,.625-.6V13.156h-.844q-1.7,0-1.8,1.172l-.008.133a.9.9,0,0,0,.3.7A1.153,1.153,0,0,0,107.479,15.43Zm9.063-.094a1.481,1.481,0,0,0,1.016-.344,1.2,1.2,0,0,0,.406-.914h2.117a2.9,2.9,0,0,1-.469,1.574,3.093,3.093,0,0,1-1.262,1.109,3.949,3.949,0,0,1-1.77.395A3.67,3.67,0,0,1,113.721,16a4.56,4.56,0,0,1-1.047-3.184v-.148a4.508,4.508,0,0,1,1.039-3.117,3.627,3.627,0,0,1,2.852-1.164,3.555,3.555,0,0,1,2.543.9,3.2,3.2,0,0,1,.973,2.4h-2.117a1.551,1.551,0,0,0-.406-1.072,1.51,1.51,0,0,0-2.223.163,3.333,3.333,0,0,0-.4,1.866v.235a3.375,3.375,0,0,0,.4,1.878A1.377,1.377,0,0,0,116.542,15.336ZM123.753,17h-2.266V8.547h2.266Zm-2.4-10.641a1.112,1.112,0,0,1,.34-.836,1.465,1.465,0,0,1,1.848,0,1.105,1.105,0,0,1,.344.836,1.108,1.108,0,0,1-.348.844,1.448,1.448,0,0,1-1.836,0A1.108,1.108,0,0,1,121.354,6.359ZM125.26,12.7a5.013,5.013,0,0,1,.484-2.242,3.546,3.546,0,0,1,1.395-1.523,4.069,4.069,0,0,1,2.113-.539,3.849,3.849,0,0,1,2.793,1.047,4.2,4.2,0,0,1,1.207,2.844l.016.578a4.418,4.418,0,0,1-1.086,3.121,4.209,4.209,0,0,1-5.832,0,4.5,4.5,0,0,1-1.09-3.187Zm2.258.16a3.16,3.16,0,0,0,.453,1.843,1.628,1.628,0,0,0,2.578.008,3.457,3.457,0,0,0,.461-2.015,3.128,3.128,0,0,0-.461-1.831,1.5,1.5,0,0,0-1.3-.649,1.474,1.474,0,0,0-1.281.646A3.516,3.516,0,0,0,127.518,12.856ZM129.7,5h2.461l-2.164,2.422h-1.836Zm7.039,3.547.07.977a2.951,2.951,0,0,1,2.43-1.133,2.453,2.453,0,0,1,2,.789,3.682,3.682,0,0,1,.672,2.359V17h-2.258V11.594a1.465,1.465,0,0,0-.312-1.043,1.4,1.4,0,0,0-1.039-.324,1.553,1.553,0,0,0-1.43.813V17h-2.258V8.547Z" transform="translate(936.495 3278.563)" fill="#12263f"/>
    <rect id="Rectángulo_455303" data-name="Rectángulo 455303" width="159" height="41" rx="20.5" transform="translate(575 3267)" fill="#ffc025"/>
    <path id="Trazado_999042" data-name="Trazado 999042" d="M48.992,12.836H47.125V17H44.781V5.625h4.227a4.778,4.778,0,0,1,3.109.9,3.1,3.1,0,0,1,1.094,2.539,3.5,3.5,0,0,1-.5,1.941,3.437,3.437,0,0,1-1.527,1.238l2.461,4.648V17H51.125Zm-1.867-1.9h1.891a1.936,1.936,0,0,0,1.367-.449,1.606,1.606,0,0,0,.484-1.238,1.719,1.719,0,0,0-.457-1.266,1.9,1.9,0,0,0-1.4-.461H47.125Zm12.781,5.2a2.831,2.831,0,0,1-2.312,1.016,2.67,2.67,0,0,1-2.074-.781,3.335,3.335,0,0,1-.73-2.289V8.547h2.258v5.467q0,1.322,1.2,1.322a1.63,1.63,0,0,0,1.578-.8V8.547h2.266V17H59.969ZM66.18,17H63.914V8.547H66.18Zm-2.4-10.641a1.112,1.112,0,0,1,.34-.836,1.465,1.465,0,0,1,1.848,0,1.105,1.105,0,0,1,.344.836,1.108,1.108,0,0,1-.348.844,1.448,1.448,0,0,1-1.836,0A1.108,1.108,0,0,1,63.781,6.359Zm3.906,6.352a5.094,5.094,0,0,1,.887-3.148A2.877,2.877,0,0,1,71,8.391a2.589,2.589,0,0,1,2.039.922V5H75.3V17H73.266l-.109-.9a2.657,2.657,0,0,1-2.172,1.055A2.869,2.869,0,0,1,68.59,15.98,5.258,5.258,0,0,1,67.688,12.711Zm2.258.168a3.337,3.337,0,0,0,.414,1.823,1.349,1.349,0,0,0,1.2.634,1.511,1.511,0,0,0,1.477-.884V11.111a1.489,1.489,0,0,0-1.461-.884Q69.945,10.227,69.945,12.879ZM76.7,12.7a5.013,5.013,0,0,1,.484-2.242A3.546,3.546,0,0,1,78.582,8.93,4.069,4.069,0,0,1,80.7,8.391a3.849,3.849,0,0,1,2.793,1.047A4.2,4.2,0,0,1,84.7,12.281l.016.578a4.418,4.418,0,0,1-1.086,3.121,4.209,4.209,0,0,1-5.832,0A4.5,4.5,0,0,1,76.7,12.8Zm2.258.16a3.16,3.16,0,0,0,.453,1.843,1.628,1.628,0,0,0,2.578.008,3.457,3.457,0,0,0,.461-2.015,3.128,3.128,0,0,0-.461-1.831,1.5,1.5,0,0,0-1.3-.649,1.474,1.474,0,0,0-1.281.646A3.516,3.516,0,0,0,78.961,12.856Z" transform="translate(594 3277.5)" fill="#12263f"/>
  </g>
</svg>
