<svg id="Grupo_1183528" data-name="Grupo 1183528" xmlns="http://www.w3.org/2000/svg" xmlns:xlink="http://www.w3.org/1999/xlink" width="1240" height="470" viewBox="0 0 1240 470">
  <defs>
    <clipPath id="clip-path">
      <rect id="Rectángulo_453454" data-name="Rectángulo 453454" width="1240" height="470" rx="20" fill="#fff3d3"/>
    </clipPath>
    <clipPath id="clip-path-2">
      <rect id="Rectángulo_454209" data-name="Rectángulo 454209" width="177.497" height="157.992" fill="none"/>
    </clipPath>
    <clipPath id="clip-path-3">
      <rect id="Rectángulo_454210" data-name="Rectángulo 454210" width="634.262" height="175.028" fill="#ffc025"/>
    </clipPath>
    <clipPath id="clip-path-4">
      <rect id="Rectángulo_454203" data-name="Rectángulo 454203" width="39.352" height="39.352" fill="#ffc025"/>
    </clipPath>
    <clipPath id="clip-path-5">
      <rect id="Rectángulo_454212" data-name="Rectángulo 454212" width="142.278" height="39.857" fill="#fff"/>
    </clipPath>
  </defs>
  <g id="Grupo_1175007" data-name="Grupo 1175007">
    <rect id="Rectángulo_409756" data-name="Rectángulo 409756" width="1240" height="470" rx="20" fill="#fff3d3"/>
    <g id="Grupo_1098905" data-name="Grupo 1098905" clip-path="url(#clip-path)">
      <g id="Grupo_1176523" data-name="Grupo 1176523" transform="translate(692.238 351)">
        <g id="Grupo_1176435" data-name="Grupo 1176435" transform="translate(387.753)" opacity="0.5">
          <g id="Grupo_1176418" data-name="Grupo 1176418" transform="translate(0)" clip-path="url(#clip-path-2)">
            <path id="Trazado_988411" data-name="Trazado 988411" d="M110.432,134.131A67.065,67.065,0,1,1,177.5,67.065a67.142,67.142,0,0,1-67.065,67.066m0-114.131A47.065,47.065,0,1,0,157.5,67.065,47.118,47.118,0,0,0,110.432,20" transform="translate(0)" fill="#30df8e"/>
            <path id="Trazado_988412" data-name="Trazado 988412" d="M75.69,120.147A37.845,37.845,0,1,1,37.845,82.3,37.845,37.845,0,0,1,75.69,120.147" transform="translate(0 0)" fill="#fa9757"/>
          </g>
        </g>
        <g id="Grupo_1176436" data-name="Grupo 1176436" transform="translate(0 49)" opacity="0.5">
          <g id="Grupo_1176420" data-name="Grupo 1176420" clip-path="url(#clip-path-3)">
            <path id="Trazado_988413" data-name="Trazado 988413" d="M621.541,129.271a296.852,296.852,0,0,1-40.766,9.708q-2.353.381-4.713.721c-.455.065-3.114.479-.464.072-.773.119-1.554.2-2.33.3q-4.988.61-10,1.031-9.357.781-18.756.871-9.091.083-18.172-.5-4.267-.274-8.524-.7-2.11-.21-4.216-.454-1.048-.123-2.1-.253-.7-.087-1.393-.178,2.25.306.575.077a272.5,272.5,0,0,1-33.66-6.98,305.773,305.773,0,0,1-31.819-10.729q-1.857-.74-3.706-1.5c-.616-.253-1.23-.51-1.845-.765-2.169-.9,2.093.9-.062-.026-2.642-1.139-5.278-2.289-7.9-3.478q-7.529-3.418-14.915-7.14C397.33,99.571,378.614,88.4,360.177,76.838,342.4,65.685,324.869,54.132,306.972,43.167c-20.915-12.813-42.292-24.609-65.7-32.289C213.929,1.907,184.262-2.166,155.58,1.141A172.879,172.879,0,0,0,82.368,27C41.047,53.319,9.021,97.006,1.8,146.042A164.92,164.92,0,0,0,0,165.02c-.163,5.233,4.715,10.236,10,10a10.2,10.2,0,0,0,10-10c.088-2.856.251-5.708.509-8.554.129-1.418.3-2.83.451-4.245.269-2.469-.353,2.3.015-.16.14-.936.276-1.872.428-2.807A145.136,145.136,0,0,1,25.317,132q1.188-4.077,2.6-8.082.708-2,1.472-3.984.381-.992.777-1.977c.212-.529,1.274-3.566.347-.883,1.819-5.266,4.809-10.426,7.521-15.269a167.059,167.059,0,0,1,9.514-15.033q1.239-1.746,2.522-3.46c.426-.57.842-1.157,1.293-1.707-1.677,2.046-.107.153.2-.228q2.891-3.639,5.975-7.119,5.7-6.432,12.013-12.285Q72.706,59.045,76,56.276q1.647-1.383,3.328-2.727c.557-.445,1.107-.922,1.689-1.333-2.254,1.589.4-.294.827-.611A170.753,170.753,0,0,1,112.57,33.294c1.084-.5,2.178-.974,3.267-1.462,2.259-1.011-2.046.822.247-.109.664-.269,1.325-.543,1.99-.808q4.321-1.72,8.737-3.191a154.753,154.753,0,0,1,18.2-4.853q2.458-.5,4.932-.913,1.239-.208,2.479-.4c.383-.058,3.174-.476.66-.113,3.6-.52,7.238-.823,10.863-1.058a179.106,179.106,0,0,1,20.266-.143q5.094.248,10.17.768c1.7.173,3.388.377,5.079.585-2.478-.306.362.054.723.107q1.691.246,3.377.52a211.566,211.566,0,0,1,20.907,4.51q10.33,2.776,20.36,6.547,2,.749,3.98,1.537,1.188.473,2.371.958c.287.118,2.9,1.239.751.309,3.373,1.461,6.72,2.978,10.024,4.59,9.828,4.8,19.3,10.341,28.673,15.967,17.514,10.514,34.6,21.72,51.846,32.661,37.145,23.563,75.487,45.972,117.586,59.49a273.763,273.763,0,0,0,69.153,12.842,272.433,272.433,0,0,0,77.737-7.572c6.7-1.61,13.331-3.463,19.907-5.509,4.988-1.553,8.686-7.044,6.984-12.3-1.623-5.016-6.952-8.649-12.3-6.984" transform="translate(0 0)" fill="#ffc025"/>
          </g>
        </g>
        <g id="Grupo_1176521" data-name="Grupo 1176521" transform="translate(336.5 47)" opacity="0.5">
          <g id="Grupo_1176407" data-name="Grupo 1176407" transform="translate(0 0)" clip-path="url(#clip-path-4)">
            <path id="Trazado_988397" data-name="Trazado 988397" d="M19.676,0C23.3,13.117,26.234,16.054,39.352,19.676,26.235,23.3,23.3,26.235,19.676,39.352,16.054,26.235,13.117,23.3,0,19.676,13.117,16.054,16.054,13.117,19.676,0" transform="translate(0 0)" fill="#ffc025"/>
          </g>
        </g>
      </g>
      <g id="Grupo_1176524" data-name="Grupo 1176524" transform="translate(14.598 28)" opacity="0.6">
        <g id="Grupo_1176424" data-name="Grupo 1176424" clip-path="url(#clip-path-5)">
          <path id="Trazado_988415" data-name="Trazado 988415" d="M142.278,39.857H0S-.384,21.689,25.348,23.425C22.749,3.109,54.229-.423,58.1,9.817,57.988-1.7,98.266-8.52,104.865,21.244c25.264-3.754,22.944,11.209,22.944,11.209,5.893-1.949,10.578,1.09,14.469,7.4" transform="translate(0 0)" fill="#fff"/>
        </g>
      </g>
    </g>
  </g>
</svg>
