<svg xmlns="http://www.w3.org/2000/svg" xmlns:xlink="http://www.w3.org/1999/xlink" width="70" height="70" viewBox="0 0 70 70">
  <defs>
    <clipPath id="clip-path">
      <rect id="Rectángulo_455509" data-name="Rectángulo 455509" width="48.511" height="43.582" fill="#583f00"/>
    </clipPath>
  </defs>
  <g id="Grupo_1183048" data-name="Grupo 1183048" transform="translate(-269 -958.088)">
    <circle id="Elipse_5614" data-name="Elipse 5614" cx="35" cy="35" r="35" transform="translate(269 958.087)" fill="#fff"/>
    <g id="Grupo_1183840" data-name="Grupo 1183840" transform="translate(280.745 970.297)">
      <g id="Grupo_1183839" data-name="Grupo 1183839" clip-path="url(#clip-path)">
        <path id="Trazado_998576" data-name="Trazado 998576" d="M15.035,13.347a8.011,8.011,0,0,1,1.394-.119c.318.02,1.187.331,1.287.309.2-.044.529-.432.775-.557a3.431,3.431,0,0,1,3.131-.21c.324.133.913.612,1.1.565.376-.1,2.77-2.919,3.424-3.386,1.695-1.21,2.76,1.48,3.4,2.667,1.173-.9,4.3-1.261,5.448-.346.688.547.723,2.673.684,3.505a3.809,3.809,0,0,1,4.483,3.468c.989.114,2.378,0,2.8,1.08a6.4,6.4,0,0,1,.244,2.558c-.03.342-.354,1.269-.345,1.337a1.943,1.943,0,0,1,.708,1.083c.068.545-.354,3.1-.24,3.216a2.261,2.261,0,0,1,1.087.43,6.012,6.012,0,0,1,.755,1.308c.5,1.693-1.043,1.807-1.969,2.758,1.15-.031,3.758-1.08,4.676-.365a2.723,2.723,0,0,1,.358,2.91c-.64.788-3.3.759-4.3,1.1l2.1.633c.875.449.741,1.74.522,2.531a1.5,1.5,0,0,1-1.431,1.053l-5.8-1.061a3.338,3.338,0,0,1-2.743,3.753l-29.617.015c-6.338-.467-9.369-7.655-4.672-12.208L2.32,10.162A3.345,3.345,0,0,1,5.567,7.4c-.072-.43.1-1.117,0-1.5-.028-.116-.854-.266-.97-1A26.549,26.549,0,0,1,4.625.933a1.345,1.345,0,0,1,1-.825,41.819,41.819,0,0,1,6.078,0,1.14,1.14,0,0,1,1.022.92,24.083,24.083,0,0,1,.01,3.759c-.1.884-.947.977-.979,1.11-.092.382.076,1.068,0,1.5a3.241,3.241,0,0,1,2.771,1.539,8.113,8.113,0,0,1,.507,1.071ZM11.393,1.571H6.052V4.485h5.16a1.218,1.218,0,0,0,.182-.182ZM10.3,5.941H7.023V7.4H10.3Zm3.278,6.192v-2a5.214,5.214,0,0,0-.364-.607,2.3,2.3,0,0,0-1.654-.774,32.022,32.022,0,0,0-6.6.168c-.437.152-1.215.886-1.215,1.334v1.882H8.3c.876,0,.911,1.457.243,1.457h-4.8v8.377h6.5a7.28,7.28,0,0,0,.857-.729c.067-.131-.094-.639-.076-.911a4.135,4.135,0,0,1,.687-1.991c.2-.291.8-.778.84-.859.151-.3.038-1.265.214-1.849.235-.776.973-1.177.817-2.038-.739.025-2.294.209-1.891-.978.221-.651,1.334-.452,1.89-.479m11.935,3.85a.729.729,0,0,1,.089-.993c.493-.423,1.672-.038,1.822-.124a12.172,12.172,0,0,0,.822-1.244,4.7,4.7,0,0,0-1.266-2.454,34.328,34.328,0,0,0-3.391,3.38,7.189,7.189,0,0,0,.207.964,10.128,10.128,0,0,1,1.307.576c.26.2.828.988.935,1.007.318.058,1.021-.388.894-.833-.43,0-1.115.091-1.419-.279m7.467,1.955c.068-.043.837-1.232.9-1.348a4.753,4.753,0,0,0,.337-2.33c-.055-.528-.055-.839-.6-.98a4.463,4.463,0,0,0-5.35,3.465c.3.02.646.232.928.241.816.026,1.888-2.6,2.9-1.7,1.039.927-1.6,2.24-1.51,2.716a4.184,4.184,0,0,0,.427.574c.082.012,1.043-.447,1.288-.532.216-.075.586-.047.682-.107M18.918,20.631a.956.956,0,0,1,.8-.722c1.257-.2,2.922.146,4.227-.023.182-.063.357-.9.495-1.2.214-.468.61-.39.242-.957-.606-.932-1.7-.759-2.068-1.21-.285-.349-.162-1.072-.479-1.585a2.237,2.237,0,0,0-3.273-.491c-.354.28-.367.678-.861.723-.637.059-.692-.3-1.139-.423A2.193,2.193,0,0,0,13.989,16.7c-.015.426.259,1.009.054,1.407-.19.369-.75.475-1.07.882a2.045,2.045,0,0,0,.061,2.73c.172-.863.211-1.473,1.126-1.787a5.521,5.521,0,0,1,4.759.695m19.773-1.11c.158-.25-.2-1.1-.366-1.359a2.339,2.339,0,0,0-3.863-.019,4.236,4.236,0,0,1,1.685,1.712c.159.3.095.714.45.893.36-.19.619-.482.983-.7.2-.122,1.078-.475,1.111-.527m-8.723.382c-.409-2.263-3.991-2.364-4.371,0Zm2.61,5.706H9.329c0,.351.05,2.108.3,2.151.1.017.275-.118.553-.039.7.2.422.983.483,1.046.077.078.833-.12,1.027-.127,1.182-.042,3.336.1,4.057,1.176.6.89.532.586,1.34,1.207a6.5,6.5,0,0,1,2.561,3.692c.139.125,1.809-.748,2.25-.737a.719.719,0,0,1,.343,1.327c-.5.313-3.98,1.386-4.116,1.59-.34.51.784,2.226-.6,2.2-1.059-.022-.6-1.5-.984-1.579-1.7.747-4.379.84-3.764,3.4.093.386.841,1.206,1.222,1.206h8.8c.068-.683-.771-2.253-.068-2.678,1.377-.833,1.319,1.928,1.525,2.678h5.706c-.016-.581-.586-1.686.053-2.071,1.228-.739,1.227,1.333,1.4,2.071h2.428c-.02-.7-.856-2.739.088-3.013,1.229-.358,1.072,2.287,1.381,3,1.751.24,2.683-.571,2.522-2.341A61,61,0,0,0,36.49,32.38a1.922,1.922,0,0,0-2.056-1.646c-.717.3-5.955,2.015-6.006,2.334.106.66.8,2.6-.229,2.743-1.017.145-.891-1.672-1.147-2.311-.117-.084-1.814,1.029-1.939-.194a1.009,1.009,0,0,1,.111-.575c.182-.285,5.525-2.2,6.291-2.479,1.64-.591,3.277-1.5,4.927-.375a3.955,3.955,0,0,1,1.354,1.8c.715-.692,3.277-1.631,3.763-2.307.448-.623.483-2.937.548-3.762H36.463c-.344,0-.61-.545-.547-.9.149-.846,1.364-.456,1.458-.552a1.96,1.96,0,0,0-.984-1.992c-.354-.173-.885-.181-1.147-.431-.474-.453-.057-1.438-1.153-2.125a1.992,1.992,0,0,0-2.179.238c1.777.644.755,3,.363,4.308a.746.746,0,1,1,.3,1.458m8.8-1.457c.236-.835.795-2.346.3-3.154-.363-.6-3.569-.152-3.691.56a9.914,9.914,0,0,0,.6,1.259c.15.141.6-.636.91-.5,1.215.36.583,1.224-.062,1.833Zm-26.709,0h1.7c-.8-.8-.093-1.712.9-1.2.379.2.93,1.078,1.254,1.173.157.046.924.159.884-.153a7.643,7.643,0,0,0-.459-1.364,4.081,4.081,0,0,0-4.093-1.373c-.74.3-.4,2.251-.181,2.915m16.754-2.914H20.256c-.107.593.485,2.812,1.031,2.914a6.818,6.818,0,0,0,1.219.009c.261-.031.721-1.06,1.34-1.1a.714.714,0,0,1,.659,1.09c.591.252.947-.416,1.291-.454.411-.046,1.04.722,1.38.454.042-.033-.374-.585.195-.957.895-.585,1.475.9,1.712.96a6.8,6.8,0,0,0,1.409-.025c.541-.163,1.1-2.32.934-2.89m-20.76,2.914h2.549c.005-.822-1.048-.867-1.4-1.579-.281-.073-1.226,1.2-1.152,1.579m-1.335-.728H3.745v7.041c.4-.282.437-.693.848-1.034a5.737,5.737,0,0,1,3.644-.788c-.137-.853-.543-3.278-.124-3.949.445-.712,1.367-.245,1.217-1.271m29.894,11.5a.983.983,0,0,1-.037-1.012l4.569-3.087c.148-.285-.318-.553-.315-.849L38.35,32.958l-.229.264.952,5.074,6.069,1.152c.052-.258.275-.712.005-.914l-5.294-1.261a.7.7,0,0,1,.26-1.339l6.767-1.245c.368-.13.165-.983-.213-.832l-6.577,1.209a1.263,1.263,0,0,1-.865-.139M14.307,30.585c.371-.474-2.6-.5-2.84-.471-.467.055-1.235.456-1.572.438-.253-.013-.526-.24-.783-.294-1.062-.224-2.673-.381-3.546.327,1.471.274,2.778.577,1.214,2.064.911.207,2.687-1.352,3.22-1.343.49.008,2.16,1.544,3.031,1.346.178-.329-.432-.522-.521-.816-.33-1.089,1.111-1,1.8-1.251M6.477,42.12c1.631.193,3.611-.144,5.281,0a4.945,4.945,0,0,1-.49-1.512,3.36,3.36,0,0,1,1.619-3.247L18.3,35.309c.123-1.086-2.093-3.726-3.077-3.631a1.4,1.4,0,0,0-.66.438c-.061.257.476.73-.03,1.43-.6.833-2.067.5-2.873.231-.37-.123-1.573-.84-1.666-.845s-.83.493-1.07.59c-.955.387-2.837,1.063-3.537-.027-.489-.761.061-1.16.043-1.393-.009-.118-.647-.417-.788-.424-.676-.034-2.158,1.651-2.5,2.227-2.033,3.45.543,7.766,4.33,8.215" transform="translate(0 0.001)" fill="#583f00"/>
        <path id="Trazado_998577" data-name="Trazado 998577" d="M124.575,129.2c.719-.026,2.2.632,1.787,1.543-.392.87-1.2.006-1.631-.068-1.208-.207-.622,1.935-1.947,1.342-1.176-.526.3-2.764,1.79-2.818" transform="translate(-107.505 -113.516)" fill="#583f00"/>
        <path id="Trazado_998578" data-name="Trazado 998578" d="M157.8,144.875c.413.447.706,1.279-.017,1.548-.8.3-.879-.731-1.459-.731-.553,0-.624.777-1.1.843a.681.681,0,0,1-.821-.828,2.021,2.021,0,0,1,3.4-.833" transform="translate(-135.647 -126.75)" fill="#583f00"/>
        <path id="Trazado_998579" data-name="Trazado 998579" d="M233.082,178.9c-1.181-1.125,1.752-1.933,2.1-.823.375,1.182-1.731,1.179-2.1.823" transform="translate(-204.54 -155.989)" fill="#583f00"/>
        <path id="Trazado_998580" data-name="Trazado 998580" d="M174.281,177.716c.528-.117,1.591-.131,1.715.549.214,1.173-2.049,1.147-2.263.43a.716.716,0,0,1,.548-.979" transform="translate(-152.603 -156.087)" fill="#583f00"/>
        <path id="Trazado_998581" data-name="Trazado 998581" d="M209.231,100.982a.7.7,0,0,1,.883.531c.144.84-1.649,2.246-2.014,1.029-.165-.55.629-1.456,1.131-1.56" transform="translate(-182.817 -88.706)" fill="#583f00"/>
      </g>
    </g>
  </g>
</svg>
