<svg xmlns="http://www.w3.org/2000/svg" xmlns:xlink="http://www.w3.org/1999/xlink" width="295.148" height="228.197" viewBox="0 0 295.148 228.197">
  <defs>
    <clipPath id="clip-path">
      <rect id="Rectángulo_455478" data-name="Rectángulo 455478" width="295" height="155.063" fill="#ced5f9"/>
    </clipPath>
  </defs>
  <g id="Grupo_1184040" data-name="Grupo 1184040" transform="translate(-179.852 -1121.789)">
    <rect id="Rectángulo_402012" data-name="Rectángulo 402012" width="295" height="228.197" transform="translate(179.852 1121.789)" fill="#ffdd8b"/>
    <rect id="Rectángulo_402030" data-name="Rectángulo 402030" width="294.52" height="60.224" transform="translate(180.48 1289.762)" fill="#fa9757"/>
    <g id="Grupo_1183770" data-name="Grupo 1183770" transform="translate(180 1134.694)">
      <g id="Grupo_1183769" data-name="Grupo 1183769" transform="translate(0 0.005)" clip-path="url(#clip-path)">
        <path id="Trazado_997834" data-name="Trazado 997834" d="M302.164,154.775,45.508,154.7S19.775,127.068,31.382,93.754q.231-.666.485-1.337A63.174,63.174,0,0,1,39.7,77.939C51.512,61.416,64.237,53.132,76.65,50.455q.69-.149,1.378-.276c13.7-2.5,26.961,1.729,38.132,9.143,8.18,5.429,30.024,1.819,50.646-24.219q.48-.606.959-1.229,3.447-4.479,6.82-9.823,1.243-1.982,2.65-3.791,1-1.288,2.072-2.491C215.013-22.237,311.489,8.2,292.888,80.3c-9.437,36.577,28.719,37.906,9.276,74.47" transform="translate(-25.143 -0.005)" fill="#fff3d3"/>
        <path id="Trazado_997835" data-name="Trazado 997835" d="M2136.078,883.547l-4.035,2.062-.808-2.8a8.579,8.579,0,0,0,.746-2.556,10.615,10.615,0,0,0,.084-2.3l3.288,1.683a6.255,6.255,0,0,0-.131.753,5.469,5.469,0,0,0,.057,1.759,2.434,2.434,0,0,0,.8,1.4" transform="translate(-1888.506 -777.96)" fill="#ffb27d"/>
        <path id="Trazado_997836" data-name="Trazado 997836" d="M2035.009,831.308a59.808,59.808,0,0,0-5.537-6.318s-2.479-6.112-2.68-6.515-1.489.336-1.489.336.91,5.942,1.871,7.7,3.938,7.673,6.039,7.892,1.8-3.1,1.8-3.1" transform="translate(-1794.641 -725.152)" fill="#ffb27d"/>
        <path id="Trazado_997837" data-name="Trazado 997837" d="M2185.174,1328.125a2.144,2.144,0,0,0,1.353,1.024,2.332,2.332,0,0,1,1.4.862.547.547,0,0,1-.44.871h-4.731a.68.68,0,0,1-.677-.748c.035-.35.072-.759.088-1.072a2.015,2.015,0,0,1,.72-1.233Z" transform="translate(-1933.56 -1176.602)" fill="#2c3a64"/>
        <path id="Trazado_997838" data-name="Trazado 997838" d="M2139.412,1110.922a4.506,4.506,0,0,1-3.055.266s-3.265-8.349-3.458-12.278c-.009-.158-.011-.308-.009-.451.066-3.7-3.346-13.317-2.426-15.289s8.356.886,8.356.886l.148,6.705Z" transform="translate(-1887.684 -959.192)" fill="#35488b"/>
        <path id="Trazado_997839" data-name="Trazado 997839" d="M2138.967,1090.761l-6.07,8.149q-.013-.237-.009-.451c.066-3.7-3.346-13.318-2.426-15.289s8.356.886,8.356.886Z" transform="translate(-1887.683 -959.193)" fill="#2c3a64"/>
        <path id="Trazado_997840" data-name="Trazado 997840" d="M2176.288,842.48s5.373-4.792,5.7-5.451,1.852-6.545,1.852-6.545l1.28.157s-.244,7.059-.783,8.434-6.867,7.222-6.867,7.222Z" transform="translate(-1928.429 -735.9)" fill="#ffb27d"/>
        <path id="Trazado_997841" data-name="Trazado 997841" d="M2077.924,1328.125a2.145,2.145,0,0,0,1.353,1.024,2.331,2.331,0,0,1,1.4.862.547.547,0,0,1-.44.871h-4.731a.68.68,0,0,1-.677-.748c.035-.35.072-.759.088-1.072a2.012,2.012,0,0,1,.719-1.233Z" transform="translate(-1838.524 -1176.602)" fill="#2c3a64"/>
        <path id="Trazado_997842" data-name="Trazado 997842" d="M2083.834,1079.71s-6.572,24.525-6.773,26.925c0,0-1.282.657-3.363-.5,0,0-1.208-10.992,0-14s-.24-12.083,2.834-14.131,7.3,1.707,7.3,1.707" transform="translate(-1837.047 -954.688)" fill="#35488b"/>
        <path id="Trazado_997843" data-name="Trazado 997843" d="M2080.517,910.937c.023-.336,2.043-1.7,2.043-1.7a5.689,5.689,0,0,0-1.2-4.388l-2.433,1.731a1.194,1.194,0,0,0-.671.2,6.9,6.9,0,0,0-1.527,0c.017.58-.213,1.109-1.232,1.243a4.042,4.042,0,0,1-3.178-1.376,5.141,5.141,0,0,0-1.85.264,2.762,2.762,0,0,0-1.029-.271l-1.991-1.79s-2.334.674-2.7,4.19c0,0,2.619,1.994,2.809,3.568l.072.6.254,2.115.447,3.709-1.33,7.388a1.111,1.111,0,0,0-.018.193,1.089,1.089,0,0,0,.834,1.057s.114.019.325.048c1.41.2,7.135.881,11.624-.338a2.179,2.179,0,0,0,1.59-2.281l-.949-11.917s.09-1.906.112-2.241" transform="translate(-1829.593 -801.796)" fill="#ffb93e"/>
        <path id="Trazado_997844" data-name="Trazado 997844" d="M2087.33,1002.83c-.089,2.577-.341,4.761-1.816,5.578-.211-.029-.325-.048-.325-.048a1.089,1.089,0,0,1-.834-1.057,1.11,1.11,0,0,1,.018-.193l1.33-7.388-.447-3.709c.022-.065.033-.1.033-.1s2.154,3.617,2.041,6.917" transform="translate(-1846.967 -882.488)" fill="#ffa412"/>
        <path id="Trazado_997845" data-name="Trazado 997845" d="M2141.085,900.073a5.061,5.061,0,0,1-3.3-1.891l3.24.132a5.476,5.476,0,0,0,.057,1.759" transform="translate(-1894.314 -795.888)" fill="#ea9c68"/>
        <path id="Trazado_997846" data-name="Trazado 997846" d="M2131.392,845.5s-3.729.984-5.015-1.981c-1.388-3.2.135-5.532,1.4-5.689,2.525-.314,3.992.649,4.436,1.667s1.236,5.478-.822,6" transform="translate(-1883.714 -742.354)" fill="#ffb27d"/>
        <path id="Trazado_997847" data-name="Trazado 997847" d="M2161.721,887.3s.156.385,1.139.169c0,0,.826-.181.732-.616a2.715,2.715,0,0,0-1.872.447" transform="translate(-1915.522 -785.829)" fill="#fff"/>
        <path id="Trazado_997848" data-name="Trazado 997848" d="M2107.589,814.819a4.7,4.7,0,0,0-2.2,1.361,2.473,2.473,0,0,1-.052-.423,1.193,1.193,0,0,0-.1.61l-.016.023a.826.826,0,0,0-.641.369.783.783,0,0,1,.467-.112c-1.315,2.17.021,5.411,3.137,7.279a6.921,6.921,0,0,1-.385-1.969s-.973-1.241-.406-1.548.873.427,1,.283.333-2.582,1.021-2.505,3.236.867,4.353-.1-1.593-4.726-6.185-3.272" transform="translate(-1864.859 -721.727)" fill="#2c3a64"/>
        <path id="Trazado_997849" data-name="Trazado 997849" d="M2240.7,803.093a2.9,2.9,0,0,0-.154-1.022c-.179-.467-.073-1.679.156-1.611s.126.5.382.453.667-1.46,1-1.332.575.6.473,1.627a7.351,7.351,0,0,1-.576,2.042Z" transform="translate(-1985.286 -708.51)" fill="#ffb27d"/>
        <path id="Trazado_997850" data-name="Trazado 997850" d="M2018.044,790.957a3.281,3.281,0,0,1-.026-1.162c.109-.552-.241-1.875-.482-1.756s-.043.583-.337.575-1.019-1.49-1.364-1.284-.522.778-.211,1.894a8.243,8.243,0,0,0,1.031,2.152Z" transform="translate(-1785.921 -697.644)" fill="#ffb27d"/>
        <path id="Trazado_997851" data-name="Trazado 997851" d="M2147.807,868.564a.059.059,0,0,1-.045-.021.058.058,0,0,1,.008-.082,1.752,1.752,0,0,1,1.451-.284.058.058,0,1,1-.03.113,1.665,1.665,0,0,0-1.347.26.057.057,0,0,1-.037.014" transform="translate(-1903.14 -769.256)" fill="#2c3a64"/>
        <path id="Trazado_997852" data-name="Trazado 997852" d="M2171.62,864.129a.048.048,0,0,1-.039-.021.065.065,0,0,1,.006-.082,1.332,1.332,0,0,1,1.249-.284.06.06,0,0,1,.036.071.05.05,0,0,1-.062.042,1.266,1.266,0,0,0-1.159.26.045.045,0,0,1-.032.014" transform="translate(-1924.248 -765.326)" fill="#2c3a64"/>
        <path id="Trazado_997853" data-name="Trazado 997853" d="M2161.9,921.369a8.118,8.118,0,0,0-1.61-.022c.018.58-.13,1.131-1.148,1.265Z" transform="translate(-1913.235 -816.386)" fill="#ffb93e"/>
        <path id="Trazado_997854" data-name="Trazado 997854" d="M1840.008,826.97s-5.372-4.792-5.7-5.451-1.852-6.545-1.852-6.545l-1.28.156s.244,7.059.784,8.434,6.867,7.222,6.867,7.222Z" transform="translate(-1622.621 -722.157)" fill="#a56941"/>
        <path id="Trazado_997855" data-name="Trazado 997855" d="M1989.3,947.535s3.838,6.09,3.971,6.814-.029,6.8-.029,6.8l1.274.2s1.717-6.852,1.578-8.322-4.6-8.839-4.6-8.839Z" transform="translate(-1762.742 -836.66)" fill="#a56941"/>
        <path id="Trazado_997856" data-name="Trazado 997856" d="M1953.249,1217.6l2.419,11.866h2.475s1.75-11.161.132-12.705-5.026.839-5.026.839" transform="translate(-1730.792 -1077.722)" fill="#a56941"/>
        <path id="Trazado_997857" data-name="Trazado 997857" d="M1888.739,1218.424l.076,12.419,2.146-.183s4.124-10.15,2.868-12-5.09-.236-5.09-.236" transform="translate(-1673.629 -1079.079)" fill="#a56941"/>
        <path id="Trazado_997858" data-name="Trazado 997858" d="M1867.076,1328.125a2.145,2.145,0,0,1-1.353,1.024,2.329,2.329,0,0,0-1.4.862.547.547,0,0,0,.44.871h4.731a.68.68,0,0,0,.677-.748c-.035-.35-.072-.759-.088-1.072a2.015,2.015,0,0,0-.719-1.233Z" transform="translate(-1651.898 -1176.602)" fill="#35488b"/>
        <path id="Trazado_997859" data-name="Trazado 997859" d="M1889.851,1106.482a2.461,2.461,0,0,1-1.2,2.1,10.016,10.016,0,0,1-5.859.423c-.4-.076-.785-.165-1.149-.262a17.557,17.557,0,0,1-3.163-1.155l1.59-15.783c1.8-.366,4.27.456,6.656,4.079,2.158,3.276,3.478,7.882,3.124,10.593" transform="translate(-1664.539 -967.393)" fill="#35488b"/>
        <path id="Trazado_997860" data-name="Trazado 997860" d="M1914.184,1128.391a2.461,2.461,0,0,1-1.2,2.105,10.013,10.013,0,0,1-5.859.423c-.4-.076-.785-.165-1.149-.262-.364-6.934,2.19-13.315,2.947-14.2,2.422,3.679,5.145,8.993,5.26,11.936" transform="translate(-1688.873 -989.302)" fill="#2c3a64"/>
        <path id="Trazado_997861" data-name="Trazado 997861" d="M1953.175,1328.125a2.145,2.145,0,0,1-1.353,1.024,2.331,2.331,0,0,0-1.4.862.547.547,0,0,0,.44.871h4.731a.68.68,0,0,0,.677-.748c-.035-.35-.072-.759-.088-1.072a2.015,2.015,0,0,0-.719-1.233Z" transform="translate(-1728.191 -1176.602)" fill="#35488b"/>
        <path id="Trazado_997862" data-name="Trazado 997862" d="M1903.335,801.3a3.772,3.772,0,0,0-.65-3.1c-.558-.864-1.342-.9-2.1-1.634a4.851,4.851,0,0,0-3.083-1.142c-3.367,0-6.282,2.061-5.618,5.557.211,1.111.033,1.986.933,3.284,1.124,1.62,2.49,2.921,4.685,2.921a4.2,4.2,0,0,0,3.083-1.118c.489-.462,1.191-.519,1.621-1.022.87-1.017.805-2.356,1.124-3.741" transform="translate(-1676.336 -704.831)" fill="#35488b"/>
        <path id="Trazado_997863" data-name="Trazado 997863" d="M1919.286,1087.378l2.089,17.236a19.437,19.437,0,0,0,9.287-.483s-1.449-16.521-2.614-17.726-8.761.973-8.761.973" transform="translate(-1700.698 -962.352)" fill="#35488b"/>
        <path id="Trazado_997864" data-name="Trazado 997864" d="M1914.821,873.855l4.2,2.144.84-2.911a8.934,8.934,0,0,1-.776-2.658,11.1,11.1,0,0,1-.087-2.4l-3.419,1.751a6.423,6.423,0,0,1,.136.783,5.685,5.685,0,0,1-.059,1.829,2.533,2.533,0,0,1-.831,1.458" transform="translate(-1696.741 -769.174)" fill="#a56941"/>
        <path id="Trazado_997865" data-name="Trazado 997865" d="M1888.29,913.73l.465-3.857.017-.143a20.723,20.723,0,0,1,3.716-1.742,36.048,36.048,0,0,0-2.866-5.335h0a3.735,3.735,0,0,0-1.573-.941,13.476,13.476,0,0,0-1.758-.5c-1.158-.253-2.151-.36-2.151-.36h0a4.2,4.2,0,0,1-3.306,1.431c-1.059-.139-1.227-.689-1.208-1.292a4.428,4.428,0,0,0-.441.08h0l-3.4-1.7s-2.2,3.325-.809,5.982a3.033,3.033,0,0,1,1.687,2.128l-.233,11.108c-.087,1.085-1.078,3.542-.029,3.827,4.668,1.267,10.621.557,12.088.351.219-.03.338-.05.338-.05a1.133,1.133,0,0,0,.867-1.1,1.15,1.15,0,0,0-.019-.2Z" transform="translate(-1661.023 -796.938)" fill="#f99746"/>
        <path id="Trazado_997866" data-name="Trazado 997866" d="M1967.788,997.022c.059,2.681,1.816,5.83,3.349,6.679.219-.03.338-.05.338-.05a1.132,1.132,0,0,0,.867-1.1,1.184,1.184,0,0,0-.018-.2l-1.384-7.683.465-3.857-.034-.1a6.592,6.592,0,0,0-3.583,6.314" transform="translate(-1743.674 -877.876)" fill="#ed7d2b"/>
        <path id="Trazado_997867" data-name="Trazado 997867" d="M1922.125,891.04a5.263,5.263,0,0,0,3.429-1.966l-3.369.137a5.7,5.7,0,0,1-.059,1.829" transform="translate(-1703.213 -787.817)" fill="#8e512f"/>
        <path id="Trazado_997868" data-name="Trazado 997868" d="M1907.132,837.934s4.3.523,4.387-2.5-1.7-4.986-2.894-4.964c-2.383.045-2.776,1.008-3.052,2.01s-.419,5.243,1.559,5.456" transform="translate(-1688.406 -735.885)" fill="#a56941"/>
        <path id="Trazado_997869" data-name="Trazado 997869" d="M1916.616,878.727s-.093.377-1.034.308c0,0-.79-.058-.761-.474a2.542,2.542,0,0,1,1.795.166" transform="translate(-1696.74 -778.422)" fill="#fff"/>
        <path id="Trazado_997870" data-name="Trazado 997870" d="M1924.276,829.346s3.671,0,2.827,2.518c-.532,1.589,1.236,1.836,1.236,1.836l.851-2.546-.533-1.983Z" transform="translate(-1705.119 -734.736)" fill="#35488b"/>
        <path id="Trazado_997871" data-name="Trazado 997871" d="M1827.792,787.583a2.912,2.912,0,0,1,.154-1.022c.179-.467.074-1.679-.155-1.611s-.127.5-.383.452-.666-1.46-1-1.332-.575.6-.473,1.627a7.332,7.332,0,0,0,.576,2.042Z" transform="translate(-1617.959 -694.766)" fill="#a56941"/>
        <path id="Trazado_997872" data-name="Trazado 997872" d="M2017.494,1093.087a2.909,2.909,0,0,1-.43.939c-.3.4-.535,1.594-.3,1.591s.261-.449.493-.329.236,1.588.592,1.556.719-.419.9-1.432a7.325,7.325,0,0,0,.011-2.122Z" transform="translate(-1786.989 -968.595)" fill="#a56941"/>
        <path id="Trazado_997873" data-name="Trazado 997873" d="M1221.294,938.722a59.82,59.82,0,0,1,6.749,5s6.294,1.972,6.712,2.14-.213,1.511-.213,1.511-6-.423-7.83-1.236-7.968-3.3-8.358-5.376,2.941-2.042,2.941-2.042" transform="translate(-1079.566 -831.811)" fill="#ea9c68"/>
        <path id="Trazado_997874" data-name="Trazado 997874" d="M1162.349,1267.727l-1.145,6.1h-2.078l-.537-7.439Z" transform="translate(-1026.636 -1122.155)" fill="#ffb27d"/>
        <path id="Trazado_997875" data-name="Trazado 997875" d="M1242.815,1273.364l1.3,6.717-1.821.076-3.463-6.549Z" transform="translate(-1097.738 -1128.34)" fill="#ffb27d"/>
        <path id="Trazado_997876" data-name="Trazado 997876" d="M1158.419,1327.4a2.4,2.4,0,0,0,1.426,1.1,2.332,2.332,0,0,1,1.4.862.547.547,0,0,1-.44.871h-4.731a.68.68,0,0,1-.677-.748c.035-.35.072-.759.088-1.072a2.253,2.253,0,0,1,.772-1.3,4.858,4.858,0,0,0,.9.411,3.347,3.347,0,0,0,1.257-.121" transform="translate(-1023.807 -1175.966)" fill="#b2443b"/>
        <path id="Trazado_997877" data-name="Trazado 997877" d="M1261.2,1327.309a2.406,2.406,0,0,0,1.42,1.106,2.331,2.331,0,0,1,1.4.87.547.547,0,0,1-.444.869l-4.731-.027a.68.68,0,0,1-.672-.752c.037-.35.076-.758.094-1.071a2.25,2.25,0,0,1,.779-1.3,4.854,4.854,0,0,0,.9.416,3.351,3.351,0,0,0,1.258-.114" transform="translate(-1114.871 -1175.873)" fill="#b2443b"/>
        <path id="Trazado_997878" data-name="Trazado 997878" d="M1206.476,1106.737a22.52,22.52,0,0,1-4.14.811c-2.045.187-4.269,0-5.207-1.415a4.531,4.531,0,0,1-.49-2.042c-.392-5.634,2.584-19.084,2.584-19.084h3.473c0,.277,3.779,21.731,3.779,21.731" transform="translate(-1060.322 -961.434)" fill="#ffb93e"/>
        <path id="Trazado_997879" data-name="Trazado 997879" d="M1202.613,1140.2c-2.045.186-4.27,0-5.208-1.415a4.533,4.533,0,0,1-.49-2.042c0-.01.005-.02.008-.03.554-2.065,2.065-14.857,2.065-14.857s5.193,13.682,3.624,18.345" transform="translate(-1060.598 -994.091)" fill="#ffa412"/>
        <path id="Trazado_997880" data-name="Trazado 997880" d="M1135.208,1091.863s-1.561,10.475-2.266,21.656c0,0,4.9,2.015,9.451.4l.831-21.319Z" transform="translate(-1003.91 -967.511)" fill="#ffb93e"/>
        <path id="Trazado_997881" data-name="Trazado 997881" d="M1119.438,813.826a1.888,1.888,0,0,0-1.632-1.459s.42.251.487.516a2.025,2.025,0,0,0-1.948-.212,3.239,3.239,0,0,0-2.056,4.437c.885,2.8-.921,3.5-1.647,5.307s1.745,2.156,1.233,3.568,1.012,4.746,4.889,3.289,4.758-7.05,3.11-8.416-2.436-7.028-2.436-7.028" transform="translate(-985.804 -719.847)" fill="#b2443b"/>
        <path id="Trazado_997882" data-name="Trazado 997882" d="M1159.818,824.368a3.606,3.606,0,0,0-2.819.9c-.583.609.018,1.485.018,1.485Z" transform="translate(-1025.002 -730.463)" fill="#f99f46"/>
        <path id="Trazado_997883" data-name="Trazado 997883" d="M1164.1,826.954a6.353,6.353,0,0,0-4-2.679,3.824,3.824,0,0,0-4.378,3.226c-.324,2.11.006,4.845,3.449,5.83Z" transform="translate(-1024.012 -730.352)" fill="#b2443b"/>
        <path id="Trazado_997884" data-name="Trazado 997884" d="M1186.526,889.289l-3.9,2.314-.985-2.742a8.579,8.579,0,0,0,.583-2.6,10.661,10.661,0,0,0-.063-2.3l3.388,1.471a6.213,6.213,0,0,0-.083.759,5.465,5.465,0,0,0,.168,1.752,2.435,2.435,0,0,0,.887,1.348" transform="translate(-1047.068 -783.284)" fill="#ffb27d"/>
        <path id="Trazado_997885" data-name="Trazado 997885" d="M1190.174,905.3a5.062,5.062,0,0,1-3.41-1.678l3.242-.074a5.471,5.471,0,0,0,.168,1.752" transform="translate(-1051.603 -800.639)" fill="#ea9c68"/>
        <path id="Trazado_997886" data-name="Trazado 997886" d="M1178.578,850.493s-3.659,1.219-5.131-1.658c-1.588-3.106-.217-5.529,1.037-5.766,2.5-.473,4.025.394,4.533,1.382s1.581,5.388-.439,6.043" transform="translate(-1039.168 -746.933)" fill="#ffb27d"/>
        <path id="Trazado_997887" data-name="Trazado 997887" d="M1210.19,891.017s.18.374,1.148.1c0,0,.813-.233.692-.661a2.715,2.715,0,0,0-1.84.565" transform="translate(-1072.361 -789.029)" fill="#fff"/>
        <path id="Trazado_997888" data-name="Trazado 997888" d="M1162.343,928.954l-3.105-2.524v0a2.655,2.655,0,0,0-1.43-.617c-.219-.028-.679-.113-.936-.144.043.578.043,1.045-.968,1.223a4.19,4.19,0,0,1-3.3-1.223,11.274,11.274,0,0,0-2.418.707,2.188,2.188,0,0,0-1.37,2.287l1.034,8.911s-1.236,7.587-1.024,7.608c1.417.135,7.614,1.379,12.044-.037.716-.229-1-4.246-.658-12.464a3.932,3.932,0,0,0,2.134-3.729" transform="translate(-1017.96 -820.246)" fill="#35488b"/>
        <path id="Trazado_997889" data-name="Trazado 997889" d="M1170.081,835.126s.048,2.873-1.607,3.82a4.148,4.148,0,0,0,.433-2.181s-.427,2.563-1.735,3.01-1.969-4.759.737-5.806,5.374.2,5.693,2.026.076,2.212.076,2.212-1.266-3.482-3.6-3.081" transform="translate(-1033.234 -738.649)" fill="#b2443b"/>
        <path id="Trazado_997890" data-name="Trazado 997890" d="M1148.823,958.232c-.212-.02,1.024-7.608,1.024-7.608l-1.034-8.911a2.184,2.184,0,0,1,.262-1.317.435.435,0,0,1,.211.1c2.168,1.83,4.161,9.246,4.161,9.246s1.047,6-4.624,8.487" transform="translate(-1017.961 -833.294)" fill="#2c3a64"/>
        <path id="Trazado_997891" data-name="Trazado 997891" d="M1134.129,960.763s-1.846,6.969-1.508,8.25,3.932,4.249,4.531,4.443l.432-1.141s-2.735-3.772-2.5-4.18c.5-.878,2.5-6.019,2.5-6.019Z" transform="translate(-1003.589 -851.342)" fill="#ffb27d"/>
        <path id="Trazado_997892" data-name="Trazado 997892" d="M1139.307,937.752a5.033,5.033,0,0,1-4.191-1.768s1.758-5.144,3.95-4.1,1.664,4.63.241,5.87" transform="translate(-1005.837 -825.626)" fill="#35488b"/>
        <path id="Trazado_997893" data-name="Trazado 997893" d="M1173.163,1062.2s1.811.355,1.888.94c.061.468-.762,1.235-1.205,1.073a4.359,4.359,0,0,1-1.115-.872Z" transform="translate(-1039.168 -941.223)" fill="#ffb27d"/>
        <path id="Trazado_997894" data-name="Trazado 997894" d="M1403.793,530.475a.628.628,0,0,0-.318-.717,60.252,60.252,0,0,0-35.455,0,.63.63,0,0,0-.314.72.485.485,0,0,0,.424.443.336.336,0,0,0,.11-.019,59.6,59.6,0,0,1,35.023,0c.235.08.472-.113.531-.43" transform="translate(-1211.924 -467.028)" fill="#f99746"/>
        <path id="Trazado_997895" data-name="Trazado 997895" d="M1352.887,368.692a67.706,67.706,0,0,0-16.79-20.49,44.435,44.435,0,0,0-8.961-5.843,1.079,1.079,0,0,0-.947.036c-5.024,2.7-10.595,7.948-16.557,15.594a123.235,123.235,0,0,0-7.444,10.657,1.078,1.078,0,0,0,1.845,1.115c.115-.19,11.458-18.81,22.7-25.2a46.59,46.59,0,0,1,8.076,5.375,65.571,65.571,0,0,1,16.18,19.782,1.078,1.078,0,0,0,1.9-1.023" transform="translate(-1153.743 -303.287)" fill="#f99746"/>
        <path id="Trazado_997896" data-name="Trazado 997896" d="M1440.6,576.533a.81.81,0,0,0-.81.81v17.186a.81.81,0,0,0,.81.81h17.186a.81.81,0,0,0,.81-.81V577.343a.81.81,0,0,0-.81-.81Zm16.376,8.593H1450.4v-6.973h6.573Zm-8.193,0h-7.373v-6.973h7.373Zm-7.373,1.62h7.373v6.973h-7.373Zm8.993,0h6.573v6.973H1450.4Z" transform="translate(-1275.81 -510.872)" fill="#f99746"/>
        <path id="Trazado_997897" data-name="Trazado 997897" d="M1391.384,577.29h0a1.075,1.075,0,0,0-.957,1.166c1.083,12.3-1.907,19.347-2.506,21.079-10.5,3.185-27.481,1.021-30.533.532-3.155-9.333-2.843-20.758-2.728-23.153a.5.5,0,0,0-.427-.517l-.4-.057a.619.619,0,0,0-.7.54,75.664,75.664,0,0,0-.485,8.073c-.037,4.6.342,11.27,2.355,16.935l.146.41.428.074c.054.009,5.5.948,12.3,1.413q3.89.266,7.289.266a46.86,46.86,0,0,0,13.941-1.7l.335-.108.129-.328a37.766,37.766,0,0,0,1.718-6.74,65.228,65.228,0,0,0,.563-17.5.423.423,0,0,0-.464-.378" transform="translate(-1198.591 -510.695)" fill="#f99746"/>
        <path id="Trazado_997898" data-name="Trazado 997898" d="M504.773,781.877a.3.3,0,0,1-.211-.32.394.394,0,0,1,.274-.408,37.716,37.716,0,0,1,21.836,3.973.393.393,0,0,1,.115.477c-.072.188-.239.28-.375.205a37.313,37.313,0,0,0-21.569-3.926.21.21,0,0,1-.07,0" transform="translate(-447.097 -691.948)" fill="#ffb93e"/>
        <path id="Trazado_997899" data-name="Trazado 997899" d="M492.153,691.369a.675.675,0,0,1-.522-.455,41.041,41.041,0,0,0-7.748-14,29.151,29.151,0,0,0-4.371-4.215c-7.641,2.677-16.714,12.873-16.805,12.977a.675.675,0,0,1-1.011-.894,77.175,77.175,0,0,1,5.779-5.729c4.529-4.041,8.548-6.647,11.945-7.748a.676.676,0,0,1,.587.084,27.82,27.82,0,0,1,4.864,4.6,42.387,42.387,0,0,1,8.044,14.5.675.675,0,0,1-.762.873" transform="translate(-408.963 -594.824)" fill="#ffb93e"/>
        <path id="Trazado_997900" data-name="Trazado 997900" d="M539.932,821.053l-10.584-1.926a.507.507,0,0,1-.408-.59l1.926-10.584a.507.507,0,0,1,.59-.408l10.584,1.926a.507.507,0,0,1,.408.589l-1.926,10.584a.507.507,0,0,1-.59.408m-9.9-2.833,9.587,1.745,1.745-9.586-9.587-1.745Z" transform="translate(-468.691 -715.567)" fill="#ffb93e"/>
        <path id="Trazado_997901" data-name="Trazado 997901" d="M548.388,856.935,537.8,855.008a.507.507,0,1,1,.182-1l10.584,1.926a.507.507,0,0,1-.182,1" transform="translate(-476.184 -756.74)" fill="#ffb93e"/>
        <path id="Trazado_997902" data-name="Trazado 997902" d="M577.977,827.978a.507.507,0,0,1-.408-.59l1.926-10.584a.507.507,0,1,1,1,.181l-1.926,10.584a.507.507,0,0,1-.59.408" transform="translate(-511.782 -723.409)" fill="#ffb93e"/>
        <path id="Trazado_997903" data-name="Trazado 997903" d="M490.718,817.428q-2.092-.381-4.459-.981c-4.134-1.048-7.382-2.237-7.415-2.249l-.255-.094-.044-.268a32.495,32.495,0,0,1,.447-10.694,47.338,47.338,0,0,1,1.2-4.917.388.388,0,0,1,.493-.254l.238.08a.312.312,0,0,1,.205.366c-.339,1.462-1.812,8.463-.915,14.565,1.825.644,12.039,3.879,18.864,3.095a28.414,28.414,0,0,0,3.906-12.7.673.673,0,0,1,.72-.611.265.265,0,0,1,.244.285,40.825,40.825,0,0,1-2.309,10.717,23.675,23.675,0,0,1-1.813,3.959l-.116.187-.219.029a29.335,29.335,0,0,1-8.777-.513" transform="translate(-423.801 -707.073)" fill="#ffb93e"/>
        <path id="Trazado_997904" data-name="Trazado 997904" d="M1154.491,635.77a.661.661,0,0,1-.931-.088,32.776,32.776,0,0,1-3.533-5.8c-2.618.354-6.147.247-8.985-1.941a8.216,8.216,0,0,1-2.526-3.095l-.237-.588.578-.261.069-.031a8.139,8.139,0,0,1,7.7.275,10.023,10.023,0,0,1,1.138.76q-.454-1.074-1.007-2.437a8.822,8.822,0,0,1-3.532-6.053,6.345,6.345,0,0,1,.421-2.985l.266-.575.586.242a6.377,6.377,0,0,1,4.007,4.671,9.579,9.579,0,0,1-.071,3.984c.181.41.4.9.643,1.436a5.254,5.254,0,0,1,2.289-3.285l.553-.309.332.54c1.7,2.764.514,5.387-1.284,7.055a40.921,40.921,0,0,0,4.157,7.1.661.661,0,0,1-.088.931Zm-4.645-7.193.246-.036-.04-.083Zm-9.787-3.64a7.574,7.574,0,0,0,1.848,2,10.171,10.171,0,0,0,7.479,1.692c-1.285-1.853-4.513-5.447-9.327-3.7m11.412-3.342a4.8,4.8,0,0,0-1.136,4.443l0,.015a4.109,4.109,0,0,0,1.134-4.458m-6.824-6.868c-.269,1.182-.4,3.814,2.571,6.489.326-1.747.407-4.864-2.571-6.489" transform="translate(-1008.64 -543.144)" fill="#82b378"/>
        <path id="Trazado_997905" data-name="Trazado 997905" d="M715.45,1174.122a.432.432,0,0,1-.608-.057,21.408,21.408,0,0,1-2.308-3.786,7.817,7.817,0,0,1-5.869-1.268,5.365,5.365,0,0,1-1.65-2.021l-.155-.384.377-.171.045-.02a5.316,5.316,0,0,1,5.032.179,6.55,6.55,0,0,1,.743.5q-.3-.7-.658-1.592a5.762,5.762,0,0,1-2.307-3.954,4.148,4.148,0,0,1,.275-1.95l.174-.376.383.158a4.166,4.166,0,0,1,2.617,3.051,6.26,6.26,0,0,1-.047,2.6c.118.268.26.585.42.938a3.432,3.432,0,0,1,1.5-2.146l.361-.2.217.352a3.517,3.517,0,0,1-.839,4.609,26.733,26.733,0,0,0,2.716,4.636.432.432,0,0,1-.058.608Zm-3.034-4.7.161-.024-.026-.054Zm-6.393-2.378a4.954,4.954,0,0,0,1.207,1.309,6.643,6.643,0,0,0,4.885,1.105c-.839-1.21-2.948-3.558-6.092-2.415m7.454-2.183a3.131,3.131,0,0,0-.742,2.9l0,.01a2.684,2.684,0,0,0,.74-2.912m-4.457-4.486a4.319,4.319,0,0,0,1.679,4.239,3.748,3.748,0,0,0-1.679-4.239" transform="translate(-624.584 -1027.194)" fill="#82b378"/>
        <path id="Trazado_997906" data-name="Trazado 997906" d="M1791.385,566.4a.661.661,0,0,1-.088-.931,40.934,40.934,0,0,0,4.157-7.1c-1.8-1.668-2.985-4.291-1.284-7.055l.332-.54.553.309a5.253,5.253,0,0,1,2.289,3.285c.245-.54.462-1.026.643-1.436a9.575,9.575,0,0,1-.071-3.984,6.377,6.377,0,0,1,4.007-4.671l.586-.242.267.575a6.35,6.35,0,0,1,.421,2.985,8.821,8.821,0,0,1-3.533,6.053q-.553,1.362-1.007,2.437a9.989,9.989,0,0,1,1.138-.76,8.139,8.139,0,0,1,7.7-.275l.069.031.578.262-.237.588a8.218,8.218,0,0,1-2.526,3.095c-2.839,2.188-6.367,2.295-8.985,1.941a32.778,32.778,0,0,1-3.533,5.8.661.661,0,0,1-.931.088Zm4.987-6.858-.04.083.246.036Zm.668.176a10.169,10.169,0,0,0,7.479-1.692,7.572,7.572,0,0,0,1.848-2c-4.814-1.75-8.042,1.844-9.326,3.7m-.952-2.581,0-.015a4.8,4.8,0,0,0-1.136-4.442,4.11,4.11,0,0,0,1.134,4.458m3.119-4.836c2.975-2.675,2.84-5.307,2.571-6.489-2.977,1.625-2.9,4.742-2.571,6.489" transform="translate(-1587.151 -482.077)" fill="#82b378"/>
        <path id="Trazado_997907" data-name="Trazado 997907" d="M1838.785,228.5a6.725,6.725,0,0,1-2.817,1.015,5.96,5.96,0,0,1-5.671-2.455,7.452,7.452,0,1,1,13.556-2.412.532.532,0,0,1-1.04-.229,6.387,6.387,0,1,0-11.62,2.067,4.88,4.88,0,0,0,4.652,1.971c2.332-.27,4.208-1.956,5.15-4.628a.532.532,0,1,1,1,.354,8.09,8.09,0,0,1-3.214,4.317" transform="translate(-1620.805 -191.041)" fill="#ffb93e"/>
        <path id="Trazado_997908" data-name="Trazado 997908" d="M1807.768,147.61a.532.532,0,0,1-.735-.162l-4.874-7.624a.532.532,0,0,1,.9-.573l4.874,7.624a.532.532,0,0,1-.162.735" transform="translate(-1596.836 -123.174)" fill="#ffb93e"/>
        <path id="Trazado_997909" data-name="Trazado 997909" d="M1743.59,329.668a.532.532,0,0,1,.162-.735l7.624-4.874a.532.532,0,1,1,.574.9l-7.624,4.874a.532.532,0,0,1-.735-.162" transform="translate(-1544.937 -287.078)" fill="#ffb93e"/>
        <path id="Trazado_997910" data-name="Trazado 997910" d="M1965.076,188.081a.532.532,0,0,1,.161-.735l7.624-4.874a.532.532,0,0,1,.574.9l-7.624,4.874a.532.532,0,0,1-.735-.162" transform="translate(-1741.198 -161.617)" fill="#ffb93e"/>
        <path id="Trazado_997911" data-name="Trazado 997911" d="M1915.386,119.592a.532.532,0,0,1-.4-.639l2.061-8.811a.532.532,0,0,1,1.037.242l-2.061,8.811a.532.532,0,0,1-.64.4" transform="translate(-1696.877 -97.234)" fill="#ffb93e"/>
        <path id="Trazado_997912" data-name="Trazado 997912" d="M1723.707,244.062a.532.532,0,0,1,.628-.415l8.865,1.812a.532.532,0,1,1-.213,1.043l-8.865-1.812a.532.532,0,0,1-.415-.628" transform="translate(-1527.383 -215.889)" fill="#ffb93e"/>
        <path id="Trazado_997913" data-name="Trazado 997913" d="M1852.467,375.7a.532.532,0,0,1-.453-.6l1.258-8.961a.532.532,0,1,1,1.054.148l-1.258,8.961a.532.532,0,0,1-.6.453" transform="translate(-1641.082 -324.031)" fill="#ffb93e"/>
        <path id="Trazado_997914" data-name="Trazado 997914" d="M1993.856,291.071a.532.532,0,0,1-.639.4l-8.813-2.051a.532.532,0,1,1,.241-1.037l8.813,2.051a.532.532,0,0,1,.4.639" transform="translate(-1758.034 -255.526)" fill="#ffb93e"/>
        <path id="Trazado_997915" data-name="Trazado 997915" d="M1934.19,345.375a.532.532,0,0,1-.735-.162l-4.874-7.624a.532.532,0,0,1,.9-.573l4.873,7.624a.532.532,0,0,1-.162.735" transform="translate(-1708.86 -298.416)" fill="#ffb93e"/>
        <path id="Trazado_997916" data-name="Trazado 997916" d="M321.111,863.609c-.349-.146-1.224,1.329-1.423,1.394s.07-.689-.172-.856-.8,1.624-.8,1.624c-.4.2-6.026,3.65-6.026,3.65a59.8,59.8,0,0,0-8.206,1.8s-2.216,2.487-.4,3.558,7.727-1.917,9.546-2.764,6.08-5.087,6.08-5.087c2.122-.949,1.748-3.169,1.4-3.315" transform="translate(-268.818 -765.244)" fill="#ffb27d"/>
        <path id="Trazado_997917" data-name="Trazado 997917" d="M219.014,818.486s-3.4.451-4.291,2.761-1.919,18.309,0,20.427a16.608,16.608,0,0,1,.292-2.415s.377,4.07,2.3,4.9,9.266-12.145,9.266-12.145,1.8-14.25-7.566-13.526" transform="translate(-189.305 -725.245)" fill="#2c3a64"/>
        <path id="Trazado_997918" data-name="Trazado 997918" d="M269.752,1099.713a69.829,69.829,0,0,0-.724,9.273l-2.03-.246-.027,0s-.006-.019-.015-.057h0c0-.008,0-.016-.007-.026-.147-.585-1.03-4.126-1.651-7.443q-.065-.348-.126-.691a20.778,20.778,0,0,1-.466-4.693c.31-2.824-2.549-14.459.089-15.482s7.114,2.678,7.114,2.678-1.3,9.188-2.158,16.692" transform="translate(-233.639 -957.145)" fill="#ed985f"/>
        <path id="Trazado_997919" data-name="Trazado 997919" d="M199.883,1099.6s-5.5,7.64-9.809,13.947l-.1.151a60.311,60.311,0,0,0-4.68,7.59l-2.085-.315s1.4-5.654,2.657-9.455l0,0,.059-.178a18.365,18.365,0,0,1,1.6-3.8c1.6-2.349,4.52-13.968,7.33-13.636s5.032,5.7,5.032,5.7" transform="translate(-162.34 -969.308)" fill="#ffb27d"/>
        <path id="Trazado_997920" data-name="Trazado 997920" d="M247.3,826.954a6.353,6.353,0,0,0-4-2.679,3.825,3.825,0,0,0-4.378,3.226c-.324,2.11.006,4.845,3.449,5.83Z" transform="translate(-211.626 -730.352)" fill="#2c3a64"/>
        <path id="Trazado_997921" data-name="Trazado 997921" d="M269.727,889.289l-3.9,2.314-.985-2.742a8.583,8.583,0,0,0,.583-2.6,10.653,10.653,0,0,0-.063-2.3l3.388,1.471a6.233,6.233,0,0,0-.083.759,5.475,5.475,0,0,0,.168,1.752,2.435,2.435,0,0,0,.887,1.348" transform="translate(-234.683 -783.284)" fill="#ffb27d"/>
        <path id="Trazado_997922" data-name="Trazado 997922" d="M273.373,905.3a5.062,5.062,0,0,1-3.41-1.678l3.242-.074a5.476,5.476,0,0,0,.168,1.752" transform="translate(-239.217 -800.639)" fill="#ea9c68"/>
        <path id="Trazado_997923" data-name="Trazado 997923" d="M261.778,850.493s-3.659,1.219-5.131-1.658c-1.589-3.106-.217-5.529,1.037-5.766,2.5-.473,4.025.394,4.533,1.382s1.581,5.388-.439,6.043" transform="translate(-226.782 -746.933)" fill="#ffb27d"/>
        <path id="Trazado_997924" data-name="Trazado 997924" d="M293.39,891.017s.18.374,1.148.1c0,0,.813-.233.692-.661a2.715,2.715,0,0,0-1.84.565" transform="translate(-259.976 -789.029)" fill="#fff"/>
        <path id="Trazado_997925" data-name="Trazado 997925" d="M240.011,924.233a7.551,7.551,0,0,0,.079-1.058,5.66,5.66,0,0,0-.119-1.216,5.342,5.342,0,0,0-1-2.367c-2.171.364-3.141.243-4.14.728l-.288-.029c.053.582-.12,1.125-1.125,1.323a3.9,3.9,0,0,1-3.2-1.213,13.458,13.458,0,0,0-2.554.684,2.195,2.195,0,0,0-1.322,2.314l.251,1.851,1.415,5.778a14.108,14.108,0,0,1,.4,3.041c-.172,1.124-.648,2.883-1.137,4.879v.013a43.932,43.932,0,0,0-1.137,6.321c-.251,2.935-.423,5.223-.37,5.263,1.058,1.018,8.873,3.107,13.276,1.6.436-.146.225-8.013-.172-15.656-.227-4.2-.5-8.333-.76-11.091l.007,0a13.491,13.491,0,0,0,1.9-1.164" transform="translate(-200.037 -814.86)" fill="#f99746"/>
        <path id="Trazado_997926" data-name="Trazado 997926" d="M237.1,974.317c-.132,2.354-1.732,5.117-3.279,7.246.489-2,.965-3.755,1.137-4.879a14.105,14.105,0,0,0-.4-3.041l-1.415-5.778c.846-.939,4.218,1.825,3.954,6.453" transform="translate(-206.594 -857.473)" fill="#ed7d2b"/>
        <path id="Trazado_997927" data-name="Trazado 997927" d="M253.319,835.126a4.581,4.581,0,0,1-2.91,4.649c-1.295.484-1.969-4.759.737-5.806s5.374.2,5.693,2.026.076,2.212.076,2.212-1.266-3.482-3.6-3.081" transform="translate(-220.887 -738.649)" fill="#2c3a64"/>
        <path id="Trazado_997928" data-name="Trazado 997928" d="M280.74,1261.08l-2.029-.246-.042-.061h0l-.007-.026c-.147-.585-1.03-4.126-1.651-7.443q-.065-.348-.126-.691a9.466,9.466,0,0,0,4.579-.806,69.886,69.886,0,0,0-.724,9.273" transform="translate(-245.35 -1109.238)" fill="#b2443b"/>
        <path id="Trazado_997929" data-name="Trazado 997929" d="M286.9,1327.287a2.4,2.4,0,0,0,1.42,1.106,2.332,2.332,0,0,1,1.4.87.547.547,0,0,1-.445.869h-4.733a.7.7,0,0,1-.671-.779c.037-.35.076-.758.094-1.071a2.257,2.257,0,0,1,.789-1.3,4.639,4.639,0,0,0,.889.419,3.353,3.353,0,0,0,1.258-.114" transform="translate(-251.535 -1175.852)" fill="#2c3a64"/>
        <path id="Trazado_997930" data-name="Trazado 997930" d="M205.369,938.681s-.012-3.244-2.059-2.72-3.835,6.433-4.527,8.316-.726,7.894-.726,7.894-.886,2.135-.1,2.5,1.268-1.486,1.384-1.443.182.663.433.339c.208-.269-.363-1.531-.363-1.531.3-1.017,1.866-6.586,1.866-6.586,1.574-1.745,4.091-6.768,4.091-6.768" transform="translate(-175.123 -829.313)" fill="#ffb27d"/>
        <path id="Trazado_997931" data-name="Trazado 997931" d="M247.223,846.346c-.112-.462-.016-.589.132-.625s.292.034.4.5a1.647,1.647,0,0,1-.066.9,1.648,1.648,0,0,1-.47-.771" transform="translate(-219.024 -749.395)" fill="#f99746"/>
        <path id="Trazado_997932" data-name="Trazado 997932" d="M252.91,849.869c.378-.287.534-.25.626-.129s.086.281-.292.568a.474.474,0,1,1-.333-.439" transform="translate(-223.646 -752.883)" fill="#f99746"/>
        <path id="Trazado_997933" data-name="Trazado 997933" d="M239.446,854.419c-.468-.082-.589.022-.615.172s.052.289.52.371a.474.474,0,1,0,.1-.543" transform="translate(-211.626 -757.084)" fill="#f99746"/>
        <path id="Trazado_997934" data-name="Trazado 997934" d="M244.653,859.108c-.229.416-.17.564-.036.638s.29.044.519-.372a.474.474,0,1,0-.483-.266" transform="translate(-216.653 -760.715)" fill="#f99746"/>
        <path id="Trazado_997935" data-name="Trazado 997935" d="M252.863,858.646c.394.265.409.424.324.551s-.238.172-.632-.094a.474.474,0,1,1,.308-.457" transform="translate(-223.296 -760.632)" fill="#f99746"/>
        <path id="Trazado_997936" data-name="Trazado 997936" d="M249.9,856.42a.2.2,0,1,1,.2.2.2.2,0,0,1-.2-.2" transform="translate(-221.441 -758.704)" fill="#ffb93e"/>
        <path id="Trazado_997937" data-name="Trazado 997937" d="M190.073,1249.248l-.1.151a60.312,60.312,0,0,0-4.68,7.59l-2.085-.315s1.4-5.653,2.657-9.455l0,0,.059-.179a8.193,8.193,0,0,0,4.151,2.212" transform="translate(-162.339 -1105.011)" fill="#b2443b"/>
        <path id="Trazado_997938" data-name="Trazado 997938" d="M179.842,1327.29a2.264,2.264,0,0,0,1.381,1.124,2.332,2.332,0,0,1,1.4.87.547.547,0,0,1-.445.869h-4.735a.7.7,0,0,1-.668-.779c.037-.35.076-.758.094-1.071a2.252,2.252,0,0,1,.779-1.3,4.836,4.836,0,0,0,.9.416,3.451,3.451,0,0,0,1.3-.132" transform="translate(-156.636 -1175.873)" fill="#2c3a64"/>
        <path id="Trazado_997939" data-name="Trazado 997939" d="M336.2,941.591a7.527,7.527,0,0,1-.079,1.058,13.485,13.485,0,0,1-1.9,1.164c-.119-1.256,1.415-2.962,1.865-3.438a5.669,5.669,0,0,1,.119,1.217" transform="translate(-296.149 -833.275)" fill="#ed7d2b"/>
        <path id="Trazado_997940" data-name="Trazado 997940" d="M222.011,937.481a6.7,6.7,0,0,1-4.585-2.265s2.054-4.7,4.191-3.546,1.877,4.644.394,5.811" transform="translate(-192.663 -825.401)" fill="#f99746"/>
        <path id="Trazado_997941" data-name="Trazado 997941" d="M436.88,850.322h0a.628.628,0,0,1-.478-.746L438,842.292a.627.627,0,0,1,1.224.268l-1.595,7.284a.628.628,0,0,1-.746.478" transform="translate(-386.687 -745.927)" fill="#ffb93e"/>
        <path id="Trazado_997942" data-name="Trazado 997942" d="M748.856,795.565h0a.628.628,0,0,1-.478-.746l1.595-7.284a.627.627,0,0,1,1.224.268l-1.595,7.284a.628.628,0,0,1-.746.478" transform="translate(-663.132 -697.406)" fill="#ffb93e"/>
        <path id="Trazado_997943" data-name="Trazado 997943" d="M954.628,918.246s5.106,10.053,5.65,11.607,1.661,5.817,1.661,5.817l-1.521.206s-2.121-4.5-2.277-5.009-3.22-3.623-3.748-5.149.235-7.472.235-7.472" transform="translate(-845.532 -813.667)" fill="#ffb27d"/>
        <path id="Trazado_997944" data-name="Trazado 997944" d="M961.852,1328.125a2.145,2.145,0,0,1-1.353,1.024,2.331,2.331,0,0,0-1.4.862.547.547,0,0,0,.44.871h4.731a.68.68,0,0,0,.677-.748c-.035-.35-.072-.759-.088-1.072a2.014,2.014,0,0,0-.719-1.233Z" transform="translate(-849.77 -1176.602)" fill="#2c3a64"/>
        <path id="Trazado_997945" data-name="Trazado 997945" d="M929.4,1106.129c-2.081,1.162-3.363.5-3.363.5-.09-1.081-1.47-6.636-2.96-12.423-1.823-7.078-3.813-14.5-3.813-14.5s4.229-3.756,7.3-1.708c1.421.946,1.875,3.393,2.072,6.05.231,3.091.112,6.467.761,8.083,1.209,3,0,14,0,14" transform="translate(-814.566 -954.686)" fill="#f99746"/>
        <path id="Trazado_997946" data-name="Trazado 997946" d="M928.635,1084.051l-5.561,10.16c-1.823-7.078-3.813-14.5-3.813-14.5s4.229-3.756,7.3-1.708c1.421.946,1.875,3.393,2.072,6.05" transform="translate(-814.566 -954.686)" fill="#ed7d2b"/>
        <path id="Trazado_997947" data-name="Trazado 997947" d="M892.864,883.079l3.527,1.625.792-2.742a8.4,8.4,0,0,1-.731-2.5,10.441,10.441,0,0,1-.082-2.257l-3.22,1.649a6.106,6.106,0,0,1,.128.737,5.357,5.357,0,0,1-.056,1.723c-.116.522-.246,1.083-.358,1.768" transform="translate(-791.175 -777.297)" fill="#ffb27d"/>
        <path id="Trazado_997948" data-name="Trazado 997948" d="M896.009,898.87a4.958,4.958,0,0,0,3.229-1.852l-3.174.129a5.363,5.363,0,0,1-.056,1.723" transform="translate(-793.962 -794.857)" fill="#ea9c68"/>
        <path id="Trazado_997949" data-name="Trazado 997949" d="M877.932,845.415s3.653.964,4.913-1.94c1.36-3.135-.132-5.418-1.372-5.572-2.473-.307-3.91.636-4.345,1.633s-1.211,5.365.8,5.88" transform="translate(-776.773 -742.422)" fill="#ffb27d"/>
        <path id="Trazado_997950" data-name="Trazado 997950" d="M872.016,818.2c-.969.077-2.132-.913-1.031-2.432,1-1.386,4.954-2.224,7.018-.622,4.8,3.728,1.331,7.6-.849,8.713a.63.63,0,0,1-.8-.2c-.369-.513-.919-1.365-.771-1.713.217-.513.246-1.772-.443-1.5s-2.168-2.325-3.128-2.249" transform="translate(-771.392 -721.538)" fill="#35488b"/>
        <path id="Trazado_997951" data-name="Trazado 997951" d="M863.467,1328.125a2.145,2.145,0,0,1-1.353,1.024,2.332,2.332,0,0,0-1.4.862.547.547,0,0,0,.44.871h4.731a.68.68,0,0,0,.677-.748c-.035-.35-.072-.759-.088-1.072a2.014,2.014,0,0,0-.719-1.233Z" transform="translate(-762.59 -1176.602)" fill="#2c3a64"/>
        <path id="Trazado_997952" data-name="Trazado 997952" d="M884.736,1110.922a4.507,4.507,0,0,0,3.056.266s3.265-8.349,3.458-12.278q.013-.236.009-.451c-.066-3.7,3.346-13.317,2.426-15.289s-8.356.886-8.356.886l-.148,6.705Z" transform="translate(-783.973 -959.192)" fill="#f99746"/>
        <path id="Trazado_997953" data-name="Trazado 997953" d="M870.814,936.675a5.087,5.087,0,0,1-2.14-.357c-1.176-.842-1.177-9.137-1.782-13.833-.065-.51-.139-.978-.22-1.388-.84-4.2.339-6.1,2.2-6.008,0,0,4.97-1.237,6.971.141,1.748,1.2,3.833,11.25,5.533,19.922.171.872-6.84,1.658-10.566,1.522" transform="translate(-767.721 -810.418)" fill="#c65447"/>
        <path id="Trazado_997954" data-name="Trazado 997954" d="M778.218,852.74s-7.991-3.638-8.612-4.287-4.525-6.953-4.525-6.953l-1.435.645s2.838,8.134,3.964,9.54,10.612,5.928,10.612,5.928Z" transform="translate(-676.675 -745.661)" fill="#ffb27d"/>
        <path id="Trazado_997955" data-name="Trazado 997955" d="M751.538,813.308a3.552,3.552,0,0,1-.19-1.246c.04-.609-.522-1.983-.764-1.82s.035.633-.282.666-1.3-1.46-1.646-1.19-.452.909.038,2.066a8.936,8.936,0,0,0,1.409,2.17Z" transform="translate(-663.132 -717.47)" fill="#ffb27d"/>
        <path id="Trazado_997956" data-name="Trazado 997956" d="M1007.5,1068.2a3.106,3.106,0,0,1-.088,1.1c-.156.509.045,1.79.284,1.7s.1-.545.373-.509.816,1.5,1.16,1.342.567-.682.383-1.764a7.813,7.813,0,0,0-.763-2.128Z" transform="translate(-892.624 -946.316)" fill="#ffb27d"/>
        <path id="Trazado_997957" data-name="Trazado 997957" d="M851.414,917.131s-1.958-.269-2.745-.346a20.259,20.259,0,0,0-2.8.209s-.02,4.888,2.721,7.145l3.391.582Z" transform="translate(-749.533 -812.362)" fill="#c65447"/>
        <path id="Trazado_997958" data-name="Trazado 997958" d="M928.917,914.721a31.357,31.357,0,0,1,3.414.234c1.269.374,2.312,3.11,2.312,3.11s-.777,2.37-2.176,2.448-3.55-5.792-3.55-5.792" transform="translate(-823.122 -810.543)" fill="#c65447"/>
        <path id="Trazado_997959" data-name="Trazado 997959" d="M874.672,998.189a5.087,5.087,0,0,1-2.14-.357c-1.176-.842-1.177-9.136-1.782-13.833.7,1.817,4.44,11.641,3.922,14.19" transform="translate(-771.58 -871.931)" fill="#b2443b"/>
        <path id="Trazado_997960" data-name="Trazado 997960" d="M1334.189,861.932c-1.723.7-2.152-.5-2.663-.835a1.5,1.5,0,0,1-.722-2.061c.49-1.174-1.066-1.686-.632-3.268s.93-1.3,1.116-2.621c.148-1.054,1.569-1.519,2.339-1.555.986-.047,2.088-.957,3.246-.709s1.375.682,1.9.776a4.478,4.478,0,0,1,3.257,1.582c1.6,1.6.973,2.226,1.159,3.032s.295,2.706-.419,3.109-1.093,1.886-1.838,1.923c-1.4.07-1.558.926-2.419,1.076-.668.116-.961-.269-2.028.273-.57.29-1.531-1.031-2.3-.721" transform="translate(-1178.61 -753.938)" fill="#2c3a64"/>
        <path id="Trazado_997961" data-name="Trazado 997961" d="M1327.82,1103.728s3.01,21.35,2.663,23.986l1.9-.23s2.378-9.32,2.091-11.928,2.355-13.356-.081-14.3-6.573,2.474-6.573,2.474" transform="translate(-1176.594 -975.686)" fill="#a05a2b"/>
        <path id="Trazado_997962" data-name="Trazado 997962" d="M1351.857,1101.253s4.294,21.37,4.109,24.022l1.879-.434s1.827-9.607,1.381-12.193,1.529-13.476-.962-14.269-6.408,2.874-6.408,2.874" transform="translate(-1197.893 -973.185)" fill="#bc6e39"/>
        <path id="Trazado_997963" data-name="Trazado 997963" d="M1330.4,1329.393a2.22,2.22,0,0,1-1.312,1.021,2.157,2.157,0,0,0-1.291.8.505.505,0,0,0,.411.8l4.37-.025a.628.628,0,0,0,.621-.695c-.034-.324-.071-.7-.087-.99a2.077,2.077,0,0,0-.72-1.2,4.48,4.48,0,0,1-.831.385,3.1,3.1,0,0,1-1.162-.1" transform="translate(-1176.484 -1177.74)" fill="#2c3a64"/>
        <path id="Trazado_997964" data-name="Trazado 997964" d="M1366.48,1329.393a2.221,2.221,0,0,1-1.312,1.021,2.156,2.156,0,0,0-1.291.8.505.505,0,0,0,.411.8l4.37-.025a.628.628,0,0,0,.621-.695c-.035-.324-.071-.7-.087-.99a2.078,2.078,0,0,0-.72-1.2,4.476,4.476,0,0,1-.831.385,3.1,3.1,0,0,1-1.162-.1" transform="translate(-1208.458 -1177.74)" fill="#35488b"/>
        <path id="Trazado_997965" data-name="Trazado 997965" d="M1317.387,961.862s-2.856,4.815-3.432,8.741c0,0,1.389,1.874,1.954.558s4.62-8.361,1.478-9.3" transform="translate(-1164.307 -852.315)" fill="#bc6e39"/>
        <path id="Trazado_997966" data-name="Trazado 997966" d="M1348.862,867.183a5.868,5.868,0,0,1,3.7-2.475,3.533,3.533,0,0,1,4.044,2.98c.3,1.95-.006,4.475-3.186,5.385Z" transform="translate(-1195.239 -766.184)" fill="#2c3a64"/>
        <path id="Trazado_997967" data-name="Trazado 997967" d="M1354,924.766l3.6,2.138.909-2.533a7.929,7.929,0,0,1-.539-2.4,9.872,9.872,0,0,1,.058-2.129L1354.9,921.2a5.8,5.8,0,0,1,.076.7,5.047,5.047,0,0,1-.156,1.618,2.249,2.249,0,0,1-.82,1.246" transform="translate(-1199.791 -815.081)" fill="#bc6e39"/>
        <path id="Trazado_997968" data-name="Trazado 997968" d="M1332.117,981.535c-.336-3.847-.837-8.9-1.153-10.979a7.224,7.224,0,0,1-.016-2.067l.741-5.462.233-1.714a2.025,2.025,0,0,0-1.225-2.137,11.415,11.415,0,0,0-2.3-.6,3.735,3.735,0,0,1-3.011,1.082c-.931-.183-1.113-.684-1.063-1.218-.236.023-.455.049-.657.077a2.728,2.728,0,0,0-1.879,1.158v0l-.015.026a2.733,2.733,0,0,0-.182.311l-1.368,2.339a1.81,1.81,0,0,0,.8,1.189c-.672,7.4-1.451,24.117-.823,24.331,4.066,1.387,11.281-.542,12.257-1.476.049-.047-.1-2.155-.341-4.861" transform="translate(-1169.638 -849.286)" fill="#ffb93e"/>
        <path id="Trazado_997969" data-name="Trazado 997969" d="M1361.2,939.553a4.676,4.676,0,0,0,3.15-1.55l-2.995-.068a5.053,5.053,0,0,1-.156,1.618" transform="translate(-1206.168 -831.114)" fill="#a05a2b"/>
        <path id="Trazado_997970" data-name="Trazado 997970" d="M1345.9,888.928s3.38,1.126,4.74-1.532c1.468-2.869.2-5.108-.958-5.327-2.31-.437-3.718.365-4.187,1.277s-1.461,4.978.406,5.582" transform="translate(-1191.65 -781.501)" fill="#bc6e39"/>
        <path id="Trazado_997971" data-name="Trazado 997971" d="M1353.907,926.362s-.166.345-1.061.089c0,0-.75-.215-.639-.611a2.508,2.508,0,0,1,1.7.522" transform="translate(-1198.194 -820.388)" fill="#fff"/>
        <path id="Trazado_997972" data-name="Trazado 997972" d="M1370.554,1007.363c-.107-.124-6.949-8.106-7.2-12.353-.248-4.28,3.432-7.407,3.432-7.407a3.9,3.9,0,0,1,3.335,1.252l-.741,5.462a7.215,7.215,0,0,0,.016,2.067c.315,2.076.817,7.133,1.153,10.979" transform="translate(-1208.074 -875.114)" fill="#ffa412"/>
        <path id="Trazado_997973" data-name="Trazado 997973" d="M1348.7,874.731a4.231,4.231,0,0,0,2.688,4.295c1.2.447,1.819-4.4-.681-5.363s-4.964.181-5.259,1.872-.07,2.043-.07,2.043,1.17-3.216,3.322-2.846" transform="translate(-1192.084 -773.848)" fill="#2c3a64"/>
        <path id="Trazado_997974" data-name="Trazado 997974" d="M1355,968.365a55.287,55.287,0,0,0-1.433,7.627s-3.028,5.288-3.205,5.664,1.093.89,1.093.89,3.8-4.051,4.531-5.753,3.329-7.238,2.29-8.89-3.275.462-3.275.462" transform="translate(-1196.554 -857.109)" fill="#bc6e39"/>
        <path id="Trazado_997975" data-name="Trazado 997975" d="M1313.894,1038.577a9.743,9.743,0,0,0,2.374,6.645s.722-.869.631-1.139-1.126-4.412-1.883-5-1.122-.5-1.122-.5" transform="translate(-1164.247 -920.289)" fill="#bc6e39"/>
        <path id="Trazado_997976" data-name="Trazado 997976" d="M1336.5,1093.568s-1.693-.012-1.787.386a1.225,1.225,0,0,0,1.674,1.21c1.238-.434,1.207-.705,1.207-.705Z" transform="translate(-1182.696 -969.022)" fill="#bc6e39"/>
        <path id="Trazado_997977" data-name="Trazado 997977" d="M1335.294,1086.954s1.36.629.9,1.3a.907.907,0,0,1-1.529-.159c-.143-.429.631-1.139.631-1.139" transform="translate(-1182.642 -963.161)" fill="#bc6e39"/>
        <path id="Trazado_997978" data-name="Trazado 997978" d="M1382.293,970.633a6.186,6.186,0,0,0,4.513,1.4s1.349-4.781-.814-5.368-3.951,2.247-3.7,3.972" transform="translate(-1224.842 -856.498)" fill="#ffb93e"/>
        <path id="Trazado_997979" data-name="Trazado 997979" d="M760.055,621.354a.386.386,0,0,1-.354-.541,8.488,8.488,0,0,1,1.559-3.236,5.712,5.712,0,0,1,4.945-1.911.382.382,0,0,0,.319-.139c.873-1.06,3.6-4.681,7.3-5.177a8.044,8.044,0,0,1,5.577,1.921.386.386,0,0,0,.216.077c1.16.042,6.009-.483,8.515,2.374,1.242,1.416,1.632,4.1,1.355,6.249a.386.386,0,0,1-.382.337Zm5.87-4.925c-2.339,0-4.051,2.176-4.9,3.565a.385.385,0,0,0,.33.587l27.046-.044a.384.384,0,0,0,.385-.365,5.577,5.577,0,0,0-1.328-4.068c-2.575-2.938-8.038-2.991-8.093-2.991h0a.386.386,0,0,1-.236-.082h0a6.526,6.526,0,0,0-5.013-1.491c-4.027.539-7.2,4.741-7.232,4.783h0a.386.386,0,0,1-.367.151h0a3.841,3.841,0,0,0-.586-.045" transform="translate(-673.149 -540.8)" fill="#afcdfb"/>
        <path id="Trazado_997980" data-name="Trazado 997980" d="M2003.536,455.8a.4.4,0,0,1-.366-.559h0a8.762,8.762,0,0,1,1.6-3.45,5.844,5.844,0,0,1,5.13-1.873.4.4,0,0,0,.329-.143c.9-1.1,3.568-4.756,7.392-5.27a8.6,8.6,0,0,1,5.919,1.9.4.4,0,0,0,.224.079c1.2.044,6.566-.476,9.156,2.477,1.284,1.464,1.336,4.214,1.049,6.439a.4.4,0,0,1-.395.348Zm6.069-5.093c-2.419,0-4.188,2.249-5.072,3.686a.4.4,0,0,0,.341.607l27.966-.045a.4.4,0,0,0,.4-.377,5.767,5.767,0,0,0-1.373-4.206c-2.662-3.038-8.311-3.093-8.368-3.093h0a.4.4,0,0,1-.244-.085h0a6.749,6.749,0,0,0-5.183-1.542c-4.164.557-7.446,4.9-7.478,4.946h0a.4.4,0,0,1-.38.156h0a3.989,3.989,0,0,0-.606-.047" transform="translate(-1774.997 -393.841)" fill="#afcdfb"/>
        <path id="Trazado_997981" data-name="Trazado 997981" d="M1279.867,162.268c-3.98-4.536-12.231-3.742-14.069-3.809a.6.6,0,0,1-.344-.12c-2.671-1.983-6.083-3.331-9.1-2.922h0q-1.073,1.2-2.072,2.491a11.594,11.594,0,0,1,2.776-.731,11.178,11.178,0,0,1,1.322-.093,10.63,10.63,0,0,1,6.639,2.46.556.556,0,0,0,.37.132c.092,0,8.766.08,12.852,4.747a8.884,8.884,0,0,1,2.116,6.466.611.611,0,0,1-.609.582l-34.936.052q-.478.622-.959,1.229l37.019-.065a.612.612,0,0,0,.608-.528c.437-3.425.358-7.643-1.613-9.89" transform="translate(-1102.19 -137.652)" fill="#afcdfb"/>
        <path id="Trazado_997982" data-name="Trazado 997982" d="M1480.125,1153.953h0a.237.237,0,0,1,.031-.333l2.741-2.269a.236.236,0,0,1,.3.364l-2.741,2.269a.237.237,0,0,1-.333-.031" transform="translate(-1311.505 -1020.175)" fill="#ffa412"/>
        <path id="Trazado_997983" data-name="Trazado 997983" d="M1708.625,1042.471s7.107,6.722,6.446,9.257a5.038,5.038,0,0,1-3.2,3.306Z" transform="translate(-1514.029 -923.744)" fill="#ffb27d"/>
        <path id="Trazado_997984" data-name="Trazado 997984" d="M1711.441,1048.418a1.748,1.748,0,0,1-.4.132c-1.481.225-2.42-6.056-2.42-6.056a24.921,24.921,0,0,1,3.742,2.988s.145,2.3-.926,2.936" transform="translate(-1514.029 -923.764)" fill="#ffb93e"/>
        <path id="Trazado_997985" data-name="Trazado 997985" d="M1718.128,1069.672l-1.957-3.094a7.075,7.075,0,0,1,2.883.159s.145,2.3-.926,2.936" transform="translate(-1520.715 -945.018)" fill="#ffa412"/>
        <path id="Trazado_997986" data-name="Trazado 997986" d="M1649.011,1201.789s-4.3,5.931-5.031,12.684c-.193,1.772,3.094,4.7,4.876,4.7h11.629l-1.3-2.246s-6.5-3.112-7.736-3.059c0,0,6.8-5.749,5.633-10.267-.573-2.213-8.068-1.81-8.068-1.81" transform="translate(-1456.74 -1064.892)" fill="#25386d"/>
        <path id="Trazado_997987" data-name="Trazado 997987" d="M1777.748,1334.188l7-.021a2.068,2.068,0,0,0-2.31-1.471c-1.836.251-2.414-1-3.571-1.117s-1.346.363-1.346.363Z" transform="translate(-1575.075 -1179.908)" fill="#1d2a49"/>
        <path id="Trazado_997988" data-name="Trazado 997988" d="M1746.021,1334.188l7-.021a2.068,2.068,0,0,0-2.31-1.471c-1.836.251-2.415-1-3.571-1.117s-1.345.363-1.345.363Z" transform="translate(-1546.962 -1179.908)" fill="#17263d"/>
        <path id="Trazado_997989" data-name="Trazado 997989" d="M1529.7,1058.014s-6.459,7.654-8.285,7.847-6.333,2.586-6.333,2.586l.4,1.428s5.476-.491,6.85-.824,9-4.394,9.1-6.064,2.094-4.464-1.733-4.973" transform="translate(-1342.526 -937.517)" fill="#ffb27d"/>
        <path id="Trazado_997990" data-name="Trazado 997990" d="M1605.243,1055.222a4.82,4.82,0,0,0-3.084,1.2c-1.423,1.262-3.684,3.624-3.684,3.624a5.858,5.858,0,0,0,5.658,4.133c4.561.044,4.063-8.262,1.11-8.961" transform="translate(-1416.424 -935.042)" fill="#ffb93e"/>
        <path id="Trazado_997991" data-name="Trazado 997991" d="M1666.1,948.292a2.176,2.176,0,0,0-.557-1.32,2.286,2.286,0,0,1,.133,1.228c-.162.46.424.092.424.092" transform="translate(-1475.851 -839.121)" fill="#2c3a64"/>
        <path id="Trazado_997992" data-name="Trazado 997992" d="M1667.458,953.049a1.233,1.233,0,0,1,1.232.042.983.983,0,0,0-1,.427Z" transform="translate(-1477.55 -844.372)" fill="#2c3a64"/>
        <path id="Trazado_997993" data-name="Trazado 997993" d="M1641.844,1011.622l4.088.191-.312-2.992a8.863,8.863,0,0,1-1.7-2.156,11,11,0,0,1-.974-2.172l-2.492,2.885a6.418,6.418,0,0,1,.417.669,5.65,5.65,0,0,1,.628,1.705c.093.556.189,1.155.35,1.869" transform="translate(-1453.617 -890.091)" fill="#ffb27d"/>
        <path id="Trazado_997994" data-name="Trazado 997994" d="M1644.738,1026.652a5.224,5.224,0,0,0,2.421-3.087l-3.049,1.382a5.639,5.639,0,0,1,.628,1.7" transform="translate(-1456.861 -906.991)" fill="#ea9c68"/>
        <path id="Trazado_997995" data-name="Trazado 997995" d="M1614.23,976.677s3.949-.5,4.03-3.84c.087-3.6-2.274-5.24-3.546-4.9-2.538.679-3.568,2.169-3.6,3.315s.942,5.72,3.114,5.424" transform="translate(-1427.625 -857.661)" fill="#ffb27d"/>
        <path id="Trazado_997996" data-name="Trazado 997996" d="M1598.829,953.6c-.916.458-2.038,0-1.564-1.92.432-1.751,4.135-3.555,6.384-2.988,6.213,1.566,4.129,6.454,2.439,8.4a.664.664,0,0,1-.855.124c-.564-.355-1.437-.969-1.431-1.367.009-.587-.461-1.828-1.027-1.292s-3.038-1.413-3.946-.958" transform="translate(-1415.252 -840.548)" fill="#2c3a64"/>
        <path id="Trazado_997997" data-name="Trazado 997997" d="M1605.566,1202.013s-6.34,7.339-7.073,14.091a3.034,3.034,0,0,0,3.058,3.291h14.676a2.859,2.859,0,0,0-.145-1.314,5.364,5.364,0,0,0-.829-.932s-9.439-3.016-10.679-2.962c0,0,11.885-5.943,10.468-9.935-.765-2.155-9.476-2.239-9.476-2.239" transform="translate(-1416.424 -1065.115)" fill="#35488b"/>
        <path id="Trazado_997998" data-name="Trazado 997998" d="M1643.677,1061.507a15.873,15.873,0,0,1-8.41.238,17.692,17.692,0,0,1-5.369-2.222s-3.107-14.135-.489-17.15c0,0,5.8-3.372,8.092-2.1a31.31,31.31,0,0,1,3.491,7.272,48.809,48.809,0,0,1,2.684,13.964" transform="translate(-1442.905 -921.542)" fill="#ffb93e"/>
        <path id="Trazado_997999" data-name="Trazado 997999" d="M1489.408,1146.779s-1.931-.707-2.675-.17-1.612,2.134-1.322,2.134c.455,0,1.364-1.018,1.777-.894s-1.18.7-.931.843.664-.166,1.079-.125a1.9,1.9,0,0,0,1.244-.159,5.673,5.673,0,0,1,1.67-.311Z" transform="translate(-1316.186 -1015.844)" fill="#ffb27d"/>
        <path id="Trazado_998000" data-name="Trazado 998000" d="M1697.414,1120.313a15.872,15.872,0,0,1-8.41.238c6.188-2.46,5.726-14.2,5.726-14.2a48.821,48.821,0,0,1,2.684,13.963" transform="translate(-1496.642 -980.348)" fill="#ffa412"/>
        <path id="Trazado_998001" data-name="Trazado 998001" d="M707.494,1180.353h0a.206.206,0,0,0-.027-.289l-2.38-1.971a.205.205,0,1,0-.262.316l2.38,1.971a.206.206,0,0,0,.289-.027" transform="translate(-624.486 -1043.878)" fill="#82b378"/>
        <path id="Trazado_998002" data-name="Trazado 998002" d="M486.917,1083.535s-6.172,5.838-5.6,8.039a4.375,4.375,0,0,0,2.78,2.871Z" transform="translate(-426.467 -960.131)" fill="#ffb27d"/>
        <path id="Trazado_998003" data-name="Trazado 998003" d="M502.99,1088.7a1.526,1.526,0,0,0,.345.115c1.286.195,2.1-5.26,2.1-5.26a21.638,21.638,0,0,0-3.25,2.6s-.126,2,.8,2.55" transform="translate(-444.987 -960.15)" fill="#c65447"/>
        <path id="Trazado_998004" data-name="Trazado 998004" d="M475.285,1232.865c.159,1.547-2.7,4.086-4.245,4.086h-10.1l.423-.727.714-1.216s3.7-1.772,5.686-2.42a3.319,3.319,0,0,1,1.031-.238s-5.911-5-4.892-8.926c.5-1.917,7.008-1.573,7.008-1.573a26.5,26.5,0,0,1,4.377,11.015" transform="translate(-408.441 -1082.673)" fill="#ea9c68"/>
        <path id="Trazado_998005" data-name="Trazado 998005" d="M464.653,1319.948l.714-1.216s3.7-1.772,5.686-2.42a3.483,3.483,0,0,0,2.42,1.481c1.573.146-6.492,1.719-8.82,2.155" transform="translate(-411.733 -1166.397)" fill="#ed7d2b"/>
        <path id="Trazado_998006" data-name="Trazado 998006" d="M421.9,1336.878l-6.077-.018a1.8,1.8,0,0,1,2.006-1.278c1.594.218,2.1-.866,3.1-.97s1.169.315,1.169.315Z" transform="translate(-368.467 -1182.598)" fill="#b2443b"/>
        <path id="Trazado_998007" data-name="Trazado 998007" d="M449.458,1336.878l-6.077-.018a1.8,1.8,0,0,1,2.006-1.278c1.594.218,2.1-.866,3.1-.97s1.169.315,1.169.315Z" transform="translate(-392.884 -1182.598)" fill="#c65447"/>
        <path id="Trazado_998008" data-name="Trazado 998008" d="M571.56,1097.034s5.609,6.647,7.2,6.815,5.5,2.246,5.5,2.246l-.347,1.24s-4.756-.427-5.949-.716-7.817-3.816-7.9-5.266-1.819-3.877,1.5-4.319" transform="translate(-504.663 -972.093)" fill="#ffb27d"/>
        <path id="Trazado_998009" data-name="Trazado 998009" d="M559.494,1094.609a4.187,4.187,0,0,1,2.678,1.047c1.236,1.1,3.2,3.147,3.2,3.147a5.087,5.087,0,0,1-4.914,3.589c-3.961.038-3.529-7.176-.964-7.782" transform="translate(-494.027 -969.944)" fill="#c65447"/>
        <path id="Trazado_998010" data-name="Trazado 998010" d="M551.714,1056.745l-3.55.166.271-2.6a7.688,7.688,0,0,0,1.481-1.872,9.55,9.55,0,0,0,.845-1.886l2.164,2.506a5.593,5.593,0,0,0-.362.581,4.907,4.907,0,0,0-.545,1.481c-.081.483-.164,1-.3,1.623" transform="translate(-485.733 -930.906)" fill="#ffb27d"/>
        <path id="Trazado_998011" data-name="Trazado 998011" d="M565.647,1069.8a4.537,4.537,0,0,1-2.1-2.681l2.648,1.2a4.906,4.906,0,0,0-.545,1.48" transform="translate(-499.363 -945.582)" fill="#ea9c68"/>
        <path id="Trazado_998012" data-name="Trazado 998012" d="M564.455,1026.4s-3.43-.438-3.5-3.335c-.076-3.126,1.975-4.55,3.08-4.255,2.2.59,3.1,1.884,3.124,2.879s-.818,4.967-2.7,4.711" transform="translate(-497.066 -902.742)" fill="#ffb27d"/>
        <path id="Trazado_998013" data-name="Trazado 998013" d="M506.3,1234.281a2.635,2.635,0,0,1-2.658,2.856H490.895a2.57,2.57,0,0,1,.132-1.137,4.267,4.267,0,0,1,.714-.807s5.144-1.64,7.815-2.3a6.573,6.573,0,0,1,1.468-.278s-10.327-5.157-9.1-8.621c.674-1.878,8.238-1.957,8.238-1.957s5.5,6.373,6.135,12.244" transform="translate(-434.974 -1082.859)" fill="#ffb27d"/>
        <path id="Trazado_998014" data-name="Trazado 998014" d="M491.267,1102.475a18.407,18.407,0,0,1-6.783,3.9,16.509,16.509,0,0,1-1.97.33,15.582,15.582,0,0,1-5.5-.33,37.925,37.925,0,0,1,1.441-13.606v-.013c.555-2.063,1.137-3.769,1.507-4.826a27.762,27.762,0,0,1,3.028-6.32c2-1.1,7.035,1.824,7.035,1.824,2.274,2.619,1.243,19.041,1.243,19.041" transform="translate(-422.546 -958.207)" fill="#c65447"/>
        <path id="Trazado_998015" data-name="Trazado 998015" d="M688.063,1174.123s1.677-.614,2.323-.148,1.4,1.853,1.148,1.853c-.4,0-1.184-.884-1.543-.776s1.025.606.808.732-.576-.144-.937-.108a1.655,1.655,0,0,1-1.081-.138,4.928,4.928,0,0,0-1.45-.27Z" transform="translate(-609.051 -1040.116)" fill="#ffb27d"/>
        <path id="Trazado_998016" data-name="Trazado 998016" d="M547.771,1007.639s-2.08,2.617-3.874,2.047c0,0-.513-.869-.926-.518s0,.806,0,.95-1.03,1.2-1.228,1.033-3.771-1.019-2.329-3.966,3.923-3.774,5.093-3.333,3.787,2.975,3.264,3.788" transform="translate(-477.677 -889.424)" fill="#ed7d2b"/>
        <path id="Trazado_998017" data-name="Trazado 998017" d="M501.844,1321.6H490.895a2.57,2.57,0,0,1,.132-1.137,4.269,4.269,0,0,1,.714-.807s5.144-1.64,7.815-2.3a4.984,4.984,0,0,0,2.288,4.245" transform="translate(-434.974 -1167.321)" fill="#f99746"/>
        <path id="Trazado_998018" data-name="Trazado 998018" d="M484.587,969.482s-.424-4.506-2.077-4.319-2.215-1.543-3.284-1.449-1.565,1.14-2.667.92a1.575,1.575,0,0,0-1.842,1.962c.354,1.178-.71,1.619-.068,2.611s.494,1.641.568,2.777,1.066,2.5,2.058,1.818,1.928.448,2.975-.2.917-2.135,1.891-1.887,2.445-2.232,2.445-2.232" transform="translate(-420.404 -853.953)" fill="#ed7d2b"/>
        <path id="Trazado_998019" data-name="Trazado 998019" d="M544.452,1009.606a3.243,3.243,0,0,1-2.377,2.776s1.571.278,2.232-.631a2.429,2.429,0,0,0,.145-2.145" transform="translate(-480.338 -894.622)" fill="#b2443b"/>
        <path id="Trazado_998020" data-name="Trazado 998020" d="M482.513,1195.454a15.58,15.58,0,0,1-5.5-.331,37.923,37.923,0,0,1,1.441-13.606c-.026.542.5,12.667,4.059,13.937" transform="translate(-422.546 -1046.954)" fill="#b2443b"/>
        <path id="Trazado_998021" data-name="Trazado 998021" d="M101.429,440.557q-.688.126-1.378.276c.141,1.983-.036,5.8-.613,7.229-1.475,3.663-3.135,5.483-8.461,9.011l-.568.264.251.582c.04.12,4.211,9.789-2.877,15.184-7.127,5.421-17.909-.361-18.015-.427l-.581-.37-.344.595c-.054.08-4.879,8.172-11.624,9.666a9.364,9.364,0,0,1-1.951.229q-.255.67-.485,1.337a19.052,19.052,0,0,0,5.315-.682c7.025-2.827,8.255-7.349,9.525-9.32,2.5,1.442,12.4,6.545,19.372,1.244,6.889-5.237,3.993-14.9,3.107-17.389,4.483-2.261,7.874-3.872,9.237-7.719,1.094-3.089.6-7.215.091-9.708" transform="translate(-48.544 -390.382)" fill="#82b378"/>
        <path id="Trazado_998022" data-name="Trazado 998022" d="M2298.084,811.118a18.908,18.908,0,0,1-3.967-3.359c-2.314-3.24-3.068-5.686-3.253-11.6-.463-.727-.926-1.468-1.375-2.208-2.539-.608-10.658-3.2-11.345-11.266-.357-4.231,1.706-7.828,4.112-10.526,0-.939.04-1.917.119-2.922-3.636,2.9-7.471,7.391-6.981,13.223.767,9.23,11.2,12.271,13.963,12.919-.542,5.342-1.031,9.335,1.667,12.8,1.825,2.34,4.984,4.112,7.457,5.21a20.858,20.858,0,0,0-.4-2.274" transform="translate(-2016.21 -681.632)" fill="#82b378"/>
        <path id="Trazado_998023" data-name="Trazado 998023" d="M2280.392,1246.416l-.811.017c0-.058-.556-5.8-3.187-9.235-1.756-2.292-1.477-4.009-.7-4.782a2.252,2.252,0,0,1,3.04.071c2.2,1.689,1.723,12.681,1.661,13.929m-3.568-13.717a1.051,1.051,0,0,0-.558.292c-.584.584-.571,1.959.774,3.713a16.8,16.8,0,0,1,2.625,5.77c-.021-4.094-.379-8.538-1.427-9.341a1.837,1.837,0,0,0-1.413-.433" transform="translate(-2015.976 -1091.563)" fill="#82b378"/>
        <path id="Trazado_998024" data-name="Trazado 998024" d="M2319.1,1273.185a1.479,1.479,0,0,1,1.994-.09c.519.5.727,1.619-.393,3.148-1.677,2.29-1.956,6.068-1.958,6.106h-.532c-.059-.818-.533-8.025.889-9.165m.334.416c-.676.542-.847,3.463-.8,6.15a11.028,11.028,0,0,1,1.639-3.824c.857-1.17.846-2.073.454-2.448a.69.69,0,0,0-.371-.183,1.207,1.207,0,0,0-.921.3" transform="translate(-2054.077 -1127.796)" fill="#82b378"/>
        <path id="Trazado_998025" data-name="Trazado 998025" d="M2315.181,1238.617c-.371-3.833,3.32-6.623,3.475-6.756l.2.131c-.033.029-3,3.215-2.684,6.528Z" transform="translate(-2051.481 -1091.564)" fill="#82b378"/>
        <path id="Trazado_998026" data-name="Trazado 998026" d="M2333.262,1214.818c.061-.006-.237-2.027-1.327-1.657s-.369,1.832,1.327,1.657" transform="translate(-2065.89 -1074.954)" fill="#ffb93e"/>
        <path id="Trazado_998027" data-name="Trazado 998027" d="M2347.291,1211.149c.035.051,1.668-1.175.823-1.957s-1.786.55-.823,1.957" transform="translate(-2079.596 -1071.272)" fill="#ffb93e"/>
        <path id="Trazado_998028" data-name="Trazado 998028" d="M2353.348,1222.654c-.039.047,1.585,1.286,2.107.26s-1.014-1.569-2.107-.26" transform="translate(-2085.323 -1082.722)" fill="#ffb93e"/>
        <path id="Trazado_998029" data-name="Trazado 998029" d="M2348.574,1229.549c-.054-.03-.97,1.8.135,2.118s1.354-1.289-.135-2.118" transform="translate(-2080.733 -1089.515)" fill="#ffb93e"/>
        <path id="Trazado_998030" data-name="Trazado 998030" d="M2334.017,1229.588c.007-.061-2.032-.2-1.9.946s1.712.748,1.9-.946" transform="translate(-2066.505 -1089.515)" fill="#ffb93e"/>
        <path id="Trazado_998031" data-name="Trazado 998031" d="M1499.376,1206.006a2.719,2.719,0,0,0-3.671.086c-.784.6-1.286,2.177-1.6,4.14a12.4,12.4,0,0,0-3.733-4.9l-.245.159a13.188,13.188,0,0,1,3.22,6.459,1.569,1.569,0,0,0-.372-.469,1.785,1.785,0,0,0-2.408-.109c-.626.6-.877,1.954.474,3.8,2.025,2.765,2.362,7.326,2.365,7.372h.281c.007.154.013.276.017.361l.979.02c.006-.069.672-7.006,3.848-11.149,2.12-2.767,1.782-4.839.849-5.773m-5.84,13.405a13.311,13.311,0,0,0-1.979-4.617c-1.035-1.413-1.021-2.5-.548-2.955a.834.834,0,0,1,.447-.221,1.456,1.456,0,0,1,1.112.368c.817.655,1.023,4.181.968,7.425m4.212-8.229a20.274,20.274,0,0,0-3.169,6.966c.025-4.943.457-10.308,1.723-11.278a2.216,2.216,0,0,1,1.705-.523,1.264,1.264,0,0,1,.674.352c.705.705.69,2.365-.933,4.482" transform="translate(-1320.353 -1068.06)" fill="#82b378"/>
        <path id="Trazado_998032" data-name="Trazado 998032" d="M1490.654,1184.76c-.074-.008.286-2.447,1.6-2s.445,2.212-1.6,2" transform="translate(-1320.875 -1048.007)" fill="#ffb93e"/>
        <path id="Trazado_998033" data-name="Trazado 998033" d="M1477.284,1180.331c-.042.062-2.014-1.419-.994-2.362s2.156.664.994,2.362" transform="translate(-1307.895 -1043.562)" fill="#ffb93e"/>
        <path id="Trazado_998034" data-name="Trazado 998034" d="M1463.018,1194.22c.047.057-1.913,1.552-2.544.314s1.225-1.895,2.544-.314" transform="translate(-1294.028 -1057.385)" fill="#ffb93e"/>
        <path id="Trazado_998035" data-name="Trazado 998035" d="M1475.961,1202.545c.065-.036,1.17,2.168-.164,2.557s-1.634-1.556.164-2.557" transform="translate(-1306.749 -1065.587)" fill="#ffb93e"/>
        <path id="Trazado_998036" data-name="Trazado 998036" d="M1489.234,1202.593c-.008-.074,2.452-.238,2.294,1.142s-2.068.9-2.294-1.142" transform="translate(-1319.624 -1065.588)" fill="#ffb93e"/>
        <path id="Trazado_998037" data-name="Trazado 998037" d="M294.666,1355.421H.334a.335.335,0,0,1-.334-.334v-.114a.335.335,0,0,1,.334-.334H294.666a.335.335,0,0,1,.334.334v.114a.335.335,0,0,1-.334.334" transform="translate(0 -1200.359)" fill="#2e3552"/>
      </g>
    </g>
  </g>
</svg>
