<svg xmlns="http://www.w3.org/2000/svg" xmlns:xlink="http://www.w3.org/1999/xlink" width="156" height="156" viewBox="0 0 156 156">
  <defs>
    <clipPath id="clip-path">
      <rect id="Rectángulo_455514" data-name="Rectángulo 455514" width="82.647" height="80.558" fill="#12263f"/>
    </clipPath>
  </defs>
  <g id="Grupo_1183541" data-name="Grupo 1183541" transform="translate(-1234.554 -458.054)">
    <g id="Elipse_12108" data-name="Elipse 12108" transform="translate(1241.554 465.054)" fill="#30df8e" stroke="rgba(255,255,255,0.4)" stroke-width="7">
      <circle cx="71" cy="71" r="71" stroke="none"/>
      <circle cx="71" cy="71" r="74.5" fill="none"/>
    </g>
    <g id="Grupo_1183850" data-name="Grupo 1183850" transform="translate(1271.23 492.775)">
      <g id="Grupo_1183849" data-name="Grupo 1183849" clip-path="url(#clip-path)">
        <path id="Trazado_998600" data-name="Trazado 998600" d="M17.547,137.467a7.7,7.7,0,0,0,3.678-2.409c.92-1.225.988-2.982,3.074-2.176a21.8,21.8,0,0,1,1.942,1.358,22.609,22.609,0,0,0,5.75,2.4,6.67,6.67,0,0,1-.519-5.16c.146-.471.858-1.4.856-1.75,0-.452-.552-1.7-.56-2.477a6.74,6.74,0,0,1,2.506-5.144c.275-.214,1.157-.507,1.191-.563.1-.163.037-.853.125-1.216.851-3.472,3.683-5.23,7.212-4.919.5.044,1.22.454,1.631.356.633-.15,2.063-1.593,3.568-1.8,2.151-.3,3.43.854,4.71.8,1.743-.078,2.433-1.281,5.035-.674,1.146.267,2.644,1.581,3.072,1.682.389.092,1.271-.332,1.817-.376,2.775-.225,5.812,1.217,6.765,3.96.181.519.324,2.093.386,2.194.034.056.914.358,1.191.563a6.893,6.893,0,0,1,2.506,5.144c-.008.776-.556,2.025-.56,2.477,0,.34.75,1.377.9,1.911a6.874,6.874,0,0,1,.067,3.332,23.688,23.688,0,0,0,11.436,2.287c.821-.012,1.513-.535,2.375.208v-6.912a4.39,4.39,0,0,0-1.044-1.432c-.919-.712-2.659-.692-3.157-1.4-.928-1.324.361-2.1.28-3.459H76.661c-1.374,0-1.833-2.6-.11-2.993a36.417,36.417,0,0,1,7.809.04,3.443,3.443,0,0,1,2.5,2.658c.075.524-.213,1.57-.107,1.74.075.12,1.9,1.092,2.365,1.569a6.424,6.424,0,0,1,1.681,3.683c.174,1.894.287,10.145-.106,11.673a5.448,5.448,0,0,1-1.686,2.441c-.273.188-.865.21-1.012.432-.079.118-.316,2.184-.5,2.8a12.857,12.857,0,0,1-4.035,5.869c-1.368,1.156-2.721.861-1.129,2.995,1.83,2.452,7.142,2.324,9.6,4.842a9.624,9.624,0,0,1,1.9,3.462,25.449,25.449,0,0,1,.009,4.657c-.308,1.028-2.288,1.021-2.741-.068-.364-.875.039-2.771-.2-3.928-.63-3.066-4.841-3.661-7.3-4.5a8.11,8.11,0,0,1-3.875,3.453c-1.218.548-4.07,1.658-4.208-.491s1.825-1.6,3.371-2.41a10.222,10.222,0,0,0,2.2-1.923c-1.285-.986-1.748-2.5-2.563-3.751a10.726,10.726,0,0,1-3.528.354c-.521-.021-1.591-.4-1.862-.354-.5.083-.655,2.492-2.42,1.956-1.741-.529-.556-2.9-.651-3.061s-2.475-1.663-2.983-2.181c-.814-.831-1.98-2.149-1.058-3.287,1.509-1.862,3.213,1.424,4.289,2.165a9.442,9.442,0,0,0,13.915-3.563c.113-.244.785-2.188.785-2.31v-6.087H80.375a38.024,38.024,0,0,1-3.979-.973c-.729-.221-3.586-1.565-3.959-1.407-1,.424-1.781,2.891-2.782,3.834-.914.861-2.756,1.3-3.108,1.638-.211.2-.884,2.745-1.16,3.379a14.586,14.586,0,0,1-3.588,4.872c-.419.361-2.7,1.794-2.745,1.985-.261,1.1,1.746,3.168,2.669,3.675,4.38,2.407,10.986,1.917,11.715,8.918.157,1.5.595,5.53-1.89,4.784-1.4-.421-.877-2.491-.976-3.568-.76-8.19-11.4-4.1-14.178-12.027-1.518-4.334.223-3.663,2.819-5.529,4.861-3.492,4.531-9.2,4.314-14.6-1.4-.939-2.6-1.669-3.317-3.286-.167-.378-.1-1.119-.35-1.3-.318-.231-1.8-.032-2.369-.107-.642-.084-1.518-.657-2.072-.6-.443.045-1.153.726-2.071.825-2.043.22-2.529-.725-3.518-.825-.556-.056-1.429.517-2.072.6-.6.078-2.207-.164-2.468.214-.13.189-.133.9-.319,1.331-.664,1.533-1.957,2.245-3.249,3.147-.075,4.653-.645,9.5,2.723,13.2,2.371,2.609,4.012,2.448,6.941,3.478,2.153.757,1.458,3.136-.693,2.968-6.731-.526-11.7-7.047-12.107-13.484a49.278,49.278,0,0,1,.052-7.6c.343-1.525,2.625-1.249,3.474-2.716.727-1.256-.227-2.755.513-3.614.962-1.117,2.887.248,4.092.187,1.181-.06,2.715-1.262,3.314-1.224.92.058,1.5,1.528,2.695,1.464,1.007-.054,1.631-1.41,2.494-1.464.6-.038,2.133,1.165,3.314,1.224,1.2.06,3.13-1.3,4.092-.187.783.91-.286,2.288.517,3.61.741,1.219,3.513,1.641,3.513,2.677v6.293c1.52-.413,1.586-2.083,2.264-3,.56-.756,1.466-.891,1.963-2.163,1.047-2.681-1.257-3.362-1.337-4.655-.041-.677.7-1.354.811-2.061a3.556,3.556,0,0,0-.971-3.395c-.629-.53-2-.716-2.3-1.148-.79-1.142.514-3.713-2.175-4.84-2.254-.945-3.4.652-4.7.384-.933-.192-1.589-1.784-3.161-2.009-1.8-.258-2.1.179-3.448.848-1.6.8-1.779-.234-2.936-.655a4.85,4.85,0,0,0-3.378.12c-.816.378-1.518,1.549-2.237,1.7-1.3.268-2.451-1.329-4.7-.384-2.682,1.124-1.384,3.622-2.143,4.821-.2.315-1.784.707-2.333,1.167a3.64,3.64,0,0,0-.937,3.567c.125.61.819,1.214.777,1.889-.058.946-1.752,1.813-1.606,3.669.178,2.272,2.578,2.635,2.839,4.618a1.563,1.563,0,0,1-1.133,1.729c-1.634.317-5.883-.907-7.522-1.548-.747-.292-4.212-2.3-4.511-2.13-.062.036-.559.968-.772,1.2a16.313,16.313,0,0,1-2.743,2c.1,2.9-.5,6.027.7,8.743a9.441,9.441,0,0,0,13.977,3.706c.845-.584,1.6-2.146,2.846-1.764a1.564,1.564,0,0,1,.91,2.175c-.351,1.009-3.514,2.762-3.549,2.992-.165,1.07,2.044,3.116,3.148,3.217.91.084,4.176-1.054,5.109-1.5,1-.484,1.717-1.86,3.054-.89.909.659.722,1.406.189,2.233-.136.211-.516.043-.386.433.806,2.407,5.2,3.692,7.486,3.41,1.2-.149,2.79-1.405,3.606.154,1.484,2.838-4.729,2.9-6.261,2.754A11.384,11.384,0,0,1,44.7,162c-.346-.355-.96-1.645-1.427-1.6-4.068,1.682-8.1,1.5-8.6,6.882-.1,1.074.411,2.972-.833,3.5-2.514,1.066-2.183-2.867-2.066-4.336a8.6,8.6,0,0,1,3.305-5.976c-1.533-.912-2.134-2.4-2.874-3.925a12.316,12.316,0,0,1-14.776-9.372c-.116-.5,0-1.39-.185-1.672-.147-.222-.74-.244-1.012-.432a4.935,4.935,0,0,1-1.783-3.169,75.858,75.858,0,0,1,0-11.143,5.153,5.153,0,0,1,1.994-3.371c.437-.281,1.085-.371,1.42-.644.357-.292.732-1.278,1.132-1.757a11.02,11.02,0,0,1,8.976-3.826c2.087.254,2.491,2.762.182,3.08-2.649.365-4.02-.133-6.253,2-.871.832-1.5,2.636-2.067,3.091-.541.431-2.287.337-2.287,1.22Z" transform="translate(-11.307 -90.408)" fill="#12263f"/>
        <path id="Trazado_998601" data-name="Trazado 998601" d="M163.445,18.111c-1.078,1.338-2.428-.293-3.451-.658-6.014-2.143-5.412,5.547-2.269,8.666,1.8,1.786,4.083,2.783,6.51,1.754,3.154-1.336,5.99-5.828,4.653-9.2-.347-.876-1.321-1.321-.519-2.551,1.5-2.3,3.583,1.46,3.786,3,1.2,9.063-9.817,16.873-17.008,8.548-3.853-4.461-4.369-13.381,3.109-13.626,1.626-.053,7.059,1.751,5.188,4.073" transform="translate(-120.952 -11.141)" fill="#12263f"/>
        <path id="Trazado_998602" data-name="Trazado 998602" d="M13.331,328.44a10.739,10.739,0,0,0,1.716,1.275c.866.507,2.549.582,2.3,2.16-.448,2.832-4.922-.133-5.957-1.185-.488-.5-.893-1.663-1.485-1.522-2.421,1.136-6.372,1.4-6.916,4.656-.213,1.273.473,3.915-.879,4.485a1.71,1.71,0,0,1-1.956-.51,19.827,19.827,0,0,1,.038-5.121c1.144-4.733,5.924-4.987,9.557-6.537,1.029-.439,2.737-2.227,3.529-.212.47,1.2-.82,1.531.054,2.512" transform="translate(0 -257.933)" fill="#12263f"/>
        <path id="Trazado_998603" data-name="Trazado 998603" d="M69.767,45.163l9.641-.031c1.521.1,1.5,2.625.215,2.872H69.729a1.477,1.477,0,0,1,.039-2.839" transform="translate(-54.508 -35.82)" fill="#12263f"/>
        <path id="Trazado_998604" data-name="Trazado 998604" d="M275.163,44.592c2.928.234,6.831-.473,9.64-.031a1.476,1.476,0,0,1,.214,2.87h-9.894c-1.238-.236-1.3-2.6.04-2.84" transform="translate(-217.605 -35.248)" fill="#12263f"/>
        <path id="Trazado_998605" data-name="Trazado 998605" d="M180.3,259.761c1.673-.5,1.9,1.045,3.458,1,1.256-.039,2.711-2.23,3.917-.41,1.314,1.984-2.735,3.594-4.293,3.483-1.248-.089-4.266-1.35-4.017-2.935a1.969,1.969,0,0,1,.934-1.134" transform="translate(-142.342 -206.056)" fill="#12263f"/>
        <path id="Trazado_998606" data-name="Trazado 998606" d="M264.307.071a1.554,1.554,0,0,1,2.053,1.469c-.08,1.456-3.616,2.822-4.627,3.808a1.517,1.517,0,0,1-1.712-2.338A33.128,33.128,0,0,1,264.307.071" transform="translate(-206.121 -0.009)" fill="#12263f"/>
        <path id="Trazado_998607" data-name="Trazado 998607" d="M109.765.055a1.7,1.7,0,0,1,1.077.073,37.759,37.759,0,0,1,4.048,2.76,1.513,1.513,0,0,1-1.618,2.449c-1-.967-4.2-2.237-4.558-3.513a1.532,1.532,0,0,1,1.052-1.77" transform="translate(-86.25 0)" fill="#12263f"/>
        <path id="Trazado_998608" data-name="Trazado 998608" d="M260.115,80.687a1.574,1.574,0,0,1,1.44-2.59,50.872,50.872,0,0,1,4.386,2.847c1.084,1.155.091,2.828-1.612,2.438-.244-.056-4.051-2.5-4.213-2.7" transform="translate(-206.152 -61.953)" fill="#12263f"/>
        <path id="Trazado_998609" data-name="Trazado 998609" d="M114.905,80.687c-.162.19-3.97,2.639-4.213,2.7-1.766.4-2.706-1.288-1.489-2.52a49.444,49.444,0,0,1,4.262-2.765,1.574,1.574,0,0,1,1.44,2.59" transform="translate(-86.234 -61.953)" fill="#12263f"/>
      </g>
    </g>
  </g>
</svg>
