<svg xmlns="http://www.w3.org/2000/svg" xmlns:xlink="http://www.w3.org/1999/xlink" width="85" height="85" viewBox="0 0 85 85">
  <defs>
    <clipPath id="clip-path">
      <rect id="Rect치ngulo_454219" data-name="Rect치ngulo 454219" width="54.146" height="63.611" fill="#12263f"/>
    </clipPath>
  </defs>
  <g id="Grupo_1176584" data-name="Grupo 1176584" transform="translate(-179.668 -5521)">
    <rect id="Rect치ngulo_402006" data-name="Rect치ngulo 402006" width="85" height="85" rx="5" transform="translate(179.668 5521)" fill="#30df8e"/>
    <g id="Grupo_1176454" data-name="Grupo 1176454" transform="translate(195.095 5531.695)">
      <g id="Grupo_1176453" data-name="Grupo 1176453" clip-path="url(#clip-path)">
        <path id="Trazado_988773" data-name="Trazado 988773" d="M22.749,4.931c1.016-5.047,7.575-4.941,8.738,0,1.828-1.464,2.777-6.178,5.862-4.545,1.447.765,1.007,1.993,1.276,3.233.424,1.953,2.525,4.5,2.917,6.573,1.54-2.07,4.117-2.972,6.374-1.4,2.316,1.616,2.405,4.517.763,6.656,1.374-.05,2.924-.391,3.734,1.059A6.794,6.794,0,0,0,53.537,18.2c1.093,1.333.505,2.294-.129,3.576-1.924,3.887-5.919,8.394-7.393,11.959-1.059,2.56-1.664,6-2.543,8.73-.835,2.595-1.736,5.255-2.728,7.793-.862,2.206-1.542,5.718-4.663,4.751-2.515-.779-.962-4.681-.931-6.491l-3.384,5.537c-2.139,1.092-4.011-.1-3.7-2.579.791-6.4,4.235-12.8,2.567-19.573-.641-2.6-2.177-4.55-3.371-6.871l-.385.117c-2.609,3.924-4.051,7.151-3.743,12,.313,4.938,2.38,9.681,2.955,14.328.306,2.479-1.565,3.67-3.7,2.579L19,48.521c0,1.844,1.579,5.469-.8,6.433-3.139,1.272-3.962-2.578-4.79-4.7-.992-2.541-1.892-5.194-2.731-7.79C9.789,39.733,9.19,36.3,8.13,33.738c-.8-1.925-2.894-4.384-4.057-6.277-1.419-2.307-2.8-4.646-4.014-7.073A2.7,2.7,0,0,1,.692,18.1c.162-.21.517-.293.651-.476.4-.541.157-1.181,1.022-1.8,1.067-.761,1.916-.324,3.1-.376C1.6,10.185,8.752,4.963,12.6,10.191c.391-2.077,2.492-4.62,2.917-6.573.247-1.14-.158-2.259,1.039-3.095,3.138-2.193,4.278,3.127,6.19,4.407m7.329,15.594c.218-4.1,1.685-7.907,3.35-11.587.4-.877,3.3-6.182,3.228-6.539C36.35.934,34.8,3.973,34.665,4.162a18.843,18.843,0,0,1-4.227,4.6c-5.336,3.564-9.615-2.242-12-6.378l-.662-.274-.207.576c2.851,5.646,6.109,11.355,6.5,17.836a4.058,4.058,0,0,1,1.785-.383c.574.055,1.079.577,1.281.544.185-.03.424-.372.681-.452a3.245,3.245,0,0,1,2.264.291M26.266,3.28C23.892,3.823,24.482,8.219,27.3,7.9c3.025-.34,2.771-5.494-1.038-4.622M9.973,24.471a4.325,4.325,0,0,1,4.073-4.122c.3-.033.616.146.727.128.372-.06.4-2.65.486-3.215.5-3.441,1.39-6.824,2.22-10.192a2.256,2.256,0,0,0-.648-1.386C15.41,8.062,14.576,11,13.271,13.394c-2.034,3.73-5.717,4.383-9.684,3.94C5.874,19.544,7.4,22.5,9.973,24.471m40.585-7.138c-2.574.371-6.048,0-8.081-1.785-1.727-1.52-2.936-5.339-3.97-7.491l-1.29-2.283-.552,1.3c.83,3.368,1.723,6.751,2.22,10.192.079.549.141,3.008.395,3.182a4.405,4.405,0,0,1,4.983,4.027ZM18.432,25.974c.153.189,3.457-3.067,3.578-3.277.335-.584.065-2.586-.033-3.369A31.627,31.627,0,0,0,18.9,9.814c-.531.013-1.939,9.581-1.979,10.421-.081,1.692.489,1.162,1.108,2.29a4.427,4.427,0,0,1,.4,3.449m18.734-4.556c.376-.9-.851-7.413-1.162-8.79l-.85-2.81a36.561,36.561,0,0,0-2.985,9.51,17.232,17.232,0,0,0-.206,2.979c.086.438,3.585,3.873,3.751,3.667a4.428,4.428,0,0,1,.4-3.449,11.721,11.721,0,0,1,1.048-1.107M8.235,10.048c-2.85.5-2.323,5.3,1.04,4.61,2.808-.578,2.12-5.16-1.04-4.61m36.636,0c-2.287.461-2.415,4.114,0,4.611,3.894.8,3.74-5.366,0-4.611M21.356,26.082c-2.3,2.144-3.325,3.345-6.785,3.092-3.37-.246-6.316-3.227-8.451-5.641-.56-.633-2.8-3.859-3.1-4.04a1.817,1.817,0,0,0-.937-.1,2.135,2.135,0,0,0,.146,1.075c1.521,3.961,5.931,8.421,7.651,12.264,1,2.225,1.52,5.43,2.3,7.847C12.654,42.059,16.2,53,16.838,53.212c.671.224.679-.583.655-1.021C17.329,49.2,16.318,45.8,16,42.774c.333-.921,1.245-1.292,1.952-.45L23.49,52.348c1.007.618.47-1.157.333-1.8-1.579-7.4-4.593-15.066-1.038-22.381.509-1.048,3.224-4.849,3.27-5.478s-.561-.592-1.047-.369c-1.2,1.254-2.381,2.581-3.651,3.762M52.06,19.4a1.817,1.817,0,0,0-.937.1c-.3.181-2.54,3.407-3.1,4.04-1.481,1.675-4.1,4.309-6.17,5.1-6.2,2.374-8.892-2.676-12.717-6.317-.754-.316-1.257-.124-.927.712.616,1.557,2.341,3.473,3.15,5.136,3.547,7.3.537,15-1.038,22.381-.137.642-.674,2.417.333,1.8l5.533-10.024c.708-.842,1.619-.471,1.952.45l-1.5,9.6c-.126.606.4,1.208.857.651,1.651-4.086,3.119-8.243,4.47-12.439.779-2.417,1.3-5.623,2.3-7.847,1.72-3.843,6.129-8.3,7.651-12.264A2.135,2.135,0,0,0,52.06,19.4M15.924,23.031c-2.093-2.093-5.518,1.069-3.422,3.328,2.127,2.291,5.652-1.1,3.422-3.328m22.3,0c-2.231,2.231,1.295,5.619,3.422,3.328,2.1-2.258-1.329-5.42-3.422-3.328" transform="translate(0 0)" fill="#12263f"/>
        <path id="Trazado_988774" data-name="Trazado 988774" d="M135.1,327.074c.977-.228,3.447-.109,2.736,1.412-.37.791-2.324.794-3.014.476a1,1,0,0,1,.277-1.888" transform="translate(-109.022 -265.549)" fill="#12263f"/>
        <path id="Trazado_988775" data-name="Trazado 988775" d="M100.461,324.177c.659-.2,2.8.064,3.029.849.567,1.947-3.11,1.289-3.444.619-.236-.473-.154-1.3.415-1.468" transform="translate(-81.149 -263.218)" fill="#12263f"/>
        <path id="Trazado_988776" data-name="Trazado 988776" d="M170.742,324.265c.775-.073,1.686-.285,1.747.789.1,1.828-4.7,1.825-3.41-.2.3-.475,1.12-.537,1.663-.588" transform="translate(-137.132 -263.287)" fill="#12263f"/>
        <path id="Trazado_988777" data-name="Trazado 988777" d="M68.032,315.63c.56-.56,2.912.176,3.114.837.821,2.69-4.743.794-3.114-.837" transform="translate(-55.006 -256.167)" fill="#12263f"/>
        <path id="Trazado_988778" data-name="Trazado 988778" d="M205.032,315.63c1.629,1.631-3.935,3.527-3.114.837.2-.661,2.554-1.4,3.114-.837" transform="translate(-163.914 -256.167)" fill="#12263f"/>
        <path id="Trazado_988779" data-name="Trazado 988779" d="M41.869,301.485c.728-.076,3.033,1.37,2.049,2.4-1.29,1.355-4.492-2.148-2.049-2.4" transform="translate(-33.277 -244.839)" fill="#12263f"/>
        <path id="Trazado_988780" data-name="Trazado 988780" d="M232.25,301.489a1.023,1.023,0,0,1,1.007,1.164c-.141.967-3.038,2.419-3.2.757-.079-.788,1.548-1.888,2.2-1.92" transform="translate(-186.827 -244.844)" fill="#12263f"/>
        <path id="Trazado_988781" data-name="Trazado 988781" d="M22.3,202.226a1.039,1.039,0,0,1,1.294,1.286c-.52,1.666-3.338,2.209-2.707.129a6.505,6.505,0,0,1,1.413-1.416" transform="translate(-16.891 -164.194)" fill="#12263f"/>
        <path id="Trazado_988782" data-name="Trazado 988782" d="M253.056,202.268c1.12-.341,2.987,2.082,1.748,2.694-1.434.708-3.412-2.188-1.748-2.694" transform="translate(-204.997 -164.239)" fill="#12263f"/>
        <path id="Trazado_988783" data-name="Trazado 988783" d="M21.489,284.258c1.228-.356,3.184,2.036,1.74,2.69-1.3.589-3.221-2.26-1.74-2.69" transform="translate(-17.016 -230.821)" fill="#12263f"/>
        <path id="Trazado_988784" data-name="Trazado 988784" d="M253.966,284.223c2.405-.5.621,3.208-.941,2.751-1.533-.449.033-2.563.941-2.751" transform="translate(-204.962 -230.785)" fill="#12263f"/>
        <path id="Trazado_988785" data-name="Trazado 988785" d="M10.37,224.272a1.453,1.453,0,0,1-1.136.208c-1.531-.448.245-3.962,1.474-2.611.517.568.126,1.956-.338,2.4" transform="translate(-7.018 -179.934)" fill="#12263f"/>
        <path id="Trazado_988786" data-name="Trazado 988786" d="M267.819,224.272c-.464-.448-.855-1.836-.338-2.4,1.229-1.35,3,2.163,1.474,2.611a1.453,1.453,0,0,1-1.136-.208" transform="translate(-217.027 -179.934)" fill="#12263f"/>
        <path id="Trazado_988787" data-name="Trazado 988787" d="M5.834,242.649c1.3.06,1.384,3.11-.005,3.1-1.516-.008-1.418-3.168.005-3.1" transform="translate(-3.84 -197.058)" fill="#12263f"/>
        <path id="Trazado_988788" data-name="Trazado 988788" d="M273.222,242.649c1.424-.066,1.522,3.094.005,3.1-1.389.008-1.305-3.043-.005-3.1" transform="translate(-221.071 -197.058)" fill="#12263f"/>
        <path id="Trazado_988789" data-name="Trazado 988789" d="M9.237,264.227c1.383-.422,2.574,2.481,1,2.9-1.09.29-2.363-2.484-1-2.9" transform="translate(-7.021 -214.55)" fill="#12263f"/>
        <path id="Trazado_988790" data-name="Trazado 988790" d="M268.226,264.119c2.1-.62,1.153,3.056-.2,2.933-1.512-.138-.764-2.649.2-2.933" transform="translate(-216.97 -214.439)" fill="#12263f"/>
      </g>
    </g>
  </g>
</svg>
