<svg xmlns="http://www.w3.org/2000/svg" xmlns:xlink="http://www.w3.org/1999/xlink" width="156" height="156" viewBox="0 0 156 156">
  <defs>
    <clipPath id="clip-path">
      <rect id="Rectángulo_455506" data-name="Rectángulo 455506" width="83.535" height="91.574" fill="#12263f"/>
    </clipPath>
  </defs>
  <g id="Grupo_1176600" data-name="Grupo 1176600" transform="translate(-1234.554 -458.054)">
    <g id="Elipse_12108" data-name="Elipse 12108" transform="translate(1241.554 465.054)" fill="#30df8e" stroke="rgba(255,255,255,0.4)" stroke-width="7">
      <circle cx="71" cy="71" r="71" stroke="none"/>
      <circle cx="71" cy="71" r="74.5" fill="none"/>
    </g>
    <g id="Grupo_1183834" data-name="Grupo 1183834" transform="translate(1270.786 490.267)">
      <g id="Grupo_1183833" data-name="Grupo 1183833" clip-path="url(#clip-path)">
        <path id="Trazado_998562" data-name="Trazado 998562" d="M12.949,151.3c.941-.07,1.376-.6,2.39-.7a6.084,6.084,0,0,1,4.933,1.5c2.095,1.676,5.539,6.365,7.421,7.448.9.52,3.027.724,4.329,1.39,7.131,3.65,6.185,12.41,6.548,19.187h6.405c.346-6.774-.577-15.54,6.548-19.187,1.3-.666,3.426-.87,4.329-1.39,1.882-1.084,5.326-5.772,7.421-7.448a6.084,6.084,0,0,1,4.933-1.5c1.014.1,1.449.627,2.39.7V139.522a9.661,9.661,0,0,1,1.595-3.209,6.468,6.468,0,0,1,11.217,3.437c-.3,5.91.4,12.208,0,18.071-.293,4.226-1.658,5.345-4.338,8.244-3.681,3.982-7.983,7.535-11.439,11.666l-.005,2.168h4.232c.7,0,.987,1.135,1.04,1.705a83.2,83.2,0,0,1-.007,11.91c-.066.563-.167,1.124-.8,1.254-19.633.539-39.361.065-59.029.239-1.28-.126-2.222.017-2.4-1.493a82.822,82.822,0,0,1,0-12.132c.062-.52.461-1.483,1.034-1.483h4.232c-.076-.681.118-1.52-.005-2.168-.153-.8-9.979-10.087-11.439-11.666-2.543-2.75-4.037-4-4.337-8.015-.444-5.911.326-12.333,0-18.3a6.468,6.468,0,0,1,11.217-3.437,9.661,9.661,0,0,1,1.595,3.209Zm23.1,28.595c-.489-5.977.922-14.268-5.952-17.038-1.3-.524-2.625-.578-3.875-1.157l-8.532-8.4c-3.153-1.045-5.794,1.558-4.415,4.644l11.211,11.435c1.012,1.595-.245,3.027-2.053,1.6-1.753-1.387-10.39-9.987-11.283-11.593a7.332,7.332,0,0,1-.728-2.017c-.647-5.292.814-12.431-.049-17.566-.692-4.118-7.1-4.212-7.7.194.292,5.8-.457,12.088-.029,17.832a6.789,6.789,0,0,0,1.493,4.226c3.777,4.76,9.845,9.1,13.844,13.836.768,1.179.361,2.686.456,4Zm29.052,0c.095-1.319-.312-2.826.456-4,4-4.736,10.067-9.075,13.844-13.836a6.789,6.789,0,0,0,1.493-4.226c.428-5.744-.32-12.03-.029-17.832-.611-4.437-7.014-4.289-7.7-.194-.863,5.135.6,12.274-.049,17.566a7.332,7.332,0,0,1-.728,2.017c-.892,1.606-9.53,10.207-11.283,11.593-1.808,1.43-3.064,0-2.053-1.6L70.267,157.95c1.379-3.087-1.263-5.689-4.415-4.644l-8.532,8.4c-1.25.58-2.576.634-3.875,1.157-6.874,2.77-5.463,11.061-5.952,17.038Zm-51.928,2.516v9.722a2.3,2.3,0,0,0,.343.343H40.4l.229-9.835Zm57.19,0-27.222.229v9.837H70.025a2.3,2.3,0,0,0,.343-.343Z" transform="translate(0 -103.46)" fill="#12263f"/>
        <path id="Trazado_998563" data-name="Trazado 998563" d="M96.824,5.043c1.41-.169,4.934,2.324,5.816,2.306,1-.021,1.989-2.946,3.825-2.458,1.126.3,5.67,4.992,6.442,6.143.366.545.952,1.106.73,1.814-.263.84-2.708,2.512-2.625,3.041.934.614,2.147,5.552,2.477,5.771.957.633,3.941-.779,4.482,1.008.564,1.862.493,7.716,0,9.635-.466,1.822-3.253.907-4.695,1.139.354,1.2-2.359,5.506-2.261,6.019.139.728,2.86,2.156,2.612,3.352-.277,1.334-4.623,5.606-5.87,6.5-.563.4-1.427,1.145-2.1,1.015-.944-.183-2.6-2.616-3.026-2.65-.665.732-5.559,2.184-5.732,2.444-.491.736.445,3.651-.713,4.32a23.271,23.271,0,0,1-5.221.74c-.994,0-4.724-.325-5.378-.82-1.049-.8-.064-3.532-.491-4.2-.176-.275-5.35-1.651-6.034-2.485-.841.5-2.132,2.509-3.022,2.647-.862.133-3.472-2.146-4.184-2.821-.863-.818-3.638-3.783-3.675-4.814-.053-1.485,2.742-2.64,2.5-3.6-.076-.3-.769-1.255-.989-1.78-.282-.672-1.135-3.725-1.289-3.858-.484-.418-3.689.734-4.5-.873-.62-1.223-.619-5.781-.516-7.281.352-5.1,1.153-2.894,4.473-3.534.74-.143,1.04-2.191,1.374-2.973a24.046,24.046,0,0,0,1.447-3.059c-.19-.994-3.04-1.809-2.43-3.873a23.973,23.973,0,0,1,1.892-2.454C71.074,8.343,74.6,4.8,75.874,4.818c1.157.013,2.374,2.649,3.37,2.5,1.331-.193,4.055-2.455,5.867-2.278.245-1.03-.45-3.889.491-4.428,1.037-.594,5.42-.663,6.748-.594,4.311.226,4.745.465,4.473,5.021m-2.54-2.265a22.238,22.238,0,0,0-6.634,0V6.1c0,1.1-3.441,1.708-4.343,2.063-1.076.423-3.411,1.99-4.059,2.13-1.712.369-2.759-2.919-3.947-2.37-.12.056-1.273,1.057-1.5,1.26a18.881,18.881,0,0,0-2.633,3.094c.428,1.163,2.825,2.24,2.482,3.6-.133.529-1.252,2-1.6,2.766-.644,1.425-1.02,3.681-1.609,4.8-.142.268-.763.848-.982.848H66.147a19.92,19.92,0,0,0,0,6.634h3.775c.483,0,1.37,3.74,1.675,4.5.337.841,2.078,3.631,2.105,4.1.067,1.164-2.812,2.331-2.432,3.532a24.512,24.512,0,0,0,4.373,4.3c.918-.607,2.171-2.743,3.347-2.59.573.074,3.133,1.673,4.09,2.056.907.363,4.572,1.134,4.572,2.062v3.546a33.672,33.672,0,0,0,6.063,0c.19-.033.571-.186.571-.344v-3.66c0-.317,4.354-1.542,5.028-1.834.811-.352,2.97-1.822,3.547-1.846,1.033-.043,2.348,2.046,3.2,2.61a25.352,25.352,0,0,0,4.651-4.651c-.507-.8-2.693-2.247-2.647-3.161.036-.721,1.308-2.345,1.656-3.131.534-1.205,1.237-4.42,1.705-5.1a1.434,1.434,0,0,1,.586-.389h3.546c.231-.926.461-5.944.129-6.42-.447-.641-3.426.363-4.259-.774-.411-.561-1.081-3.551-1.549-4.627-.366-.84-1.645-2.7-1.769-3.273-.276-1.282,1.952-2.628,2.641-3.55a9.172,9.172,0,0,1-1.251-1.49,25.142,25.142,0,0,0-3.251-2.947c-.951-.255-2.238,2.688-3.6,2.5-.372-.053-2.269-1.337-2.953-1.644-.811-.364-5.416-1.713-5.416-2.133Z" transform="translate(-48.851 0)" fill="#12263f"/>
        <path id="Trazado_998564" data-name="Trazado 998564" d="M120.98,41.182a18.163,18.163,0,0,1,18.314,25.177c-5.817,13.781-25.279,14.737-32.49,1.673a18.187,18.187,0,0,1,14.176-26.85M108.673,65.819V58.384c0-1.361,2.029-3.349,3.417-3.562-.579-1.828-.773-3.556.372-5.23,3-4.381,9.838-1.135,8.565,3.873a6.762,6.762,0,0,1,3.542,0c-.679-8.864,12-7.136,9.055,1.349,1.4.209,3.415,2.426,3.415,3.8V64.9c.333.052.31-.4.389-.638a15.6,15.6,0,1,0-29.384.466c.118.3.282,1.035.629,1.087m7.265-15.741c-2.38.412-2.5,4.258.2,4.52,3.485.338,3.187-5.106-.2-4.52m13.041,0c-2.972.43-2.323,4.871.6,4.525,2.976-.352,2.386-4.957-.6-4.525m-6.87,5.729c-3.082.56-3.052,5.823.633,5.911,4.4.105,3.991-6.75-.633-5.911m-4.514,1.318H112.9c-.674,0-1.592,1.027-1.7,1.729a72.646,72.646,0,0,0-.025,10.522c.148,1.107,1.71,1.941,2.528,2.619v-5.6c0-1.65,2.535-4.479,4.347-4.463-.437-1.6-1.139-3.131-.458-4.8m14.412,14.412c.825-.3,2.419-1.8,2.528-2.619a65.216,65.216,0,0,0-.033-9.827c-.109-.778-.924-1.965-1.695-1.965h-4.69a5.625,5.625,0,0,1-.686,4.8,5.108,5.108,0,0,1,4,2.976,15.016,15.016,0,0,1,.572,1.944Zm-15.761,2.036a18.838,18.838,0,0,0,7.879,1.177c1-.071,4.849-.768,5.252-1.611a35.89,35.89,0,0,0,.11-5.831,3.322,3.322,0,0,0-2.642-3.077,49.588,49.588,0,0,0-7.763-.015c-4.359.5-2.477,6.376-2.836,9.357" transform="translate(-80.625 -31.701)" fill="#12263f"/>
      </g>
    </g>
  </g>
</svg>
