<svg xmlns="http://www.w3.org/2000/svg" xmlns:xlink="http://www.w3.org/1999/xlink" width="80" height="80" viewBox="0 0 80 80">
  <defs>
    <clipPath id="clip-path">
      <rect id="Rect치ngulo_455508" data-name="Rect치ngulo 455508" width="47.962" height="63.858" fill="#12263f"/>
    </clipPath>
  </defs>
  <g id="Grupo_1183148" data-name="Grupo 1183148" transform="translate(-704.52 -3293.691)">
    <g id="Grupo_1183033" data-name="Grupo 1183033" transform="translate(524.852 -2227.309)">
      <rect id="Rect치ngulo_402006" data-name="Rect치ngulo 402006" width="80" height="80" rx="5" transform="translate(179.668 5521)" fill="#fa9757"/>
    </g>
    <g id="Grupo_1183838" data-name="Grupo 1183838" transform="translate(720.539 3301.762)">
      <g id="Grupo_1183837" data-name="Grupo 1183837" clip-path="url(#clip-path)">
        <path id="Trazado_998569" data-name="Trazado 998569" d="M7.2,34.065c-5.559-.433-8.977-5.734-6-10.78.731-1.24,1.621-1.58,1.446-3.3-.053-.517-.344-1.021-.422-1.488A7.308,7.308,0,0,1,3.782,12.49c.792-.918,1.877-1.235,2.21-2.568.364-1.456.116-2.557.783-4.154,2.531-6.052,8.783-6,14.448-5.632A9.257,9.257,0,0,1,29.531,6.48c.454,1.511.148,3.3,1.077,4.5a16.8,16.8,0,0,0,1.364,1.184,7.331,7.331,0,0,1,1.9,6.06c-.064.581-.395,1.069-.464,1.6-.235,1.808.686,2.166,1.45,3.46a6.585,6.585,0,0,1,.923,4.886c5.257.817,9.6,6,9.065,11.375-.032.318-.328.776-.315.955,0,.051.555.361.779.678a3.013,3.013,0,0,1-.093,3.674c.008,2.689.478,5.38.705,8.062-.075.8-.6.874-1.221,1.135a9.407,9.407,0,0,1,3.182,6.373c.083,1.063.368,3.579-1.184,3.429H4.965a5.045,5.045,0,0,1-4.856-4.7c.277-4.779-.349-9.93,0-14.663.606-8.233,8.549-8.21,14.532-10.154.169-.055.48-.039.444-.271-2.566-.147-5.342.2-7.883,0m-.8-2.07h8.679c-.023-.18.094-.356-.095-.492-.354-.254-1.608-.619-2.186-.97a10.362,10.362,0,0,1-4.051-4.867c-.172-.41-.354-1.487-.5-1.692A9.517,9.517,0,0,1,6.1,22.748c-1.818-2.035-1.47-6.317,1.741-6.679,2.809-.317,4.73-.069,7.635-.964,2.317-.714,3.938-2.049,5.917-2.84a1.137,1.137,0,0,1,1.331.071c1.274.744,3.323,3.134,4.469,3.652a8.655,8.655,0,0,0,1.44.152c2.962.622,3,4.942,1.168,6.761a11.151,11.151,0,0,1-1.989,1.073c-.126.176-.215.892-.342,1.214a10.218,10.218,0,0,1-4.21,5.345c-.578.351-1.832.715-2.186.97-.189.136-.072.311-.095.492h4.539c.113,0,1.28-1.338,1.6-1.589a11.149,11.149,0,0,1,6.766-2.391,11.251,11.251,0,0,0-.11-2.36c-.354-1.526-1.83-2.388-2.235-4.134-.644-2.775,1.68-4.681-.686-7.6-.475-.585-1.108-.906-1.593-1.433-1.662-1.808-1.009-3.962-1.879-6.084a7.425,7.425,0,0,0-5.218-4.178,53.253,53.253,0,0,0-7.8-.02,7.136,7.136,0,0,0-6.01,5.138C7.975,8.739,8.206,10,7.58,11.351c-.6,1.3-1.649,1.628-2.435,2.661C2.873,17,5.16,18.786,4.533,21.524c-.378,1.65-1.879,2.583-2.239,4.13a5.145,5.145,0,0,0,4.111,6.341M10.147,17.98c.095,2.426-.4,4.61.475,6.932A7.973,7.973,0,0,0,24.007,27.3c2.53-2.867,1.873-6.131,1.874-9.685-1.1-1.235-2.6-2.067-3.793-3.226-.275-.139-3.062,1.5-3.661,1.758a22.369,22.369,0,0,1-8.279,1.833m-2.069.16c-1.526-.2-1.228,3.269,0,3.5Zm19.906,0v3.5c1.229-.235,1.526-3.707,0-3.5M32.4,30.125A9.156,9.156,0,0,0,25.677,35.5c-.438,1.1-1.488,4.226.307,4.465,2.2.292,5.053-.231,7.33-.012,1.159-.543,1.853-2.65,3.42-1.661.477.3,1.3,1.511,1.712,1.632a22.847,22.847,0,0,0,3.479.041c1.592-.209.9-2.588.59-3.632A8.995,8.995,0,0,0,32.4,30.125m-13.339,1.87H17v2.468a1.95,1.95,0,0,0,1.035.706,1.949,1.949,0,0,0,1.035-.706Zm5.1,2.07H20.977l2.776.8ZM2.185,43.7v8.2H6.007V44.973c0-1.02,1.745-1.556,2.036-.284.338,3.221-.334,7.011.031,10.161.1.825.419.97,1.19,1.039,3.293.3,7.064-.207,10.405-.042a3.512,3.512,0,0,1,2.9-1.878c-.653-.594-.519-1.482-.484-2.314.076-1.825.864-4.869.651-6.53-.063-.495-.408-.743-.563-1.187a3.144,3.144,0,0,1,.119-2.268,14.943,14.943,0,0,1,1.022-1.312c.015-.143-.255-.717-.273-1.112a9.949,9.949,0,0,1,.163-2.468,17.188,17.188,0,0,0-2.782-.644c-.283.029-1.006.752-1.51.881a3.421,3.421,0,0,1-3.257-.868c-3.34,1.217-9.186,1.478-11.639,4.126A8.751,8.751,0,0,0,2.185,43.7m38.7-1.672H37.937c-.654,0-1.686-1.644-2.048-1.581-.486.324-1.364,1.581-1.933,1.581H27.028v4.061a9.439,9.439,0,0,0,.657,1.891,7,7,0,0,0,12.541,0c.937-1.95.616-3.852.657-5.952m-15.926,0a.973.973,0,0,0-.235,1.908c.347.1.22-.183.236-.393.036-.5-.025-1.015,0-1.515m18,1.91a.979.979,0,0,0,.24-1.913c-.365-.059-.222.157-.241.4-.039.5.027,1.016,0,1.515M24.162,51.9H28.3l-.951-.881a13.766,13.766,0,0,1-1.306-1.879c-.312-.59-.993-3.283-1.167-3.288-.228-.007-.345,1.562-.379,1.848-.166,1.389-.247,2.805-.338,4.2m15.447,0h4.14l-.478-5.893h-.476A8.627,8.627,0,0,1,40.56,51.02Zm-33.6,2.07H2.185v5.813c0,.485,1.612,2.106,2.305,1.994l19.345-.091c1.362-.456,1.3-3.119,1.113-4.283a2.039,2.039,0,0,0-3.075-1.183c-.762.492-.7,1.713-1.788,1.716-3.48-.207-7.382.332-10.811.013C7,57.737,5.892,56.207,6.007,53.971m20.543,7.8H45.82a7.066,7.066,0,0,0-4.351-7.354,11.436,11.436,0,0,0-4.475-.458A3,3,0,0,1,31,53.978c-1.375.014-4.123-.2-5.248.711-.254.207-.114.147,0,.316a7.221,7.221,0,0,1,.877,1.2,8.274,8.274,0,0,1-.08,5.574m8.44-7.8-2.069.077c.6,1.218,1.56,1.179,2.069-.077" transform="translate(0 0)" fill="#12263f"/>
        <path id="Trazado_998570" data-name="Trazado 998570" d="M95.216,163.762c.965-.284,1.5.743,2.354.743.77,0,2.276-1.6,2.862-.293.554,1.237-1.413,2.126-2.383,2.226-1.149.119-3.846-.589-3.393-2.115a1.105,1.105,0,0,1,.56-.56" transform="translate(-79.539 -137.628)" fill="#12263f"/>
        <path id="Trazado_998571" data-name="Trazado 998571" d="M77.133,116.323a1.521,1.521,0,0,1-1.125.169c-.886-.265-1.1-3.421.893-2.808.765.236.693,2.179.232,2.639" transform="translate(-63.36 -95.514)" fill="#12263f"/>
        <path id="Trazado_998572" data-name="Trazado 998572" d="M138.13,116.323c-.461-.459-.533-2.4.232-2.639,1.989-.613,1.779,2.543.893,2.808a1.521,1.521,0,0,1-1.125-.169" transform="translate(-115.842 -95.514)" fill="#12263f"/>
        <path id="Trazado_998573" data-name="Trazado 998573" d="M195.5,300.725c1.024-.187,1.3,1.456,2.868.81.469-.194,1.525-1.65,2.152-.319s-1.465,2.41-2.531,2.5c-1.169.1-3.669-.88-3.175-2.384a.947.947,0,0,1,.687-.6" transform="translate(-163.734 -252.78)" fill="#12263f"/>
        <path id="Trazado_998574" data-name="Trazado 998574" d="M182.2,269.91c1.737-.36,1.606,2.379.728,2.648-1.846.567-1.947-2.4-.728-2.648" transform="translate(-152.506 -226.9)" fill="#12263f"/>
        <path id="Trazado_998575" data-name="Trazado 998575" d="M232.2,269.91c1.737-.36,1.606,2.379.728,2.648-1.846.567-1.947-2.4-.728-2.648" transform="translate(-194.543 -226.9)" fill="#12263f"/>
      </g>
    </g>
  </g>
</svg>
