<svg xmlns="http://www.w3.org/2000/svg" xmlns:xlink="http://www.w3.org/1999/xlink" width="70" height="70" viewBox="0 0 70 70">
  <defs>
    <clipPath id="clip-path">
      <rect id="Rectángulo_455511" data-name="Rectángulo 455511" width="45.865" height="45.829" fill="#583f00"/>
    </clipPath>
  </defs>
  <g id="Grupo_1183050" data-name="Grupo 1183050" transform="translate(-269 -958.088)">
    <circle id="Elipse_5614" data-name="Elipse 5614" cx="35" cy="35" r="35" transform="translate(269 958.087)" fill="#fff"/>
    <g id="Grupo_1183844" data-name="Grupo 1183844" transform="translate(281.067 965.939)">
      <g id="Grupo_1183843" data-name="Grupo 1183843" clip-path="url(#clip-path)">
        <path id="Trazado_998589" data-name="Trazado 998589" d="M23.624,2.14H25.4c.124,0,.365.5.372.651.04.891-1.582.734-2.149.725V7.988a5.623,5.623,0,0,1,1.364.872c2.65,2,6.163,4.406,8.55,6.585a2.136,2.136,0,0,1,.29,3.148,8.967,8.967,0,0,1-.921.594,17.96,17.96,0,0,0,.061,2.676L44.6,30.06A2.166,2.166,0,0,1,43,33.671v7.911c3.207-.468,4.083,3.863.75,4.247L1.792,45.814c-3.034-.824-1.9-4.676,1.079-4.232V33.671a2.166,2.166,0,0,1-1.6-3.611l11.638-8.2a17.945,17.945,0,0,0,.061-2.676,8.969,8.969,0,0,1-.921-.594,2.136,2.136,0,0,1,.289-3.148c2.394-2.185,5.9-4.563,8.55-6.585a5.6,5.6,0,0,1,1.364-.872V3.516c-.567.008-2.189.165-2.149-.725.007-.155.248-.651.372-.651h1.777V.478c0-.637,1.376-.637,1.376,0ZM31.65,41.582v-22.3c0-.266-1.866-.772-1.407-1.749s1.261.145,1.629.264c.8.258,1.387-.259,1.044-1.044L23.436,9.38a.964.964,0,0,0-.93-.044l-9.2,7.078c-.98.687-.248,1.872.847,1.3l8.335-6.455a.646.646,0,0,1,.836-.05l5.519,4.227a.688.688,0,0,1-.714,1.175c-1.643-1.092-3.218-2.7-4.854-3.749a.572.572,0,0,0-.376-.154c-2.765,1.888-5.255,4.187-8,6.1a2.874,2.874,0,0,1-.659.315l-.022,9.667c-.156.838-1.258.455-1.258.118V27.135a3.118,3.118,0,0,0-1.068.594c-2.6,1.729-5.1,3.622-7.646,5.425v8.427H5.737V35.448a8.516,8.516,0,0,1,.323-.938,2.832,2.832,0,0,1,4.141-1,3.809,3.809,0,0,1,1.154,1.6v6.478h1.605V31.206c0-.45,1.261-.45,1.261,0V41.582H17.2V33.957a6.169,6.169,0,0,1,3.133-4.664,5.77,5.77,0,0,1,8.186,3.893,30.176,30.176,0,0,1,.118,6.247c-.2,1.1-1.348.5-1.348.257V35.047H23.624v6.535Zm-18.689-18a2.528,2.528,0,0,0-.839.479c-2.958,2-6.385,4.243-9.172,6.421-.493.386-1.226.742-.706,1.467a.731.731,0,0,0,1.074.162l9.643-6.752Zm19.95,0v1.777l9.643,6.752a.731.731,0,0,0,1.074-.162c.52-.725-.212-1.081-.706-1.467-2.787-2.178-6.215-4.417-9.172-6.421-.123-.083-.766-.564-.839-.479m8.714,18V33.155c-2.545-1.8-5.05-3.7-7.646-5.425a3.117,3.117,0,0,0-1.068-.594V41.582h1.605V35.1a3.809,3.809,0,0,1,1.154-1.6,2.832,2.832,0,0,1,4.141,1,8.54,8.54,0,0,1,.323.938v6.134ZM27.178,33.671a4.3,4.3,0,0,0-8.485,0ZM10.094,36.537c.345-2.929-3.409-2.931-2.981,0Zm28.664,0c.428-2.931-3.326-2.929-2.981,0ZM22.248,35.047H18.579v6.535h3.669ZM10.094,37.913H7.113v3.669h2.981Zm28.664,0H35.777v3.669h2.981ZM1.921,42.983A.753.753,0,0,0,2,44.454H43.866a.76.76,0,0,0-.23-1.5Z" transform="translate(0 0)" fill="#583f00"/>
        <path id="Trazado_998590" data-name="Trazado 998590" d="M176.957,143.675a2.819,2.819,0,0,1,3.206,2.009,34,34,0,0,1,.15,6.391.88.88,0,0,1-.658.833,29.334,29.334,0,0,1-4.326.018.877.877,0,0,1-.727-.648c.266-2.444-1.21-8.1,2.355-8.6m1.977,3.524c.384-2.924-3.365-2.923-2.981,0Zm0,1.376h-2.981v2.981h2.981Z" transform="translate(-154.508 -127.172)" fill="#583f00"/>
      </g>
    </g>
  </g>
</svg>
