<svg xmlns="http://www.w3.org/2000/svg" xmlns:xlink="http://www.w3.org/1999/xlink" width="156" height="156" viewBox="0 0 156 156">
  <defs>
    <clipPath id="clip-path">
      <rect id="Rectángulo_455505" data-name="Rectángulo 455505" width="78.613" height="75.406" fill="#12263f"/>
    </clipPath>
  </defs>
  <g id="Grupo_1176599" data-name="Grupo 1176599" transform="translate(-1234.554 -458.054)">
    <g id="Elipse_12108" data-name="Elipse 12108" transform="translate(1241.554 465.054)" fill="#30df8e" stroke="rgba(255,255,255,0.4)" stroke-width="7">
      <circle cx="71" cy="71" r="71" stroke="none"/>
      <circle cx="71" cy="71" r="74.5" fill="none"/>
    </g>
    <g id="Grupo_1183832" data-name="Grupo 1183832" transform="translate(1273.247 498.351)">
      <g id="Grupo_1183831" data-name="Grupo 1183831" clip-path="url(#clip-path)">
        <path id="Trazado_998558" data-name="Trazado 998558" d="M68.891,29.578c-.329-.091-.67-.741-.718-1.1a67.366,67.366,0,0,1,.063-10.466c.408-2.965,3.2-4.856,6.009-5.207C71.211,9.026,72.5,2.118,77.986,1.7c6.221-.479,7.975,6.682,4.949,11.109.543-.018,1.675.626,2.087.56C85.792,13.241,87.72,11.51,89,12c-1.743-2.721-2.632-6.262-.772-9.156,3.088-4.8,10.657-3.2,11.429,2.441.334,2.438-.507,4.6-1.563,6.716a4.6,4.6,0,0,1,1.658.262c1.681.532,1.793,1.4,3.686.739.2-.07.389-.062.515-.3-3.78-4.985.19-13.232,6.726-10.562,4.342,1.774,4.291,7.142,2.165,10.665,2.762.389,5.415,2.295,5.807,5.207a67.271,67.271,0,0,1,.063,10.466c-.044.328-.463,1.1-.718,1.1H106.577c2.67,7.629-4.062,14.2-10.041,17.743a11.333,11.333,0,0,1-3,1.468c-.8.035-2.435-1.021-3.19-1.468-5.991-3.545-12.69-10.088-10.041-17.743ZM93.2,2.139c-5.921.462-4.073,10.011.34,9.869,2.664-.086,4.084-3.7,3.958-5.976a4.225,4.225,0,0,0-4.3-3.893M77.83,3.964c-4.869.789-3.33,9.633,1.357,8.831,2.254-.386,3.2-3.99,2.922-5.932a3.743,3.743,0,0,0-4.279-2.9m29.906,0c-4.6.745-3.25,8.109-.208,8.8,5.336,1.211,6.5-9.819.208-8.8m-5.4,20.764V17.959c0-1.47-2.018-3.36-3.423-3.649-1.872-.385-7.923-.255-10.023-.1-1.835.137-4.336,1.77-4.336,3.747v6.769c.366-.115,2.331-.529,2.4-.633.277-.433-.206-4.124.069-5.083a1.131,1.131,0,0,1,2.175.165c.15.8-.165,4.9.029,5.125.073.084,1.607.584,2.063.866.948.589,1.436,1.387,2.231,1.97A7.7,7.7,0,0,1,97.662,24.3c.429-.492-1.041-7.549,1.754-5.849,1.14.694.046,4.9.519,5.642.067.1,2.033.519,2.4.633m-19.2-9.7H73.943c-1.146,0-3.536,1.926-3.536,3.132v9.194h2.627V21.395c0-1.432,2.223-1.3,2.223-.606v6.264a2.028,2.028,0,0,0,.3.3h6.163a7.181,7.181,0,0,0,.6-1.115c.415-2.13-.216-5.7.007-8.075.108-1.15.639-2.036.8-3.135m33.341,12.326V18.161c0-1.206-2.39-3.132-3.536-3.132h-9.194c.166,1.1.7,1.986.8,3.135.224,2.388-.4,5.917.008,8.075a3.009,3.009,0,0,0,.9,1.116h5.961V21.395c0-1.432,2.223-1.3,2.223-.606v6.264c0,.509,2.392.243,2.829.3M86.927,26.4a6.442,6.442,0,0,0-4.435,3.646c-2.627,6.239,3.9,12.357,8.744,15.176.767.446,1.729,1.283,2.612,1.041a26.769,26.769,0,0,0,4.1-2.578c3.542-2.592,7.36-6.63,7-11.377-.319-4.256-5.032-7.969-8.791-4.756-.85.727-1.715,2.513-2.824,2.451-.895-.051-1.861-1.8-2.622-2.451A4.308,4.308,0,0,0,86.927,26.4" transform="translate(-54.259 0)" fill="#12263f"/>
        <path id="Trazado_998559" data-name="Trazado 998559" d="M259.569,57.342c-2.994-.041-4.163,2.048-4.442,4.752-.548,5.316-.3,10.756-.9,16.075-2.384,3.8-5.265,7.278-7.834,10.958l-2.087,8.419a1.139,1.139,0,0,1-1.92-1.1c.768-5.254,2.962-11.048,3.592-16.227.427-3.508-3.422-4.106-4.741-1.1-2.3,6.611-5.891,13.2-8.1,19.789-1.929,5.763-.468,11.453-.249,17.335a8.789,8.789,0,0,1-.1,2.524,1.117,1.117,0,0,1-2.066-.554c-.564-3.685-.284-7.758-.863-11.472a22.865,22.865,0,0,1,1.207-8.489,200.545,200.545,0,0,1,7.79-19.287c1.362-2.9,4.035-5.471,7.359-3.331,2.79,1.8,1.943,5.1,1.426,7.77.219.3,4.132-5.576,4.439-5.965.518-5.142.259-10.423.816-15.552a9.37,9.37,0,0,1,1.241-4.012c1.67-2.649,7.266-4.637,7.655-.243.685,7.749-.49,16.552-.057,24.41a145.984,145.984,0,0,1-10.02,22.715c-.75,1.386-3.507,5.418-3.476,6.623.052,1.991,1.034,4.773.954,6.722-.04.987-1.3,1.679-1.969.774a47.462,47.462,0,0,1-1.152-8.852,151.873,151.873,0,0,0,10.552-20.565c.444-1.072,2.936-6.973,2.936-7.571Z" transform="translate(-183.406 -43.929)" fill="#12263f"/>
        <path id="Trazado_998560" data-name="Trazado 998560" d="M2.206,82.016c.248,1.578,2.219,5.839,2.936,7.571a146.561,146.561,0,0,0,10.552,20.565c.221.861-.573,6.57-.812,7.778-.326,1.65-1.362,2.147-2.285.567-.035-2.24.874-4.834.93-6.99.032-1.205-2.726-5.237-3.476-6.623A140.376,140.376,0,0,1,0,82L.073,57.049c.471-2.26,3.112-2.077,4.816-1.358a6.96,6.96,0,0,1,3.96,5.942c.463,4.256.276,8.826.634,13.106a18.352,18.352,0,0,0,.358,3.077,51.13,51.13,0,0,0,3.8,5.294,1.754,1.754,0,0,0,.688.623C13.4,80.939,12.8,76.982,16.1,75.5c3.24-1.453,5.444.713,6.752,3.449A190.4,190.4,0,0,1,30.7,98.38a25.9,25.9,0,0,1,1.222,7.076c-.63,4.008-.171,8.753-.869,12.682-.117.656-.634,1.477-1.371,1.28-1.138-.3-.846-2.263-.812-3.261.216-6.3,1.742-11.251-.447-17.521a182.053,182.053,0,0,0-7.795-19.08c-1.278-2.524-3.653-3.423-4.871-.356.814,5.9,2.476,11.717,3.633,17.58a1.11,1.11,0,0,1-1.923.89c-1.114-2.374-1-6.174-2.087-8.42-1.7-3.49-6.087-7.276-7.834-10.958-.6-5.32-.35-10.76-.9-16.075-.279-2.7-1.448-4.793-4.442-4.752Z" transform="translate(0 -44.052)" fill="#12263f"/>
        <path id="Trazado_998561" data-name="Trazado 998561" d="M172.656,159.323c-.115.767.293,2.322-.29,2.842-.675.6-4.844.649-5.269-.212-.272-.551.027-2.506-.1-2.631-.808-.051-2.714.275-3.134-.6a21.387,21.387,0,0,1,0-4.851c.41-.843,2.379-.1,2.944-.491.548-.382-.268-2.627.592-3.045a21.5,21.5,0,0,1,4.851,0c.86.418.044,2.663.592,3.045.565.393,2.534-.352,2.944.491a21.387,21.387,0,0,1,0,4.851c-.419.88-2.326.554-3.134.6m-2.221-6.87H169.22c.235,2.733-.432,3.6-3.233,3.233V157.1c3.014-.332,3.447.279,3.233,3.233h1.215c-.253-3,.206-3.54,3.233-3.233v-1.416c-2.94.325-3.465-.339-3.233-3.233" transform="translate(-130.644 -119.844)" fill="#12263f"/>
      </g>
    </g>
  </g>
</svg>
