<svg xmlns="http://www.w3.org/2000/svg" xmlns:xlink="http://www.w3.org/1999/xlink" width="70" height="70" viewBox="0 0 70 70">
  <defs>
    <clipPath id="clip-path">
      <rect id="Rectángulo_455512" data-name="Rectángulo 455512" width="44.377" height="44.626" fill="#583f00"/>
    </clipPath>
  </defs>
  <g id="Grupo_1183051" data-name="Grupo 1183051" transform="translate(-269 -958.088)">
    <circle id="Elipse_5614" data-name="Elipse 5614" cx="35" cy="35" r="35" transform="translate(269 958.087)" fill="#fff"/>
    <g id="Grupo_1183846" data-name="Grupo 1183846" transform="translate(281.811 969.725)">
      <g id="Grupo_1183845" data-name="Grupo 1183845" clip-path="url(#clip-path)">
        <path id="Trazado_998591" data-name="Trazado 998591" d="M23.9,3.934a.914.914,0,0,1,.568-.564c.84-.165,4.6.2,4.974-.057.225-.9-.031-1.358.569-2.2,1.727-2.421,5.185-.543,4.706,2.254.172.171,4.14-.1,4.85-.007a.715.715,0,0,1,.692.692l0,14.852a.825.825,0,0,1-.694.816H33.834l2.706,2.766,1.133-1.254a4.022,4.022,0,1,1,4.337,6.732c.846,1.327,2.05,1.929,2.251,3.657-.209,3.482.324,7.377.019,10.81a2.041,2.041,0,0,1-1.969,2.057,46.894,46.894,0,0,1-6.659.019c-1.048-.074-1.865-.388-2.166-1.482L33.457,30.35,32.2,26.389c-.076-.057-.291.256-.354.336-1.475,1.88-3.95,5.9-4.368,8.212-.426,2.355.221,5.56-.057,7.994-.123,1.077-.948,1.492-1.945,1.577a51.348,51.348,0,0,1-6.8,0,1.9,1.9,0,0,1-1.948-1.574c-.312-2.585.446-5.994-.187-8.493-.767-3.029-2.78-5.344-4.4-7.926-.188.441-.371.9-.529,1.356-1.493,4.293-.256,10.1-.66,14.687A2.013,2.013,0,0,1,8.987,44.5a48.065,48.065,0,0,1-6.916,0A2,2,0,0,1,.12,42.679c.284-3.56-.379-7.707,0-11.2.151-1.394,1.331-2.469,2.263-3.4-6.2-3.914,1.325-11.6,5.348-5.474l2.7-2.891h-5.6c-.294,0-.829-.435-.7-.811V3.927c-.019-.431.341-.52.7-.561,1.784-.2,4.025.1,5.852.065.895.426-.409,3.22,1.572,3.22,2.025,0,.61-2.943,1.66-3.258,1.818.075,3.849-.182,5.642-.03a1.127,1.127,0,0,1,.689.191c.317.32.034,5.434.1,6.266-.313,1.091-3.256-.389-3.256,1.662,0,1.959,2.8.712,3.221,1.571l.037,6.2c-.272.9-3.088.192-3.6.49-.131.077-1.307,2.088-1.516,2.409l2.747,3.225c1.047-4.443,6.884-4.615,7.929.063.121.541.29-.034.43-.191a32.732,32.732,0,0,0,2.52-3.026c.08-.123.174-.216.137-.379a19.505,19.505,0,0,0-1.453-2.065c-.593-.289-3.649.374-3.649-.754V14.061c-4.353.5-4.311-5.583,0-5.158Zm6.227.818c-1.373.239-3.4-.178-4.843,0V9.847c0,.624-2.138.345-2.609.536a1.271,1.271,0,0,0-.03,2.229c.475.216,2.639-.22,2.639.631v5.095h1.761a6.522,6.522,0,0,1,.181-.763,2.985,2.985,0,0,1,2.4-1.387c1.289.045,2.683,2.15,2.892,2.15h6.353V4.752H34.022c-.992,0-.616-1.715-.7-2.319a1.262,1.262,0,0,0-2.508.243c-.088.778.361,1.892-.692,2.075m-20.442,0H5.4V18.338h6.478c.129,0,1.49-1.6,1.83-1.818,1.271-.829,2.885.049,3.5,1.267a5.206,5.206,0,0,1,.139.551h1.761V14.061c-4.495.5-4.462-5.655,0-5.158V4.752H14.839c.377,4.332-5.535,4.332-5.158,0m4.87,12.855L8.164,24.054c-.156,1.805-.862,3.361-2.636,4.031a16.72,16.72,0,0,0-1.7.436,18.913,18.913,0,0,0-2.095,2.308,2.308,2.308,0,0,0-.232.9c-.3,3.41.241,7.248,0,10.705a.612.612,0,0,0,.258.622L9,43.125l.5-.257.094-12.862c.517-4.109,2.815-6.258,4.977-9.364.28-.4,1.5-2.066,1.35-2.426a1.341,1.341,0,0,0-1.363-.609m17.1,1.784a17.4,17.4,0,0,0-1.8-1.784c-.476-.144-1.453.227-1.421.782a7.117,7.117,0,0,0,.9,1.624c2.36,3.614,5.107,5.746,5.516,10.585l.058,12.27c.116.21.284.229.5.257a46.974,46.974,0,0,0,6.678,0c.8-.067.766-.186.818-.943a82.106,82.106,0,0,0,0-10.325c-.12-1.344-1.33-2.174-2.213-3.076-.1-.1-.159-.324-.208-.351-.118-.067-1.174-.115-1.573-.252a4.188,4.188,0,0,1-2.486-2.42c-.2-.594-.1-1.4-.258-1.755-.143-.318-3.9-3.986-4.512-4.609M3.484,21.764a2.663,2.663,0,0,0,.026,5.2c4.162.738,4.253-5.924-.026-5.2m36.1,0c-2.853.485-2.684,5.158.472,5.261,3.883.127,3.617-5.956-.472-5.261M18.109,35.131v7.8a1.262,1.262,0,0,0,.189.189h7.548c.155,0,.3-.52.317-.689.321-2.748-.476-6.09.285-8.772.935-3.3,3.182-5.719,4.854-8.619.075-.5-1.122-1.367-1.244-1.92-.221-.044-.311.115-.44.249-1.867,1.928-4.358,6.451-7.288,6.674-2.269.173-3.377-1.318-4.72-2.839-1.081-1.224-2.042-2.577-3.082-3.837-.111-.136-.162-.168-.321-.062a14.039,14.039,0,0,0-1.329,1.832c1.425,2.454,3.32,4.554,4.353,7.226a14.758,14.758,0,0,1,.878,2.77M21.473,23.4a2.521,2.521,0,0,0-.934,4.648,2.548,2.548,0,0,0,2.814.125c2.555-1.343,1.022-5.268-1.88-4.773" transform="translate(0 0)" fill="#583f00"/>
      </g>
    </g>
  </g>
</svg>
