<svg xmlns="http://www.w3.org/2000/svg" xmlns:xlink="http://www.w3.org/1999/xlink" width="156" height="156" viewBox="0 0 156 156">
  <defs>
    <clipPath id="clip-path">
      <rect id="Rectángulo_455513" data-name="Rectángulo 455513" width="84.319" height="84.478" fill="#12263f"/>
    </clipPath>
  </defs>
  <g id="Grupo_1183543" data-name="Grupo 1183543" transform="translate(-1234.554 -458.054)">
    <g id="Elipse_12108" data-name="Elipse 12108" transform="translate(1241.554 465.054)" fill="#30df8e" stroke="rgba(255,255,255,0.4)" stroke-width="7">
      <circle cx="71" cy="71" r="71" stroke="none"/>
      <circle cx="71" cy="71" r="74.5" fill="none"/>
    </g>
    <g id="Grupo_1183848" data-name="Grupo 1183848" transform="translate(1270.394 493.814)">
      <g id="Grupo_1183847" data-name="Grupo 1183847" clip-path="url(#clip-path)">
        <path id="Trazado_998592" data-name="Trazado 998592" d="M50.184,53.453c-.3,2.334-.221,4.683-.457,7.029-.96,9.527-5.123,23.147-16.533,23.96-14.5,1.033-26.941-20.9-31.2-32.481-.459-1.246-2.17-6.029-1.974-7.01C.407,43,8.367,38.507,10.34,37.546a65.1,65.1,0,0,1,24.44-6.458c.132-.131-.391-3.146-.421-3.692a90.58,90.58,0,0,1,.658-16.843c.294-2.105.98-6.762,1.765-8.569C37.168,1.1,37.874,1,38.744.781c11.879-2.989,34.325,3,43.587,11.121.5.438,1.858,1.685,1.974,2.258.194.951-1.661,6.024-2.127,7.278C78.062,32.529,67.226,51.385,54.44,53.385a14.086,14.086,0,0,1-4.256.068M38.606,9.606c-1.587,10.189-1.932,22.617,2.463,32.17,8,17.38,22.8,4.731,29.861-5.645A72.016,72.016,0,0,0,80.725,15C70.8,6.895,55.7,2.647,42.89,3.451a28.456,28.456,0,0,0-3.243.448c-.086.08-.322,1.951-.438,2.3,1.4.048,5-1.211,5.429.794.64,3.019-4.223,2.1-6.032,2.612m8.171,42.806c-1.069-.154-1.869-1-2.826-1.45a8.689,8.689,0,0,1-12.024,1.01c-1.139-.945-3.268-3.132-1.476-4.437,1.644-1.2,2.415.818,3.374,1.7a5.236,5.236,0,0,0,7.664-.53A28.717,28.717,0,0,1,36.362,38.68c-.208-.68-.99-4.324-1.255-4.374a63.359,63.359,0,0,0-25.778,7.5c-.765.429-5.687,3.539-5.778,3.977-.138.665.715,1.84.649,2.6,1.246-.56,4.475-4.07,5.532-1.634,1.076,2.48-3.274,3.4-4.237,5.07a84.227,84.227,0,0,0,6.712,13.335c4.583,7.216,14.835,19.754,24.613,14.9,8.492-4.213,9.993-19.282,9.955-27.644" transform="translate(0 0)" fill="#12263f"/>
        <path id="Trazado_998593" data-name="Trazado 998593" d="M216.922,160.422c1.794-.346,2.023,1.97,2.8,3.026a5.338,5.338,0,0,0,5.538,1.954c1.613-.271,3.529-3.1,4.9-1.211,1.087,1.5-.732,2.874-1.934,3.539a8.492,8.492,0,0,1-10.824-1.956c-.987-1.186-3.086-4.847-.472-5.352" transform="translate(-170.176 -126.561)" fill="#12263f"/>
        <path id="Trazado_998594" data-name="Trazado 998594" d="M277.366,107.616c-1.083-.99-.16-2.324.561-3.206A8.7,8.7,0,0,1,290.9,104.1c.956,1.059,2.084,3.291.113,3.917-1.55.493-1.871-1.019-2.639-1.814a5.438,5.438,0,0,0-6.681-.761c-1.37.841-2.509,3.843-4.332,2.178" transform="translate(-218.477 -79.97)" fill="#12263f"/>
        <path id="Trazado_998595" data-name="Trazado 998595" d="M201.012,82.7a2.024,2.024,0,0,1-2.419,0c-.564-.519-.4-1.8-.567-2.49a5.423,5.423,0,0,0-5.5-4c-1.448.084-3.2,1.69-4.319.329-1.312-1.59.508-2.732,1.906-3.161a8.566,8.566,0,0,1,10.641,4.744c.454,1.122,1.23,3.615.262,4.576" transform="translate(-148.154 -57.572)" fill="#12263f"/>
        <path id="Trazado_998596" data-name="Trazado 998596" d="M221.44,30.4c-1.214,1.5-4.049-.485-2.565-2.252,1.446-1.722,3.935.555,2.565,2.252" transform="translate(-172.382 -21.726)" fill="#12263f"/>
        <path id="Trazado_998597" data-name="Trazado 998597" d="M58.685,235.687c1.676-.093,1.88,1.666,1.706,2.942a8.825,8.825,0,0,1-8.7,7.343c-1.71-.04-6.487-1.3-4.534-3.71,1.031-1.274,2.59.086,3.747.272a5.447,5.447,0,0,0,5.789-2.968c.529-1.23.143-3.775,2-3.879" transform="translate(-36.844 -185.977)" fill="#12263f"/>
        <path id="Trazado_998598" data-name="Trazado 998598" d="M125.011,313.336a11.6,11.6,0,0,1,2.843,0c1.794.244,6.723,2.481,4.688,4.79-1.3,1.477-3.048-.917-4.354-1.326a5.574,5.574,0,0,0-5.528,1.355c-1.064,1.094-1.658,4.583-3.7,3.236-1.344-.884-.721-2.3-.123-3.478a9.066,9.066,0,0,1,6.179-4.577" transform="translate(-93.235 -247.184)" fill="#12263f"/>
        <path id="Trazado_998599" data-name="Trazado 998599" d="M53.591,206.926c1.564,1.564-1,4.032-2.476,2.371-1.545-1.734,1.067-3.781,2.476-2.371" transform="translate(-39.961 -162.913)" fill="#12263f"/>
      </g>
    </g>
  </g>
</svg>
